<?xml version="1.0" encoding="UTF-8"?>
<svg width="1366px" height="693px" viewBox="0 0 1366 693" version="1.1" xmlns="http://www.w3.org/2000/svg" xmlns:xlink="http://www.w3.org/1999/xlink">
    <title>Slide 1</title>
    <g id="Slide-1" stroke="none" stroke-width="1" fill="none" fill-rule="evenodd">
        <rect fill="#FFFFFF" x="0" y="0" width="1366" height="693"></rect>
        <g id="Dashboard-background-map" transform="translate(-124.932371, 0.000000)">
            <rect id="Rectangle" fill="#232F40" x="124.932371" y="0" width="1367" height="694"></rect>
            <g id="Background-Lines" transform="translate(0.932371, 0.000000)" stroke="#FFFFFF" stroke-dasharray="0,30" stroke-linecap="square" stroke-width="0.7">
                <line x1="191.894112" y1="2.93817442" x2="122.472977" y2="64.4418652" id="Line-8" transform="translate(157.183545, 33.690020) rotate(-4.000000) translate(-157.183545, -33.690020) "></line>
                <line x1="285.865534" y1="9.12444456" x2="116.34571" y2="156.176041" id="Line-8" transform="translate(201.105622, 82.650243) rotate(-6.000000) translate(-201.105622, -82.650243) "></line>
                <line x1="377.343578" y1="18.0264723" x2="106.950061" y2="251.263583" id="Line-8" transform="translate(242.146819, 134.645028) rotate(-8.000000) translate(-242.146819, -134.645028) "></line>
                <line x1="467.212034" y1="30.7141796" x2="93.9198578" y2="351.828724" id="Line-8" transform="translate(280.565946, 191.271452) rotate(-10.000000) translate(-280.565946, -191.271452) "></line>
                <line x1="557.816297" y1="46.0537433" x2="75.7834542" y2="460.034991" id="Line-8" transform="translate(316.799876, 253.044367) rotate(-12.000000) translate(-316.799876, -253.044367) "></line>
                <line x1="649.598223" y1="65.3187354" x2="53.1990241" y2="576.91916" id="Line-8" transform="translate(351.398623, 321.118948) rotate(-14.000000) translate(-351.398623, -321.118948) "></line>
                <line x1="732.126054" y1="77.5178758" x2="96.545118" y2="615.3728" id="Line-8" transform="translate(414.335586, 346.445338) rotate(-16.000000) translate(-414.335586, -346.445338) "></line>
                <line x1="805.163331" y1="84.2757824" x2="181.475076" y2="608.359854" id="Line-8" transform="translate(493.319203, 346.317818) rotate(-18.000000) translate(-493.319203, -346.317818) "></line>
                <line x1="875.985391" y1="89.7884552" x2="260.86926" y2="602.974758" id="Line-8" transform="translate(568.427325, 346.381607) rotate(-20.000000) translate(-568.427325, -346.381607) "></line>
                <line x1="943.152654" y1="95.6876202" x2="336.878694" y2="597.719926" id="Line-8" transform="translate(640.015674, 346.703773) rotate(-22.000000) translate(-640.015674, -346.703773) "></line>
                <line x1="1009.06301" y1="100.904066" x2="410.708087" y2="592.582505" id="Line-8" transform="translate(709.885546, 346.743285) rotate(-24.000000) translate(-709.885546, -346.743285) "></line>
                <line x1="1072.43284" y1="106.004011" x2="480.99379" y2="588.200052" id="Line-8" transform="translate(776.713314, 347.102031) rotate(-26.000000) translate(-776.713314, -347.102031) "></line>
                <line x1="1198.12761" y1="114.140483" x2="618.397899" y2="579.239388" id="Line-8" transform="translate(908.262755, 346.689935) rotate(-30.000000) translate(-908.262755, -346.689935) "></line>
                <line x1="1256.93234" y1="117.886334" x2="682.039232" y2="575.344075" id="Line-8" transform="translate(969.485785, 346.615204) rotate(-32.000000) translate(-969.485785, -346.615204) "></line>
                <line x1="1315.58135" y1="121.437417" x2="744.879968" y2="571.836605" id="Line-8" transform="translate(1030.230661, 346.637011) rotate(-34.000000) translate(-1030.230661, -346.637011) "></line>
                <line x1="1373.16814" y1="124.827338" x2="805.620416" y2="569.093475" id="Line-8" transform="translate(1089.394280, 346.960406) rotate(-36.000000) translate(-1089.394280, -346.960406) "></line>
                <line x1="1429.49232" y1="127.569692" x2="864.937358" y2="565.87789" id="Line-8" transform="translate(1147.214839, 346.723791) rotate(-38.000000) translate(-1147.214839, -346.723791) "></line>
                <line x1="1485.07834" y1="130.27976" x2="923.579757" y2="562.619328" id="Line-8" transform="translate(1204.329046, 346.449544) rotate(-40.000000) translate(-1204.329046, -346.449544) "></line>
                <line x1="1540.37213" y1="132.944894" x2="981.228828" y2="559.966372" id="Line-8" transform="translate(1260.800477, 346.455633) rotate(-42.000000) translate(-1260.800477, -346.455633) "></line>
                <line x1="1596.51684" y1="134.837637" x2="1037.92406" y2="558.136028" id="Line-8" transform="translate(1317.220450, 346.486833) rotate(-44.000000) translate(-1317.220450, -346.486833) "></line>
                <line x1="1652.86775" y1="136.990723" x2="1094.20306" y2="557.151672" id="Line-8" transform="translate(1373.535407, 347.071197) rotate(-46.000000) translate(-1373.535407, -347.071197) "></line>
                <line x1="1708.33412" y1="138.938773" x2="1150.93497" y2="554.887346" id="Line-8" transform="translate(1429.634546, 346.913059) rotate(-48.000000) translate(-1429.634546, -346.913059) "></line>
                <line x1="1630.3163" y1="386.496602" x2="1321.44164" y2="615.271602" id="Line-8" transform="translate(1475.878971, 500.884102) rotate(-50.000000) translate(-1475.878971, -500.884102) "></line>
                <line x1="1148.27037" y1="122.631499" x2="540.376534" y2="570.530515" id="Line-8" transform="translate(844.323454, 346.581007) rotate(-30.000000) translate(-844.323454, -346.581007) "></line>
            </g>
            <g id="Map" transform="translate(172.932371, 170.000000)" fill="#232F40" stroke="#FFFFFF" stroke-width="0.3">
                <path d="M208.544278,77.097962 C171.918925,73.5475298 135.385831,67.404295 135.385831,67.404295 C135.385831,67.404295 81.733628,84.8682823 81.733628,84.8682823 C81.733628,84.8682823 91.7762198,101.136836 91.7762198,101.136836 C91.7762198,101.136836 48.3213749,102.314516 48.3213749,102.314516 C48.3213749,102.314516 69.4612599,110.345228 69.4612599,110.345228 C69.4612599,110.345228 21.5182018,129.803577 21.5182018,129.803577 C21.5182018,129.803577 0,172.484119 0,172.484119 C0,172.484119 90.3890582,133.135406 90.3890582,133.135406 C90.3890582,133.135406 140.825568,145.214022 140.825568,145.214022 C140.825568,145.214022 148.403368,199.748297 148.403368,199.748297 C148.403368,199.748297 123.434459,261.443338 123.434459,261.443338 C123.434459,261.443338 117.066126,314.261396 117.066126,314.261396 C117.066126,314.261396 132.605775,337.726225 132.605775,337.726225 C132.605775,337.726225 151.160495,405.138044 151.160495,405.138044 C151.160495,405.138044 151.235012,346.502603 151.235012,346.502603 C151.235012,346.502603 170.936147,397.492002 170.936147,397.492002 C170.936147,397.492002 195.66431,454.943845 195.66431,454.943845 C195.66431,454.943845 246.032035,465.028099 246.032035,465.028099 C246.032035,465.028099 323.953834,525.575051 323.953834,525.575051 C323.953834,525.575051 343.156279,524.705106 343.156279,524.705106 C343.156279,524.705106 322.33739,580.849074 322.33739,580.849074 C322.33739,580.849074 317.264505,621.109157 317.264505,621.109157 C317.264505,621.109157 361.670874,695.865202 361.670874,695.865202 C361.670874,695.865202 393.013849,709.399644 393.013849,709.399644 C393.013849,709.399644 409.74577,882.743478 409.74577,882.743478 C409.74577,882.743478 448.987541,971.241095 448.987541,971.241095 C448.987541,971.241095 501.115013,982 501.115013,982 C501.115013,982 463.650184,953.528552 463.650184,953.528552 C463.650184,953.528552 472.500504,925.820525 472.500504,925.820525 C472.500504,925.820525 461.494924,879.748975 461.494924,879.748975 C461.494924,879.748975 496.540818,862.142956 496.540818,862.142956 C496.540818,862.142956 537.112431,787.315896 537.112431,787.315896 C537.112431,787.315896 537.485015,758.015929 537.485015,758.015929 C537.485015,758.015929 582.390075,742.285913 582.390075,742.285913 C582.390075,742.285913 590.776961,675.936763 590.776961,675.936763 C590.776961,675.936763 612,622.923485 612,622.923485 C612,622.923485 526.376879,583.091161 526.376879,583.091161 C526.376879,583.091161 493.318203,532.310892 493.318203,532.310892 C493.318203,532.310892 450.842086,526.071907 450.842086,526.071907 C450.842086,526.071907 436.868625,504.119159 436.868625,504.119159 C436.868625,504.119159 375.212167,492.080555 375.212167,492.080555 C375.212167,492.080555 341.537678,508.605852 341.537678,508.605852 C341.537678,508.605852 310.326443,502.087741 310.326443,502.087741 C310.326443,502.087741 312.319076,465.108706 312.319076,465.108706 C312.319076,465.108706 280.016399,460.208492 280.016399,460.208492 C280.016399,460.208492 295.922413,418.908172 295.922413,418.908172 C295.922413,418.908172 277.237728,415.842954 277.237728,415.842954 C277.237728,415.842954 261.647131,442.478818 261.647131,442.478818 C261.647131,442.478818 236.323674,433.495094 236.323674,433.495094 C236.323674,433.495094 235.793254,378.908121 235.793254,378.908121 C235.793254,378.908121 267.66714,358.550951 267.66714,358.550951 C267.66714,358.550951 289.022456,362.608859 289.022456,362.608859 C289.022456,362.608859 312.42253,353.980974 312.42253,353.980974 C312.42253,353.980974 322.68843,367.995248 322.68843,367.995248 C322.68843,367.995248 337.858004,396.381278 337.858004,396.381278 C337.858004,396.381278 348.769616,375.710103 348.769616,375.710103 C348.769616,375.710103 346.649993,344.135717 346.649993,344.135717 C346.649993,344.135717 382.318612,318.348681 382.318612,318.348681 C382.318612,318.348681 391.47557,290.315303 391.47557,290.315303 C391.47557,290.315303 433.886741,271.310769 433.886741,271.310769 C433.886741,271.310769 461.853596,246.905353 461.853596,246.905353 C461.853596,246.905353 497.714058,248.4947 497.714058,248.4947 C497.714058,248.4947 484.823195,236.490057 484.823195,236.490057 C484.823195,236.490057 481.075253,225.920174 481.075253,225.920174 C481.075253,225.920174 483.433509,212.297199 483.433509,212.297199 C483.433509,212.297199 443.268295,231.775155 443.268295,231.775155 C443.268295,231.775155 476.461681,203.939841 476.461681,203.939841 C476.461681,203.939841 517.333436,204.683791 517.333436,204.683791 C517.333436,204.683791 517.51592,219.335736 517.51592,219.335736 C517.51592,219.335736 526.803892,231.379026 526.803892,231.379026 C526.803892,231.379026 549.104382,215.615987 549.104382,215.615987 C549.104382,215.615987 540.125229,197.287771 540.125229,197.287771 C540.125229,197.287771 537.83716,178.882262 537.83716,178.882262 C537.83716,178.882262 527.150143,166.848634 527.150143,166.848634 C527.150143,166.848634 520.959722,128.994153 520.959722,128.994153 C520.959722,128.994153 490.887281,153.211166 490.887281,153.211166 C490.887281,153.211166 487.265674,128.684979 487.265674,128.684979 C487.265674,128.684979 457.436546,126.124633 457.436546,126.124633 C457.436546,126.124633 437.784414,152.351276 437.784414,152.351276 C437.784414,152.351276 421.842792,183.379776 421.842792,183.379776 C421.842792,183.379776 405.461337,197.872303 405.461337,197.872303 C405.461337,197.872303 405.882454,172.114252 405.882454,172.114252 C405.882454,172.114252 360.88843,163.510522 360.88843,163.510522 C360.88843,163.510522 381.953644,126.578732 381.953644,126.578732 C381.953644,126.578732 422.212439,115.516103 422.212439,115.516103 C422.212439,115.516103 444.764026,100.714402 444.764026,100.714402 C444.764026,100.714402 474.662028,86.7681664 474.662028,86.7681664 C474.662028,86.7681664 468.504885,68.0858994 468.504885,68.0858994 C468.504885,68.0858994 437.574861,78.9530373 437.574861,78.9530373 C437.574861,78.9530373 427.914968,64 427.914968,64 C427.914968,64 405.848957,85.147351 405.848957,85.147351 C405.848957,85.147351 373.528328,90.1949041 373.528328,90.1949041 C373.528328,90.1949041 346.665167,80.0365907 346.665167,80.0365907 C346.665167,80.0365907 321.127017,89.6215237 321.127017,89.6215237 C321.127017,89.6215237 287.109675,75.3818258 287.109675,75.3818258 C287.109675,75.3818258 264.994186,77.7339874 246.18304,78.144887 C227.371893,78.5557866 245.169631,80.6483942 208.544278,77.097962 Z" id="Path-2"></path>
                <path d="M1024.20929,112.750482 C1024.20929,112.750482 1003.45731,95.8398595 1003.45731,95.8398595 C1003.45731,95.8398595 1038.16037,98.775563 1038.16037,98.775563 C1038.16037,98.775563 1040.53223,86.9890773 1040.53223,86.9890773 C1040.53223,86.9890773 993.066977,72.3590836 993.066977,72.3590836 C993.066977,72.3590836 963.215236,62.4553301 963.215236,62.4553301 C963.215236,62.4553301 931.983419,73.3004497 931.983419,73.3004497 C931.983419,73.3004497 895.516671,111.134632 895.516671,111.134632 C895.516671,111.134632 864.088368,126.589534 864.088368,126.589534 C864.088368,126.589534 876.364026,154.738321 876.364026,154.738321 C876.364026,154.738321 904.611136,140.821631 904.611136,140.821631 C904.611136,140.821631 911.73607,171.474258 911.73607,171.474258 C911.73607,171.474258 928.666559,158.285428 928.666559,158.285428 C928.666559,158.285428 941.728158,134.891995 941.728158,134.891995 C941.728158,134.891995 932.53545,118.864509 932.53545,118.864509 C932.53545,118.864509 956.778001,100.095416 956.778001,100.095416 C956.778001,100.095416 952.445967,118.495727 952.445967,118.495727 C952.445967,118.495727 956.852853,141.782407 956.852853,141.782407 C956.852853,141.782407 994.133612,134.067087 994.133612,134.067087 C994.133612,134.067087 983.467264,145.644919 983.467264,145.644919 C983.467264,145.644919 963.654989,148.279774 963.654989,148.279774 C963.654989,148.279774 950.715024,173.997507 950.715024,173.997507 C950.715024,173.997507 919.810683,184.959084 919.810683,184.959084 C919.810683,184.959084 901.378484,177.811495 901.378484,177.811495 C901.378484,177.811495 896.410211,153.05939 896.410211,153.05939 C896.410211,153.05939 885.477204,159.479119 885.477204,159.479119 C885.477204,159.479119 891.105106,177.064225 891.105106,177.064225 C891.105106,177.064225 871.348971,184.289453 871.348971,184.289453 C871.348971,184.289453 854.68514,200.215038 854.68514,200.215038 C854.68514,200.215038 839.911312,212.360601 839.911312,212.360601 C839.911312,212.360601 808.511079,217.581787 808.511079,217.581787 C808.511079,217.581787 834.858831,234.143036 834.858831,234.143036 C834.858831,234.143036 829.609865,255.37715 829.609865,255.37715 C829.609865,255.37715 788.034496,251.587423 788.034496,251.587423 C788.034496,251.587423 782.266247,290.377529 782.266247,290.377529 C782.266247,290.377529 789.021602,304.454349 789.021602,304.454349 C789.021602,304.454349 804.936916,313.188674 804.936916,313.188674 C804.936916,313.188674 835.565243,297.491151 835.565243,297.491151 C835.565243,297.491151 845.422258,268.371884 845.422258,268.371884 C845.422258,268.371884 864.275497,255.668294 864.275497,255.668294 C864.275497,255.668294 880.593139,257.531617 880.593139,257.531617 C880.593139,257.531617 891.671171,250.743105 891.671171,250.743105 C891.671171,250.743105 915.937114,275.344786 915.937114,275.344786 C915.937114,275.344786 928.841773,280.249795 926.902869,282.628242 C924.963965,285.00669 924.106867,288.953392 923.951964,290.170019 C923.797061,291.386646 928.050199,290.893447 925.657823,292.406984 C923.265447,293.920522 917.349938,294.346795 917.349938,294.346795 C917.349938,294.346795 920.180263,304.769755 920.180263,304.769755 C920.180263,304.769755 932.686316,295.400526 932.895673,294.264304 C933.105029,293.128082 926.944769,296.282621 927.179085,292.647139 C927.413401,289.011657 931.519823,284.726325 933.582372,283.609963 C935.644921,282.493601 938.618337,285.90945 939.455638,286.002411 C940.292939,286.095372 941.733296,286.713697 940.234686,284.348533 C938.736076,281.983368 935.552903,279.842963 935.552903,279.842963 C935.552903,279.842963 925.00351,268.095297 925.00351,268.095297 C925.00351,268.095297 909.476488,247.802549 909.476488,247.802549 C909.476488,247.802549 916.615457,236.612909 916.615457,236.612909 C916.615457,236.612909 949.035542,262.524739 949.035542,262.524739 C949.035542,262.524739 956.408422,286.369445 956.408422,286.369445 C956.408422,286.369445 969.493412,312.164817 969.493412,312.164817 C969.493412,312.164817 978.592555,296.666243 978.592555,296.666243 C978.592555,296.666243 974.761091,274.451944 974.761091,274.451944 C974.761091,274.451944 996.004901,277.868036 996.004901,277.868036 C996.004901,277.868036 994.933588,303.013185 994.933588,303.013185 C994.933588,303.013185 1019.44748,312.208488 1019.44748,312.208488 C1019.44748,312.208488 1052.20439,303.173315 1052.20439,303.173315 C1052.20439,303.173315 1051.35296,324.072612 1051.35296,324.072612 C1051.35296,324.072612 1031.83541,347.69896 1031.83541,347.69896 C1031.83541,347.69896 999.40597,345.743442 999.40597,345.743442 C999.40597,345.743442 963.116994,334.141348 963.116994,334.141348 C963.116994,334.141348 955.959312,352.100089 955.959312,352.100089 C955.959312,352.100089 933.658223,346.835233 933.658223,346.835233 C933.658223,346.835233 900.176181,329.599499 900.176181,329.599499 C900.176181,329.599499 900.962122,302.115491 900.962122,302.115491 C900.962122,302.115491 863.723467,303.129643 863.723467,303.129643 C863.723467,303.129643 829.591152,315.425631 829.591152,315.425631 C829.591152,315.425631 796.076362,316.337883 796.076362,316.337883 C796.076362,316.337883 780.418349,339.750725 780.418349,339.750725 C780.418349,339.750725 756.451813,372.606342 756.451813,372.606342 C756.451813,372.606342 733.182331,407.655246 733.182331,407.655246 C733.182331,407.655246 733.210401,442.505201 733.210401,442.505201 C733.210401,442.505201 729,482.294902 729,482.294902 C729,482.294902 784.436943,549.18527 784.436943,549.18527 C784.436943,549.18527 813.395144,539.10683 813.395144,539.10683 C813.395144,539.10683 856.883905,527.989976 856.883905,527.989976 C856.883905,527.989976 866.722208,543.449731 866.722208,543.449731 C866.722208,543.449731 889.846664,541.503917 889.846664,541.503917 C889.846664,541.503917 897.327143,563.368843 897.327143,563.368843 C897.327143,563.368843 889.944907,589.319492 889.944907,589.319492 C889.944907,589.319492 913.055329,620.41854 913.055329,620.41854 C913.055329,620.41854 920.100733,665.050938 920.100733,665.050938 C920.100733,665.050938 903.001828,704.631985 903.001828,704.631985 C903.001828,704.631985 927.974182,743.397829 927.974182,743.397829 C927.974182,743.397829 931.712082,785.880613 931.712082,785.880613 C931.712082,785.880613 945.176008,807.231185 945.176008,807.231185 C945.176008,807.231185 946.340886,838.888259 949.896335,837.980859 C953.451785,837.07346 992.173437,830.391702 992.173437,830.391702 C992.173437,830.391702 1028.53259,797.191564 1028.53259,797.191564 C1028.53259,797.191564 1037.4025,761.27408 1037.4025,761.27408 C1037.4025,761.27408 1058.0896,748.701505 1058.0896,748.701505 C1058.0896,748.701505 1052.6769,721.615394 1052.6769,721.615394 C1052.6769,721.615394 1094.48617,691.050111 1094.48617,691.050111 C1094.48617,691.050111 1087.57644,651.871813 1087.57644,651.871813 C1087.57644,651.871813 1078.08432,618.273778 1078.08432,618.273778 C1078.08432,618.273778 1098.04162,585.272588 1098.04162,585.272588 C1098.04162,585.272588 1124.56715,556.701642 1124.56715,556.701642 C1124.56715,556.701642 1147.91148,515.378582 1147.91148,515.378582 C1147.91148,515.378582 1153.99317,483.080991 1153.99317,483.080991 C1153.99317,483.080991 1119.42578,497.774066 1119.42578,497.774066 C1119.42578,497.774066 1105.66245,496.444507 1105.66245,496.444507 C1105.66245,496.444507 1087.66533,468.276311 1087.66533,468.276311 C1087.66533,468.276311 1065.22389,433.547666 1065.22389,433.547666 C1065.22389,433.547666 1033.39326,360.800447 1033.39326,360.800447 C1033.39326,360.800447 1045.62681,358.631423 1045.62681,358.631423 C1045.62681,358.631423 1064.0824,386.721981 1064.0824,386.721981 C1064.0824,386.721981 1083.75901,428.865097 1083.75901,428.865097 C1083.75901,428.865097 1103.92683,460.352337 1103.92683,460.352337 C1103.92683,460.352337 1106.20045,476.428347 1106.20045,476.428347 C1106.20045,476.428347 1116.23991,482.988795 1116.23991,482.988795 C1116.23991,482.988795 1151.67277,466.403283 1151.67277,466.403283 C1151.67277,466.403283 1181.42627,445.814539 1181.42627,445.814539 C1181.42627,445.814539 1201.33679,407.980357 1201.33679,407.980357 C1201.33679,407.980357 1188.51846,392.840861 1188.51846,392.840861 C1188.51846,392.840861 1178.27315,380.472087 1178.27315,380.472087 C1178.27315,380.472087 1151.43886,397.465201 1151.43886,397.465201 C1151.43886,397.465201 1135.30835,370.083093 1135.30835,370.083093 C1135.30835,370.083093 1131.62191,347.563093 1131.62191,347.563093 C1131.62191,347.563093 1159.19536,375.556603 1159.19536,375.556603 C1159.19536,375.556603 1187.61088,375.983615 1187.61088,375.983615 C1187.61088,375.983615 1202.46424,390.434069 1202.46424,390.434069 C1202.46424,390.434069 1246.30855,385.232294 1246.30855,385.232294 C1246.30855,385.232294 1263.82381,408.606317 1263.82381,408.606317 C1263.82381,408.606317 1284.50156,415.467614 1284.50156,415.467614 C1284.50156,415.467614 1299.05083,469.096367 1299.05083,469.096367 C1299.05083,469.096367 1315.85501,514.805999 1315.85501,514.805999 C1315.85501,514.805999 1340.16306,501.55894 1340.16306,501.55894 C1340.16306,501.55894 1335.03105,455.296134 1335.03105,455.296134 C1335.03105,455.296134 1361.86066,436.56586 1361.86066,436.56586 C1361.86066,436.56586 1375.19827,416.782615 1375.19827,416.782615 C1375.19827,416.782615 1400.60102,409.465192 1400.60102,409.465192 C1400.60102,409.465192 1419.49882,446.227999 1419.49882,446.227999 C1419.49882,446.227999 1423.07988,466.573117 1423.07988,466.573117 C1423.07988,466.573117 1438.65837,455.592131 1438.65837,455.592131 C1438.65837,455.592131 1443.82448,466.486537 1443.82448,466.486537 C1443.82448,466.486537 1451.61871,496.04279 1451.61871,496.04279 C1451.61871,496.04279 1449.52593,516.767658 1449.52593,516.767658 C1449.52593,516.767658 1460.47526,530.897875 1460.47526,530.897875 C1460.47526,530.897875 1472.02537,556.70698 1472.02537,556.70698 C1472.02537,556.70698 1490.57398,569.619786 1490.57398,569.619786 C1490.57398,569.619786 1487.90031,541.20666 1487.90031,541.20666 C1487.90031,541.20666 1470.50949,522.384254 1470.50949,522.384254 C1470.50949,522.384254 1457.45544,506.108094 1457.45544,506.108094 C1457.45544,506.108094 1461.04023,475.107455 1461.04023,475.107455 C1461.04023,475.107455 1483.08213,497.136396 1483.08213,497.136396 C1483.08213,497.136396 1491.65221,515.207722 1491.65221,515.207722 C1491.65221,515.207722 1505.13198,502.455862 1507.15713,499.921997 C1509.18228,497.388132 1519.35974,472.705648 1519.35974,472.705648 C1519.35974,472.705648 1496.69717,441.308835 1496.69717,441.308835 C1496.69717,441.308835 1496.0208,415.974314 1496.0208,415.974314 C1496.0208,415.974314 1515.17019,423.732728 1515.17019,423.732728 C1515.17019,423.732728 1530.50403,411.129433 1530.50403,411.129433 C1530.50403,411.129433 1571.07862,388.456708 1571.07862,388.456708 C1571.07862,388.456708 1573.77617,353.560355 1573.77617,353.560355 C1573.77617,353.560355 1552.13612,319.588409 1552.13612,319.588409 C1552.13612,319.588409 1547.87097,311.00876 1547.87097,311.00876 C1547.87097,311.00876 1552.58173,295.070998 1552.58173,295.070998 C1552.58173,295.070998 1534.00527,300.95171 1534.00527,300.95171 C1534.00527,300.95171 1525.18851,288.996325 1525.18851,288.996325 C1525.18851,288.996325 1542.6032,270.425655 1542.6032,270.425655 C1542.6032,270.425655 1547.82721,285.756775 1547.82721,285.756775 C1547.82721,285.756775 1564.0841,280.185574 1564.0841,280.185574 C1564.0841,280.185574 1569.12907,295.615737 1569.12907,295.615737 C1569.12907,295.615737 1581.1049,298.294041 1581.1049,298.294041 C1581.1049,298.294041 1590.68159,323.434601 1590.68159,323.434601 C1590.68159,323.434601 1604.32846,315.164463 1604.32846,315.164463 C1604.32846,315.164463 1582.72024,283.763523 1582.72024,283.763523 C1582.72024,283.763523 1588.11136,259.493721 1588.11136,259.493721 C1588.11136,259.493721 1607.92519,261.177461 1607.92519,261.177461 C1607.92519,261.177461 1614.08817,218.456666 1614.08817,218.456666 C1614.08817,218.456666 1589.04635,179.280806 1589.04635,179.280806 C1589.04635,179.280806 1558.96752,173.944833 1558.96752,173.944833 C1558.96752,173.944833 1563.69817,141.598853 1563.69817,141.598853 C1563.69817,141.598853 1612.03915,140.571276 1612.03915,140.571276 C1612.03915,140.571276 1630.85035,146.088828 1630.85035,146.088828 C1630.85035,146.088828 1629.46577,121.451739 1629.46577,121.451739 C1629.46577,121.451739 1649.17218,135.408629 1649.17218,135.408629 C1649.17218,135.408629 1654.16145,119.474994 1654.16145,119.474994 C1654.16145,119.474994 1660.11356,135.231176 1660.11356,135.231176 C1660.11356,135.231176 1652.19598,155.225598 1652.19598,155.225598 C1652.19598,155.225598 1682.41804,195.433162 1682.41804,195.433162 C1682.41804,195.433162 1695.40048,207.483464 1695.40048,207.483464 C1695.40048,207.483464 1692.0186,175.352078 1692.0186,175.352078 C1692.0186,175.352078 1687.16063,152.093345 1687.16063,152.093345 C1687.16063,152.093345 1672.70608,136.287641 1672.70608,136.287641 C1672.70608,136.287641 1691.29448,135.994637 1691.29448,135.994637 C1691.29448,135.994637 1710.05794,123.61419 1710.05794,123.61419 C1710.05794,123.61419 1730.61579,121.274286 1730.61579,121.274286 C1730.61579,121.274286 1703.9626,108.027208 1703.9626,108.027208 C1703.9626,108.027208 1711.6892,100.446248 1711.6892,100.446248 C1711.6892,100.446248 1745.7308,107.99832 1745.7308,107.99832 C1745.7308,107.99832 1747,97.933017 1747,97.933017 C1747,97.933017 1714.74881,94.912188 1714.74881,94.912188 C1714.74881,94.912188 1627.69526,72.2600972 1627.69526,72.2600972 C1627.69526,72.2600972 1577.88615,73.7952726 1577.88615,73.7952726 C1577.88615,73.7952726 1529.53721,66.5238235 1529.53721,66.5238235 C1529.53721,66.5238235 1466.70587,55.2369829 1466.70587,55.2369829 C1466.70587,55.2369829 1461.80812,63.6102917 1461.80812,63.6102917 C1461.80812,63.6102917 1433.71465,61.5922789 1433.71465,61.5922789 C1433.71465,61.5922789 1408.79219,51.4403126 1408.79219,51.4403126 C1408.79219,51.4403126 1384.02092,54.1805181 1384.02092,54.1805181 C1384.02092,54.1805181 1337.38281,51.073026 1337.38281,51.073026 C1337.38281,51.073026 1316.11278,54.9398522 1316.11278,54.9398522 C1316.11278,54.9398522 1333.9691,39.0598658 1333.9691,39.0598658 C1333.9691,39.0598658 1296.81618,34.3429156 1296.81618,34.3429156 C1296.81618,34.3429156 1268.82615,28 1268.82615,28 C1268.82615,28 1235.06704,37.2770815 1235.06704,37.2770815 C1235.06704,37.2770815 1232.80317,48.1017187 1232.80317,48.1017187 C1232.80317,48.1017187 1201.4074,50.0908439 1201.4074,50.0908439 C1201.4074,50.0908439 1214.20284,60.8370717 1214.20284,60.8370717 C1214.20284,60.8370717 1179.01936,58.0225834 1179.01936,58.0225834 C1179.01936,58.0225834 1193.07206,77.4309972 1193.07206,77.4309972 C1193.07206,77.4309972 1195.62239,97.9206366 1195.62239,97.9206366 C1195.62239,97.9206366 1176.53666,93.9671472 1176.53666,93.9671472 C1176.53666,93.9671472 1178.84032,75.1447413 1178.84032,75.1447413 C1178.84032,75.1447413 1162.18158,54.6716092 1162.18158,54.6716092 C1162.18158,54.6716092 1147.09839,67.1717336 1147.09839,67.1717336 C1147.09839,67.1717336 1165.89369,84.9294211 1165.89369,84.9294211 C1165.89369,84.9294211 1130.83355,72.4994525 1130.83355,72.4994525 C1130.83355,72.4994525 1123.7873,81.7600267 1123.7873,81.7600267 C1123.7873,81.7600267 1096.53731,79.1106111 1096.53731,79.1106111 C1096.53731,79.1106111 1071.70238,96.9962299 1071.70238,96.9962299 C1071.70238,96.9962299 1059.09792,88.5527652 1059.09792,88.5527652 C1059.09792,88.5527652 1053.91724,84.2429299 1053.91724,84.2429299 C1053.91724,84.2429299 1054.71774,96.8202206 1054.71774,96.8202206 C1054.71774,96.8202206 1037.19609,98.3042482 1038.18857,100.912881 C1039.18104,103.521513 1042.88342,105.604581 1038.72223,109.128257 C1034.56105,112.651933 1024.20929,112.750482 1024.20929,112.750482 Z" id="Path-3"></path>
                <path d="M776.882789,97.7891502 C776.882789,97.7891502 764.201461,97.1814738 764.201461,97.1814738 C764.201461,97.1814738 755.772014,100.082339 755.772014,100.082339 C755.772014,100.082339 744.272649,100.996641 744.272649,100.996641 C744.272649,100.996641 735.310611,94 735.310611,94 C735.310611,94 726,104.036881 726,104.036881 C726,104.036881 736.864149,108.076907 736.864149,108.076907 C736.864149,108.076907 738.730871,117.955829 738.730871,117.955829 C738.730871,117.955829 754.193704,120 754.193704,120 C754.193704,120 773.144035,111.059538 773.144035,111.059538 C773.144035,111.059538 781.889582,109.199189 782.900536,105.610893 C783.91149,102.022597 776.882789,97.7891502 776.882789,97.7891502 Z" id="Path-19"></path>
                <path d="M808,7.94695068 C808,7.94695068 773.287454,7.84303444 773.287454,7.84303444 C773.287454,7.84303444 772.387639,3.24958422 772.387639,3.24958422 C772.387639,3.24958422 730.067099,0 730.067099,0 C730.067099,0 687.973663,2.4358672 687.973663,2.4358672 C687.973663,2.4358672 637.890286,5.33319296 637.890286,5.33319296 C637.890286,5.33319296 593.885389,15.7283399 593.885389,15.7283399 C593.885389,15.7283399 593.697856,20.8554617 593.697856,20.8554617 C593.697856,20.8554617 561,24.5048592 561,24.5048592 C561,24.5048592 565.242721,38.3715132 565.242721,38.3715132 C565.242721,38.3715132 602.883536,39.6836759 602.883536,39.6836759 C602.883536,39.6836759 602.818158,61.3123449 602.818158,61.3123449 C602.818158,61.3123449 619.543012,64.2061481 619.543012,64.2061481 C619.543012,64.2061481 618.047909,70.6313422 618.047909,70.6313422 C618.047909,70.6313422 608.44415,69.1659471 608.44415,69.1659471 C608.44415,69.1659471 613.447327,80.1299914 613.447327,80.1299914 C613.447327,80.1299914 594.649285,89.5986986 594.649285,89.5986986 C594.649285,89.5986986 595.105214,110.38547 595.105214,110.38547 C595.105214,110.38547 604.985971,132.08459 604.985971,132.08459 C604.985971,132.08459 613.290762,128.798019 613.290762,128.798019 C613.290762,128.798019 619.701297,140.151309 620.63208,138.904314 C621.562864,137.657319 635.944415,125.877797 635.944415,125.877797 C635.944415,125.877797 636.353891,117.589155 636.353891,117.589155 C636.353891,117.589155 654.701165,103.155365 654.701165,103.155365 C654.701165,103.155365 665.689915,96.1718413 665.689915,96.1718413 C665.689915,96.1718413 700.015352,86.4671209 700.015352,86.4671209 C700.015352,86.4671209 741.793939,74.3406237 741.793939,74.3406237 C741.793939,74.3406237 737.485839,64.8983359 737.485839,64.8983359 C737.485839,64.8983359 749.047512,63.4435085 749.047512,63.4435085 C749.047512,63.4435085 739.60892,53.0131357 739.60892,53.0131357 C739.60892,53.0131357 767.513499,42.8892278 767.513499,42.8892278 C767.513499,42.8892278 765.201165,32.2809645 765.201165,32.2809645 C765.201165,32.2809645 756.766632,31.7586756 772.086554,23.0482705 C787.406476,14.3378654 808,7.94695068 808,7.94695068 Z" id="Path-20"></path>
                <path d="M825.520704,147.300975 C825.520704,147.300975 812.785745,147 812.785745,147 C812.785745,147 807,155.784936 807,155.784936 C807,155.784936 808.048237,166.108387 808.048237,166.108387 C808.048237,166.108387 814.369251,173.3194 814.369251,173.3194 C814.369251,173.3194 821.753371,172.947607 821.753371,172.947607 C821.753371,172.947607 823.439099,183.572033 823.439099,183.572033 C823.439099,183.572033 814.30606,185.268117 814.30606,185.268117 C814.30606,185.268117 817.203579,189.929692 817.203579,189.929692 C817.203579,189.929692 808.761929,194.327472 808.761929,194.327472 C808.761929,194.327472 823.082253,194.701035 823.082253,194.701035 C823.082253,194.701035 807.033454,206 807.033454,206 C807.033454,206 820.456086,203.064606 820.456086,203.064606 C820.456086,203.064606 845.719701,200.408942 845.719701,200.408942 C845.719701,200.408942 840.623487,195.106467 840.623487,195.106467 C840.623487,195.106467 850,188.580615 850,188.580615 C850,188.580615 843.117695,185.422146 843.117695,185.422146 C843.117695,185.422146 836.818983,176.256564 836.818983,176.256564 C836.818983,176.256564 826.314315,163.590818 826.314315,163.590818 C826.314315,163.590818 831.627982,153.067307 831.627982,153.067307 C831.627982,153.067307 822.213219,153.267956 821.1419,152.256444 C820.070581,151.244933 825.520704,147.300975 825.520704,147.300975 Z" id="Path-17"></path>
                <path d="M801.87344,171.403834 C801.87344,171.403834 795.076649,173.116381 795.076649,173.116381 C795.076649,173.116381 786.816399,176.929345 786.816399,176.929345 C786.816399,176.929345 787.319073,182.055481 787.319073,182.055481 C787.319073,182.055481 789.811052,186.361501 789.811052,186.361501 C789.811052,186.361501 783,189.03715 783,189.03715 C783,189.03715 788.884135,197 788.884135,197 C788.884135,197 796.807487,189.748794 796.807487,189.748794 C796.807487,189.748794 805.768271,189.904928 805.768271,189.904928 C805.768271,189.904928 806.805704,179.552402 806.805704,179.552402 C806.805704,179.552402 813,174.531451 813,174.531451 C813,174.531451 810.032602,170.844945 807.559715,170.149829 C805.086827,169.454713 801.87344,171.403834 801.87344,171.403834 Z" id="Path-18"></path>
                <path d="M1137.49107,243.986468 C1137.49107,243.986468 1133.22768,230.206886 1133.22768,230.206886 C1133.22768,230.206886 1118.83259,230 1118.83259,230 C1118.83259,230 1103,246.690422 1103,246.690422 C1103,246.690422 1115.03571,266.830552 1115.03571,266.830552 C1115.03571,266.830552 1127.70312,281.067208 1127.70312,281.067208 C1127.70312,281.067208 1122.28795,294.052924 1122.28795,294.052924 C1122.28795,294.052924 1131.12723,302.398136 1131.12723,302.398136 C1131.12723,302.398136 1140.43304,310 1140.43304,310 C1140.43304,310 1152,303.81266 1152,303.81266 C1152,303.81266 1149.63616,291.211848 1149.63616,291.211848 C1149.63616,291.211848 1141.79464,278.012028 1141.79464,278.012028 C1141.79464,278.012028 1148.89286,278.202075 1148.89286,278.202075 C1148.89286,278.202075 1146.85045,266.053526 1146.85045,266.053526 C1146.85045,266.053526 1135.89732,269.075026 1135.89732,269.075026 C1135.89732,269.075026 1135.58482,261.398587 1135.58482,261.398587 C1135.58482,261.398587 1121.90402,251.641257 1121.90402,251.641257 C1121.90402,251.641257 1123.88775,246.406177 1128.15848,244.308826 C1132.42921,242.211474 1137.49107,243.986468 1137.49107,243.986468 Z" id="Path-4"></path>
                <path d="M1017.70971,233 C1017.70971,233 1007.48663,239.871743 1007.48663,239.871743 C1007.48663,239.871743 1002.54716,253.277721 1002.54716,253.277721 C1002.54716,253.277721 998,266.413198 998,266.413198 C998,266.413198 1009.57667,277 1009.57667,277 C1009.57667,277 1022.06645,274.749126 1022.06645,274.749126 C1022.06645,274.749126 1039.92701,266.586915 1039.92701,266.586915 C1039.92701,266.586915 1063.89022,275.57304 1063.89022,275.57304 C1063.89022,275.57304 1071.85807,276.439143 1071.85807,276.439143 C1071.85807,276.439143 1079,270.574958 1079,270.574958 C1079,270.574958 1070.6536,256.503892 1070.6536,256.503892 C1070.6536,256.503892 1047.61726,241.715623 1047.61726,241.715623 C1047.61726,241.715623 1036.25625,244.021094 1036.25625,244.021094 C1036.25625,244.021094 1031.13094,250.21286 1031.13094,250.21286 C1031.13094,250.21286 1029.77261,239.53742 1027.59324,236.742358 C1025.41387,233.947295 1017.70971,233 1017.70971,233 Z" id="Path-5"></path>
                <path d="M373.648176,230.12736 C371.292161,221.646276 370.114153,217.405735 370.114153,217.405735 C365.523232,213.135245 363.227771,211 363.227771,211 C353.129493,214.072561 348.080353,215.608841 348.080353,215.608841 C335.360118,222.569574 329,226.04994 329,226.04994 C343.978864,226.785265 351.468296,227.152927 351.468296,227.152927 C362.969946,228.601912 368.720771,229.326404 368.720771,229.326404 C362.085972,232.981362 358.768572,234.808841 358.768572,234.808841 C353.160082,235.680526 350.355837,236.116368 350.355837,236.116368 C341.644698,245.912624 337.289129,250.810753 337.289129,250.810753 C337.593775,259.482995 337.746098,263.819116 337.746098,263.819116 C345.794257,257.23178 349.818336,253.938112 349.818336,253.938112 C352.114421,244.726802 353.262463,240.121147 353.262463,240.121147 C362.197093,236.605098 366.664407,234.847073 366.664407,234.847073 C369.167752,236.81601 370.419424,237.800478 370.419424,237.800478 C365.426469,243.707288 362.929992,246.660693 362.929992,246.660693 C368.302506,246.83401 370.988763,246.920669 370.988763,246.920669 C367.896103,252.52035 366.349773,255.320191 366.349773,255.320191 C363.495585,260.981043 362.068492,263.81147 362.068492,263.81147 C365.934005,265.937157 367.866762,267 367.866762,267 C382.106484,261.576185 389.226344,258.864277 389.226344,258.864277 C389.501026,255.177459 389.638366,253.33405 389.638366,253.33405 C383.006064,253.958503 379.689913,254.270729 379.689913,254.270729 C371.479444,259.119793 367.374209,261.544325 367.374209,261.544325 C377.482476,247.928714 382.536609,241.120908 382.536609,241.120908 C386.751717,243.450498 388.85927,244.615293 388.85927,244.615293 L392,235.575388 C379.765451,231.943369 373.648176,230.12736 373.648176,230.12736 Z" id="Path-29"></path>
            </g>
            <g id="Cities" transform="translate(291.932371, 281.000000)">
                <g id="Group-5" transform="translate(1181.000000, 251.000000)">
                    <ellipse id="Oval" stroke="#A7F6FF" stroke-width="0.3" cx="6.67266174" cy="6.90612756" rx="2.22422058" ry="2.30204252"></ellipse>
                    <path d="M6.67266174,8.05714882 C7.28686329,8.05714882 7.78477203,7.54181905 7.78477203,6.90612756 C7.78477203,6.27043607 7.28686329,5.7551063 6.67266174,5.7551063 C6.05846019,5.7551063 5.56055145,6.27043607 5.56055145,6.90612756 C5.56055145,7.54181905 6.05846019,8.05714882 6.67266174,8.05714882 Z" id="Oval" fill="#A7F6FF"></path>
                    <ellipse id="Oval" stroke-opacity="0.505354021" stroke="#A7F6FF" stroke-width="0.3" cx="6.67266174" cy="6.90612756" rx="6.67266174" ry="6.90612756"></ellipse>
                    <ellipse id="Oval" stroke-opacity="0.693045236" stroke="#A7F6FF" stroke-width="0.3" cx="6.67266174" cy="6.90612756" rx="4.44844116" ry="4.60408504"></ellipse>
                </g>
                <g id="Group-5" transform="translate(1163.000000, 311.000000)">
                    <ellipse id="Oval" stroke="#A7F6FF" stroke-width="0.3" cx="6.67266174" cy="6.90612756" rx="2.22422058" ry="2.30204252"></ellipse>
                    <path d="M6.67266174,8.05714882 C7.28686329,8.05714882 7.78477203,7.54181905 7.78477203,6.90612756 C7.78477203,6.27043607 7.28686329,5.7551063 6.67266174,5.7551063 C6.05846019,5.7551063 5.56055145,6.27043607 5.56055145,6.90612756 C5.56055145,7.54181905 6.05846019,8.05714882 6.67266174,8.05714882 Z" id="Oval" fill="#A7F6FF"></path>
                    <ellipse id="Oval" stroke-opacity="0.505354021" stroke="#A7F6FF" stroke-width="0.3" cx="6.67266174" cy="6.90612756" rx="6.67266174" ry="6.90612756"></ellipse>
                    <ellipse id="Oval" stroke-opacity="0.693045236" stroke="#A7F6FF" stroke-width="0.3" cx="6.67266174" cy="6.90612756" rx="4.44844116" ry="4.60408504"></ellipse>
                </g>
                <g id="Group-5" transform="translate(1186.000000, 329.000000)">
                    <ellipse id="Oval" stroke="#A7F6FF" stroke-width="0.3" cx="6.67266174" cy="6.90612756" rx="2.22422058" ry="2.30204252"></ellipse>
                    <path d="M6.67266174,8.05714882 C7.28686329,8.05714882 7.78477203,7.54181905 7.78477203,6.90612756 C7.78477203,6.27043607 7.28686329,5.7551063 6.67266174,5.7551063 C6.05846019,5.7551063 5.56055145,6.27043607 5.56055145,6.90612756 C5.56055145,7.54181905 6.05846019,8.05714882 6.67266174,8.05714882 Z" id="Oval" fill="#A7F6FF"></path>
                    <ellipse id="Oval" stroke-opacity="0.505354021" stroke="#A7F6FF" stroke-width="0.3" cx="6.67266174" cy="6.90612756" rx="6.67266174" ry="6.90612756"></ellipse>
                    <ellipse id="Oval" stroke-opacity="0.693045236" stroke="#A7F6FF" stroke-width="0.3" cx="6.67266174" cy="6.90612756" rx="4.44844116" ry="4.60408504"></ellipse>
                </g>
                <g id="Group-5" transform="translate(661.000000, 168.000000)">
                    <ellipse id="Oval" stroke="#A7F6FF" stroke-width="0.3" cx="6.67266174" cy="6.90612756" rx="2.22422058" ry="2.30204252"></ellipse>
                    <path d="M6.67266174,8.05714882 C7.28686329,8.05714882 7.78477203,7.54181905 7.78477203,6.90612756 C7.78477203,6.27043607 7.28686329,5.7551063 6.67266174,5.7551063 C6.05846019,5.7551063 5.56055145,6.27043607 5.56055145,6.90612756 C5.56055145,7.54181905 6.05846019,8.05714882 6.67266174,8.05714882 Z" id="Oval" fill="#A7F6FF"></path>
                    <ellipse id="Oval" stroke-opacity="0.505354021" stroke="#A7F6FF" stroke-width="0.3" cx="6.67266174" cy="6.90612756" rx="6.67266174" ry="6.90612756"></ellipse>
                    <ellipse id="Oval" stroke-opacity="0.693045236" stroke="#A7F6FF" stroke-width="0.3" cx="6.67266174" cy="6.90612756" rx="4.44844116" ry="4.60408504"></ellipse>
                </g>
                <g id="Group-5" transform="translate(696.000000, 155.000000)">
                    <ellipse id="Oval" stroke="#A7F6FF" stroke-width="0.3" cx="6.67266174" cy="6.90612756" rx="2.22422058" ry="2.30204252"></ellipse>
                    <path d="M6.67266174,8.05714882 C7.28686329,8.05714882 7.78477203,7.54181905 7.78477203,6.90612756 C7.78477203,6.27043607 7.28686329,5.7551063 6.67266174,5.7551063 C6.05846019,5.7551063 5.56055145,6.27043607 5.56055145,6.90612756 C5.56055145,7.54181905 6.05846019,8.05714882 6.67266174,8.05714882 Z" id="Oval" fill="#A7F6FF"></path>
                    <ellipse id="Oval" stroke-opacity="0.505354021" stroke="#A7F6FF" stroke-width="0.3" cx="6.67266174" cy="6.90612756" rx="6.67266174" ry="6.90612756"></ellipse>
                    <ellipse id="Oval" stroke-opacity="0.693045236" stroke="#A7F6FF" stroke-width="0.3" cx="6.67266174" cy="6.90612756" rx="4.44844116" ry="4.60408504"></ellipse>
                </g>
                <g id="Group-5" transform="translate(763.000000, 79.000000)">
                    <ellipse id="Oval" stroke="#A7F6FF" stroke-width="0.3" cx="6.67266174" cy="6.90612756" rx="2.22422058" ry="2.30204252"></ellipse>
                    <path d="M6.67266174,8.05714882 C7.28686329,8.05714882 7.78477203,7.54181905 7.78477203,6.90612756 C7.78477203,6.27043607 7.28686329,5.7551063 6.67266174,5.7551063 C6.05846019,5.7551063 5.56055145,6.27043607 5.56055145,6.90612756 C5.56055145,7.54181905 6.05846019,8.05714882 6.67266174,8.05714882 Z" id="Oval" fill="#A7F6FF"></path>
                    <ellipse id="Oval" stroke-opacity="0.505354021" stroke="#A7F6FF" stroke-width="0.3" cx="6.67266174" cy="6.90612756" rx="6.67266174" ry="6.90612756"></ellipse>
                    <ellipse id="Oval" stroke-opacity="0.693045236" stroke="#A7F6FF" stroke-width="0.3" cx="6.67266174" cy="6.90612756" rx="4.44844116" ry="4.60408504"></ellipse>
                </g>
                <g id="Group-5" transform="translate(778.000000, 94.000000)">
                    <ellipse id="Oval" stroke="#A7F6FF" stroke-width="0.3" cx="6.67266174" cy="6.90612756" rx="2.22422058" ry="2.30204252"></ellipse>
                    <path d="M6.67266174,8.05714882 C7.28686329,8.05714882 7.78477203,7.54181905 7.78477203,6.90612756 C7.78477203,6.27043607 7.28686329,5.7551063 6.67266174,5.7551063 C6.05846019,5.7551063 5.56055145,6.27043607 5.56055145,6.90612756 C5.56055145,7.54181905 6.05846019,8.05714882 6.67266174,8.05714882 Z" id="Oval" fill="#A7F6FF"></path>
                    <ellipse id="Oval" stroke-opacity="0.505354021" stroke="#A7F6FF" stroke-width="0.3" cx="6.67266174" cy="6.90612756" rx="6.67266174" ry="6.90612756"></ellipse>
                    <ellipse id="Oval" stroke-opacity="0.693045236" stroke="#A7F6FF" stroke-width="0.3" cx="6.67266174" cy="6.90612756" rx="4.44844116" ry="4.60408504"></ellipse>
                </g>
                <g id="Group-5" transform="translate(769.000000, 50.000000)">
                    <ellipse id="Oval" stroke="#A7F6FF" stroke-width="0.3" cx="6.67266174" cy="6.90612756" rx="2.22422058" ry="2.30204252"></ellipse>
                    <path d="M6.67266174,8.05714882 C7.28686329,8.05714882 7.78477203,7.54181905 7.78477203,6.90612756 C7.78477203,6.27043607 7.28686329,5.7551063 6.67266174,5.7551063 C6.05846019,5.7551063 5.56055145,6.27043607 5.56055145,6.90612756 C5.56055145,7.54181905 6.05846019,8.05714882 6.67266174,8.05714882 Z" id="Oval" fill="#A7F6FF"></path>
                    <ellipse id="Oval" stroke-opacity="0.505354021" stroke="#A7F6FF" stroke-width="0.3" cx="6.67266174" cy="6.90612756" rx="6.67266174" ry="6.90612756"></ellipse>
                    <ellipse id="Oval" stroke-opacity="0.693045236" stroke="#A7F6FF" stroke-width="0.3" cx="6.67266174" cy="6.90612756" rx="4.44844116" ry="4.60408504"></ellipse>
                </g>
                <g id="Group-5" transform="translate(896.000000, 233.000000)">
                    <ellipse id="Oval" stroke="#A7F6FF" stroke-width="0.3" cx="6.67266174" cy="6.90612756" rx="2.22422058" ry="2.30204252"></ellipse>
                    <path d="M6.67266174,8.05714882 C7.28686329,8.05714882 7.78477203,7.54181905 7.78477203,6.90612756 C7.78477203,6.27043607 7.28686329,5.7551063 6.67266174,5.7551063 C6.05846019,5.7551063 5.56055145,6.27043607 5.56055145,6.90612756 C5.56055145,7.54181905 6.05846019,8.05714882 6.67266174,8.05714882 Z" id="Oval" fill="#A7F6FF"></path>
                    <ellipse id="Oval" stroke-opacity="0.505354021" stroke="#A7F6FF" stroke-width="0.3" cx="6.67266174" cy="6.90612756" rx="6.67266174" ry="6.90612756"></ellipse>
                    <ellipse id="Oval" stroke-opacity="0.693045236" stroke="#A7F6FF" stroke-width="0.3" cx="6.67266174" cy="6.90612756" rx="4.44844116" ry="4.60408504"></ellipse>
                </g>
                <g id="Group-5" transform="translate(303.000000, 107.000000)">
                    <ellipse id="Oval" stroke="#A7F6FF" stroke-width="0.3" cx="6.67266174" cy="6.90612756" rx="2.22422058" ry="2.30204252"></ellipse>
                    <path d="M6.67266174,8.05714882 C7.28686329,8.05714882 7.78477203,7.54181905 7.78477203,6.90612756 C7.78477203,6.27043607 7.28686329,5.7551063 6.67266174,5.7551063 C6.05846019,5.7551063 5.56055145,6.27043607 5.56055145,6.90612756 C5.56055145,7.54181905 6.05846019,8.05714882 6.67266174,8.05714882 Z" id="Oval" fill="#A7F6FF"></path>
                    <ellipse id="Oval" stroke-opacity="0.505354021" stroke="#A7F6FF" stroke-width="0.3" cx="6.67266174" cy="6.90612756" rx="6.67266174" ry="6.90612756"></ellipse>
                    <ellipse id="Oval" stroke-opacity="0.693045236" stroke="#A7F6FF" stroke-width="0.3" cx="6.67266174" cy="6.90612756" rx="4.44844116" ry="4.60408504"></ellipse>
                </g>
                <g id="Group-5" transform="translate(279.000000, 123.000000)">
                    <ellipse id="Oval" stroke="#A7F6FF" stroke-width="0.3" cx="6.67266174" cy="6.90612756" rx="2.22422058" ry="2.30204252"></ellipse>
                    <path d="M6.67266174,8.05714882 C7.28686329,8.05714882 7.78477203,7.54181905 7.78477203,6.90612756 C7.78477203,6.27043607 7.28686329,5.7551063 6.67266174,5.7551063 C6.05846019,5.7551063 5.56055145,6.27043607 5.56055145,6.90612756 C5.56055145,7.54181905 6.05846019,8.05714882 6.67266174,8.05714882 Z" id="Oval" fill="#A7F6FF"></path>
                    <ellipse id="Oval" stroke-opacity="0.505354021" stroke="#A7F6FF" stroke-width="0.3" cx="6.67266174" cy="6.90612756" rx="6.67266174" ry="6.90612756"></ellipse>
                    <ellipse id="Oval" stroke-opacity="0.693045236" stroke="#A7F6FF" stroke-width="0.3" cx="6.67266174" cy="6.90612756" rx="4.44844116" ry="4.60408504"></ellipse>
                </g>
                <g id="Group-5" transform="translate(97.000000, 311.000000)">
                    <ellipse id="Oval" stroke="#A7F6FF" stroke-width="0.3" cx="6.67266174" cy="6.90612756" rx="2.22422058" ry="2.30204252"></ellipse>
                    <path d="M6.67266174,8.05714882 C7.28686329,8.05714882 7.78477203,7.54181905 7.78477203,6.90612756 C7.78477203,6.27043607 7.28686329,5.7551063 6.67266174,5.7551063 C6.05846019,5.7551063 5.56055145,6.27043607 5.56055145,6.90612756 C5.56055145,7.54181905 6.05846019,8.05714882 6.67266174,8.05714882 Z" id="Oval" fill="#A7F6FF"></path>
                    <ellipse id="Oval" stroke-opacity="0.505354021" stroke="#A7F6FF" stroke-width="0.3" cx="6.67266174" cy="6.90612756" rx="6.67266174" ry="6.90612756"></ellipse>
                    <ellipse id="Oval" stroke-opacity="0.693045236" stroke="#A7F6FF" stroke-width="0.3" cx="6.67266174" cy="6.90612756" rx="4.44844116" ry="4.60408504"></ellipse>
                </g>
                <g id="Group-5" transform="translate(714.000000, 70.000000)">
                    <ellipse id="Oval" stroke="#A7F6FF" stroke-width="0.3" cx="6.67266174" cy="6.90612756" rx="2.22422058" ry="2.30204252"></ellipse>
                    <path d="M6.67266174,8.05714882 C7.28686329,8.05714882 7.78477203,7.54181905 7.78477203,6.90612756 C7.78477203,6.27043607 7.28686329,5.7551063 6.67266174,5.7551063 C6.05846019,5.7551063 5.56055145,6.27043607 5.56055145,6.90612756 C5.56055145,7.54181905 6.05846019,8.05714882 6.67266174,8.05714882 Z" id="Oval" fill="#A7F6FF"></path>
                    <ellipse id="Oval" stroke-opacity="0.505354021" stroke="#A7F6FF" stroke-width="0.3" cx="6.67266174" cy="6.90612756" rx="6.67266174" ry="6.90612756"></ellipse>
                    <ellipse id="Oval" stroke-opacity="0.693045236" stroke="#A7F6FF" stroke-width="0.3" cx="6.67266174" cy="6.90612756" rx="4.44844116" ry="4.60408504"></ellipse>
                </g>
                <g id="Group-5" transform="translate(790.000000, 152.000000)">
                    <ellipse id="Oval" stroke="#A7F6FF" stroke-width="0.3" cx="6.67266174" cy="6.90612756" rx="2.22422058" ry="2.30204252"></ellipse>
                    <path d="M6.67266174,8.05714882 C7.28686329,8.05714882 7.78477203,7.54181905 7.78477203,6.90612756 C7.78477203,6.27043607 7.28686329,5.7551063 6.67266174,5.7551063 C6.05846019,5.7551063 5.56055145,6.27043607 5.56055145,6.90612756 C5.56055145,7.54181905 6.05846019,8.05714882 6.67266174,8.05714882 Z" id="Oval" fill="#A7F6FF"></path>
                    <ellipse id="Oval" stroke-opacity="0.505354021" stroke="#A7F6FF" stroke-width="0.3" cx="6.67266174" cy="6.90612756" rx="6.67266174" ry="6.90612756"></ellipse>
                    <ellipse id="Oval" stroke-opacity="0.693045236" stroke="#A7F6FF" stroke-width="0.3" cx="6.67266174" cy="6.90612756" rx="4.44844116" ry="4.60408504"></ellipse>
                </g>
                <g id="Group-5" transform="translate(768.000000, 191.000000)">
                    <ellipse id="Oval" stroke="#A7F6FF" stroke-width="0.3" cx="6.67266174" cy="6.90612756" rx="2.22422058" ry="2.30204252"></ellipse>
                    <path d="M6.67266174,8.05714882 C7.28686329,8.05714882 7.78477203,7.54181905 7.78477203,6.90612756 C7.78477203,6.27043607 7.28686329,5.7551063 6.67266174,5.7551063 C6.05846019,5.7551063 5.56055145,6.27043607 5.56055145,6.90612756 C5.56055145,7.54181905 6.05846019,8.05714882 6.67266174,8.05714882 Z" id="Oval" fill="#A7F6FF"></path>
                    <ellipse id="Oval" stroke-opacity="0.505354021" stroke="#A7F6FF" stroke-width="0.3" cx="6.67266174" cy="6.90612756" rx="6.67266174" ry="6.90612756"></ellipse>
                    <ellipse id="Oval" stroke-opacity="0.693045236" stroke="#A7F6FF" stroke-width="0.3" cx="6.67266174" cy="6.90612756" rx="4.44844116" ry="4.60408504"></ellipse>
                </g>
                <g id="Group-5" transform="translate(641.000000, 251.000000)">
                    <ellipse id="Oval" stroke="#A7F6FF" stroke-width="0.3" cx="6.67266174" cy="6.90612756" rx="2.22422058" ry="2.30204252"></ellipse>
                    <path d="M6.67266174,8.05714882 C7.28686329,8.05714882 7.78477203,7.54181905 7.78477203,6.90612756 C7.78477203,6.27043607 7.28686329,5.7551063 6.67266174,5.7551063 C6.05846019,5.7551063 5.56055145,6.27043607 5.56055145,6.90612756 C5.56055145,7.54181905 6.05846019,8.05714882 6.67266174,8.05714882 Z" id="Oval" fill="#A7F6FF"></path>
                    <ellipse id="Oval" stroke-opacity="0.505354021" stroke="#A7F6FF" stroke-width="0.3" cx="6.67266174" cy="6.90612756" rx="6.67266174" ry="6.90612756"></ellipse>
                    <ellipse id="Oval" stroke-opacity="0.693045236" stroke="#A7F6FF" stroke-width="0.3" cx="6.67266174" cy="6.90612756" rx="4.44844116" ry="4.60408504"></ellipse>
                </g>
                <g id="Group-5" transform="translate(876.000000, 157.000000)">
                    <ellipse id="Oval" stroke="#A7F6FF" stroke-width="0.3" cx="6.67266174" cy="6.90612756" rx="2.22422058" ry="2.30204252"></ellipse>
                    <path d="M6.67266174,8.05714882 C7.28686329,8.05714882 7.78477203,7.54181905 7.78477203,6.90612756 C7.78477203,6.27043607 7.28686329,5.7551063 6.67266174,5.7551063 C6.05846019,5.7551063 5.56055145,6.27043607 5.56055145,6.90612756 C5.56055145,7.54181905 6.05846019,8.05714882 6.67266174,8.05714882 Z" id="Oval" fill="#A7F6FF"></path>
                    <ellipse id="Oval" stroke-opacity="0.505354021" stroke="#A7F6FF" stroke-width="0.3" cx="6.67266174" cy="6.90612756" rx="6.67266174" ry="6.90612756"></ellipse>
                    <ellipse id="Oval" stroke-opacity="0.693045236" stroke="#A7F6FF" stroke-width="0.3" cx="6.67266174" cy="6.90612756" rx="4.44844116" ry="4.60408504"></ellipse>
                </g>
                <g id="Group-5" transform="translate(972.000000, 153.000000)">
                    <ellipse id="Oval" stroke="#A7F6FF" stroke-width="0.3" cx="6.67266174" cy="6.90612756" rx="2.22422058" ry="2.30204252"></ellipse>
                    <path d="M6.67266174,8.05714882 C7.28686329,8.05714882 7.78477203,7.54181905 7.78477203,6.90612756 C7.78477203,6.27043607 7.28686329,5.7551063 6.67266174,5.7551063 C6.05846019,5.7551063 5.56055145,6.27043607 5.56055145,6.90612756 C5.56055145,7.54181905 6.05846019,8.05714882 6.67266174,8.05714882 Z" id="Oval" fill="#A7F6FF"></path>
                    <ellipse id="Oval" stroke-opacity="0.505354021" stroke="#A7F6FF" stroke-width="0.3" cx="6.67266174" cy="6.90612756" rx="6.67266174" ry="6.90612756"></ellipse>
                    <ellipse id="Oval" stroke-opacity="0.693045236" stroke="#A7F6FF" stroke-width="0.3" cx="6.67266174" cy="6.90612756" rx="4.44844116" ry="4.60408504"></ellipse>
                </g>
                <g id="Group-5" transform="translate(1096.000000, 149.000000)">
                    <ellipse id="Oval" stroke="#A7F6FF" stroke-width="0.3" cx="6.67266174" cy="6.90612756" rx="2.22422058" ry="2.30204252"></ellipse>
                    <path d="M6.67266174,8.05714882 C7.28686329,8.05714882 7.78477203,7.54181905 7.78477203,6.90612756 C7.78477203,6.27043607 7.28686329,5.7551063 6.67266174,5.7551063 C6.05846019,5.7551063 5.56055145,6.27043607 5.56055145,6.90612756 C5.56055145,7.54181905 6.05846019,8.05714882 6.67266174,8.05714882 Z" id="Oval" fill="#A7F6FF"></path>
                    <ellipse id="Oval" stroke-opacity="0.505354021" stroke="#A7F6FF" stroke-width="0.3" cx="6.67266174" cy="6.90612756" rx="6.67266174" ry="6.90612756"></ellipse>
                    <ellipse id="Oval" stroke-opacity="0.693045236" stroke="#A7F6FF" stroke-width="0.3" cx="6.67266174" cy="6.90612756" rx="4.44844116" ry="4.60408504"></ellipse>
                </g>
                <g id="Group-5" transform="translate(1094.000000, 0.000000)">
                    <ellipse id="Oval" stroke="#A7F6FF" stroke-width="0.3" cx="6.67266174" cy="6.90612756" rx="2.22422058" ry="2.30204252"></ellipse>
                    <path d="M6.67266174,8.05714882 C7.28686329,8.05714882 7.78477203,7.54181905 7.78477203,6.90612756 C7.78477203,6.27043607 7.28686329,5.7551063 6.67266174,5.7551063 C6.05846019,5.7551063 5.56055145,6.27043607 5.56055145,6.90612756 C5.56055145,7.54181905 6.05846019,8.05714882 6.67266174,8.05714882 Z" id="Oval" fill="#A7F6FF"></path>
                    <ellipse id="Oval" stroke-opacity="0.505354021" stroke="#A7F6FF" stroke-width="0.3" cx="6.67266174" cy="6.90612756" rx="6.67266174" ry="6.90612756"></ellipse>
                    <ellipse id="Oval" stroke-opacity="0.693045236" stroke="#A7F6FF" stroke-width="0.3" cx="6.67266174" cy="6.90612756" rx="4.44844116" ry="4.60408504"></ellipse>
                </g>
                <g id="Group-5" transform="translate(1044.000000, 272.000000)">
                    <ellipse id="Oval" stroke="#A7F6FF" stroke-width="0.3" cx="6.67266174" cy="6.90612756" rx="2.22422058" ry="2.30204252"></ellipse>
                    <path d="M6.67266174,8.05714882 C7.28686329,8.05714882 7.78477203,7.54181905 7.78477203,6.90612756 C7.78477203,6.27043607 7.28686329,5.7551063 6.67266174,5.7551063 C6.05846019,5.7551063 5.56055145,6.27043607 5.56055145,6.90612756 C5.56055145,7.54181905 6.05846019,8.05714882 6.67266174,8.05714882 Z" id="Oval" fill="#A7F6FF"></path>
                    <ellipse id="Oval" stroke-opacity="0.505354021" stroke="#A7F6FF" stroke-width="0.3" cx="6.67266174" cy="6.90612756" rx="6.67266174" ry="6.90612756"></ellipse>
                    <ellipse id="Oval" stroke-opacity="0.693045236" stroke="#A7F6FF" stroke-width="0.3" cx="6.67266174" cy="6.90612756" rx="4.44844116" ry="4.60408504"></ellipse>
                </g>
                <g id="Group-5" transform="translate(990.000000, 289.000000)">
                    <ellipse id="Oval" stroke="#A7F6FF" stroke-width="0.3" cx="6.67266174" cy="6.90612756" rx="2.22422058" ry="2.30204252"></ellipse>
                    <path d="M6.67266174,8.05714882 C7.28686329,8.05714882 7.78477203,7.54181905 7.78477203,6.90612756 C7.78477203,6.27043607 7.28686329,5.7551063 6.67266174,5.7551063 C6.05846019,5.7551063 5.56055145,6.27043607 5.56055145,6.90612756 C5.56055145,7.54181905 6.05846019,8.05714882 6.67266174,8.05714882 Z" id="Oval" fill="#A7F6FF"></path>
                    <ellipse id="Oval" stroke-opacity="0.505354021" stroke="#A7F6FF" stroke-width="0.3" cx="6.67266174" cy="6.90612756" rx="6.67266174" ry="6.90612756"></ellipse>
                    <ellipse id="Oval" stroke-opacity="0.693045236" stroke="#A7F6FF" stroke-width="0.3" cx="6.67266174" cy="6.90612756" rx="4.44844116" ry="4.60408504"></ellipse>
                </g>
                <g id="Group-5" transform="translate(990.000000, 289.000000)">
                    <ellipse id="Oval" stroke="#A7F6FF" stroke-width="0.3" cx="6.67266174" cy="6.90612756" rx="2.22422058" ry="2.30204252"></ellipse>
                    <path d="M6.67266174,8.05714882 C7.28686329,8.05714882 7.78477203,7.54181905 7.78477203,6.90612756 C7.78477203,6.27043607 7.28686329,5.7551063 6.67266174,5.7551063 C6.05846019,5.7551063 5.56055145,6.27043607 5.56055145,6.90612756 C5.56055145,7.54181905 6.05846019,8.05714882 6.67266174,8.05714882 Z" id="Oval" fill="#A7F6FF"></path>
                    <ellipse id="Oval" stroke-opacity="0.505354021" stroke="#A7F6FF" stroke-width="0.3" cx="6.67266174" cy="6.90612756" rx="6.67266174" ry="6.90612756"></ellipse>
                    <ellipse id="Oval" stroke-opacity="0.693045236" stroke="#A7F6FF" stroke-width="0.3" cx="6.67266174" cy="6.90612756" rx="4.44844116" ry="4.60408504"></ellipse>
                </g>
                <g id="Group-5" transform="translate(795.000000, 226.000000)">
                    <ellipse id="Oval" stroke="#A7F6FF" stroke-width="0.3" cx="6.67266174" cy="6.90612756" rx="2.22422058" ry="2.30204252"></ellipse>
                    <path d="M6.67266174,8.05714882 C7.28686329,8.05714882 7.78477203,7.54181905 7.78477203,6.90612756 C7.78477203,6.27043607 7.28686329,5.7551063 6.67266174,5.7551063 C6.05846019,5.7551063 5.56055145,6.27043607 5.56055145,6.90612756 C5.56055145,7.54181905 6.05846019,8.05714882 6.67266174,8.05714882 Z" id="Oval" fill="#A7F6FF"></path>
                    <ellipse id="Oval" stroke-opacity="0.505354021" stroke="#A7F6FF" stroke-width="0.3" cx="6.67266174" cy="6.90612756" rx="6.67266174" ry="6.90612756"></ellipse>
                    <ellipse id="Oval" stroke-opacity="0.693045236" stroke="#A7F6FF" stroke-width="0.3" cx="6.67266174" cy="6.90612756" rx="4.44844116" ry="4.60408504"></ellipse>
                </g>
                <g id="Group-5" transform="translate(681.000000, 63.000000)">
                    <ellipse id="Oval" stroke="#A7F6FF" stroke-width="0.3" cx="6.67266174" cy="6.90612756" rx="2.22422058" ry="2.30204252"></ellipse>
                    <path d="M6.67266174,8.05714882 C7.28686329,8.05714882 7.78477203,7.54181905 7.78477203,6.90612756 C7.78477203,6.27043607 7.28686329,5.7551063 6.67266174,5.7551063 C6.05846019,5.7551063 5.56055145,6.27043607 5.56055145,6.90612756 C5.56055145,7.54181905 6.05846019,8.05714882 6.67266174,8.05714882 Z" id="Oval" fill="#A7F6FF"></path>
                    <ellipse id="Oval" stroke-opacity="0.505354021" stroke="#A7F6FF" stroke-width="0.3" cx="6.67266174" cy="6.90612756" rx="6.67266174" ry="6.90612756"></ellipse>
                    <ellipse id="Oval" stroke-opacity="0.693045236" stroke="#A7F6FF" stroke-width="0.3" cx="6.67266174" cy="6.90612756" rx="4.44844116" ry="4.60408504"></ellipse>
                </g>
                <g id="Group-5" transform="translate(745.000000, 70.000000)">
                    <ellipse id="Oval" stroke="#A7F6FF" stroke-width="0.3" cx="6.67266174" cy="6.90612756" rx="2.22422058" ry="2.30204252"></ellipse>
                    <path d="M6.67266174,8.05714882 C7.28686329,8.05714882 7.78477203,7.54181905 7.78477203,6.90612756 C7.78477203,6.27043607 7.28686329,5.7551063 6.67266174,5.7551063 C6.05846019,5.7551063 5.56055145,6.27043607 5.56055145,6.90612756 C5.56055145,7.54181905 6.05846019,8.05714882 6.67266174,8.05714882 Z" id="Oval" fill="#A7F6FF"></path>
                    <ellipse id="Oval" stroke-opacity="0.505354021" stroke="#A7F6FF" stroke-width="0.3" cx="6.67266174" cy="6.90612756" rx="6.67266174" ry="6.90612756"></ellipse>
                    <ellipse id="Oval" stroke-opacity="0.693045236" stroke="#A7F6FF" stroke-width="0.3" cx="6.67266174" cy="6.90612756" rx="4.44844116" ry="4.60408504"></ellipse>
                </g>
                <g id="Group-5" transform="translate(806.000000, 28.000000)">
                    <ellipse id="Oval" stroke="#A7F6FF" stroke-width="0.3" cx="6.67266174" cy="6.90612756" rx="2.22422058" ry="2.30204252"></ellipse>
                    <path d="M6.67266174,8.05714882 C7.28686329,8.05714882 7.78477203,7.54181905 7.78477203,6.90612756 C7.78477203,6.27043607 7.28686329,5.7551063 6.67266174,5.7551063 C6.05846019,5.7551063 5.56055145,6.27043607 5.56055145,6.90612756 C5.56055145,7.54181905 6.05846019,8.05714882 6.67266174,8.05714882 Z" id="Oval" fill="#A7F6FF"></path>
                    <ellipse id="Oval" stroke-opacity="0.505354021" stroke="#A7F6FF" stroke-width="0.3" cx="6.67266174" cy="6.90612756" rx="6.67266174" ry="6.90612756"></ellipse>
                    <ellipse id="Oval" stroke-opacity="0.693045236" stroke="#A7F6FF" stroke-width="0.3" cx="6.67266174" cy="6.90612756" rx="4.44844116" ry="4.60408504"></ellipse>
                </g>
                <g id="Group-5" transform="translate(9.000000, 139.000000)">
                    <ellipse id="Oval" stroke="#A7F6FF" stroke-width="0.3" cx="6.67266174" cy="6.90612756" rx="2.22422058" ry="2.30204252"></ellipse>
                    <path d="M6.67266174,8.05714882 C7.28686329,8.05714882 7.78477203,7.54181905 7.78477203,6.90612756 C7.78477203,6.27043607 7.28686329,5.7551063 6.67266174,5.7551063 C6.05846019,5.7551063 5.56055145,6.27043607 5.56055145,6.90612756 C5.56055145,7.54181905 6.05846019,8.05714882 6.67266174,8.05714882 Z" id="Oval" fill="#A7F6FF"></path>
                    <ellipse id="Oval" stroke-opacity="0.505354021" stroke="#A7F6FF" stroke-width="0.3" cx="6.67266174" cy="6.90612756" rx="6.67266174" ry="6.90612756"></ellipse>
                    <ellipse id="Oval" stroke-opacity="0.693045236" stroke="#A7F6FF" stroke-width="0.3" cx="6.67266174" cy="6.90612756" rx="4.44844116" ry="4.60408504"></ellipse>
                </g>
                <g id="Group-5" transform="translate(0.000000, 171.000000)">
                    <ellipse id="Oval" stroke="#A7F6FF" stroke-width="0.3" cx="6.67266174" cy="6.90612756" rx="2.22422058" ry="2.30204252"></ellipse>
                    <path d="M6.67266174,8.05714882 C7.28686329,8.05714882 7.78477203,7.54181905 7.78477203,6.90612756 C7.78477203,6.27043607 7.28686329,5.7551063 6.67266174,5.7551063 C6.05846019,5.7551063 5.56055145,6.27043607 5.56055145,6.90612756 C5.56055145,7.54181905 6.05846019,8.05714882 6.67266174,8.05714882 Z" id="Oval" fill="#A7F6FF"></path>
                    <ellipse id="Oval" stroke-opacity="0.505354021" stroke="#A7F6FF" stroke-width="0.3" cx="6.67266174" cy="6.90612756" rx="6.67266174" ry="6.90612756"></ellipse>
                    <ellipse id="Oval" stroke-opacity="0.693045236" stroke="#A7F6FF" stroke-width="0.3" cx="6.67266174" cy="6.90612756" rx="4.44844116" ry="4.60408504"></ellipse>
                </g>
                <g id="Group-5" transform="translate(204.000000, 140.000000)">
                    <ellipse id="Oval" stroke="#A7F6FF" stroke-width="0.3" cx="6.67266174" cy="6.90612756" rx="2.22422058" ry="2.30204252"></ellipse>
                    <path d="M6.67266174,8.05714882 C7.28686329,8.05714882 7.78477203,7.54181905 7.78477203,6.90612756 C7.78477203,6.27043607 7.28686329,5.7551063 6.67266174,5.7551063 C6.05846019,5.7551063 5.56055145,6.27043607 5.56055145,6.90612756 C5.56055145,7.54181905 6.05846019,8.05714882 6.67266174,8.05714882 Z" id="Oval" fill="#A7F6FF"></path>
                    <ellipse id="Oval" stroke-opacity="0.505354021" stroke="#A7F6FF" stroke-width="0.3" cx="6.67266174" cy="6.90612756" rx="6.67266174" ry="6.90612756"></ellipse>
                    <ellipse id="Oval" stroke-opacity="0.693045236" stroke="#A7F6FF" stroke-width="0.3" cx="6.67266174" cy="6.90612756" rx="4.44844116" ry="4.60408504"></ellipse>
                </g>
                <g id="Group-5" transform="translate(261.300000, 170.700000)">
                    <path d="M6.73323356,10.4843879 C8.80430137,10.4843879 10.4832336,8.8054557 10.4832336,6.73438789 C10.4832336,4.66332008 8.80430137,2.98438789 6.73323356,2.98438789 C4.66216575,2.98438789 2.98323356,4.66332008 2.98323356,6.73438789 C2.98323356,8.8054557 4.66216575,10.4843879 6.73323356,10.4843879 Z" id="Oval" stroke="#A7F6FF" stroke-width="1.5"></path>
                    <path d="M6.75,9.5 C7.06719593,8.21130273 7.28089167,7.51303569 7.39108722,7.40519888 C7.50445252,7.29426018 8.20742345,7.07586055 9.5,6.75 C8.21934622,6.45170393 7.53093578,6.24856545 7.43476869,6.14058457 C7.32283975,6.01490557 7.09458352,5.30137738 6.75,4 C6.41575629,5.29644598 6.19289038,6.00407778 6.08140225,6.1228954 C5.97883892,6.23220148 5.28503817,6.44123635 4,6.75 C5.28947348,7.06895154 5.98868425,7.28360744 6.09763233,7.39396771 C6.20843502,7.50620664 6.42589091,8.20821741 6.75,9.5 Z" id="Oval" fill="#FFFFFF"></path>
                    <path d="M6.75,13.5 C10.4779221,13.5 13.5,10.4779221 13.5,6.75 C13.5,3.02207794 10.4779221,0 6.75,0 C3.02207794,0 0,3.02207794 0,6.75 C0,10.4779221 3.02207794,13.5 6.75,13.5 Z" id="Oval" stroke-opacity="0.505354021" stroke="#A7F6FF" stroke-width="1.5"></path>
                    <path d="M6.74229394,11.9899648 C9.64178888,11.9899648 11.9922939,9.63945974 11.9922939,6.7399648 C11.9922939,3.84046987 9.64178888,1.4899648 6.74229394,1.4899648 C3.84279901,1.4899648 1.49229394,3.84046987 1.49229394,6.7399648 C1.49229394,9.63945974 3.84279901,11.9899648 6.74229394,11.9899648 Z" id="Oval" stroke-opacity="0.693045236" stroke="#A7F6FF" stroke-width="1.5"></path>
                </g>
                <g id="Group-5" transform="translate(212.000000, 204.000000)">
                    <ellipse id="Oval" stroke="#A7F6FF" stroke-width="0.3" cx="6.67266174" cy="6.90612756" rx="2.22422058" ry="2.30204252"></ellipse>
                    <path d="M6.67266174,8.05714882 C7.28686329,8.05714882 7.78477203,7.54181905 7.78477203,6.90612756 C7.78477203,6.27043607 7.28686329,5.7551063 6.67266174,5.7551063 C6.05846019,5.7551063 5.56055145,6.27043607 5.56055145,6.90612756 C5.56055145,7.54181905 6.05846019,8.05714882 6.67266174,8.05714882 Z" id="Oval" fill="#A7F6FF"></path>
                    <ellipse id="Oval" stroke-opacity="0.505354021" stroke="#A7F6FF" stroke-width="0.3" cx="6.67266174" cy="6.90612756" rx="6.67266174" ry="6.90612756"></ellipse>
                    <ellipse id="Oval" stroke-opacity="0.693045236" stroke="#A7F6FF" stroke-width="0.3" cx="6.67266174" cy="6.90612756" rx="4.44844116" ry="4.60408504"></ellipse>
                </g>
                <g id="Group-5" transform="translate(300.000000, 141.000000)">
                    <ellipse id="Oval" stroke="#A7F6FF" stroke-width="0.3" cx="6.67266174" cy="6.90612756" rx="2.22422058" ry="2.30204252"></ellipse>
                    <path d="M6.67266174,8.05714882 C7.28686329,8.05714882 7.78477203,7.54181905 7.78477203,6.90612756 C7.78477203,6.27043607 7.28686329,5.7551063 6.67266174,5.7551063 C6.05846019,5.7551063 5.56055145,6.27043607 5.56055145,6.90612756 C5.56055145,7.54181905 6.05846019,8.05714882 6.67266174,8.05714882 Z" id="Oval" fill="#A7F6FF"></path>
                    <ellipse id="Oval" stroke-opacity="0.505354021" stroke="#A7F6FF" stroke-width="0.3" cx="6.67266174" cy="6.90612756" rx="6.67266174" ry="6.90612756"></ellipse>
                    <ellipse id="Oval" stroke-opacity="0.693045236" stroke="#A7F6FF" stroke-width="0.3" cx="6.67266174" cy="6.90612756" rx="4.44844116" ry="4.60408504"></ellipse>
                </g>
                <g id="Group-5" transform="translate(734.500000, 102.500000)">
                    <path d="M6.73323356,10.4843879 C8.80430137,10.4843879 10.4832336,8.8054557 10.4832336,6.73438789 C10.4832336,4.66332008 8.80430137,2.98438789 6.73323356,2.98438789 C4.66216575,2.98438789 2.98323356,4.66332008 2.98323356,6.73438789 C2.98323356,8.8054557 4.66216575,10.4843879 6.73323356,10.4843879 Z" id="Oval" stroke="#A7F6FF" stroke-width="1.5"></path>
                    <path d="M6.75,9.5 C7.06719593,8.21130273 7.28089167,7.51303569 7.39108722,7.40519888 C7.50445252,7.29426018 8.20742345,7.07586055 9.5,6.75 C8.21934622,6.45170393 7.53093578,6.24856545 7.43476869,6.14058457 C7.32283975,6.01490557 7.09458352,5.30137738 6.75,4 C6.41575629,5.29644598 6.19289038,6.00407778 6.08140225,6.1228954 C5.97883892,6.23220148 5.28503817,6.44123635 4,6.75 C5.28947348,7.06895154 5.98868425,7.28360744 6.09763233,7.39396771 C6.20843502,7.50620664 6.42589091,8.20821741 6.75,9.5 Z" id="Oval" fill="#FFFFFF"></path>
                    <path d="M6.75,13.5 C10.4779221,13.5 13.5,10.4779221 13.5,6.75 C13.5,3.02207794 10.4779221,0 6.75,0 C3.02207794,0 0,3.02207794 0,6.75 C0,10.4779221 3.02207794,13.5 6.75,13.5 Z" id="Oval" stroke-opacity="0.505354021" stroke="#A7F6FF" stroke-width="1.5"></path>
                    <path d="M6.74229394,11.9899648 C9.64178888,11.9899648 11.9922939,9.63945974 11.9922939,6.7399648 C11.9922939,3.84046987 9.64178888,1.4899648 6.74229394,1.4899648 C3.84279901,1.4899648 1.49229394,3.84046987 1.49229394,6.7399648 C1.49229394,9.63945974 3.84279901,11.9899648 6.74229394,11.9899648 Z" id="Oval" stroke-opacity="0.693045236" stroke="#A7F6FF" stroke-width="1.5"></path>
                </g>
            </g>
        </g>
    </g>
</svg>