<?xml version="1.0" encoding="UTF-8"?>
<svg width="1773px" height="775px" viewBox="0 0 1773 775" version="1.1" xmlns="http://www.w3.org/2000/svg" xmlns:xlink="http://www.w3.org/1999/xlink">
    <title>Background</title>
    <g id="Page-1" stroke="none" stroke-width="1" fill="none" fill-rule="evenodd">
        <g id="UC-2-Slide-13---Final-Screen-Stage-1" transform="translate(125.000000, 27.000000)">
            <g id="Background" transform="translate(-124.000000, -27.000000)">
                <rect id="Rectangle" fill="#232F40" x="124" y="0" width="1367" height="775"></rect>
                <g id="Background-Lines" transform="translate(0.000000, 27.000000)" stroke="#FFFFFF" stroke-dasharray="0,30" stroke-linecap="square" stroke-width="0.7">
                    <line x1="191.894112" y1="2.93817442" x2="122.472977" y2="64.4418652" id="Line-8" transform="translate(157.183545, 33.690020) rotate(-4.000000) translate(-157.183545, -33.690020) "></line>
                    <line x1="285.865534" y1="9.12444456" x2="116.34571" y2="156.176041" id="Line-8" transform="translate(201.105622, 82.650243) rotate(-6.000000) translate(-201.105622, -82.650243) "></line>
                    <line x1="377.343578" y1="18.0264723" x2="106.950061" y2="251.263583" id="Line-8" transform="translate(242.146819, 134.645028) rotate(-8.000000) translate(-242.146819, -134.645028) "></line>
                    <line x1="467.212034" y1="30.7141796" x2="93.9198578" y2="351.828724" id="Line-8" transform="translate(280.565946, 191.271452) rotate(-10.000000) translate(-280.565946, -191.271452) "></line>
                    <line x1="557.816297" y1="46.0537433" x2="75.7834542" y2="460.034991" id="Line-8" transform="translate(316.799876, 253.044367) rotate(-12.000000) translate(-316.799876, -253.044367) "></line>
                    <line x1="649.598223" y1="65.3187354" x2="53.1990241" y2="576.91916" id="Line-8" transform="translate(351.398623, 321.118948) rotate(-14.000000) translate(-351.398623, -321.118948) "></line>
                    <line x1="732.126054" y1="77.5178758" x2="96.545118" y2="615.3728" id="Line-8" transform="translate(414.335586, 346.445338) rotate(-16.000000) translate(-414.335586, -346.445338) "></line>
                    <line x1="805.163331" y1="84.2757824" x2="181.475076" y2="608.359854" id="Line-8" transform="translate(493.319203, 346.317818) rotate(-18.000000) translate(-493.319203, -346.317818) "></line>
                    <line x1="875.985391" y1="89.7884552" x2="260.86926" y2="602.974758" id="Line-8" transform="translate(568.427325, 346.381607) rotate(-20.000000) translate(-568.427325, -346.381607) "></line>
                    <line x1="943.152654" y1="95.6876202" x2="336.878694" y2="597.719926" id="Line-8" transform="translate(640.015674, 346.703773) rotate(-22.000000) translate(-640.015674, -346.703773) "></line>
                    <line x1="1009.06301" y1="100.904066" x2="410.708087" y2="592.582505" id="Line-8" transform="translate(709.885546, 346.743285) rotate(-24.000000) translate(-709.885546, -346.743285) "></line>
                    <line x1="1072.43284" y1="106.004011" x2="480.99379" y2="588.200052" id="Line-8" transform="translate(776.713314, 347.102031) rotate(-26.000000) translate(-776.713314, -347.102031) "></line>
                    <line x1="1198.12761" y1="114.140483" x2="618.397899" y2="579.239388" id="Line-8" transform="translate(908.262755, 346.689935) rotate(-30.000000) translate(-908.262755, -346.689935) "></line>
                    <line x1="1256.93234" y1="117.886334" x2="682.039232" y2="575.344075" id="Line-8" transform="translate(969.485785, 346.615204) rotate(-32.000000) translate(-969.485785, -346.615204) "></line>
                    <line x1="1315.58135" y1="121.437417" x2="744.879968" y2="571.836605" id="Line-8" transform="translate(1030.230661, 346.637011) rotate(-34.000000) translate(-1030.230661, -346.637011) "></line>
                    <line x1="1373.16814" y1="124.827338" x2="805.620416" y2="569.093475" id="Line-8" transform="translate(1089.394280, 346.960406) rotate(-36.000000) translate(-1089.394280, -346.960406) "></line>
                    <line x1="1429.49232" y1="127.569692" x2="864.937358" y2="565.87789" id="Line-8" transform="translate(1147.214839, 346.723791) rotate(-38.000000) translate(-1147.214839, -346.723791) "></line>
                    <line x1="1485.07834" y1="130.27976" x2="923.579757" y2="562.619328" id="Line-8" transform="translate(1204.329046, 346.449544) rotate(-40.000000) translate(-1204.329046, -346.449544) "></line>
                    <line x1="1540.37213" y1="132.944894" x2="981.228828" y2="559.966372" id="Line-8" transform="translate(1260.800477, 346.455633) rotate(-42.000000) translate(-1260.800477, -346.455633) "></line>
                    <line x1="1596.51684" y1="134.837637" x2="1037.92406" y2="558.136028" id="Line-8" transform="translate(1317.220450, 346.486833) rotate(-44.000000) translate(-1317.220450, -346.486833) "></line>
                    <line x1="1652.86775" y1="136.990723" x2="1094.20306" y2="557.151672" id="Line-8" transform="translate(1373.535407, 347.071197) rotate(-46.000000) translate(-1373.535407, -347.071197) "></line>
                    <line x1="1708.33412" y1="138.938773" x2="1150.93497" y2="554.887346" id="Line-8" transform="translate(1429.634546, 346.913059) rotate(-48.000000) translate(-1429.634546, -346.913059) "></line>
                    <line x1="1630.3163" y1="386.496602" x2="1321.44164" y2="615.271602" id="Line-8" transform="translate(1475.878971, 500.884102) rotate(-50.000000) translate(-1475.878971, -500.884102) "></line>
                    <line x1="1148.27037" y1="122.631499" x2="540.376534" y2="570.530515" id="Line-8" transform="translate(844.323454, 346.581007) rotate(-30.000000) translate(-844.323454, -346.581007) "></line>
                </g>
                <g id="Map" transform="translate(244.000000, 155.000000)" fill="#232F40" stroke="#FFFFFF" stroke-width="0.3">
                    <path d="M124.376898,46.804559 C102.533346,44.6889965 80.7448174,41.0284851 80.7448174,41.0284851 C80.7448174,41.0284851 48.7463631,51.4345865 48.7463631,51.4345865 C48.7463631,51.4345865 54.7358174,61.128376 54.7358174,61.128376 C54.7358174,61.128376 28.8191206,61.830109 28.8191206,61.830109 C28.8191206,61.830109 41.4270586,66.6152936 41.4270586,66.6152936 C41.4270586,66.6152936 12.8335681,78.209757 12.8335681,78.209757 C12.8335681,78.209757 0,103.641408 0,103.641408 C0,103.641408 53.9085069,80.195062 53.9085069,80.195062 C53.9085069,80.195062 83.9891051,87.3922334 83.9891051,87.3922334 C83.9891051,87.3922334 88.5085449,119.887057 88.5085449,119.887057 C88.5085449,119.887057 73.6169566,156.6487 73.6169566,156.6487 C73.6169566,156.6487 69.8188494,188.120897 69.8188494,188.120897 C69.8188494,188.120897 79.0867778,202.102663 79.0867778,202.102663 C79.0867778,202.102663 90.1529099,242.270708 90.1529099,242.270708 C90.1529099,242.270708 90.1973522,207.332161 90.1973522,207.332161 C90.1973522,207.332161 101.947212,237.714733 101.947212,237.714733 C101.947212,237.714733 116.695217,271.948021 116.695217,271.948021 C116.695217,271.948021 146.734792,277.95683 146.734792,277.95683 C146.734792,277.95683 193.207761,314.034371 193.207761,314.034371 C193.207761,314.034371 204.660199,313.516006 204.660199,313.516006 C204.660199,313.516006 192.243705,346.969982 192.243705,346.969982 C192.243705,346.969982 189.21821,370.959378 189.21821,370.959378 C189.21821,370.959378 215.7024,415.503557 215.7024,415.503557 C215.7024,415.503557 234.395515,423.568198 234.395515,423.568198 C234.395515,423.568198 244.37452,526.856953 244.37452,526.856953 C244.37452,526.856953 267.778517,579.589193 267.778517,579.589193 C267.778517,579.589193 298.867614,586 298.867614,586 C298.867614,586 276.523394,569.034987 276.523394,569.034987 C276.523394,569.034987 281.801771,552.524866 281.801771,552.524866 C281.801771,552.524866 275.237986,525.072647 275.237986,525.072647 C275.237986,525.072647 296.13954,514.581914 296.13954,514.581914 C296.13954,514.581914 320.336662,469.995419 320.336662,469.995419 C320.336662,469.995419 320.558874,452.536725 320.558874,452.536725 C320.558874,452.536725 347.340486,443.163828 347.340486,443.163828 C347.340486,443.163828 352.342469,403.628986 352.342469,403.628986 C352.342469,403.628986 365,372.040464 365,372.040464 C365,372.040464 313.933923,348.305953 313.933923,348.305953 C313.933923,348.305953 294.217556,318.047993 294.217556,318.047993 C294.217556,318.047993 268.884577,314.330428 268.884577,314.330428 C268.884577,314.330428 260.550732,301.249651 260.550732,301.249651 C260.550732,301.249651 223.778498,294.076322 223.778498,294.076322 C223.778498,294.076322 203.694857,303.923095 203.694857,303.923095 C203.694857,303.923095 185.080313,300.03921 185.080313,300.03921 C185.080313,300.03921 186.26873,278.004861 186.26873,278.004861 C186.26873,278.004861 167.003245,275.085017 167.003245,275.085017 C167.003245,275.085017 176.489675,250.475784 176.489675,250.475784 C176.489675,250.475784 165.346031,248.649342 165.346031,248.649342 C165.346031,248.649342 156.047717,264.520603 156.047717,264.520603 C156.047717,264.520603 140.944675,259.167556 140.944675,259.167556 C140.944675,259.167556 140.62833,226.641331 140.62833,226.641331 C140.62833,226.641331 159.638082,214.511297 159.638082,214.511297 C159.638082,214.511297 172.374504,216.929244 172.374504,216.929244 C172.374504,216.929244 186.330431,211.788228 186.330431,211.788228 C186.330431,211.788228 192.453067,220.138781 192.453067,220.138781 C192.453067,220.138781 201.50028,237.052896 201.50028,237.052896 C201.50028,237.052896 208.008023,224.735759 208.008023,224.735759 C208.008023,224.735759 206.743868,205.921827 206.743868,205.921827 C206.743868,205.921827 228.016819,190.556349 228.016819,190.556349 C228.016819,190.556349 233.478077,173.852365 233.478077,173.852365 C233.478077,173.852365 258.772321,162.528312 258.772321,162.528312 C258.772321,162.528312 275.4519,147.986087 275.4519,147.986087 C275.4519,147.986087 296.839266,148.933117 296.839266,148.933117 C296.839266,148.933117 289.151089,141.780023 289.151089,141.780023 C289.151089,141.780023 286.915796,135.481847 286.915796,135.481847 C286.915796,135.481847 288.322272,127.364453 288.322272,127.364453 C288.322272,127.364453 264.367529,138.970599 264.367529,138.970599 C264.367529,138.970599 284.164238,122.384633 284.164238,122.384633 C284.164238,122.384633 308.540366,122.827923 308.540366,122.827923 C308.540366,122.827923 308.649201,131.55844 308.649201,131.55844 C308.649201,131.55844 314.188595,138.734561 314.188595,138.734561 C314.188595,138.734561 327.488725,129.341988 327.488725,129.341988 C327.488725,129.341988 322.133511,118.420927 322.133511,118.420927 C322.133511,118.420927 320.768894,107.45381 320.768894,107.45381 C320.768894,107.45381 314.395102,100.283445 314.395102,100.283445 C314.395102,100.283445 310.703102,77.7274529 310.703102,77.7274529 C310.703102,77.7274529 292.767741,92.1574158 292.767741,92.1574158 C292.767741,92.1574158 290.607796,77.5432283 290.607796,77.5432283 C290.607796,77.5432283 272.817548,76.0176188 272.817548,76.0176188 C272.817548,76.0176188 261.096914,91.6450413 261.096914,91.6450413 C261.096914,91.6450413 251.589247,110.133701 251.589247,110.133701 C251.589247,110.133701 241.819261,118.769227 241.819261,118.769227 C241.819261,118.769227 242.070418,103.421019 242.070418,103.421019 C242.070418,103.421019 215.235747,98.2943958 215.235747,98.2943958 C215.235747,98.2943958 227.79915,76.2881986 227.79915,76.2881986 C227.79915,76.2881986 251.809706,69.6964143 251.809706,69.6964143 C251.809706,69.6964143 265.259591,60.8766643 265.259591,60.8766643 C265.259591,60.8766643 283.090916,52.5666525 283.090916,52.5666525 C283.090916,52.5666525 279.418763,41.4346263 279.418763,41.4346263 C279.418763,41.4346263 260.971935,47.9099253 260.971935,47.9099253 C260.971935,47.9099253 255.210725,39 255.210725,39 C255.210725,39 242.05044,51.6008726 242.05044,51.6008726 C242.05044,51.6008726 222.774248,54.6085104 222.774248,54.6085104 C222.774248,54.6085104 206.752918,48.555572 206.752918,48.555572 C206.752918,48.555572 191.521832,54.2668556 191.521832,54.2668556 C191.521832,54.2668556 171.233712,45.7819812 171.233712,45.7819812 C171.233712,45.7819812 158.043918,47.1835415 146.824852,47.4283804 C135.605786,47.6732193 146.22045,48.9201216 124.376898,46.804559 Z" id="Path-2"></path>
                    <path d="M611.313603,67.5363987 C611.313603,67.5363987 598.919494,57.4526569 598.919494,57.4526569 C598.919494,57.4526569 619.645879,59.2032061 619.645879,59.2032061 C619.645879,59.2032061 621.06247,52.1749683 621.06247,52.1749683 C621.06247,52.1749683 592.713873,43.4511573 592.713873,43.4511573 C592.713873,43.4511573 574.884935,37.5455857 574.884935,37.5455857 C574.884935,37.5455857 556.231747,44.0124904 556.231747,44.0124904 C556.231747,44.0124904 534.452,66.5728733 534.452,66.5728733 C534.452,66.5728733 515.681462,75.7885742 515.681462,75.7885742 C515.681462,75.7885742 523.013092,92.5735916 523.013092,92.5735916 C523.013092,92.5735916 539.883665,84.2751207 539.883665,84.2751207 C539.883665,84.2751207 544.139028,102.553168 544.139028,102.553168 C544.139028,102.553168 554.250754,94.6887179 554.250754,94.6887179 C554.250754,94.6887179 562.051788,80.7393007 562.051788,80.7393007 C562.051788,80.7393007 556.561447,71.1821705 556.561447,71.1821705 C556.561447,71.1821705 571.040299,59.9902298 571.040299,59.9902298 C571.040299,59.9902298 568.452994,70.9622668 568.452994,70.9622668 C568.452994,70.9622668 571.085004,84.8480276 571.085004,84.8480276 C571.085004,84.8480276 593.35092,80.2474109 593.35092,80.2474109 C593.35092,80.2474109 586.980448,87.1512295 586.980448,87.1512295 C586.980448,87.1512295 575.147577,88.7223835 575.147577,88.7223835 C575.147577,88.7223835 567.419189,104.057773 567.419189,104.057773 C567.419189,104.057773 548.961587,110.594121 548.961587,110.594121 C548.961587,110.594121 537.952965,106.33204 537.952965,106.33204 C537.952965,106.33204 534.985666,91.5724511 534.985666,91.5724511 C534.985666,91.5724511 528.455933,95.4005115 528.455933,95.4005115 C528.455933,95.4005115 531.817195,105.886446 531.817195,105.886446 C531.817195,105.886446 520.017853,110.194822 520.017853,110.194822 C520.017853,110.194822 510.065388,119.691189 510.065388,119.691189 C510.065388,119.691189 501.241726,126.933544 501.241726,126.933544 C501.241726,126.933544 482.487953,130.046917 482.487953,130.046917 C482.487953,130.046917 498.224135,139.922329 498.224135,139.922329 C498.224135,139.922329 495.089192,152.584152 495.089192,152.584152 C495.089192,152.584152 470.258324,150.324352 470.258324,150.324352 C470.258324,150.324352 466.81324,173.454749 466.81324,173.454749 C466.81324,173.454749 470.847872,181.848704 470.847872,181.848704 C470.847872,181.848704 480.353286,187.05695 480.353286,187.05695 C480.353286,187.05695 498.646039,177.696575 498.646039,177.696575 C498.646039,177.696575 504.533137,160.332864 504.533137,160.332864 C504.533137,160.332864 515.793224,152.75776 515.793224,152.75776 C515.793224,152.75776 525.538928,153.868853 525.538928,153.868853 C525.538928,153.868853 532.155277,149.820889 532.155277,149.820889 C532.155277,149.820889 546.6481,164.49078 546.6481,164.49078 C546.6481,164.49078 554.355401,167.415618 553.197391,168.833878 C552.039382,170.252137 551.527481,172.605541 551.434965,173.331012 C551.342449,174.056482 553.882634,173.762389 552.453788,174.664906 C551.024943,175.567422 547.491908,175.821607 547.491908,175.821607 C547.491908,175.821607 549.182318,182.03678 549.182318,182.03678 C549.182318,182.03678 556.651552,176.449943 556.77659,175.772418 C556.901629,175.094893 553.222416,176.975933 553.362361,174.808109 C553.502306,172.640285 555.954865,170.084957 557.186721,169.419274 C558.418578,168.753592 560.194449,170.79045 560.694526,170.845882 C561.194604,170.901314 562.054856,171.27002 561.159812,169.859681 C560.264768,168.449342 558.36362,167.173026 558.36362,167.173026 C558.36362,167.173026 552.063,160.167936 552.063,160.167936 C552.063,160.167936 542.789494,148.067446 542.789494,148.067446 C542.789494,148.067446 547.053239,141.395105 547.053239,141.395105 C547.053239,141.395105 566.41612,156.846233 566.41612,156.846233 C566.41612,156.846233 570.819568,171.064743 570.819568,171.064743 C570.819568,171.064743 578.634572,186.446428 578.634572,186.446428 C578.634572,186.446428 584.069031,177.204686 584.069031,177.204686 C584.069031,177.204686 581.780691,163.958382 581.780691,163.958382 C581.780691,163.958382 594.468546,165.995384 594.468546,165.995384 C594.468546,165.995384 593.828705,180.989344 593.828705,180.989344 C593.828705,180.989344 608.469613,186.472469 608.469613,186.472469 C608.469613,186.472469 628.033666,181.084828 628.033666,181.084828 C628.033666,181.084828 627.525146,193.547002 627.525146,193.547002 C627.525146,193.547002 615.868301,207.635306 615.868301,207.635306 C615.868301,207.635306 596.499833,206.469238 596.499833,206.469238 C596.499833,206.469238 574.826259,199.550952 574.826259,199.550952 C574.826259,199.550952 570.551338,210.259683 570.551338,210.259683 C570.551338,210.259683 557.232023,207.120268 557.232023,207.120268 C557.232023,207.120268 537.23489,196.842664 537.23489,196.842664 C537.23489,196.842664 537.704293,180.454052 537.704293,180.454052 C537.704293,180.454052 515.463524,181.058787 515.463524,181.058787 C515.463524,181.058787 495.078016,188.390839 495.078016,188.390839 C495.078016,188.390839 475.061324,188.934812 475.061324,188.934812 C475.061324,188.934812 465.709584,202.895803 465.709584,202.895803 C465.709584,202.895803 451.395582,222.487486 451.395582,222.487486 C451.395582,222.487486 437.497895,243.387017 437.497895,243.387017 C437.497895,243.387017 437.51466,264.167916 437.51466,264.167916 C437.51466,264.167916 435,287.894367 435,287.894367 C435,287.894367 468.109687,327.780846 468.109687,327.780846 C468.109687,327.780846 485.404958,321.77111 485.404958,321.77111 C485.404958,321.77111 511.378599,315.142171 511.378599,315.142171 C511.378599,315.142171 517.254521,324.360765 517.254521,324.360765 C517.254521,324.360765 531.065591,323.200484 531.065591,323.200484 C531.065591,323.200484 535.533303,336.238458 535.533303,336.238458 C535.533303,336.238458 531.124267,351.712734 531.124267,351.712734 C531.124267,351.712734 544.926955,370.256981 544.926955,370.256981 C544.926955,370.256981 549.134819,396.871115 549.134819,396.871115 C549.134819,396.871115 538.922506,420.473147 538.922506,420.473147 C538.922506,420.473147 553.837233,443.589076 553.837233,443.589076 C553.837233,443.589076 556.069692,468.921403 556.069692,468.921403 C556.069692,468.921403 564.111015,481.652669 564.111015,481.652669 C564.111015,481.652669 564.806737,500.529665 566.930228,499.988586 C569.053718,499.447508 592.180206,495.4632 592.180206,495.4632 C592.180206,495.4632 613.89569,475.666081 613.89569,475.666081 C613.89569,475.666081 619.19324,454.248618 619.19324,454.248618 C619.19324,454.248618 631.548602,446.751638 631.548602,446.751638 C631.548602,446.751638 628.315867,430.600291 628.315867,430.600291 C628.315867,430.600291 653.286438,412.374325 653.286438,412.374325 C653.286438,412.374325 649.159602,389.012451 649.159602,389.012451 C649.159602,389.012451 643.490441,368.978067 643.490441,368.978067 C643.490441,368.978067 655.409929,349.29958 655.409929,349.29958 C655.409929,349.29958 671.252285,332.262831 671.252285,332.262831 C671.252285,332.262831 685.194677,307.622043 685.194677,307.622043 C685.194677,307.622043 688.826963,288.363109 688.826963,288.363109 C688.826963,288.363109 668.181606,297.124535 668.181606,297.124535 C668.181606,297.124535 659.961463,296.331725 659.961463,296.331725 C659.961463,296.331725 649.212689,279.535133 649.212689,279.535133 C649.212689,279.535133 635.809553,258.826571 635.809553,258.826571 C635.809553,258.826571 616.798725,215.447674 616.798725,215.447674 C616.798725,215.447674 624.105209,214.154293 624.105209,214.154293 C624.105209,214.154293 635.127801,230.904589 635.127801,230.904589 C635.127801,230.904589 646.879644,256.034373 646.879644,256.034373 C646.879644,256.034373 658.924864,274.810097 658.924864,274.810097 C658.924864,274.810097 660.282781,284.396162 660.282781,284.396162 C660.282781,284.396162 666.278847,288.308133 666.278847,288.308133 C666.278847,288.308133 687.441106,278.418254 687.441106,278.418254 C687.441106,278.418254 705.211368,266.141262 705.211368,266.141262 C705.211368,266.141262 717.102915,243.580879 717.102915,243.580879 C717.102915,243.580879 709.447173,234.553254 709.447173,234.553254 C709.447173,234.553254 703.328168,227.1778 703.328168,227.1778 C703.328168,227.1778 687.301403,237.310731 687.301403,237.310731 C687.301403,237.310731 677.667462,220.982881 677.667462,220.982881 C677.667462,220.982881 675.465737,207.554289 675.465737,207.554289 C675.465737,207.554289 691.933965,224.246715 691.933965,224.246715 C691.933965,224.246715 708.905124,224.501341 708.905124,224.501341 C708.905124,224.501341 717.776285,233.118093 717.776285,233.118093 C717.776285,233.118093 743.962275,230.016294 743.962275,230.016294 C743.962275,230.016294 754.42326,243.954137 754.42326,243.954137 C754.42326,243.954137 766.773034,248.045503 766.773034,248.045503 C766.773034,248.045503 775.46258,280.02413 775.46258,280.02413 C775.46258,280.02413 785.498867,307.280614 785.498867,307.280614 C785.498867,307.280614 800.016836,299.381442 800.016836,299.381442 C800.016836,299.381442 796.951745,271.795102 796.951745,271.795102 C796.951745,271.795102 812.975716,260.626309 812.975716,260.626309 C812.975716,260.626309 820.941599,248.829633 820.941599,248.829633 C820.941599,248.829633 836.11338,244.466281 836.11338,244.466281 C836.11338,244.466281 847.40008,266.387807 847.40008,266.387807 C847.40008,266.387807 849.538869,278.519526 849.538869,278.519526 C849.538869,278.519526 858.84311,271.971604 858.84311,271.971604 C858.84311,271.971604 861.928567,278.467898 861.928567,278.467898 C861.928567,278.467898 866.583671,296.092182 866.583671,296.092182 C866.583671,296.092182 865.333756,308.450344 865.333756,308.450344 C865.333756,308.450344 871.873238,316.87614 871.873238,316.87614 C871.873238,316.87614 878.771537,332.266014 878.771537,332.266014 C878.771537,332.266014 889.849687,339.965872 889.849687,339.965872 C889.849687,339.965872 888.252837,323.023231 888.252837,323.023231 C888.252837,323.023231 877.86618,311.7995 877.86618,311.7995 C877.86618,311.7995 870.069653,302.094085 870.069653,302.094085 C870.069653,302.094085 872.210668,283.608519 872.210668,283.608519 C872.210668,283.608519 885.375179,296.744296 885.375179,296.744296 C885.375179,296.744296 890.493655,307.52016 890.493655,307.52016 C890.493655,307.52016 898.544443,299.916273 899.753962,298.405339 C900.963481,296.894405 907.041968,282.176331 907.041968,282.176331 C907.041968,282.176331 893.50676,263.454528 893.50676,263.454528 C893.50676,263.454528 893.102795,248.347647 893.102795,248.347647 C893.102795,248.347647 904.539761,252.97396 904.539761,252.97396 C904.539761,252.97396 913.697888,245.458662 913.697888,245.458662 C913.697888,245.458662 937.931044,231.939 937.931044,231.939 C937.931044,231.939 939.542152,211.130434 939.542152,211.130434 C939.542152,211.130434 926.617644,190.873088 926.617644,190.873088 C926.617644,190.873088 924.070287,185.757075 924.070287,185.757075 C924.070287,185.757075 926.883785,176.253447 926.883785,176.253447 C926.883785,176.253447 915.789002,179.760094 915.789002,179.760094 C915.789002,179.760094 910.523197,172.631142 910.523197,172.631142 C910.523197,172.631142 920.924111,161.55752 920.924111,161.55752 C920.924111,161.55752 924.044148,170.69941 924.044148,170.69941 C924.044148,170.69941 933.753569,167.377324 933.753569,167.377324 C933.753569,167.377324 936.766674,176.578273 936.766674,176.578273 C936.766674,176.578273 943.919233,178.175335 943.919233,178.175335 C943.919233,178.175335 949.638904,193.166559 949.638904,193.166559 C949.638904,193.166559 957.789495,188.235106 957.789495,188.235106 C957.789495,188.235106 944.883997,169.510842 944.883997,169.510842 C944.883997,169.510842 948.103836,155.038848 948.103836,155.038848 C948.103836,155.038848 959.937639,156.042857 959.937639,156.042857 C959.937639,156.042857 963.618474,130.568605 963.618474,130.568605 C963.618474,130.568605 948.662259,107.208184 948.662259,107.208184 C948.662259,107.208184 930.697691,104.026364 930.697691,104.026364 C930.697691,104.026364 933.523071,84.7385752 933.523071,84.7385752 C933.523071,84.7385752 962.394697,84.1258348 962.394697,84.1258348 C962.394697,84.1258348 973.629681,87.4159309 973.629681,87.4159309 C973.629681,87.4159309 972.80274,72.7249259 972.80274,72.7249259 C972.80274,72.7249259 984.572383,81.0473679 984.572383,81.0473679 C984.572383,81.0473679 987.55222,71.5462004 987.55222,71.5462004 C987.55222,71.5462004 991.107114,80.9415533 991.107114,80.9415533 C991.107114,80.9415533 986.378345,92.8641528 986.378345,92.8641528 C986.378345,92.8641528 1004.42846,116.839774 1004.42846,116.839774 C1004.42846,116.839774 1012.18221,124.025325 1012.18221,124.025325 C1012.18221,124.025325 1010.16239,104.865498 1010.16239,104.865498 C1010.16239,104.865498 1007.26097,90.9964019 1007.26097,90.9964019 C1007.26097,90.9964019 998.627994,81.5715193 998.627994,81.5715193 C998.627994,81.5715193 1009.72991,81.3968022 1009.72991,81.3968022 C1009.72991,81.3968022 1020.93637,74.0143876 1020.93637,74.0143876 C1020.93637,74.0143876 1033.21454,72.6191113 1033.21454,72.6191113 C1033.21454,72.6191113 1017.29594,64.7199277 1017.29594,64.7199277 C1017.29594,64.7199277 1021.91064,60.1994292 1021.91064,60.1994292 C1021.91064,60.1994292 1042.24197,64.7027021 1042.24197,64.7027021 C1042.24197,64.7027021 1043,58.700799 1043,58.700799 C1043,58.700799 1023.73799,56.8994899 1023.73799,56.8994899 C1023.73799,56.8994899 971.745302,43.392132 971.745302,43.392132 C971.745302,43.392132 941.996834,44.3075515 941.996834,44.3075515 C941.996834,44.3075515 913.120455,39.9716133 913.120455,39.9716133 C913.120455,39.9716133 875.59447,33.241312 875.59447,33.241312 C875.59447,33.241312 872.669287,38.2342851 872.669287,38.2342851 C872.669287,38.2342851 855.890477,37.0309515 855.890477,37.0309515 C855.890477,37.0309515 841.005549,30.9773716 841.005549,30.9773716 C841.005549,30.9773716 826.21092,32.611346 826.21092,32.611346 C826.21092,32.611346 798.356336,30.7583599 798.356336,30.7583599 C798.356336,30.7583599 785.65282,33.0641341 785.65282,33.0641341 C785.65282,33.0641341 796.3175,23.594957 796.3175,23.594957 C796.3175,23.594957 774.127932,20.7822571 774.127932,20.7822571 C774.127932,20.7822571 757.410905,17 757.410905,17 C757.410905,17 737.248292,22.5318893 737.248292,22.5318893 C737.248292,22.5318893 735.896197,28.9865804 735.896197,28.9865804 C735.896197,28.9865804 717.145085,30.1726884 717.145085,30.1726884 C717.145085,30.1726884 724.787155,36.5806242 724.787155,36.5806242 C724.787155,36.5806242 703.773839,34.9023553 703.773839,34.9023553 C703.773839,34.9023553 712.166809,46.4755205 712.166809,46.4755205 C712.166809,46.4755205 713.689995,58.6934166 713.689995,58.6934166 C713.689995,58.6934166 702.29105,56.3359656 702.29105,56.3359656 C702.29105,56.3359656 703.666907,45.1122346 703.666907,45.1122346 C703.666907,45.1122346 693.717484,32.9041818 693.717484,32.9041818 C693.717484,32.9041818 684.709061,40.3579597 684.709061,40.3579597 C684.709061,40.3579597 695.934539,50.9468029 695.934539,50.9468029 C695.934539,50.9468029 674.994887,43.5348587 674.994887,43.5348587 C674.994887,43.5348587 670.786521,49.0569048 670.786521,49.0569048 C670.786521,49.0569048 654.511479,47.4770681 654.511479,47.4770681 C654.511479,47.4770681 639.678829,58.1421963 639.678829,58.1421963 C639.678829,58.1421963 632.15082,53.1073896 632.15082,53.1073896 C632.15082,53.1073896 629.056662,50.5374508 629.056662,50.5374508 C629.056662,50.5374508 629.534761,58.0372427 629.534761,58.0372427 C629.534761,58.0372427 619.069963,58.9221628 619.662719,60.4776808 C620.255474,62.0331987 622.466716,63.2753245 619.981451,65.3764794 C617.496186,67.4776343 611.313603,67.5363987 611.313603,67.5363987 Z" id="Path-3"></path>
                    <path d="M464.351137,59.1860482 C464.351137,59.1860482 456.786836,58.8354657 456.786836,58.8354657 C456.786836,58.8354657 451.758745,60.5090415 451.758745,60.5090415 C451.758745,60.5090415 444.899475,61.0365235 444.899475,61.0365235 C444.899475,61.0365235 439.553698,57 439.553698,57 C439.553698,57 434,62.7905082 434,62.7905082 C434,62.7905082 440.480369,65.1212923 440.480369,65.1212923 C440.480369,65.1212923 441.593853,70.8206704 441.593853,70.8206704 C441.593853,70.8206704 450.817297,72 450.817297,72 C450.817297,72 462.121003,66.8420413 462.121003,66.8420413 C462.121003,66.8420413 467.337645,65.7687627 467.940671,63.698592 C468.543696,61.6284212 464.351137,59.1860482 464.351137,59.1860482 Z" id="Path-19"></path>
                    <path d="M482,4.74530148 C482,4.74530148 461.341116,4.68325078 461.341116,4.68325078 C461.341116,4.68325078 460.805599,1.94039921 460.805599,1.94039921 C460.805599,1.94039921 435.618881,0 435.618881,0 C435.618881,0 410.567322,1.45451063 410.567322,1.45451063 C410.567322,1.45451063 380.760615,3.18456846 380.760615,3.18456846 C380.760615,3.18456846 354.571466,9.39174252 354.571466,9.39174252 C354.571466,9.39174252 354.459858,12.4532613 354.459858,12.4532613 C354.459858,12.4532613 335,14.632398 335,14.632398 C335,14.632398 337.52502,22.9124863 337.52502,22.9124863 C337.52502,22.9124863 359.926639,23.6960079 359.926639,23.6960079 C359.926639,23.6960079 359.88773,36.6109685 359.88773,36.6109685 C359.88773,36.6109685 369.841388,38.3389229 369.841388,38.3389229 C369.841388,38.3389229 368.95159,42.1755497 368.95159,42.1755497 C368.95159,42.1755497 363.235992,41.3005295 363.235992,41.3005295 C363.235992,41.3005295 366.213591,47.8474049 366.213591,47.8474049 C366.213591,47.8474049 355.026093,53.5013812 355.026093,53.5013812 C355.026093,53.5013812 355.297435,65.9136259 355.297435,65.9136259 C355.297435,65.9136259 361.177886,78.8706548 361.177886,78.8706548 C361.177886,78.8706548 366.120413,76.9081697 366.120413,76.9081697 C366.120413,76.9081697 369.93559,83.6874723 370.489538,82.9428638 C371.043486,82.1982553 379.602547,75.1644397 379.602547,75.1644397 C379.602547,75.1644397 379.846243,70.2151071 379.846243,70.2151071 C379.846243,70.2151071 390.76547,61.5963691 390.76547,61.5963691 C390.76547,61.5963691 397.305334,57.4263513 397.305334,57.4263513 C397.305334,57.4263513 417.733833,51.6314463 417.733833,51.6314463 C417.733833,51.6314463 442.598012,44.3904444 442.598012,44.3904444 C442.598012,44.3904444 440.034082,38.7522438 440.034082,38.7522438 C440.034082,38.7522438 446.914916,37.8835339 446.914916,37.8835339 C446.914916,37.8835339 441.297616,31.6553257 441.297616,31.6553257 C441.297616,31.6553257 457.904795,25.6101145 457.904795,25.6101145 C457.904795,25.6101145 456.528628,19.2756839 456.528628,19.2756839 C456.528628,19.2756839 451.508886,18.9638135 460.626411,13.7626364 C469.743935,8.56145922 482,4.74530148 482,4.74530148 Z" id="Path-20"></path>
                    <path d="M679.746392,397 C679.746392,397 671.113976,412.467174 671.113976,412.467174 C671.113976,412.467174 661.53603,416.600831 661.53603,416.600831 C661.53603,416.600831 661.102291,426.192133 661.102291,426.192133 C661.102291,426.192133 661.175882,435.790729 661.175882,435.790729 C661.175882,435.790729 656,442.917641 656,442.917641 C656,442.917641 657.011315,453.039023 657.011315,453.039023 C657.011315,453.039023 663.206317,459 663.206317,459 C663.206317,459 669.814988,457.448663 669.814988,457.448663 C669.814988,457.448663 677.850873,430.17017 677.850873,430.17017 C677.850873,430.17017 680.884818,421.276728 680.884818,421.276728 C680.884818,421.276728 681.62853,414.119421 681.62853,414.119421 C681.62853,414.119421 685.60816,419.23308 684.920043,412.974155 C684.231926,406.71523 679.746392,397 679.746392,397 Z" id="Path-7"></path>
                    <path d="M855,320.069911 C855,320.069911 857.573465,328.051702 857.573465,328.051702 C857.573465,328.051702 865.86297,337.431533 865.86297,337.431533 C865.86297,337.431533 876.627327,357.459625 876.627327,357.459625 C876.627327,357.459625 888.310099,372 888.310099,372 C888.310099,372 892.807129,370.565467 892.807129,370.565467 C892.807129,370.565467 894,358.010788 894,358.010788 C894,358.010788 888.673663,352.804944 888.673663,352.804944 C888.673663,352.804944 888.602376,348.653607 888.602376,348.653607 C888.602376,348.653607 884.220594,348.653607 884.220594,348.653607 C884.220594,348.653607 885.879208,345.351665 885.879208,345.351665 C885.879208,345.351665 883.347327,340.525846 883.347327,340.525846 C883.347327,340.525846 876.55604,335.060779 876.55604,335.060779 C876.55604,335.060779 872.569901,333.947128 872.569901,333.947128 C872.569901,333.947128 865.242772,324.69565 865.242772,324.69565 C865.242772,324.69565 864.64426,322.362279 861.610693,320.99229 C858.577126,319.622301 855,320.069911 855,320.069911 Z" id="Path-8"></path>
                    <path d="M935.966161,313 C935.966161,313 929.207754,320.890787 929.207754,320.890787 C929.207754,320.890787 923.622716,324.299299 923.622716,324.299299 C923.622716,324.299299 921.87481,330.953896 921.87481,330.953896 C921.87481,330.953896 916.261835,331.231635 916.261835,331.231635 C916.261835,331.231635 914.820025,336.751714 914.820025,336.751714 C914.820025,336.751714 908.160007,336.098282 908.160007,336.098282 C908.160007,336.098282 907,342.244515 907,342.244515 C907,342.244515 907.649847,350.043549 907.649847,350.043549 C907.649847,350.043549 911.787002,358.622485 911.787002,358.622485 C911.787002,358.622485 925.392486,360.026063 925.392486,360.026063 C925.392486,360.026063 933.895154,362 933.895154,362 C933.895154,362 937.878046,347.586047 937.878046,347.586047 C937.878046,347.586047 944.223466,339.550191 944.223466,339.550191 C944.223466,339.550191 939.548213,324.816342 939.548213,324.816342 C939.548213,324.816342 946.968101,323.278365 945.893633,319.733951 C944.819165,316.189536 935.966161,313 935.966161,313 Z" id="Path-9"></path>
                    <path d="M1008.85469,397.258458 C1008.85469,397.258458 989.812488,391.848182 989.812488,391.848182 C989.812488,391.848182 980.213543,409.863188 980.213543,409.863188 C980.213543,409.863188 968.655745,402.384548 968.655745,402.384548 C968.655745,402.384548 953.016059,418.248682 953.016059,418.248682 C953.016059,418.248682 946.550712,429.098959 946.550712,429.098959 C946.550712,429.098959 917.400037,441.704813 917.400037,441.704813 C917.400037,441.704813 911.146994,463.193186 911.146994,463.193186 C911.146994,463.193186 913.009602,485.539002 913.009602,485.539002 C913.009602,485.539002 907,496.14222 907,496.14222 C907,496.14222 914.78729,501.903069 914.78729,501.903069 C914.78729,501.903069 927.851027,495.223739 927.851027,495.223739 C927.851027,495.223739 952.721665,489.079221 952.721665,489.079221 C952.721665,489.079221 975.265458,483.350345 975.265458,483.350345 C975.265458,483.350345 981.263737,497.560633 981.263737,497.560633 C981.263737,497.560633 994.661499,490.18663 994.661499,490.18663 C994.661499,490.18663 991.96666,511.936596 991.96666,511.936596 C991.96666,511.936596 1002.6158,514.398472 1002.6158,514.398472 C1002.6158,514.398472 1013.53103,516 1013.53103,516 C1013.53103,516 1027.42416,510.84372 1027.42416,510.84372 C1027.42416,510.84372 1039.06122,496.988036 1039.06122,496.988036 C1039.06122,496.988036 1056.55785,473.421455 1056.55785,473.421455 C1056.55785,473.421455 1060,453.796201 1060,453.796201 C1060,453.796201 1042.63075,426.288293 1042.63075,426.288293 C1042.63075,426.288293 1036.68625,405.634108 1036.68625,405.634108 C1036.68625,405.634108 1031.80327,387 1031.80327,387 C1031.80327,387 1017.94977,422.736447 1017.94977,422.736447 C1017.94977,422.736447 1007.49066,415.300313 1005.51445,409.764364 C1003.53824,404.228414 1008.85469,397.258458 1008.85469,397.258458 Z" id="Path-10"></path>
                    <path d="M1098.39783,521 C1098.39783,521 1089.17964,527.401837 1089.17964,527.401837 C1089.17964,527.401837 1076.72241,535.501464 1076.72241,535.501464 C1076.72241,535.501464 1060,545.896033 1060,545.896033 C1060,545.896033 1070.34861,550 1070.34861,550 C1070.34861,550 1081.92631,538.47845 1081.92631,538.47845 C1081.92631,538.47845 1091.33055,537.556374 1091.33055,537.556374 C1091.33055,537.556374 1100.31609,531.778046 1101.73554,528.45271 C1103.155,525.127374 1098.39783,521 1098.39783,521 Z" id="Path-11"></path>
                    <path d="M1114.80802,494 C1114.80802,494 1113.32665,507.581259 1113.32665,507.581259 C1113.32665,507.581259 1104,516.120529 1104,516.120529 C1104,516.120529 1108.34608,520.176104 1108.34608,520.176104 C1108.34608,520.176104 1105.79181,527 1105.79181,527 C1105.79181,527 1118.5169,518.53594 1118.5169,518.53594 C1118.5169,518.53594 1126,509.759467 1126,509.759467 C1126,509.759467 1120.15076,510.071879 1120.15076,510.071879 C1120.15076,510.071879 1120.54085,509.207188 1118.81371,504.011658 C1117.08658,498.816129 1114.80802,494 1114.80802,494 Z" id="Path-12"></path>
                    <path d="M1003.4449,349.561818 C1003.4449,349.561818 996.95938,345 996.95938,345 C996.95938,345 989,348.068859 989,348.068859 C989,348.068859 1001.94564,354.429664 1001.94564,354.429664 C1001.94564,354.429664 994.748598,356.733454 994.748598,356.733454 C994.748598,356.733454 998.491115,363.666273 998.491115,363.666273 C998.491115,363.666273 1002.02187,360.361457 1002.02187,360.361457 C1002.02187,360.361457 1013.04472,366.24177 1013.04472,366.24177 C1013.04472,366.24177 1019.19143,373.743744 1019.19143,373.743744 C1019.19143,373.743744 1014.31811,382.063699 1014.31811,382.063699 C1014.31811,382.063699 1024.46851,380.044487 1024.46851,380.044487 C1024.46851,380.044487 1029.19924,385.889048 1029.19924,385.889048 C1029.19924,385.889048 1035.24854,384.609165 1035.24854,384.609165 C1035.24854,384.609165 1040.92091,377.164392 1040.92091,377.164392 C1040.92091,377.164392 1046.26575,379.908633 1046.26575,379.908633 C1046.26575,379.908633 1052.13293,389.229614 1052.13293,389.229614 C1052.13293,389.229614 1064,391 1064,391 C1064,391 1051.24071,375.512699 1051.24071,375.512699 C1051.24071,375.512699 1054.18983,372.399509 1054.18983,372.399509 C1054.18983,372.399509 1046.86997,368.474057 1046.86997,368.474057 C1046.86997,368.474057 1037.99014,357.567165 1037.99014,357.567165 C1037.99014,357.567165 1015.07198,350.309727 1015.07198,350.309727 C1015.07198,350.309727 1011.50815,357.753265 1008.54834,357.562875 C1005.58852,357.372485 1003.4449,349.561818 1003.4449,349.561818 Z" id="Path-13"></path>
                    <path d="M948.799423,261 C948.799423,261 943.065825,263.418821 943.065825,263.418821 C943.065825,263.418821 943,271.800595 943,271.800595 C943,271.800595 946.337856,282.031093 946.337856,282.031093 C946.337856,282.031093 952.264814,284.911351 952.264814,284.911351 C952.264814,284.911351 962,288 962,288 C962,288 959.52472,281.474392 959.52472,281.474392 C959.52472,281.474392 951.492746,279.844479 951.492746,279.844479 C951.492746,279.844479 953.226226,274.830914 952.536341,270.003969 C951.846456,265.177024 948.799423,261 948.799423,261 Z" id="Path-14"></path>
                    <path d="M969.393921,300 C969.393921,300 964.322707,305.656187 964.322707,305.656187 C964.322707,305.656187 960.663803,303.756085 960.663803,303.756085 C960.663803,303.756085 955,312.816937 955,312.816937 C955,312.816937 963.884454,312.576572 963.884454,312.576572 C963.884454,312.576572 964.264467,317.945233 964.264467,317.945233 C964.264467,317.945233 971.227013,321 971.227013,321 C971.227013,321 973.496989,320.475154 972.899946,313.635396 C972.302903,306.795637 969.393921,300 969.393921,300 Z" id="Path-15"></path>
                    <path d="M897.987795,372 C897.987795,372 894,376.027213 894,376.027213 C894,376.027213 904.291813,380.412319 904.291813,380.412319 C904.291813,380.412319 910.909313,380.433648 910.909313,380.433648 C910.909313,380.433648 916.089122,385.097088 916.089122,385.097088 C916.089122,385.097088 927.758681,384.208763 927.758681,384.208763 C927.758681,384.208763 936.049717,386.339464 937.371448,386.429043 C938.693179,386.518622 951.208842,385.080026 951.208842,385.080026 C951.208842,385.080026 968.197753,384.503094 968.197753,384.503094 C968.197753,384.503094 958.108376,392.427638 959.489069,391.981875 C960.869762,391.536113 975,382.161243 975,382.161243 C975,382.161243 967.42142,381.54912 967.42142,381.54912 C967.42142,381.54912 953.872941,381.525659 953.872941,381.525659 C953.872941,381.525659 939.845886,381.838119 939.845886,381.838119 C939.845886,381.838119 926.879164,381.987417 926.879164,381.987417 C926.879164,381.987417 923.020103,378.367998 923.020103,378.367998 C923.020103,378.367998 924.662194,374.759244 924.662194,374.759244 C924.662194,374.759244 916.362313,375.233799 916.362313,375.233799 C916.362313,375.233799 911.203955,376.273445 905.751122,375.313781 C900.29829,374.354116 897.987795,372 897.987795,372 Z" id="Path-16"></path>
                    <path d="M492.198565,87.1785446 C492.198565,87.1785446 484.498358,87 484.498358,87 C484.498358,87 481,92.2114029 481,92.2114029 C481,92.2114029 481.633817,98.3354839 481.633817,98.3354839 C481.633817,98.3354839 485.455826,102.613203 485.455826,102.613203 C485.455826,102.613203 489.920643,102.392648 489.920643,102.392648 C489.920643,102.392648 490.93992,108.695274 490.93992,108.695274 C490.93992,108.695274 485.417618,109.701425 485.417618,109.701425 C485.417618,109.701425 487.169606,112.466767 487.169606,112.466767 C487.169606,112.466767 482.065353,115.075619 482.065353,115.075619 C482.065353,115.075619 490.724153,115.297224 490.724153,115.297224 C490.724153,115.297224 481.020228,122 481.020228,122 C481.020228,122 489.136238,120.258665 489.136238,120.258665 C489.136238,120.258665 504.411912,118.683271 504.411912,118.683271 C504.411912,118.683271 501.330481,115.537734 501.330481,115.537734 C501.330481,115.537734 507,111.666467 507,111.666467 C507,111.666467 502.838607,109.792798 502.838607,109.792798 C502.838607,109.792798 499.030083,104.355589 499.030083,104.355589 C499.030083,104.355589 492.678423,96.8420105 492.678423,96.8420105 C492.678423,96.8420105 495.891338,90.5992498 495.891338,90.5992498 C495.891338,90.5992498 490.198691,90.7182788 489.550916,90.1182296 C488.903142,89.5181804 492.198565,87.1785446 492.198565,87.1785446 Z" id="Path-17"></path>
                    <path d="M478.324064,101.831902 C478.324064,101.831902 474.245989,102.846744 474.245989,102.846744 C474.245989,102.846744 469.28984,105.106279 469.28984,105.106279 C469.28984,105.106279 469.591444,108.143989 469.591444,108.143989 C469.591444,108.143989 471.086631,110.695704 471.086631,110.695704 C471.086631,110.695704 467,112.281274 467,112.281274 C467,112.281274 470.530481,117 470.530481,117 C470.530481,117 475.284492,112.702989 475.284492,112.702989 C475.284492,112.702989 480.660963,112.795513 480.660963,112.795513 C480.660963,112.795513 481.283422,106.660682 481.283422,106.660682 C481.283422,106.660682 485,103.685304 485,103.685304 C485,103.685304 483.219561,101.500708 481.735829,101.088788 C480.252096,100.676867 478.324064,101.831902 478.324064,101.831902 Z" id="Path-18"></path>
                    <path d="M1010,527.663744 C1006.3038,526.152742 1004.45569,525.39724 1004.45569,525.39724 C1000.52338,524.465747 998.557225,524 998.557225,524 C997.519075,527.810312 997,529.715468 997,529.715468 C997.30183,534.571823 997.452745,537 997.452745,537 L1007.81477,533.057516 C1009.27159,529.461668 1010,527.663744 1010,527.663744 Z" id="Path-21"></path>
                    <path d="M907,260.774165 C901.666667,259.591388 899,259 899,259 C900.30883,262.744962 900.963245,264.617443 900.963245,264.617443 L906.270788,265 C906.756929,262.182777 907,260.774165 907,260.774165 Z" id="Path-22"></path>
                    <path d="M944,234 C939.333333,236.110807 937,237.166211 937,237.166211 C937.04897,242.538304 937.073455,245.22435 937.073455,245.22435 L942.034785,249 C943.344928,239 944,234 944,234 Z" id="Path-23"></path>
                    <path d="M967,338.687614 C962.918715,339.591946 960.878073,340.044112 960.878073,340.044112 C953.773517,338.681371 950.221239,338 950.221239,338 C946.276303,343.594767 944.303835,346.39215 944.303835,346.39215 C943.761062,352.415629 943.489676,355.427369 943.489676,355.427369 C941.829892,358.943081 941,360.700937 941,360.700937 C943.362504,361.433377 944.333333,362.278035 943.912488,363.23491 C944.126188,369.078303 944.233038,372 944.233038,372 C946.898394,370.23408 948.231072,369.351121 948.231072,369.351121 C948.006883,361.794221 947.894789,358.015771 947.894789,358.015771 C950.570633,359.529033 951.908555,360.285663 951.908555,360.285663 C951.625369,365.723191 951.483776,368.441954 951.483776,368.441954 C955.587348,368.667734 957.639135,368.780624 957.639135,368.780624 C958.193707,363.61457 958.470993,361.031543 958.470993,361.031543 C954.373976,357.329025 952.797443,355.262066 953.741396,354.830665 C959.820715,352.65216 962.860374,351.562908 962.860374,351.562908 C959.730908,348.9866 958.166175,347.698447 958.166175,347.698447 C952.405441,348.782995 949.525074,349.32527 949.525074,349.32527 C951.723697,345.871378 952.823009,344.144433 952.823009,344.144433 L961.088496,344.12629 C965.029499,340.500506 967,338.687614 967,338.687614 Z" id="Path-25"></path>
                    <path d="M954,105 C959.315327,110.827496 961.972991,113.741244 961.972991,113.741244 C966.627725,120.382789 968.955093,123.703561 968.955093,123.703561 C972.397982,127.356892 974.119427,129.183558 974.119427,129.183558 C970.992841,130.164023 969.429548,130.654255 969.429548,130.654255 C973.165311,134.211192 975.033192,135.989661 975.033192,135.989661 C979.011064,139.415778 981,141.128837 981,141.128837 C977.492027,143.042946 975.738041,144 975.738041,144 C970.942727,138.129607 968.54507,135.194411 968.54507,135.194411 C964.485194,126.518953 962.455255,122.181225 962.455255,122.181225 L956.539212,114.484855 C954.846404,108.161618 954,105 954,105 Z" id="Path-26"></path>
                    <path d="M977.6237,148.066713 C979.516079,150.351007 980.462268,151.493154 980.462268,151.493154 C977.71735,154.73381 976.344891,156.354138 976.344891,156.354138 C978.712625,159.451379 979.896492,161 979.896492,161 C982.658202,158.219851 984.039058,156.829777 984.039058,156.829777 C987.95428,158.858641 989.911891,159.873073 989.911891,159.873073 C993.303964,157.277127 995,155.979154 995,155.979154 C994.213339,151.484602 993.820008,149.237326 993.820008,149.237326 C988.624686,149.68336 986.027024,149.906377 986.027024,149.906377 L976,145 C977.082467,147.044475 977.6237,148.066713 977.6237,148.066713 Z" id="Path-27"></path>
                    <path d="M985.731222,165 C984.851701,167.843503 984.411941,169.265255 984.411941,169.265255 C985.055211,175.237458 985.376846,178.22356 985.376846,178.22356 C982.132249,181.567672 980.509951,183.239728 980.509951,183.239728 C978.112776,182.52773 976.914188,182.171731 976.914188,182.171731 C977.00535,186.298907 977.050931,188.362495 977.050931,188.362495 C971.337257,188.449651 968.480419,188.493229 968.480419,188.493229 C964.095656,191.870863 961.903274,193.55968 961.903274,193.55968 C965.883587,194.610916 967.873743,195.136535 967.873743,195.136535 C963.291248,197.256439 961,198.316391 961,198.316391 C962.91697,200.869394 963.875455,202.145895 963.875455,202.145895 C965.943933,207.381965 966.978172,210 966.978172,210 C969.26621,207.708465 970.410229,206.562698 970.410229,206.562698 C969.280334,201.12684 968.715386,198.40891 968.715386,198.40891 C972.331051,195.547509 974.138883,194.116808 974.138883,194.116808 C977.216563,194.473478 978.755403,194.651813 978.755403,194.651813 C981.008774,197.816249 982.135459,199.398467 982.135459,199.398467 C983.677509,195.784842 984.448534,193.978029 984.448534,193.978029 C988.828162,191.996234 991.017976,191.005336 991.017976,191.005336 C995.005992,191.209147 997,191.311053 997,191.311053 C996.092232,186.184934 995.638348,183.621874 995.638348,183.621874 C993.788145,179.213117 992.863043,177.008738 992.863043,177.008738 L990.650118,169.522701 C987.370854,166.507567 985.731222,165 985.731222,165 Z" id="Path-28"></path>
                    <path d="M624.080993,344.608035 C624.080993,344.608035 617.889459,344 617.889459,344 C617.889459,344 615,348.022801 615,348.022801 C615,348.022801 617.360258,355 617.360258,355 C617.360258,355 623.940406,354.766558 623.940406,354.766558 C623.940406,354.766558 626.380673,348.568947 626.380673,348.568947 C626.380673,348.568947 628.516006,347.084531 627.882552,345.993485 C627.249097,344.902439 624.080993,344.608035 624.080993,344.608035 Z" id="Path-6"></path>
                    <path d="M679.413083,145.391881 C679.413083,145.391881 676.889851,137.124132 676.889851,137.124132 C676.889851,137.124132 668.370308,137 668.370308,137 C668.370308,137 659,147.014253 659,147.014253 C659,147.014253 666.123178,159.098331 666.123178,159.098331 C666.123178,159.098331 673.620217,167.640325 673.620217,167.640325 C673.620217,167.640325 670.415315,175.431755 670.415315,175.431755 C670.415315,175.431755 675.646729,180.438881 675.646729,180.438881 C675.646729,180.438881 681.154246,185 681.154246,185 C681.154246,185 688,181.287596 688,181.287596 C688,181.287596 686.600993,173.727109 686.600993,173.727109 C686.600993,173.727109 681.960095,165.807217 681.960095,165.807217 C681.960095,165.807217 686.161079,165.921245 686.161079,165.921245 C686.161079,165.921245 684.952305,158.632115 684.952305,158.632115 C684.952305,158.632115 678.469843,160.445016 678.469843,160.445016 C678.469843,160.445016 678.284894,155.839152 678.284894,155.839152 C678.284894,155.839152 670.188092,149.984754 670.188092,149.984754 C670.188092,149.984754 671.362139,146.843706 673.889714,145.585295 C676.417288,144.326885 679.413083,145.391881 679.413083,145.391881 Z" id="Path-4"></path>
                    <path d="M607.679828,139 C607.679828,139 601.621707,143.216751 601.621707,143.216751 C601.621707,143.216751 598.694613,151.443147 598.694613,151.443147 C598.694613,151.443147 596,159.503553 596,159.503553 C596,159.503553 602.86025,166 602.86025,166 C602.86025,166 610.261599,164.618782 610.261599,164.618782 C610.261599,164.618782 620.845635,159.610152 620.845635,159.610152 C620.845635,159.610152 635.046054,165.124365 635.046054,165.124365 C635.046054,165.124365 639.767745,165.655838 639.767745,165.655838 C639.767745,165.655838 644,162.05736 644,162.05736 C644,162.05736 639.053985,153.422843 639.053985,153.422843 C639.053985,153.422843 625.402821,144.348223 625.402821,144.348223 C625.402821,144.348223 618.670368,145.762944 618.670368,145.762944 C618.670368,145.762944 615.63315,149.562437 615.63315,149.562437 C615.63315,149.562437 614.828214,143.011599 613.536736,141.296447 C612.245258,139.581295 607.679828,139 607.679828,139 Z" id="Path-5"></path>
                    <path d="M798.351319,304 C802.010837,308.324897 803.840596,310.487346 803.840596,310.487346 C804.613532,314.307318 805,316.217305 805,316.217305 C799.317661,318.072435 796.476491,319 796.476491,319 L796,312.181648 C797.567546,306.727216 798.351319,304 798.351319,304 Z" id="Path-24"></path>
                    <path d="M222.930646,137.27148 C221.509557,132.273699 220.799013,129.774808 220.799013,129.774808 C218.029886,127.258269 216.645322,126 216.645322,126 C210.554297,127.810616 207.508784,128.715924 207.508784,128.715924 C199.836261,132.817785 196,134.868715 196,134.868715 C205.03487,135.302031 209.552305,135.518689 209.552305,135.518689 C216.489808,136.372555 219.95856,136.799488 219.95856,136.799488 C215.956618,138.953303 213.955647,140.03021 213.955647,140.03021 C210.572748,140.543881 208.881298,140.800717 208.881298,140.800717 C203.626961,146.573511 200.999792,149.459908 200.999792,149.459908 C201.183547,154.570336 201.275424,157.12555 201.275424,157.12555 C206.129869,153.243728 208.557091,151.302816 208.557091,151.302816 C209.942032,145.874723 210.634502,143.160676 210.634502,143.160676 C216.023643,141.088718 218.718214,140.052739 218.718214,140.052739 C220.228168,141.213006 220.983145,141.793139 220.983145,141.793139 C217.971521,145.273938 216.465709,147.014337 216.465709,147.014337 C219.706273,147.11647 221.326555,147.167537 221.326555,147.167537 C219.461141,150.467349 218.528434,152.117256 218.528434,152.117256 C216.806861,155.453115 215.946074,157.121045 215.946074,157.121045 C218.277654,158.373682 219.443444,159 219.443444,159 C228.032482,155.803823 232.327001,154.205735 232.327001,154.205735 C232.492682,152.033146 232.575522,150.946851 232.575522,150.946851 C228.575086,151.314832 226.574868,151.498822 226.574868,151.498822 C221.622521,154.356307 219.146348,155.785049 219.146348,155.785049 C225.243398,147.761563 228.291923,143.749821 228.291923,143.749821 C230.834369,145.122615 232.105592,145.809012 232.105592,145.809012 L234,140.481925 C226.620431,138.341628 222.930646,137.27148 222.930646,137.27148 Z" id="Path-29"></path>
                </g>
            </g>
        </g>
    </g>
</svg>