<?xml version="1.0" encoding="UTF-8"?>
<svg width="86px" height="72px" viewBox="0 0 86 72" version="1.1" xmlns="http://www.w3.org/2000/svg" xmlns:xlink="http://www.w3.org/1999/xlink">
    <title>Group 13</title>
    <g id="Page-1" stroke="none" stroke-width="1" fill="none" fill-rule="evenodd">
        <g id="Slide-3" transform="translate(-949.000000, -478.000000)" stroke="#FFFFFF">
            <g id="Group-9" transform="translate(861.762506, 396.692420)">
                <g id="Group-16" transform="translate(35.237494, 17.307580)">
                    <g id="Group-13" transform="translate(94.600000, 99.994865) scale(-1, 1) translate(-94.600000, -99.994865) translate(54.100000, 66.994865)">
                        <circle id="Oval" stroke-width="5" fill="#232F40" transform="translate(73.189709, 58.392253) rotate(-10.000000) translate(-73.189709, -58.392253) " cx="73.1897085" cy="58.3922529" r="6"></circle>
                        <path d="M7,13 C10.3137085,13 13,10.3137085 13,7 C13,3.6862915 10.3137085,1 7,1 C3.6862915,1 1,3.6862915 1,7 C1,10.3137085 3.6862915,13 7,13 Z" id="Oval" stroke-width="5" fill="#232F40" transform="translate(7.000000, 7.000000) rotate(-10.000000) translate(-7.000000, -7.000000) "></path>
                        <line x1="15.8670236" y1="5.74367011" x2="63.5816683" y2="60.6640272" id="Line-2" stroke-width="2" stroke-linecap="square" transform="translate(39.724346, 33.203849) rotate(-10.000000) translate(-39.724346, -33.203849) "></line>
                    </g>
                </g>
            </g>
        </g>
    </g>
</svg>