<?xml version="1.0" encoding="UTF-8"?>
<svg width="24px" height="24px" viewBox="0 0 24 24" version="1.1" xmlns="http://www.w3.org/2000/svg" xmlns:xlink="http://www.w3.org/1999/xlink">
    <title>Group 4</title>
    <g id="Page-1" stroke="none" stroke-width="1" fill="none" fill-rule="evenodd">
        <g id="Info-2" transform="translate(-874.000000, -91.000000)">
            <g id="Group-4" transform="translate(874.000000, 91.000000)">
                <circle id="Oval" fill="#65D3DF" cx="12" cy="12" r="12"></circle>
                <path d="M12.642,14.176 L12.642,14.092 C12.642,13.5506667 12.894,13.098 13.398,12.734 L13.398,12.734 L13.972,12.328 C14.896,11.6746667 15.358,10.8486667 15.358,9.85 C15.358,9.094 15.064,8.44066667 14.476,7.89 C13.888,7.33933333 13.0806667,7.064 12.054,7.064 C11.0646667,7.064 10.283,7.358 9.709,7.946 C9.135,8.534 8.848,9.22933333 8.848,10.032 C8.848,10.2933333 8.87133333,10.5033333 8.918,10.662 L8.918,10.662 L10.682,10.732 C10.6446667,10.62 10.626,10.4706667 10.626,10.284 C10.626,9.85466667 10.7473333,9.48366667 10.99,9.171 C11.2326667,8.85833333 11.5873333,8.702 12.054,8.702 C12.502,8.702 12.8473333,8.82566667 13.09,9.073 C13.3326667,9.32033333 13.454,9.61666667 13.454,9.962 C13.454,10.4006667 13.2533333,10.7693333 12.852,11.068 L12.852,11.068 L12.18,11.572 C11.4426667,12.132 11.074,12.8086667 11.074,13.602 C11.074,13.742 11.0926667,13.9333333 11.13,14.176 L11.13,14.176 L12.642,14.176 Z M11.914,17.312 C12.222,17.312 12.4856667,17.2046667 12.705,16.99 C12.9243333,16.7753333 13.034,16.514 13.034,16.206 C13.034,15.898 12.9243333,15.6343333 12.705,15.415 C12.4856667,15.1956667 12.222,15.086 11.914,15.086 C11.606,15.086 11.3446667,15.1956667 11.13,15.415 C10.9153333,15.6343333 10.808,15.898 10.808,16.206 C10.808,16.514 10.9153333,16.7753333 11.13,16.99 C11.3446667,17.2046667 11.606,17.312 11.914,17.312 Z" id="?" fill="#232F40" fill-rule="nonzero"></path>
            </g>
        </g>
    </g>
</svg>