<?xml version="1.0" encoding="UTF-8"?>
<svg width="32px" height="32px" viewBox="0 0 32 32" version="1.1" xmlns="http://www.w3.org/2000/svg" xmlns:xlink="http://www.w3.org/1999/xlink">
    <title>Group</title>
    <defs>
        <circle id="path-1" cx="10" cy="10" r="10"></circle>
        <filter x="-50.0%" y="-40.0%" width="200.0%" height="200.0%" filterUnits="objectBoundingBox" id="filter-2">
            <feOffset dx="0" dy="2" in="SourceAlpha" result="shadowOffsetOuter1"></feOffset>
            <feGaussianBlur stdDeviation="3" in="shadowOffsetOuter1" result="shadowBlurOuter1"></feGaussianBlur>
            <feColorMatrix values="0 0 0 0 0   0 0 0 0 0   0 0 0 0 0  0 0 0 0.5 0" type="matrix" in="shadowBlurOuter1"></feColorMatrix>
        </filter>
    </defs>
    <g id="Page-1" stroke="none" stroke-width="1" fill="none" fill-rule="evenodd">
        <g id="Info-1" transform="translate(-870.000000, -89.000000)">
            <g id="Group" transform="translate(876.000000, 93.000000)">
                <g id="Oval">
                    <use fill="black" fill-opacity="1" filter="url(#filter-2)" xlink:href="#path-1"></use>
                    <use fill="#A7F6FF" fill-rule="evenodd" xlink:href="#path-1"></use>
                </g>
                <path d="M10.642,12.176 L10.642,12.092 C10.642,11.5506667 10.894,11.098 11.398,10.734 L11.398,10.734 L11.972,10.328 C12.896,9.67466667 13.358,8.84866667 13.358,7.85 C13.358,7.094 13.064,6.44066667 12.476,5.89 C11.888,5.33933333 11.0806667,5.064 10.054,5.064 C9.06466667,5.064 8.283,5.358 7.709,5.946 C7.135,6.534 6.848,7.22933333 6.848,8.032 C6.848,8.29333333 6.87133333,8.50333333 6.918,8.662 L6.918,8.662 L8.682,8.732 C8.64466667,8.62 8.626,8.47066667 8.626,8.284 C8.626,7.85466667 8.74733333,7.48366667 8.99,7.171 C9.23266667,6.85833333 9.58733333,6.702 10.054,6.702 C10.502,6.702 10.8473333,6.82566667 11.09,7.073 C11.3326667,7.32033333 11.454,7.61666667 11.454,7.962 C11.454,8.40066667 11.2533333,8.76933333 10.852,9.068 L10.852,9.068 L10.18,9.572 C9.44266667,10.132 9.074,10.8086667 9.074,11.602 C9.074,11.742 9.09266667,11.9333333 9.13,12.176 L9.13,12.176 L10.642,12.176 Z M9.914,15.312 C10.222,15.312 10.4856667,15.2046667 10.705,14.99 C10.9243333,14.7753333 11.034,14.514 11.034,14.206 C11.034,13.898 10.9243333,13.6343333 10.705,13.415 C10.4856667,13.1956667 10.222,13.086 9.914,13.086 C9.606,13.086 9.34466667,13.1956667 9.13,13.415 C8.91533333,13.6343333 8.808,13.898 8.808,14.206 C8.808,14.514 8.91533333,14.7753333 9.13,14.99 C9.34466667,15.2046667 9.606,15.312 9.914,15.312 Z" id="?" fill="#232F40" fill-rule="nonzero"></path>
            </g>
        </g>
    </g>
</svg>