<?xml version="1.0" encoding="UTF-8"?>
<svg width="28px" height="28px" viewBox="0 0 28 28" version="1.1" xmlns="http://www.w3.org/2000/svg" xmlns:xlink="http://www.w3.org/1999/xlink">
    <title>Group 7</title>
    <g id="Page-1" stroke="none" stroke-width="1" fill="none" fill-rule="evenodd">
        <g id="Info-2" transform="translate(-578.000000, -445.000000)">
            <g id="Group-7" transform="translate(578.000000, 445.000000)">
                <circle id="Oval" fill="#A7F6FF" cx="14" cy="14" r="14"></circle>
                <path d="M13.787,19.34 C14.823,19.34 15.691,19.018 16.391,18.374 C17.091,17.73 17.441,16.8993333 17.441,15.882 C17.441,15.154 17.2356667,14.5076667 16.825,13.943 C16.4143333,13.3783333 15.8636667,12.9653333 15.173,12.704 L15.173,12.704 L16.951,10.52 L16.951,9.4 L11.001,9.4 L11.001,11.08 L14.277,11.08 L12.443,13.25 L12.443,14.37 C12.8163333,14.1833333 13.2083333,14.09 13.619,14.09 C14.1696667,14.09 14.6293333,14.2603333 14.998,14.601 C15.3666667,14.9416667 15.551,15.3686667 15.551,15.882 C15.551,16.386 15.3666667,16.8083333 14.998,17.149 C14.6293333,17.4896667 14.2023333,17.66 13.717,17.66 C12.9703333,17.66 12.3636667,17.3333333 11.897,16.68 L11.897,16.68 L10.539,17.814 C11.4443333,18.8313333 12.527,19.34 13.787,19.34 Z" id="3" fill="#232F40" fill-rule="nonzero"></path>
            </g>
        </g>
    </g>
</svg>