<?xml version="1.0" encoding="UTF-8"?>
<svg width="28px" height="28px" viewBox="0 0 28 28" version="1.1" xmlns="http://www.w3.org/2000/svg" xmlns:xlink="http://www.w3.org/1999/xlink">
    <title>Group 6</title>
    <g id="Page-1" stroke="none" stroke-width="1" fill="none" fill-rule="evenodd">
        <g id="Info-2" transform="translate(-578.000000, -339.000000)">
            <g id="Group-6" transform="translate(578.000000, 339.000000)">
                <circle id="Oval" fill="#A7F6FF" cx="14" cy="14" r="14"></circle>
                <path d="M17.315,19.2 L17.315,17.52 L13.899,17.52 L15.985,15.098 C16.825,14.1366667 17.245,13.1986667 17.245,12.284 C17.245,11.416 16.937,10.695 16.321,10.121 C15.705,9.547 14.9676667,9.26 14.109,9.26 C13.3903333,9.26 12.7486667,9.47 12.184,9.89 C11.6193333,10.31 11.2296667,10.856 11.015,11.528 L11.015,11.528 L12.751,12.046 C12.8536667,11.71 13.0216667,11.4416667 13.255,11.241 C13.4883333,11.0403333 13.7636667,10.94 14.081,10.94 C14.445,10.94 14.7483333,11.0706667 14.991,11.332 C15.2336667,11.5933333 15.355,11.9013333 15.355,12.256 C15.355,12.8066667 15.033,13.446 14.389,14.174 L14.389,14.174 L10.945,18.08 L10.945,19.2 L17.315,19.2 Z" id="2" fill="#232F40" fill-rule="nonzero"></path>
            </g>
        </g>
    </g>
</svg>