<?xml version="1.0" encoding="UTF-8"?>
<svg width="46px" height="46px" viewBox="0 0 46 46" version="1.1" xmlns="http://www.w3.org/2000/svg" xmlns:xlink="http://www.w3.org/1999/xlink">
    <title>Group 18</title>
    <g id="Page-1" stroke="none" stroke-width="1" fill="none" fill-rule="evenodd">
        <g id="Slide-27" transform="translate(-649.000000, -389.000000)">
            <g id="Group-18" transform="translate(651.000000, 391.000000)">
                <circle id="Oval" stroke="#A7F6FF" stroke-width="3" fill="#232F40" cx="21" cy="21" r="21"></circle>
                <g id="Carbon" transform="translate(9.000000, 9.000000)">
                    <ellipse id="Oval" stroke="#FFFFFF" stroke-width="2" transform="translate(11.909910, 12.036784) rotate(-45.000000) translate(-11.909910, -12.036784) " cx="11.9099102" cy="12.0367838" rx="3.89011778" ry="12.6548401"></ellipse>
                    <ellipse id="Oval" stroke="#FFFFFF" stroke-width="2" transform="translate(11.909910, 12.036784) scale(-1, 1) rotate(-45.000000) translate(-11.909910, -12.036784) " cx="11.9099102" cy="12.0367838" rx="3.89011778" ry="12.6548401"></ellipse>
                    <path d="M12,14.1193987 C13.1525943,14.1193987 14.0869565,13.1850365 14.0869565,12.0324422 C14.0869565,10.879848 13.1525943,9.94548569 12,9.94548569 C10.8474057,9.94548569 9.91304348,10.879848 9.91304348,12.0324422 C9.91304348,13.1850365 10.8474057,14.1193987 12,14.1193987 Z" id="Oval" fill="#FFFFFF"></path>
                    <path d="M17.101776,5.35624901 C18.2543703,5.35624901 19.1887325,4.42188675 19.1887325,3.26929249 C19.1887325,2.11669823 18.2543703,1.18233597 17.101776,1.18233597 C15.9491817,1.18233597 15.0148195,2.11669823 15.0148195,3.26929249 C15.0148195,4.42188675 15.9491817,5.35624901 17.101776,5.35624901 Z" id="Oval" fill="#FFFFFF"></path>
                    <path d="M20.9362393,19.7176545 C22.0888335,19.7176545 23.0231958,18.7832922 23.0231958,17.630698 C23.0231958,16.4781037 22.0888335,15.5437414 20.9362393,15.5437414 C19.783645,15.5437414 18.8492827,16.4781037 18.8492827,17.630698 C18.8492827,18.7832922 19.783645,19.7176545 20.9362393,19.7176545 Z" id="Oval" fill="#FFFFFF"></path>
                    <path d="M2.93220079,8.67349532 C4.08479505,8.67349532 5.01915731,7.73913305 5.01915731,6.58653879 C5.01915731,5.43394453 4.08479505,4.49958227 2.93220079,4.49958227 C1.77960653,4.49958227 0.845244266,5.43394453 0.845244266,6.58653879 C0.845244266,7.73913305 1.77960653,8.67349532 2.93220079,8.67349532 Z" id="Oval" fill="#FFFFFF"></path>
                    <path d="M6.53465807,22.9713036 C7.68725233,22.9713036 8.62161459,22.0369414 8.62161459,20.8843471 C8.62161459,19.7317528 7.68725233,18.7973906 6.53465807,18.7973906 C5.38206381,18.7973906 4.44770155,19.7317528 4.44770155,20.8843471 C4.44770155,22.0369414 5.38206381,22.9713036 6.53465807,22.9713036 Z" id="Oval" fill="#FFFFFF"></path>
                </g>
            </g>
        </g>
    </g>
</svg>