<?xml version="1.0" encoding="UTF-8"?>
<svg width="38px" height="34px" viewBox="0 0 38 34" version="1.1" xmlns="http://www.w3.org/2000/svg" xmlns:xlink="http://www.w3.org/1999/xlink">
    <title>Custodian, Regulator</title>
    <g id="Page-1" stroke="none" stroke-width="1" fill="none" fill-rule="evenodd">
        <g id="Slide-12" transform="translate(-655.000000, -162.000000)" fill="#FFFFFF" stroke="#000000">
            <g id="Custodian,-Regulator" transform="translate(656.000000, 163.000000)">
                <rect id="Rectangle" x="0" y="27.1403524" width="36" height="5"></rect>
                <polygon id="Rectangle" points="2.1124032 23.110496 34 23.110496 34 25.110496 2.1124032 25.110496"></polygon>
                <polygon id="Rectangle" points="29 7.44546146 32 7.44546146 32 23 29 23"></polygon>
                <polygon id="Rectangle" points="4 7.44546146 7 7.44546146 7 23 4 23"></polygon>
                <polygon id="Rectangle" points="12 7.44546146 15 7.44546146 15 23 12 23"></polygon>
                <polygon id="Rectangle" points="21 7.44546146 24 7.44546146 24 23 21 23"></polygon>
                <polygon id="Rectangle" points="0 6.67077656 18.184174 0.3193344 36 6.67077656 36 7.3193344 0 7.3193344"></polygon>
            </g>
        </g>
    </g>
</svg>