<?xml version="1.0" encoding="UTF-8"?>
<svg width="115px" height="137px" viewBox="0 0 115 137" version="1.1" xmlns="http://www.w3.org/2000/svg" xmlns:xlink="http://www.w3.org/1999/xlink">
    <title>Group 16</title>
    <defs>
        <polygon id="path-1" points="0 0 101 0 101 123 -4.14441814e-11 123"></polygon>
        <filter x="-10.4%" y="-6.9%" width="120.8%" height="117.1%" filterUnits="objectBoundingBox" id="filter-2">
            <feMorphology radius="0.5" operator="dilate" in="SourceAlpha" result="shadowSpreadOuter1"></feMorphology>
            <feOffset dx="0" dy="2" in="shadowSpreadOuter1" result="shadowOffsetOuter1"></feOffset>
            <feGaussianBlur stdDeviation="3" in="shadowOffsetOuter1" result="shadowBlurOuter1"></feGaussianBlur>
            <feComposite in="shadowBlurOuter1" in2="SourceAlpha" operator="out" result="shadowBlurOuter1"></feComposite>
            <feColorMatrix values="0 0 0 0 0   0 0 0 0 0   0 0 0 0 0  0 0 0 0.5 0" type="matrix" in="shadowBlurOuter1"></feColorMatrix>
        </filter>
    </defs>
    <g id="Page-1" stroke="none" stroke-width="1" fill="none" fill-rule="evenodd">
        <g id="UC-2-Slide-11" transform="translate(-504.000000, -430.000000)">
            <g id="Group-16" transform="translate(511.000000, 434.592157)">
                <g id="Group-5" transform="translate(62.000000, 111.407843)">
                    <ellipse id="Oval" stroke="#A7F6FF" stroke-width="0.3" cx="6.67266174" cy="6.90612756" rx="2.22422058" ry="2.30204252"></ellipse>
                    <path d="M6.67266174,8.05714882 C7.28686329,8.05714882 7.78477203,7.54181905 7.78477203,6.90612756 C7.78477203,6.27043607 7.28686329,5.7551063 6.67266174,5.7551063 C6.05846019,5.7551063 5.56055145,6.27043607 5.56055145,6.90612756 C5.56055145,7.54181905 6.05846019,8.05714882 6.67266174,8.05714882 Z" id="Oval" fill="#A7F6FF"></path>
                    <ellipse id="Oval" stroke-opacity="0.505354021" stroke="#A7F6FF" stroke-width="0.3" cx="6.67266174" cy="6.90612756" rx="6.67266174" ry="6.90612756"></ellipse>
                    <ellipse id="Oval" stroke-opacity="0.693045236" stroke="#A7F6FF" stroke-width="0.3" cx="6.67266174" cy="6.90612756" rx="4.44844116" ry="4.60408504"></ellipse>
                </g>
                <g id="Rectangle">
                    <use fill="black" fill-opacity="1" filter="url(#filter-2)" xlink:href="#path-1"></use>
                    <use stroke="#A7F6FF" stroke-width="1" fill="#A7F6FF" fill-rule="evenodd" xlink:href="#path-1"></use>
                </g>
                <path d="M34.9988896,18.4078433 L35.6588896,16.8578433 L38.4688896,16.8578433 L39.1288896,18.4078433 L40.5388896,18.4078433 L37.5388896,11.4078433 L36.5888896,11.4078433 L33.5888896,18.4078433 L34.9988896,18.4078433 Z M37.9488896,15.6578433 L36.1688896,15.6578433 L37.0588896,13.5878433 L37.9488896,15.6578433 Z M45.8333338,18.4078433 L45.8333338,17.2078433 L42.8833338,17.2078433 L42.8833338,11.4078433 L41.5333337,11.4078433 L41.5333337,18.4078433 L45.8333338,18.4078433 Z M48.4277779,18.4078433 L48.4277779,15.5578433 L49.7077779,15.5578433 C50.5277779,15.5578433 51.1344446,15.3511766 51.5277779,14.9378433 C51.8944446,14.5578433 52.0777779,14.07451 52.0777779,13.4878433 C52.0777779,12.9011766 51.8944446,12.4178433 51.5277779,12.0378433 C51.1277779,11.6178433 50.5211113,11.4078433 49.7077779,11.4078433 L49.7077779,11.4078433 L47.0777779,11.4078433 L47.0777779,18.4078433 L48.4277779,18.4078433 Z M49.6477779,14.3578433 L48.4277779,14.3578433 L48.4277779,12.6078433 L49.6477779,12.6078433 C50.0411113,12.6078433 50.3244446,12.7011766 50.4977779,12.8878433 C50.6511112,13.05451 50.7277779,13.25451 50.7277779,13.4878433 C50.7277779,13.71451 50.6511112,13.9111766 50.4977779,14.0778433 C50.3244446,14.26451 50.0411113,14.3578433 49.6477779,14.3578433 L49.6477779,14.3578433 Z M54.6222221,18.4078433 L54.6222221,15.2578433 L58.1222221,15.2578433 L58.1222221,18.4078433 L59.4722221,18.4078433 L59.4722221,11.4078433 L58.1222221,11.4078433 L58.1222221,14.0578433 L54.6222221,14.0578433 L54.6222221,11.4078433 L53.2722221,11.4078433 L53.2722221,18.4078433 L54.6222221,18.4078433 Z M61.8766662,18.4078433 L62.5366663,16.8578433 L65.3466662,16.8578433 L66.0066662,18.4078433 L67.4166663,18.4078433 L64.4166663,11.4078433 L63.4666663,11.4078433 L60.4666663,18.4078433 L61.8766662,18.4078433 Z M64.8266663,15.6578433 L63.0466663,15.6578433 L63.9366663,13.5878433 L64.8266663,15.6578433 Z M10.7666687,29.4078433 L10.7666687,26.5578433 L12.0466687,26.5578433 C12.8666687,26.5578433 13.4733354,26.3511766 13.8666687,25.9378433 C14.2333354,25.5578433 14.4166687,25.07451 14.4166687,24.4878433 C14.4166687,23.9011766 14.2333354,23.4178433 13.8666687,23.0378433 C13.4666687,22.6178433 12.8600021,22.4078433 12.0466687,22.4078433 L12.0466687,22.4078433 L9.41666875,22.4078433 L9.41666875,29.4078433 L10.7666687,29.4078433 Z M11.9866687,25.3578433 L10.7666687,25.3578433 L10.7666687,23.6078433 L11.9866687,23.6078433 C12.3800021,23.6078433 12.6633354,23.7011766 12.8366687,23.8878433 C12.9900021,24.05451 13.0666687,24.25451 13.0666687,24.4878433 C13.0666687,24.71451 12.9900021,24.9111766 12.8366687,25.0778433 C12.6633354,25.26451 12.3800021,25.3578433 11.9866687,25.3578433 L11.9866687,25.3578433 Z M16.9611129,29.4078433 L16.9611129,26.3078433 L17.4511129,26.3078433 L19.9411129,29.4078433 L21.6111129,29.4078433 L18.9911129,26.1978433 C19.2577796,26.1111766 19.4911129,25.97451 19.6911129,25.7878433 C20.1044462,25.39451 20.3111129,24.9178433 20.3111129,24.3578433 C20.3111129,23.7978433 20.1044462,23.3211766 19.6911129,22.9278433 C19.3111129,22.5811766 18.8011129,22.4078433 18.1611129,22.4078433 L18.1611129,22.4078433 L15.6111129,22.4078433 L15.6111129,29.4078433 L16.9611129,29.4078433 Z M18.0811129,25.1078433 L16.9611129,25.1078433 L16.9611129,23.6078433 L18.0811129,23.6078433 C18.4011129,23.6078433 18.6277796,23.6811766 18.7611129,23.8278433 C18.8944462,23.97451 18.9611129,24.15451 18.9611129,24.3678433 C18.9611129,24.57451 18.8944462,24.7511766 18.7611129,24.8978433 C18.6344462,25.0378433 18.4077796,25.1078433 18.0811129,25.1078433 L18.0811129,25.1078433 Z M25.2555571,29.5078433 C26.3222237,29.5078433 27.1972237,29.1611766 27.8805571,28.4678433 C28.5638904,27.77451 28.9055571,26.9211766 28.9055571,25.9078433 C28.9055571,24.89451 28.5638904,24.0411766 27.8805571,23.3478433 C27.1972237,22.65451 26.3222237,22.3078433 25.2555571,22.3078433 C24.1888904,22.3078433 23.3138904,22.65451 22.6305571,23.3478433 C21.9472237,24.0411766 21.6055571,24.89451 21.6055571,25.9078433 C21.6055571,26.9211766 21.9455571,27.77451 22.6255571,28.4678433 C23.3122237,29.1611766 24.1888904,29.5078433 25.2555571,29.5078433 Z M25.2555571,28.3078433 C24.6022237,28.3078433 24.0555571,28.07451 23.6155571,27.6078433 C23.1755571,27.1411766 22.9555571,26.57451 22.9555571,25.9078433 C22.9555571,25.2411766 23.1755571,24.67451 23.6155571,24.2078433 C24.0555571,23.7411766 24.6022237,23.5078433 25.2555571,23.5078433 C25.9088904,23.5078433 26.4555571,23.7411766 26.8955571,24.2078433 C27.3355571,24.67451 27.5555571,25.2411766 27.5555571,25.9078433 C27.5555571,26.57451 27.3355571,27.1411766 26.8955571,27.6078433 C26.4555571,28.07451 25.9088904,28.3078433 25.2555571,28.3078433 Z M31.5500012,29.4078433 L31.5500012,26.5578433 L32.8300012,26.5578433 C33.6500013,26.5578433 34.2566679,26.3511766 34.6500012,25.9378433 C35.0166679,25.5578433 35.2000012,25.07451 35.2000012,24.4878433 C35.2000012,23.9011766 35.0166679,23.4178433 34.6500012,23.0378433 C34.2500012,22.6178433 33.6433346,22.4078433 32.8300012,22.4078433 L32.8300012,22.4078433 L30.2000012,22.4078433 L30.2000012,29.4078433 L31.5500012,29.4078433 Z M32.7700012,25.3578433 L31.5500012,25.3578433 L31.5500012,23.6078433 L32.7700012,23.6078433 C33.1633346,23.6078433 33.4466679,23.7011766 33.6200012,23.8878433 C33.7733346,24.05451 33.8500012,24.25451 33.8500012,24.4878433 C33.8500012,24.71451 33.7733346,24.9111766 33.6200012,25.0778433 C33.4466679,25.26451 33.1633346,25.3578433 32.7700012,25.3578433 L32.7700012,25.3578433 Z M40.6944454,29.4078433 L40.6944454,28.2078433 L37.7444454,28.2078433 L37.7444454,26.2578433 L39.8944454,26.2578433 L39.8944454,25.0578433 L37.7444454,25.0578433 L37.7444454,23.6078433 L40.5944454,23.6078433 L40.5944454,22.4078433 L36.3944454,22.4078433 L36.3944454,29.4078433 L40.6944454,29.4078433 Z M43.4388896,29.4078433 L43.4388896,26.3078433 L43.9288896,26.3078433 L46.4188896,29.4078433 L48.0888896,29.4078433 L45.4688896,26.1978433 C45.7355562,26.1111766 45.9688896,25.97451 46.1688896,25.7878433 C46.5822229,25.39451 46.7888896,24.9178433 46.7888896,24.3578433 C46.7888896,23.7978433 46.5822229,23.3211766 46.1688896,22.9278433 C45.7888896,22.5811766 45.2788896,22.4078433 44.6388896,22.4078433 L44.6388896,22.4078433 L42.0888896,22.4078433 L42.0888896,29.4078433 L43.4388896,29.4078433 Z M44.5588896,25.1078433 L43.4388896,25.1078433 L43.4388896,23.6078433 L44.5588896,23.6078433 C44.8788896,23.6078433 45.1055562,23.6811766 45.2388896,23.8278433 C45.3722229,23.97451 45.4388896,24.15451 45.4388896,24.3678433 C45.4388896,24.57451 45.3722229,24.7511766 45.2388896,24.8978433 C45.1122229,25.0378433 44.8855562,25.1078433 44.5588896,25.1078433 L44.5588896,25.1078433 Z M51.1333338,29.4078433 L51.1333338,23.6078433 L52.9833337,23.6078433 L52.9833337,22.4078433 L47.9333338,22.4078433 L47.9333338,23.6078433 L49.7833337,23.6078433 L49.7833337,29.4078433 L51.1333338,29.4078433 Z M55.5777779,29.4078433 L55.5777779,22.4078433 L54.2277779,22.4078433 L54.2277779,29.4078433 L55.5777779,29.4078433 Z M61.6722221,29.4078433 L61.6722221,28.2078433 L58.7222221,28.2078433 L58.7222221,26.2578433 L60.8722221,26.2578433 L60.8722221,25.0578433 L58.7222221,25.0578433 L58.7222221,23.6078433 L61.5722221,23.6078433 L61.5722221,22.4078433 L57.3722221,22.4078433 L57.3722221,29.4078433 L61.6722221,29.4078433 Z M65.0466663,29.5078433 C65.6933329,29.5078433 66.2499996,29.30951 66.7166663,28.9128433 C67.1833329,28.5161766 67.4166662,28.01451 67.4166662,27.4078433 C67.4166662,26.9678433 67.3049996,26.59451 67.0816662,26.2878433 C66.8583329,25.9811766 66.5883329,25.7511766 66.2716662,25.5978433 C65.9549996,25.44451 65.6399996,25.30951 65.3266663,25.1928433 C65.0133329,25.0761766 64.7449996,24.9428433 64.5216662,24.7928433 C64.2983329,24.6428433 64.1866663,24.4678433 64.1866663,24.2678433 C64.1866663,24.01451 64.2949996,23.82451 64.5116662,23.6978433 C64.7283329,23.5711766 64.9799996,23.5078433 65.2666663,23.5078433 C65.7399996,23.5078433 66.1433329,23.6611766 66.4766662,23.9678433 L66.4766662,23.9678433 L67.1766662,22.9678433 C66.5833329,22.5278433 65.9066662,22.3078433 65.1466662,22.3078433 C64.5266662,22.3078433 63.9866662,22.4878433 63.5266663,22.8478433 C63.0666662,23.2078433 62.8366663,23.68451 62.8366663,24.2778433 C62.8366663,24.9511766 63.1666663,25.4811766 63.8266663,25.8678433 C64.0199996,25.9811766 64.3349996,26.1211766 64.7716662,26.2878433 C65.2083329,26.45451 65.5333329,26.61951 65.7466663,26.7828433 C65.9599996,26.9461766 66.0666662,27.1611766 66.0666662,27.4278433 C66.0666662,27.6811766 65.9716662,27.8911766 65.7816663,28.0578433 C65.5916663,28.22451 65.3466662,28.3078433 65.0466663,28.3078433 C64.4133329,28.3078433 63.8633329,28.0511766 63.3966662,27.5378433 L63.3966662,27.5378433 L62.5166663,28.4578433 C63.2833329,29.1578433 64.1266662,29.5078433 65.0466663,29.5078433 Z M69.2111104,30.8078433 L70.4111104,27.8578433 L69.0111104,27.8578433 L68.2611104,30.8078433 L69.2111104,30.8078433 Z M79.1999987,29.4078433 L79.1999987,28.2078433 L76.2499988,28.2078433 L76.2499988,22.4078433 L74.8999987,22.4078433 L74.8999987,29.4078433 L79.1999987,29.4078433 Z M84.7444429,29.4078433 L84.7444429,28.2078433 L81.7944429,28.2078433 L81.7944429,22.4078433 L80.4444429,22.4078433 L80.4444429,29.4078433 L84.7444429,29.4078433 Z M89.0488871,29.5078433 C89.6688871,29.5078433 90.2338871,29.3861766 90.7438871,29.1428433 C91.2538871,28.89951 91.6688871,28.57451 91.9888871,28.1678433 L91.9888871,28.1678433 L91.0588871,27.3378433 C90.5588871,27.98451 89.8988871,28.3078433 89.0788871,28.3078433 C88.4055538,28.3078433 87.8388871,28.0778433 87.3788871,27.6178433 C86.9188871,27.1578433 86.6888871,26.5878433 86.6888871,25.9078433 C86.6888871,25.2411766 86.9122204,24.67451 87.3588871,24.2078433 C87.8055538,23.7411766 88.3588871,23.5078433 89.0188871,23.5078433 C89.6722204,23.5078433 90.2388871,23.7478433 90.7188871,24.2278433 L90.7188871,24.2278433 L91.5888871,23.3078433 C90.9022204,22.6411766 90.0488871,22.3078433 89.0288871,22.3078433 C87.9555537,22.3078433 87.0722204,22.6528433 86.3788871,23.3428433 C85.6855537,24.0328433 85.3388871,24.8878433 85.3388871,25.9078433 C85.3388871,26.9278433 85.6872204,27.7828433 86.3838871,28.4728433 C87.0805538,29.1628433 87.9688871,29.5078433 89.0488871,29.5078433 Z" id="ALPHAPROPERTIES,LLC" fill="#232F40" fill-rule="nonzero"></path>
                <path d="M30.8322233,110.407843 L31.4922233,108.857843 L34.3022233,108.857843 L34.9622233,110.407843 L36.3722233,110.407843 L33.3722233,103.407843 L32.4222233,103.407843 L29.4222233,110.407843 L30.8322233,110.407843 Z M33.7822233,107.657843 L32.0022233,107.657843 L32.8922233,105.587843 L33.7822233,107.657843 Z M41.6666675,110.407843 L41.6666675,109.207843 L38.7166675,109.207843 L38.7166675,103.407843 L37.3666675,103.407843 L37.3666675,110.407843 L41.6666675,110.407843 Z M44.2611117,110.407843 L44.2611117,103.407843 L42.9111117,103.407843 L42.9111117,110.407843 L44.2611117,110.407843 Z M49.2655558,110.507843 C49.8855558,110.507843 50.4505558,110.386177 50.9605558,110.142843 C51.4705558,109.89951 51.8855558,109.57451 52.2055558,109.167843 L52.2055558,109.167843 L51.2755558,108.337843 C50.7755558,108.98451 50.1155558,109.307843 49.2955558,109.307843 C48.6222225,109.307843 48.0555558,109.077843 47.5955558,108.617843 C47.1355558,108.157843 46.9055558,107.587843 46.9055558,106.907843 C46.9055558,106.241177 47.1288892,105.67451 47.5755558,105.207843 C48.0222225,104.741177 48.5755558,104.507843 49.2355558,104.507843 C49.8888892,104.507843 50.4555558,104.747843 50.9355558,105.227843 L50.9355558,105.227843 L51.8055558,104.307843 C51.1188892,103.641177 50.2655558,103.307843 49.2455558,103.307843 C48.1722225,103.307843 47.2888892,103.652843 46.5955558,104.342843 C45.9022225,105.032843 45.5555558,105.887843 45.5555558,106.907843 C45.5555558,107.927843 45.9038892,108.782843 46.6005558,109.472843 C47.2972225,110.162843 48.1855558,110.507843 49.2655558,110.507843 Z M57.7,110.407843 L57.7,109.207843 L54.75,109.207843 L54.75,107.257843 L56.9,107.257843 L56.9,106.057843 L54.75,106.057843 L54.75,104.607843 L57.6,104.607843 L57.6,103.407843 L53.4,103.407843 L53.4,110.407843 L57.7,110.407843 Z M64.7188883,110.407843 C65.5188883,110.407843 66.1288883,110.197843 66.5488883,109.777843 C66.975555,109.36451 67.1888883,108.861177 67.1888883,108.267843 C67.1888883,107.881177 67.0922217,107.52451 66.8988883,107.197843 C66.705555,106.871177 66.4522217,106.631177 66.1388883,106.477843 C66.2588883,106.351177 66.3638883,106.17951 66.4538883,105.962843 C66.5438883,105.746177 66.5888883,105.527843 66.5888883,105.307843 C66.5888883,104.747843 66.3722217,104.277843 65.9388883,103.897843 C65.565555,103.571177 65.0422217,103.407843 64.3688883,103.407843 L64.3688883,103.407843 L61.9888883,103.407843 L61.9888883,110.407843 L64.7188883,110.407843 Z M64.2888883,106.107843 L63.3388883,106.107843 L63.3388883,104.607843 L64.2888883,104.607843 C64.635555,104.607843 64.885555,104.691177 65.0388883,104.857843 C65.1722217,105.00451 65.2388883,105.171177 65.2388883,105.357843 C65.2388883,105.54451 65.1722217,105.711177 65.0388883,105.857843 C64.885555,106.02451 64.635555,106.107843 64.2888883,106.107843 L64.2888883,106.107843 Z M64.6888883,109.207843 L63.3388883,109.207843 L63.3388883,107.307843 L64.6888883,107.307843 C65.1022217,107.307843 65.4022217,107.411177 65.5888883,107.617843 C65.755555,107.797843 65.8388883,108.011177 65.8388883,108.257843 C65.8388883,108.50451 65.755555,108.717843 65.5888883,108.897843 C65.4022217,109.10451 65.1022217,109.207843 64.6888883,109.207843 L64.6888883,109.207843 Z M69.6033325,110.507843 C69.8499992,110.507843 70.0583325,110.42451 70.2283325,110.257843 C70.3983325,110.091177 70.4833325,109.88451 70.4833325,109.637843 C70.4833325,109.391177 70.3983325,109.182843 70.2283325,109.012843 C70.0583325,108.842843 69.8499992,108.757843 69.6033325,108.757843 C69.3566658,108.757843 69.1499992,108.842843 68.9833325,109.012843 C68.8166658,109.182843 68.7333325,109.391177 68.7333325,109.637843 C68.7333325,109.88451 68.8166658,110.091177 68.9833325,110.257843 C69.1499992,110.42451 69.3566658,110.507843 69.6033325,110.507843 Z" id="ALICEB." fill="#232F40" fill-rule="nonzero"></path>
                <g id="Group-11" transform="translate(50.500000, 66.907843) rotate(180.000000) translate(-50.500000, -66.907843) translate(46.000000, 37.407843)" stroke="#232F40" stroke-linecap="round" stroke-width="2">
                    <line x1="4.49039853" y1="0.344540286" x2="4.49039853" y2="56.5548628" id="Line-4"></line>
                    <polyline id="Rectangle" transform="translate(4.500000, 54.612135) rotate(45.000000) translate(-4.500000, -54.612135) " points="7 52.1121345 7 57.1121345 2 57.1121345"></polyline>
                </g>
                <g id="Group-2" transform="translate(13.000000, 52.407843)">
                    <polygon id="Rectangle" fill="#A7F6FF" points="2.5973568 0 73.5973568 0 73.5973568 32 2.5973568 32"></polygon>
                    <path d="M25.1138896,13 L25.1138896,9.9 L25.6038896,9.9 L28.0938896,13 L29.7638896,13 L27.1438896,9.79 C27.4105562,9.70333333 27.6438896,9.56666667 27.8438896,9.38 C28.2572229,8.98666667 28.4638896,8.51 28.4638896,7.95 C28.4638896,7.39 28.2572229,6.91333333 27.8438896,6.52 C27.4638896,6.17333333 26.9538896,6 26.3138896,6 L26.3138896,6 L23.7638896,6 L23.7638896,13 L25.1138896,13 Z M26.2338896,8.7 L25.1138896,8.7 L25.1138896,7.2 L26.2338896,7.2 C26.5538896,7.2 26.7805563,7.27333333 26.9138896,7.42 C27.0472229,7.56666667 27.1138896,7.74666667 27.1138896,7.96 C27.1138896,8.16666667 27.0472229,8.34333333 26.9138896,8.49 C26.7872229,8.63 26.5605563,8.7 26.2338896,8.7 L26.2338896,8.7 Z M34.9583338,13 L34.9583338,11.8 L32.0083337,11.8 L32.0083337,9.85 L34.1583337,9.85 L34.1583337,8.65 L32.0083337,8.65 L32.0083337,7.2 L34.8583337,7.2 L34.8583337,6 L30.6583338,6 L30.6583338,13 L34.9583338,13 Z M37.7027779,13 L37.7027779,8.44 L41.6027779,13 L42.5527779,13 L42.5527779,6 L41.2027779,6 L41.2027779,10.56 L37.3027779,6 L36.3527779,6 L36.3527779,13 L37.7027779,13 Z M46.9972221,13 L46.9972221,7.2 L48.8472221,7.2 L48.8472221,6 L43.7972221,6 L43.7972221,7.2 L45.6472221,7.2 L45.6472221,13 L46.9972221,13 Z M51.0616663,9.76 C51.3083329,9.76 51.5166663,9.67833333 51.6866663,9.515 C51.8566663,9.35166667 51.9416663,9.15 51.9416663,8.91 C51.9416663,8.66333333 51.8566663,8.45833333 51.6866663,8.295 C51.5166663,8.13166667 51.3083329,8.05 51.0616663,8.05 C50.8149996,8.05 50.6083329,8.13166667 50.4416663,8.295 C50.2749996,8.45833333 50.1916663,8.66333333 50.1916663,8.91 C50.1916663,9.15666667 50.2749996,9.36 50.4416663,9.52 C50.6083329,9.68 50.8149996,9.76 51.0616663,9.76 Z M51.0616663,13.1 C51.3083329,13.1 51.5166663,13.0183333 51.6866663,12.855 C51.8566663,12.6916667 51.9416663,12.49 51.9416663,12.25 C51.9416663,12.0033333 51.8566663,11.7983333 51.6866663,11.635 C51.5166663,11.4716667 51.3083329,11.39 51.0616663,11.39 C50.8149996,11.39 50.6083329,11.4716667 50.4416663,11.635 C50.2749996,11.7983333 50.1916663,12.0033333 50.1916663,12.25 C50.1916663,12.4966667 50.2749996,12.7 50.4416663,12.86 C50.6083329,13.02 50.8149996,13.1 51.0616663,13.1 Z M6.7166685,26 L6.7166685,24.56 L3.7886685,24.56 L5.5766685,22.484 C6.2966685,21.66 6.6566685,20.856 6.6566685,20.072 C6.6566685,19.328 6.3926685,18.71 5.8646685,18.218 C5.3366685,17.726 4.7046685,17.48 3.9686685,17.48 C3.3526685,17.48 2.8026685,17.66 2.3186685,18.02 C1.8346685,18.38 1.5006685,18.848 1.3166685,19.424 L1.3166685,19.424 L2.8046685,19.868 C2.8926685,19.58 3.0366685,19.35 3.2366685,19.178 C3.4366685,19.006 3.6726685,18.92 3.9446685,18.92 C4.2566685,18.92 4.5166685,19.032 4.7246685,19.256 C4.9326685,19.48 5.0366685,19.744 5.0366685,20.048 C5.0366685,20.52 4.7606685,21.068 4.2086685,21.692 L4.2086685,21.692 L1.2566685,25.04 L1.2566685,26 L6.7166685,26 Z M9.2900015,27.68 L10.7300015,24.14 L9.0500015,24.14 L8.1500015,27.68 L9.2900015,27.68 Z M15.8833345,26.12 C16.4033345,26.12 16.8573345,26.008 17.2453345,25.784 C17.6333345,25.56 17.9393345,25.248 18.1633345,24.848 C18.3873345,24.448 18.5533345,23.994 18.6613345,23.486 C18.7693345,22.978 18.8233345,22.416 18.8233345,21.8 C18.8233345,21.184 18.7693345,20.622 18.6613345,20.114 C18.5533345,19.606 18.3873345,19.152 18.1633345,18.752 C17.9393345,18.352 17.6333345,18.04 17.2453345,17.816 C16.8573345,17.592 16.4033345,17.48 15.8833345,17.48 C15.3633345,17.48 14.9093345,17.592 14.5213345,17.816 C14.1333345,18.04 13.8273345,18.352 13.6033345,18.752 C13.3793345,19.152 13.2133345,19.606 13.1053345,20.114 C12.9973345,20.622 12.9433345,21.184 12.9433345,21.8 C12.9433345,22.416 12.9953345,22.98 13.0993345,23.492 C13.2113345,23.996 13.3793345,24.448 13.6033345,24.848 C13.8273345,25.248 14.1333345,25.56 14.5213345,25.784 C14.9093345,26.008 15.3633345,26.12 15.8833345,26.12 Z M15.8833345,24.68 C15.4273345,24.68 15.0933345,24.416 14.8813345,23.888 C14.6693345,23.36 14.5633345,22.664 14.5633345,21.8 C14.5633345,20.936 14.6693345,20.24 14.8813345,19.712 C15.0933345,19.184 15.4273345,18.92 15.8833345,18.92 C16.3393345,18.92 16.6733345,19.184 16.8853345,19.712 C17.0973345,20.24 17.2033345,20.936 17.2033345,21.8 C17.2033345,22.664 17.0953345,23.36 16.8793345,23.888 C16.6713345,24.416 16.3393345,24.68 15.8833345,24.68 Z M23.3166675,26.12 C23.8366675,26.12 24.2906675,26.008 24.6786675,25.784 C25.0666675,25.56 25.3726675,25.248 25.5966675,24.848 C25.8206675,24.448 25.9866675,23.994 26.0946675,23.486 C26.2026675,22.978 26.2566675,22.416 26.2566675,21.8 C26.2566675,21.184 26.2026675,20.622 26.0946675,20.114 C25.9866675,19.606 25.8206675,19.152 25.5966675,18.752 C25.3726675,18.352 25.0666675,18.04 24.6786675,17.816 C24.2906675,17.592 23.8366675,17.48 23.3166675,17.48 C22.7966675,17.48 22.3426675,17.592 21.9546675,17.816 C21.5666675,18.04 21.2606675,18.352 21.0366675,18.752 C20.8126675,19.152 20.6466675,19.606 20.5386675,20.114 C20.4306675,20.622 20.3766675,21.184 20.3766675,21.8 C20.3766675,22.416 20.4286675,22.98 20.5326675,23.492 C20.6446675,23.996 20.8126675,24.448 21.0366675,24.848 C21.2606675,25.248 21.5666675,25.56 21.9546675,25.784 C22.3426675,26.008 22.7966675,26.12 23.3166675,26.12 Z M23.3166675,24.68 C22.8606675,24.68 22.5266675,24.416 22.3146675,23.888 C22.1026675,23.36 21.9966675,22.664 21.9966675,21.8 C21.9966675,20.936 22.1026675,20.24 22.3146675,19.712 C22.5266675,19.184 22.8606675,18.92 23.3166675,18.92 C23.7726675,18.92 24.1066675,19.184 24.3186675,19.712 C24.5306675,20.24 24.6366675,20.936 24.6366675,21.8 C24.6366675,22.664 24.5286675,23.36 24.3126675,23.888 C24.1046675,24.416 23.7726675,24.68 23.3166675,24.68 Z M30.7500005,26.12 C31.2700005,26.12 31.7240005,26.008 32.1120005,25.784 C32.5000005,25.56 32.8060005,25.248 33.0300005,24.848 C33.2540005,24.448 33.4200005,23.994 33.5280005,23.486 C33.6360005,22.978 33.6900005,22.416 33.6900005,21.8 C33.6900005,21.184 33.6360005,20.622 33.5280005,20.114 C33.4200005,19.606 33.2540005,19.152 33.0300005,18.752 C32.8060005,18.352 32.5000005,18.04 32.1120005,17.816 C31.7240005,17.592 31.2700005,17.48 30.7500005,17.48 C30.2300005,17.48 29.7760005,17.592 29.3880005,17.816 C29.0000005,18.04 28.6940005,18.352 28.4700005,18.752 C28.2460005,19.152 28.0800005,19.606 27.9720005,20.114 C27.8640005,20.622 27.8100005,21.184 27.8100005,21.8 C27.8100005,22.416 27.8620005,22.98 27.9660005,23.492 C28.0780005,23.996 28.2460005,24.448 28.4700005,24.848 C28.6940005,25.248 29.0000005,25.56 29.3880005,25.784 C29.7760005,26.008 30.2300005,26.12 30.7500005,26.12 Z M30.7500005,24.68 C30.2940005,24.68 29.9600005,24.416 29.7480005,23.888 C29.5360005,23.36 29.4300005,22.664 29.4300005,21.8 C29.4300005,20.936 29.5360005,20.24 29.7480005,19.712 C29.9600005,19.184 30.2940005,18.92 30.7500005,18.92 C31.2060005,18.92 31.5400005,19.184 31.7520005,19.712 C31.9640005,20.24 32.0700005,20.936 32.0700005,21.8 C32.0700005,22.664 31.9620005,23.36 31.7460005,23.888 C31.5380005,24.416 31.2060005,24.68 30.7500005,24.68 Z M42.5566665,26.12 C43.5886665,26.12 44.4286665,25.832 45.0766665,25.256 C45.7966665,24.608 46.1566665,23.676 46.1566665,22.46 L46.1566665,22.46 L46.1566665,17.6 L44.5366665,17.6 L44.5366665,22.58 C44.5366665,23.276 44.3526665,23.796 43.9846665,24.14 C43.6086665,24.5 43.1326665,24.68 42.5566665,24.68 C41.9806665,24.68 41.5046665,24.5 41.1286665,24.14 C40.7606665,23.796 40.5766665,23.276 40.5766665,22.58 L40.5766665,22.58 L40.5766665,17.6 L38.9566665,17.6 L38.9566665,22.46 C38.9566665,23.676 39.3166665,24.608 40.0366665,25.256 C40.6846665,25.832 41.5246665,26.12 42.5566665,26.12 Z M50.4459995,26.12 C51.2219995,26.12 51.8899995,25.882 52.4499995,25.406 C53.0099995,24.93 53.2899995,24.328 53.2899995,23.6 C53.2899995,23.072 53.1559995,22.624 52.8879995,22.256 C52.6199995,21.888 52.2959995,21.612 51.9159995,21.428 C51.5359995,21.244 51.1579995,21.082 50.7819995,20.942 C50.4059995,20.802 50.0839995,20.642 49.8159995,20.462 C49.5479995,20.282 49.4139995,20.072 49.4139995,19.832 C49.4139995,19.528 49.5439995,19.3 49.8039995,19.148 C50.0639995,18.996 50.3659995,18.92 50.7099995,18.92 C51.2779995,18.92 51.7619995,19.104 52.1619995,19.472 L52.1619995,19.472 L53.0019995,18.272 C52.2899995,17.744 51.4779995,17.48 50.5659995,17.48 C49.8219995,17.48 49.1739995,17.696 48.6219995,18.128 C48.0699995,18.56 47.7939995,19.132 47.7939995,19.844 C47.7939995,20.652 48.1899995,21.288 48.9819995,21.752 C49.2139995,21.888 49.5919995,22.056 50.1159995,22.256 C50.6399995,22.456 51.0299995,22.654 51.2859995,22.85 C51.5419995,23.046 51.6699995,23.304 51.6699995,23.624 C51.6699995,23.928 51.5559995,24.18 51.3279995,24.38 C51.0999995,24.58 50.8059995,24.68 50.4459995,24.68 C49.6859995,24.68 49.0259995,24.372 48.4659995,23.756 L48.4659995,23.756 L47.4099995,24.86 C48.3299995,25.7 49.3419995,26.12 50.4459995,26.12 Z M57.5433325,26 C58.7513325,26 59.7153325,25.736 60.4353325,25.208 C60.9553325,24.824 61.3633325,24.332 61.6593325,23.732 C61.9553325,23.132 62.1033325,22.488 62.1033325,21.8 C62.1033325,21.112 61.9553325,20.468 61.6593325,19.868 C61.3633325,19.268 60.9553325,18.776 60.4353325,18.392 C59.7153325,17.864 58.7513325,17.6 57.5433325,17.6 L57.5433325,17.6 L54.9033325,17.6 L54.9033325,26 L57.5433325,26 Z M57.7233325,24.56 L56.5233325,24.56 L56.5233325,19.04 L57.7233325,19.04 C58.6593325,19.04 59.3753325,19.352 59.8713325,19.976 C60.2793325,20.488 60.4833325,21.096 60.4833325,21.8 C60.4833325,22.504 60.2793325,23.112 59.8713325,23.624 C59.3753325,24.248 58.6593325,24.56 57.7233325,24.56 L57.7233325,24.56 Z M67.4966655,23.54 L67.4966655,22.22 L63.5366655,22.22 L63.5366655,23.54 L67.4966655,23.54 Z M71.7259985,26.12 C72.5019985,26.12 73.1699985,25.882 73.7299985,25.406 C74.2899985,24.93 74.5699985,24.328 74.5699985,23.6 C74.5699985,23.072 74.4359985,22.624 74.1679985,22.256 C73.8999985,21.888 73.5759985,21.612 73.1959985,21.428 C72.8159985,21.244 72.4379985,21.082 72.0619985,20.942 C71.6859985,20.802 71.3639985,20.642 71.0959985,20.462 C70.8279985,20.282 70.6939985,20.072 70.6939985,19.832 C70.6939985,19.528 70.8239985,19.3 71.0839985,19.148 C71.3439985,18.996 71.6459985,18.92 71.9899985,18.92 C72.5579985,18.92 73.0419985,19.104 73.4419985,19.472 L73.4419985,19.472 L74.2819985,18.272 C73.5699985,17.744 72.7579985,17.48 71.8459985,17.48 C71.1019985,17.48 70.4539985,17.696 69.9019985,18.128 C69.3499985,18.56 69.0739985,19.132 69.0739985,19.844 C69.0739985,20.652 69.4699985,21.288 70.2619985,21.752 C70.4939985,21.888 70.8719985,22.056 71.3959985,22.256 C71.9199985,22.456 72.3099985,22.654 72.5659985,22.85 C72.8219985,23.046 72.9499985,23.304 72.9499985,23.624 C72.9499985,23.928 72.8359985,24.18 72.6079985,24.38 C72.3799985,24.58 72.0859985,24.68 71.7259985,24.68 C70.9659985,24.68 70.3059985,24.372 69.7459985,23.756 L69.7459985,23.756 L68.6899985,24.86 C69.6099985,25.7 70.6219985,26.12 71.7259985,26.12 Z" id="RENT:2,000USD-S" fill="#28364A" fill-rule="nonzero"></path>
                </g>
            </g>
        </g>
    </g>
</svg>