<?xml version="1.0" encoding="UTF-8"?>
<svg width="115px" height="138px" viewBox="0 0 115 138" version="1.1" xmlns="http://www.w3.org/2000/svg" xmlns:xlink="http://www.w3.org/1999/xlink">
    <title>Group 13</title>
    <defs>
        <polygon id="path-1" points="0 0 101 0 101 123 -4.14441814e-11 123"></polygon>
        <filter x="-10.4%" y="-6.9%" width="120.8%" height="117.1%" filterUnits="objectBoundingBox" id="filter-2">
            <feMorphology radius="0.5" operator="dilate" in="SourceAlpha" result="shadowSpreadOuter1"></feMorphology>
            <feOffset dx="0" dy="2" in="shadowSpreadOuter1" result="shadowOffsetOuter1"></feOffset>
            <feGaussianBlur stdDeviation="3" in="shadowOffsetOuter1" result="shadowBlurOuter1"></feGaussianBlur>
            <feComposite in="shadowBlurOuter1" in2="SourceAlpha" operator="out" result="shadowBlurOuter1"></feComposite>
            <feColorMatrix values="0 0 0 0 0   0 0 0 0 0   0 0 0 0 0  0 0 0 0.5 0" type="matrix" in="shadowBlurOuter1"></feColorMatrix>
        </filter>
    </defs>
    <g id="Page-1" stroke="none" stroke-width="1" fill="none" fill-rule="evenodd">
        <g id="UC-2-Slide-11" transform="translate(-504.000000, -236.000000)">
            <g id="Group-13" transform="translate(511.000000, 241.592157)">
                <g id="Group-5" transform="translate(62.000000, 109.407843)">
                    <ellipse id="Oval" stroke="#A7F6FF" stroke-width="0.3" cx="6.67266174" cy="6.90612756" rx="2.22422058" ry="2.30204252"></ellipse>
                    <path d="M6.67266174,8.05714882 C7.28686329,8.05714882 7.78477203,7.54181905 7.78477203,6.90612756 C7.78477203,6.27043607 7.28686329,5.7551063 6.67266174,5.7551063 C6.05846019,5.7551063 5.56055145,6.27043607 5.56055145,6.90612756 C5.56055145,7.54181905 6.05846019,8.05714882 6.67266174,8.05714882 Z" id="Oval" fill="#A7F6FF"></path>
                    <ellipse id="Oval" stroke-opacity="0.505354021" stroke="#A7F6FF" stroke-width="0.3" cx="6.67266174" cy="6.90612756" rx="6.67266174" ry="6.90612756"></ellipse>
                    <ellipse id="Oval" stroke-opacity="0.693045236" stroke="#A7F6FF" stroke-width="0.3" cx="6.67266174" cy="6.90612756" rx="4.44844116" ry="4.60408504"></ellipse>
                </g>
                <g id="Group-17">
                    <g id="Rectangle">
                        <use fill="black" fill-opacity="1" filter="url(#filter-2)" xlink:href="#path-1"></use>
                        <use stroke="#A7F6FF" stroke-width="1" fill="#A7F6FF" fill-rule="evenodd" xlink:href="#path-1"></use>
                    </g>
                    <path d="M34.9988896,19.4078433 L35.6588896,17.8578433 L38.4688896,17.8578433 L39.1288896,19.4078433 L40.5388896,19.4078433 L37.5388896,12.4078433 L36.5888896,12.4078433 L33.5888896,19.4078433 L34.9988896,19.4078433 Z M37.9488896,16.6578433 L36.1688896,16.6578433 L37.0588896,14.5878433 L37.9488896,16.6578433 Z M45.8333337,19.4078433 L45.8333337,18.2078433 L42.8833337,18.2078433 L42.8833337,12.4078433 L41.5333337,12.4078433 L41.5333337,19.4078433 L45.8333337,19.4078433 Z M48.4277779,19.4078433 L48.4277779,16.5578433 L49.7077779,16.5578433 C50.5277779,16.5578433 51.1344446,16.3511766 51.5277779,15.9378433 C51.8944446,15.5578433 52.0777779,15.07451 52.0777779,14.4878433 C52.0777779,13.9011766 51.8944446,13.4178433 51.5277779,13.0378433 C51.1277779,12.6178433 50.5211112,12.4078433 49.7077779,12.4078433 L49.7077779,12.4078433 L47.0777779,12.4078433 L47.0777779,19.4078433 L48.4277779,19.4078433 Z M49.6477779,15.3578433 L48.4277779,15.3578433 L48.4277779,13.6078433 L49.6477779,13.6078433 C50.0411112,13.6078433 50.3244446,13.7011766 50.4977779,13.8878433 C50.6511112,14.05451 50.7277779,14.25451 50.7277779,14.4878433 C50.7277779,14.71451 50.6511112,14.9111766 50.4977779,15.0778433 C50.3244446,15.26451 50.0411112,15.3578433 49.6477779,15.3578433 L49.6477779,15.3578433 Z M54.6222221,19.4078433 L54.6222221,16.2578433 L58.1222221,16.2578433 L58.1222221,19.4078433 L59.4722221,19.4078433 L59.4722221,12.4078433 L58.1222221,12.4078433 L58.1222221,15.0578433 L54.6222221,15.0578433 L54.6222221,12.4078433 L53.2722221,12.4078433 L53.2722221,19.4078433 L54.6222221,19.4078433 Z M61.8766662,19.4078433 L62.5366662,17.8578433 L65.3466662,17.8578433 L66.0066662,19.4078433 L67.4166662,19.4078433 L64.4166662,12.4078433 L63.4666662,12.4078433 L60.4666662,19.4078433 L61.8766662,19.4078433 Z M64.8266662,16.6578433 L63.0466662,16.6578433 L63.9366662,14.5878433 L64.8266662,16.6578433 Z M10.7666687,30.4078433 L10.7666687,27.5578433 L12.0466687,27.5578433 C12.8666687,27.5578433 13.4733354,27.3511766 13.8666687,26.9378433 C14.2333354,26.5578433 14.4166687,26.07451 14.4166687,25.4878433 C14.4166687,24.9011766 14.2333354,24.4178433 13.8666687,24.0378433 C13.4666687,23.6178433 12.8600021,23.4078433 12.0466687,23.4078433 L12.0466687,23.4078433 L9.41666875,23.4078433 L9.41666875,30.4078433 L10.7666687,30.4078433 Z M11.9866687,26.3578433 L10.7666687,26.3578433 L10.7666687,24.6078433 L11.9866687,24.6078433 C12.3800021,24.6078433 12.6633354,24.7011766 12.8366687,24.8878433 C12.9900021,25.05451 13.0666687,25.25451 13.0666687,25.4878433 C13.0666687,25.71451 12.9900021,25.9111766 12.8366687,26.0778433 C12.6633354,26.26451 12.3800021,26.3578433 11.9866687,26.3578433 L11.9866687,26.3578433 Z M16.9611129,30.4078433 L16.9611129,27.3078433 L17.4511129,27.3078433 L19.9411129,30.4078433 L21.6111129,30.4078433 L18.9911129,27.1978433 C19.2577796,27.1111766 19.4911129,26.97451 19.6911129,26.7878433 C20.1044462,26.39451 20.3111129,25.9178433 20.3111129,25.3578433 C20.3111129,24.7978433 20.1044462,24.3211766 19.6911129,23.9278433 C19.3111129,23.5811766 18.8011129,23.4078433 18.1611129,23.4078433 L18.1611129,23.4078433 L15.6111129,23.4078433 L15.6111129,30.4078433 L16.9611129,30.4078433 Z M18.0811129,26.1078433 L16.9611129,26.1078433 L16.9611129,24.6078433 L18.0811129,24.6078433 C18.4011129,24.6078433 18.6277796,24.6811766 18.7611129,24.8278433 C18.8944462,24.97451 18.9611129,25.15451 18.9611129,25.3678433 C18.9611129,25.57451 18.8944462,25.7511766 18.7611129,25.8978433 C18.6344462,26.0378433 18.4077796,26.1078433 18.0811129,26.1078433 L18.0811129,26.1078433 Z M25.2555571,30.5078433 C26.3222237,30.5078433 27.1972237,30.1611766 27.8805571,29.4678433 C28.5638904,28.77451 28.9055571,27.9211766 28.9055571,26.9078433 C28.9055571,25.89451 28.5638904,25.0411766 27.8805571,24.3478433 C27.1972237,23.65451 26.3222237,23.3078433 25.2555571,23.3078433 C24.1888904,23.3078433 23.3138904,23.65451 22.6305571,24.3478433 C21.9472237,25.0411766 21.6055571,25.89451 21.6055571,26.9078433 C21.6055571,27.9211766 21.9455571,28.77451 22.6255571,29.4678433 C23.3122237,30.1611766 24.1888904,30.5078433 25.2555571,30.5078433 Z M25.2555571,29.3078433 C24.6022237,29.3078433 24.0555571,29.07451 23.6155571,28.6078433 C23.1755571,28.1411766 22.9555571,27.57451 22.9555571,26.9078433 C22.9555571,26.2411766 23.1755571,25.67451 23.6155571,25.2078433 C24.0555571,24.7411766 24.6022237,24.5078433 25.2555571,24.5078433 C25.9088904,24.5078433 26.4555571,24.7411766 26.8955571,25.2078433 C27.3355571,25.67451 27.5555571,26.2411766 27.5555571,26.9078433 C27.5555571,27.57451 27.3355571,28.1411766 26.8955571,28.6078433 C26.4555571,29.07451 25.9088904,29.3078433 25.2555571,29.3078433 Z M31.5500012,30.4078433 L31.5500012,27.5578433 L32.8300012,27.5578433 C33.6500012,27.5578433 34.2566679,27.3511766 34.6500012,26.9378433 C35.0166679,26.5578433 35.2000012,26.07451 35.2000012,25.4878433 C35.2000012,24.9011766 35.0166679,24.4178433 34.6500012,24.0378433 C34.2500012,23.6178433 33.6433346,23.4078433 32.8300012,23.4078433 L32.8300012,23.4078433 L30.2000012,23.4078433 L30.2000012,30.4078433 L31.5500012,30.4078433 Z M32.7700012,26.3578433 L31.5500012,26.3578433 L31.5500012,24.6078433 L32.7700012,24.6078433 C33.1633346,24.6078433 33.4466679,24.7011766 33.6200012,24.8878433 C33.7733346,25.05451 33.8500012,25.25451 33.8500012,25.4878433 C33.8500012,25.71451 33.7733346,25.9111766 33.6200012,26.0778433 C33.4466679,26.26451 33.1633346,26.3578433 32.7700012,26.3578433 L32.7700012,26.3578433 Z M40.6944454,30.4078433 L40.6944454,29.2078433 L37.7444454,29.2078433 L37.7444454,27.2578433 L39.8944454,27.2578433 L39.8944454,26.0578433 L37.7444454,26.0578433 L37.7444454,24.6078433 L40.5944454,24.6078433 L40.5944454,23.4078433 L36.3944454,23.4078433 L36.3944454,30.4078433 L40.6944454,30.4078433 Z M43.4388896,30.4078433 L43.4388896,27.3078433 L43.9288896,27.3078433 L46.4188896,30.4078433 L48.0888896,30.4078433 L45.4688896,27.1978433 C45.7355562,27.1111766 45.9688896,26.97451 46.1688896,26.7878433 C46.5822229,26.39451 46.7888896,25.9178433 46.7888896,25.3578433 C46.7888896,24.7978433 46.5822229,24.3211766 46.1688896,23.9278433 C45.7888896,23.5811766 45.2788896,23.4078433 44.6388896,23.4078433 L44.6388896,23.4078433 L42.0888896,23.4078433 L42.0888896,30.4078433 L43.4388896,30.4078433 Z M44.5588896,26.1078433 L43.4388896,26.1078433 L43.4388896,24.6078433 L44.5588896,24.6078433 C44.8788896,24.6078433 45.1055562,24.6811766 45.2388896,24.8278433 C45.3722229,24.97451 45.4388896,25.15451 45.4388896,25.3678433 C45.4388896,25.57451 45.3722229,25.7511766 45.2388896,25.8978433 C45.1122229,26.0378433 44.8855562,26.1078433 44.5588896,26.1078433 L44.5588896,26.1078433 Z M51.1333337,30.4078433 L51.1333337,24.6078433 L52.9833337,24.6078433 L52.9833337,23.4078433 L47.9333337,23.4078433 L47.9333337,24.6078433 L49.7833337,24.6078433 L49.7833337,30.4078433 L51.1333337,30.4078433 Z M55.5777779,30.4078433 L55.5777779,23.4078433 L54.2277779,23.4078433 L54.2277779,30.4078433 L55.5777779,30.4078433 Z M61.6722221,30.4078433 L61.6722221,29.2078433 L58.7222221,29.2078433 L58.7222221,27.2578433 L60.8722221,27.2578433 L60.8722221,26.0578433 L58.7222221,26.0578433 L58.7222221,24.6078433 L61.5722221,24.6078433 L61.5722221,23.4078433 L57.3722221,23.4078433 L57.3722221,30.4078433 L61.6722221,30.4078433 Z M65.0466662,30.5078433 C65.6933329,30.5078433 66.2499996,30.30951 66.7166662,29.9128433 C67.1833329,29.5161766 67.4166662,29.01451 67.4166662,28.4078433 C67.4166662,27.9678433 67.3049996,27.59451 67.0816662,27.2878433 C66.8583329,26.9811766 66.5883329,26.7511766 66.2716662,26.5978433 C65.9549996,26.44451 65.6399996,26.30951 65.3266662,26.1928433 C65.0133329,26.0761766 64.7449996,25.9428433 64.5216662,25.7928433 C64.2983329,25.6428433 64.1866662,25.4678433 64.1866662,25.2678433 C64.1866662,25.01451 64.2949996,24.82451 64.5116662,24.6978433 C64.7283329,24.5711766 64.9799996,24.5078433 65.2666662,24.5078433 C65.7399996,24.5078433 66.1433329,24.6611766 66.4766662,24.9678433 L66.4766662,24.9678433 L67.1766662,23.9678433 C66.5833329,23.5278433 65.9066662,23.3078433 65.1466662,23.3078433 C64.5266662,23.3078433 63.9866662,23.4878433 63.5266662,23.8478433 C63.0666662,24.2078433 62.8366662,24.68451 62.8366662,25.2778433 C62.8366662,25.9511766 63.1666662,26.4811766 63.8266662,26.8678433 C64.0199996,26.9811766 64.3349996,27.1211766 64.7716662,27.2878433 C65.2083329,27.45451 65.5333329,27.61951 65.7466662,27.7828433 C65.9599996,27.9461766 66.0666662,28.1611766 66.0666662,28.4278433 C66.0666662,28.6811766 65.9716662,28.8911766 65.7816662,29.0578433 C65.5916662,29.22451 65.3466662,29.3078433 65.0466662,29.3078433 C64.4133329,29.3078433 63.8633329,29.0511766 63.3966662,28.5378433 L63.3966662,28.5378433 L62.5166662,29.4578433 C63.2833329,30.1578433 64.1266662,30.5078433 65.0466662,30.5078433 Z M69.2111104,31.8078433 L70.4111104,28.8578433 L69.0111104,28.8578433 L68.2611104,31.8078433 L69.2111104,31.8078433 Z M79.1999987,30.4078433 L79.1999987,29.2078433 L76.2499987,29.2078433 L76.2499987,23.4078433 L74.8999987,23.4078433 L74.8999987,30.4078433 L79.1999987,30.4078433 Z M84.7444429,30.4078433 L84.7444429,29.2078433 L81.7944429,29.2078433 L81.7944429,23.4078433 L80.4444429,23.4078433 L80.4444429,30.4078433 L84.7444429,30.4078433 Z M89.0488871,30.5078433 C89.6688871,30.5078433 90.2338871,30.3861766 90.7438871,30.1428433 C91.2538871,29.89951 91.6688871,29.57451 91.9888871,29.1678433 L91.9888871,29.1678433 L91.0588871,28.3378433 C90.5588871,28.98451 89.8988871,29.3078433 89.0788871,29.3078433 C88.4055537,29.3078433 87.8388871,29.0778433 87.3788871,28.6178433 C86.9188871,28.1578433 86.6888871,27.5878433 86.6888871,26.9078433 C86.6888871,26.2411766 86.9122204,25.67451 87.3588871,25.2078433 C87.8055537,24.7411766 88.3588871,24.5078433 89.0188871,24.5078433 C89.6722204,24.5078433 90.2388871,24.7478433 90.7188871,25.2278433 L90.7188871,25.2278433 L91.5888871,24.3078433 C90.9022204,23.6411766 90.0488871,23.3078433 89.0288871,23.3078433 C87.9555537,23.3078433 87.0722204,23.6528433 86.3788871,24.3428433 C85.6855537,25.0328433 85.3388871,25.8878433 85.3388871,26.9078433 C85.3388871,27.9278433 85.6872204,28.7828433 86.3838871,29.4728433 C87.0805537,30.1628433 87.9688871,30.5078433 89.0488871,30.5078433 Z" id="ALPHAPROPERTIES,LLC" fill="#232F40" fill-rule="nonzero"></path>
                    <g id="Group-11" transform="translate(50.500000, 66.907843) scale(1, -1) rotate(180.000000) translate(-50.500000, -66.907843) translate(46.000000, 37.407843)" stroke="#232F40" stroke-linecap="round" stroke-width="2">
                        <line x1="4.49039853" y1="0.344540286" x2="4.49039853" y2="56.5548628" id="Line-4"></line>
                        <polyline id="Rectangle" transform="translate(4.500000, 54.612135) rotate(45.000000) translate(-4.500000, -54.612135) " points="7 52.1121345 7 57.1121345 2 57.1121345"></polyline>
                    </g>
                    <g id="Group-2" transform="translate(15.000000, 48.407843)">
                        <polygon id="Rectangle" fill="#A7F6FF" points="0.597356801 0 71.5973568 0 71.5973568 32 0.597356801 32"></polygon>
                        <path d="M15.0922233,13 L15.0922233,6 L13.7422233,6 L13.7422233,13 L15.0922233,13 Z M18.2366675,13 L18.2366675,8.44 L22.1366675,13 L23.0866675,13 L23.0866675,6 L21.7366675,6 L21.7366675,10.56 L17.8366675,6 L16.8866675,6 L16.8866675,13 L18.2366675,13 Z M27.9611117,13 L30.7911117,6 L29.4011117,6 L27.4811117,10.78 L25.5711117,6 L24.1811117,6 L27.0111117,13 L27.9611117,13 Z M34.7855558,13.1 C35.8522225,13.1 36.7272225,12.7533333 37.4105558,12.06 C38.0938892,11.3666667 38.4355558,10.5133333 38.4355558,9.5 C38.4355558,8.48666667 38.0938892,7.63333333 37.4105558,6.94 C36.7272225,6.24666667 35.8522225,5.9 34.7855558,5.9 C33.7188892,5.9 32.8438892,6.24666667 32.1605558,6.94 C31.4772225,7.63333333 31.1355558,8.48666667 31.1355558,9.5 C31.1355558,10.5133333 31.4755558,11.3666667 32.1555558,12.06 C32.8422225,12.7533333 33.7188892,13.1 34.7855558,13.1 Z M34.7855558,11.9 C34.1322225,11.9 33.5855558,11.6666667 33.1455558,11.2 C32.7055558,10.7333333 32.4855558,10.1666667 32.4855558,9.5 C32.4855558,8.83333333 32.7055558,8.26666667 33.1455558,7.8 C33.5855558,7.33333333 34.1322225,7.1 34.7855558,7.1 C35.4388892,7.1 35.9855558,7.33333333 36.4255558,7.8 C36.8655558,8.26666667 37.0855558,8.83333333 37.0855558,9.5 C37.0855558,10.1666667 36.8655558,10.7333333 36.4255558,11.2 C35.9855558,11.6666667 35.4388892,11.9 34.7855558,11.9 Z M41.08,13 L41.08,6 L39.73,6 L39.73,13 L41.08,13 Z M46.0844442,13.1 C46.7044442,13.1 47.2694442,12.9783333 47.7794442,12.735 C48.2894442,12.4916667 48.7044442,12.1666667 49.0244442,11.76 L49.0244442,11.76 L48.0944442,10.93 C47.5944442,11.5766667 46.9344442,11.9 46.1144442,11.9 C45.4411108,11.9 44.8744442,11.67 44.4144442,11.21 C43.9544442,10.75 43.7244442,10.18 43.7244442,9.5 C43.7244442,8.83333333 43.9477775,8.26666667 44.3944442,7.8 C44.8411108,7.33333333 45.3944442,7.1 46.0544442,7.1 C46.7077775,7.1 47.2744442,7.34 47.7544442,7.82 L47.7544442,7.82 L48.6244442,6.9 C47.9377775,6.23333333 47.0844442,5.9 46.0644442,5.9 C44.9911108,5.9 44.1077775,6.245 43.4144442,6.935 C42.7211108,7.625 42.3744442,8.48 42.3744442,9.5 C42.3744442,10.52 42.7227775,11.375 43.4194442,12.065 C44.1161108,12.755 45.0044442,13.1 46.0844442,13.1 Z M54.5188883,13 L54.5188883,11.8 L51.5688883,11.8 L51.5688883,9.85 L53.7188883,9.85 L53.7188883,8.65 L51.5688883,8.65 L51.5688883,7.2 L54.4188883,7.2 L54.4188883,6 L50.2188883,6 L50.2188883,13 L54.5188883,13 Z M57.0833325,9.76 C57.3299992,9.76 57.5383325,9.67833333 57.7083325,9.515 C57.8783325,9.35166667 57.9633325,9.15 57.9633325,8.91 C57.9633325,8.66333333 57.8783325,8.45833333 57.7083325,8.295 C57.5383325,8.13166667 57.3299992,8.05 57.0833325,8.05 C56.8366658,8.05 56.6299992,8.13166667 56.4633325,8.295 C56.2966658,8.45833333 56.2133325,8.66333333 56.2133325,8.91 C56.2133325,9.15666667 56.2966658,9.36 56.4633325,9.52 C56.6299992,9.68 56.8366658,9.76 57.0833325,9.76 Z M57.0833325,13.1 C57.3299992,13.1 57.5383325,13.0183333 57.7083325,12.855 C57.8783325,12.6916667 57.9633325,12.49 57.9633325,12.25 C57.9633325,12.0033333 57.8783325,11.7983333 57.7083325,11.635 C57.5383325,11.4716667 57.3299992,11.39 57.0833325,11.39 C56.8366658,11.39 56.6299992,11.4716667 56.4633325,11.635 C56.2966658,11.7983333 56.2133325,12.0033333 56.2133325,12.25 C56.2133325,12.4966667 56.2966658,12.7 56.4633325,12.86 C56.6299992,13.02 56.8366658,13.1 57.0833325,13.1 Z M10.9800015,26 L10.9800015,24.56 L8.0520015,24.56 L9.8400015,22.484 C10.5600015,21.66 10.9200015,20.856 10.9200015,20.072 C10.9200015,19.328 10.6560015,18.71 10.1280015,18.218 C9.6000015,17.726 8.9680015,17.48 8.2320015,17.48 C7.6160015,17.48 7.0660015,17.66 6.5820015,18.02 C6.0980015,18.38 5.7640015,18.848 5.5800015,19.424 L5.5800015,19.424 L7.0680015,19.868 C7.1560015,19.58 7.3000015,19.35 7.5000015,19.178 C7.7000015,19.006 7.9360015,18.92 8.2080015,18.92 C8.5200015,18.92 8.7800015,19.032 8.9880015,19.256 C9.1960015,19.48 9.3000015,19.744 9.3000015,20.048 C9.3000015,20.52 9.0240015,21.068 8.4720015,21.692 L8.4720015,21.692 L5.5200015,25.04 L5.5200015,26 L10.9800015,26 Z M13.5533345,27.68 L14.9933345,24.14 L13.3133345,24.14 L12.4133345,27.68 L13.5533345,27.68 Z M20.1466675,26.12 C20.6666675,26.12 21.1206675,26.008 21.5086675,25.784 C21.8966675,25.56 22.2026675,25.248 22.4266675,24.848 C22.6506675,24.448 22.8166675,23.994 22.9246675,23.486 C23.0326675,22.978 23.0866675,22.416 23.0866675,21.8 C23.0866675,21.184 23.0326675,20.622 22.9246675,20.114 C22.8166675,19.606 22.6506675,19.152 22.4266675,18.752 C22.2026675,18.352 21.8966675,18.04 21.5086675,17.816 C21.1206675,17.592 20.6666675,17.48 20.1466675,17.48 C19.6266675,17.48 19.1726675,17.592 18.7846675,17.816 C18.3966675,18.04 18.0906675,18.352 17.8666675,18.752 C17.6426675,19.152 17.4766675,19.606 17.3686675,20.114 C17.2606675,20.622 17.2066675,21.184 17.2066675,21.8 C17.2066675,22.416 17.2586675,22.98 17.3626675,23.492 C17.4746675,23.996 17.6426675,24.448 17.8666675,24.848 C18.0906675,25.248 18.3966675,25.56 18.7846675,25.784 C19.1726675,26.008 19.6266675,26.12 20.1466675,26.12 Z M20.1466675,24.68 C19.6906675,24.68 19.3566675,24.416 19.1446675,23.888 C18.9326675,23.36 18.8266675,22.664 18.8266675,21.8 C18.8266675,20.936 18.9326675,20.24 19.1446675,19.712 C19.3566675,19.184 19.6906675,18.92 20.1466675,18.92 C20.6026675,18.92 20.9366675,19.184 21.1486675,19.712 C21.3606675,20.24 21.4666675,20.936 21.4666675,21.8 C21.4666675,22.664 21.3586675,23.36 21.1426675,23.888 C20.9346675,24.416 20.6026675,24.68 20.1466675,24.68 Z M27.5800005,26.12 C28.1000005,26.12 28.5540005,26.008 28.9420005,25.784 C29.3300005,25.56 29.6360005,25.248 29.8600005,24.848 C30.0840005,24.448 30.2500005,23.994 30.3580005,23.486 C30.4660005,22.978 30.5200005,22.416 30.5200005,21.8 C30.5200005,21.184 30.4660005,20.622 30.3580005,20.114 C30.2500005,19.606 30.0840005,19.152 29.8600005,18.752 C29.6360005,18.352 29.3300005,18.04 28.9420005,17.816 C28.5540005,17.592 28.1000005,17.48 27.5800005,17.48 C27.0600005,17.48 26.6060005,17.592 26.2180005,17.816 C25.8300005,18.04 25.5240005,18.352 25.3000005,18.752 C25.0760005,19.152 24.9100005,19.606 24.8020005,20.114 C24.6940005,20.622 24.6400005,21.184 24.6400005,21.8 C24.6400005,22.416 24.6920005,22.98 24.7960005,23.492 C24.9080005,23.996 25.0760005,24.448 25.3000005,24.848 C25.5240005,25.248 25.8300005,25.56 26.2180005,25.784 C26.6060005,26.008 27.0600005,26.12 27.5800005,26.12 Z M27.5800005,24.68 C27.1240005,24.68 26.7900005,24.416 26.5780005,23.888 C26.3660005,23.36 26.2600005,22.664 26.2600005,21.8 C26.2600005,20.936 26.3660005,20.24 26.5780005,19.712 C26.7900005,19.184 27.1240005,18.92 27.5800005,18.92 C28.0360005,18.92 28.3700005,19.184 28.5820005,19.712 C28.7940005,20.24 28.9000005,20.936 28.9000005,21.8 C28.9000005,22.664 28.7920005,23.36 28.5760005,23.888 C28.3680005,24.416 28.0360005,24.68 27.5800005,24.68 Z M35.0133335,26.12 C35.5333335,26.12 35.9873335,26.008 36.3753335,25.784 C36.7633335,25.56 37.0693335,25.248 37.2933335,24.848 C37.5173335,24.448 37.6833335,23.994 37.7913335,23.486 C37.8993335,22.978 37.9533335,22.416 37.9533335,21.8 C37.9533335,21.184 37.8993335,20.622 37.7913335,20.114 C37.6833335,19.606 37.5173335,19.152 37.2933335,18.752 C37.0693335,18.352 36.7633335,18.04 36.3753335,17.816 C35.9873335,17.592 35.5333335,17.48 35.0133335,17.48 C34.4933335,17.48 34.0393335,17.592 33.6513335,17.816 C33.2633335,18.04 32.9573335,18.352 32.7333335,18.752 C32.5093335,19.152 32.3433335,19.606 32.2353335,20.114 C32.1273335,20.622 32.0733335,21.184 32.0733335,21.8 C32.0733335,22.416 32.1253335,22.98 32.2293335,23.492 C32.3413335,23.996 32.5093335,24.448 32.7333335,24.848 C32.9573335,25.248 33.2633335,25.56 33.6513335,25.784 C34.0393335,26.008 34.4933335,26.12 35.0133335,26.12 Z M35.0133335,24.68 C34.5573335,24.68 34.2233335,24.416 34.0113335,23.888 C33.7993335,23.36 33.6933335,22.664 33.6933335,21.8 C33.6933335,20.936 33.7993335,20.24 34.0113335,19.712 C34.2233335,19.184 34.5573335,18.92 35.0133335,18.92 C35.4693335,18.92 35.8033335,19.184 36.0153335,19.712 C36.2273335,20.24 36.3333335,20.936 36.3333335,21.8 C36.3333335,22.664 36.2253335,23.36 36.0093335,23.888 C35.8013335,24.416 35.4693335,24.68 35.0133335,24.68 Z M46.8199995,26.12 C47.8519995,26.12 48.6919995,25.832 49.3399995,25.256 C50.0599995,24.608 50.4199995,23.676 50.4199995,22.46 L50.4199995,22.46 L50.4199995,17.6 L48.7999995,17.6 L48.7999995,22.58 C48.7999995,23.276 48.6159995,23.796 48.2479995,24.14 C47.8719995,24.5 47.3959995,24.68 46.8199995,24.68 C46.2439995,24.68 45.7679995,24.5 45.3919995,24.14 C45.0239995,23.796 44.8399995,23.276 44.8399995,22.58 L44.8399995,22.58 L44.8399995,17.6 L43.2199995,17.6 L43.2199995,22.46 C43.2199995,23.676 43.5799995,24.608 44.2999995,25.256 C44.9479995,25.832 45.7879995,26.12 46.8199995,26.12 Z M54.7093325,26.12 C55.4853325,26.12 56.1533325,25.882 56.7133325,25.406 C57.2733325,24.93 57.5533325,24.328 57.5533325,23.6 C57.5533325,23.072 57.4193325,22.624 57.1513325,22.256 C56.8833325,21.888 56.5593325,21.612 56.1793325,21.428 C55.7993325,21.244 55.4213325,21.082 55.0453325,20.942 C54.6693325,20.802 54.3473325,20.642 54.0793325,20.462 C53.8113325,20.282 53.6773325,20.072 53.6773325,19.832 C53.6773325,19.528 53.8073325,19.3 54.0673325,19.148 C54.3273325,18.996 54.6293325,18.92 54.9733325,18.92 C55.5413325,18.92 56.0253325,19.104 56.4253325,19.472 L56.4253325,19.472 L57.2653325,18.272 C56.5533325,17.744 55.7413325,17.48 54.8293325,17.48 C54.0853325,17.48 53.4373325,17.696 52.8853325,18.128 C52.3333325,18.56 52.0573325,19.132 52.0573325,19.844 C52.0573325,20.652 52.4533325,21.288 53.2453325,21.752 C53.4773325,21.888 53.8553325,22.056 54.3793325,22.256 C54.9033325,22.456 55.2933325,22.654 55.5493325,22.85 C55.8053325,23.046 55.9333325,23.304 55.9333325,23.624 C55.9333325,23.928 55.8193325,24.18 55.5913325,24.38 C55.3633325,24.58 55.0693325,24.68 54.7093325,24.68 C53.9493325,24.68 53.2893325,24.372 52.7293325,23.756 L52.7293325,23.756 L51.6733325,24.86 C52.5933325,25.7 53.6053325,26.12 54.7093325,26.12 Z M61.8066655,26 C63.0146655,26 63.9786655,25.736 64.6986655,25.208 C65.2186655,24.824 65.6266655,24.332 65.9226655,23.732 C66.2186655,23.132 66.3666655,22.488 66.3666655,21.8 C66.3666655,21.112 66.2186655,20.468 65.9226655,19.868 C65.6266655,19.268 65.2186655,18.776 64.6986655,18.392 C63.9786655,17.864 63.0146655,17.6 61.8066655,17.6 L61.8066655,17.6 L59.1666655,17.6 L59.1666655,26 L61.8066655,26 Z M61.9866655,24.56 L60.7866655,24.56 L60.7866655,19.04 L61.9866655,19.04 C62.9226655,19.04 63.6386655,19.352 64.1346655,19.976 C64.5426655,20.488 64.7466655,21.096 64.7466655,21.8 C64.7466655,22.504 64.5426655,23.112 64.1346655,23.624 C63.6386655,24.248 62.9226655,24.56 61.9866655,24.56 L61.9866655,24.56 Z" id="INVOICE:2,000USD" fill="#28364A" fill-rule="nonzero"></path>
                    </g>
                    <g id="Group-15" transform="translate(18.500000, 52.907843)">
                        <polygon id="Rectangle" stroke="#232F40" fill="#232F40" points="0 0.5 6 0.5 6 9.5 3 7.49280967 0 9.5"></polygon>
                        <polyline id="Rectangle" stroke="#A7F6FF" stroke-linecap="round" transform="translate(3.105683, 3.534883) scale(-1, 1) rotate(45.000000) translate(-3.105683, -3.534883) " points="4.60568261 2.78488307 4.60568261 4.28488307 1.60568261 4.28488307"></polyline>
                    </g>
                </g>
                <path d="M30.8322233,111.407843 L31.4922233,109.857843 L34.3022233,109.857843 L34.9622233,111.407843 L36.3722233,111.407843 L33.3722233,104.407843 L32.4222233,104.407843 L29.4222233,111.407843 L30.8322233,111.407843 Z M33.7822233,108.657843 L32.0022233,108.657843 L32.8922233,106.587843 L33.7822233,108.657843 Z M41.6666675,111.407843 L41.6666675,110.207843 L38.7166675,110.207843 L38.7166675,104.407843 L37.3666675,104.407843 L37.3666675,111.407843 L41.6666675,111.407843 Z M44.2611117,111.407843 L44.2611117,104.407843 L42.9111117,104.407843 L42.9111117,111.407843 L44.2611117,111.407843 Z M49.2655558,111.507843 C49.8855558,111.507843 50.4505558,111.386177 50.9605558,111.142843 C51.4705558,110.89951 51.8855558,110.57451 52.2055558,110.167843 L52.2055558,110.167843 L51.2755558,109.337843 C50.7755558,109.98451 50.1155558,110.307843 49.2955558,110.307843 C48.6222225,110.307843 48.0555558,110.077843 47.5955558,109.617843 C47.1355558,109.157843 46.9055558,108.587843 46.9055558,107.907843 C46.9055558,107.241177 47.1288892,106.67451 47.5755558,106.207843 C48.0222225,105.741177 48.5755558,105.507843 49.2355558,105.507843 C49.8888892,105.507843 50.4555558,105.747843 50.9355558,106.227843 L50.9355558,106.227843 L51.8055558,105.307843 C51.1188892,104.641177 50.2655558,104.307843 49.2455558,104.307843 C48.1722225,104.307843 47.2888892,104.652843 46.5955558,105.342843 C45.9022225,106.032843 45.5555558,106.887843 45.5555558,107.907843 C45.5555558,108.927843 45.9038892,109.782843 46.6005558,110.472843 C47.2972225,111.162843 48.1855558,111.507843 49.2655558,111.507843 Z M57.7,111.407843 L57.7,110.207843 L54.75,110.207843 L54.75,108.257843 L56.9,108.257843 L56.9,107.057843 L54.75,107.057843 L54.75,105.607843 L57.6,105.607843 L57.6,104.407843 L53.4,104.407843 L53.4,111.407843 L57.7,111.407843 Z M64.7188883,111.407843 C65.5188883,111.407843 66.1288883,111.197843 66.5488883,110.777843 C66.975555,110.36451 67.1888883,109.861177 67.1888883,109.267843 C67.1888883,108.881177 67.0922217,108.52451 66.8988883,108.197843 C66.705555,107.871177 66.4522217,107.631177 66.1388883,107.477843 C66.2588883,107.351177 66.3638883,107.17951 66.4538883,106.962843 C66.5438883,106.746177 66.5888883,106.527843 66.5888883,106.307843 C66.5888883,105.747843 66.3722217,105.277843 65.9388883,104.897843 C65.565555,104.571177 65.0422217,104.407843 64.3688883,104.407843 L64.3688883,104.407843 L61.9888883,104.407843 L61.9888883,111.407843 L64.7188883,111.407843 Z M64.2888883,107.107843 L63.3388883,107.107843 L63.3388883,105.607843 L64.2888883,105.607843 C64.635555,105.607843 64.885555,105.691177 65.0388883,105.857843 C65.1722217,106.00451 65.2388883,106.171177 65.2388883,106.357843 C65.2388883,106.54451 65.1722217,106.711177 65.0388883,106.857843 C64.885555,107.02451 64.635555,107.107843 64.2888883,107.107843 L64.2888883,107.107843 Z M64.6888883,110.207843 L63.3388883,110.207843 L63.3388883,108.307843 L64.6888883,108.307843 C65.1022217,108.307843 65.4022217,108.411177 65.5888883,108.617843 C65.755555,108.797843 65.8388883,109.011177 65.8388883,109.257843 C65.8388883,109.50451 65.755555,109.717843 65.5888883,109.897843 C65.4022217,110.10451 65.1022217,110.207843 64.6888883,110.207843 L64.6888883,110.207843 Z M69.6033325,111.507843 C69.8499992,111.507843 70.0583325,111.42451 70.2283325,111.257843 C70.3983325,111.091177 70.4833325,110.88451 70.4833325,110.637843 C70.4833325,110.391177 70.3983325,110.182843 70.2283325,110.012843 C70.0583325,109.842843 69.8499992,109.757843 69.6033325,109.757843 C69.3566658,109.757843 69.1499992,109.842843 68.9833325,110.012843 C68.8166658,110.182843 68.7333325,110.391177 68.7333325,110.637843 C68.7333325,110.88451 68.8166658,111.091177 68.9833325,111.257843 C69.1499992,111.42451 69.3566658,111.507843 69.6033325,111.507843 Z" id="ALICEB." fill="#232F40" fill-rule="nonzero"></path>
            </g>
        </g>
    </g>
</svg>