<?xml version="1.0" encoding="UTF-8"?>
<svg width="702px" height="495px" viewBox="0 0 702 495" version="1.1" xmlns="http://www.w3.org/2000/svg" xmlns:xlink="http://www.w3.org/1999/xlink">
    <title>Group 13</title>
    <defs>
        <polygon id="path-1" points="0 0 101 0 101 123 -4.14441814e-11 123"></polygon>
        <filter x="-10.4%" y="-6.9%" width="120.8%" height="117.1%" filterUnits="objectBoundingBox" id="filter-2">
            <feMorphology radius="0.5" operator="dilate" in="SourceAlpha" result="shadowSpreadOuter1"></feMorphology>
            <feOffset dx="0" dy="2" in="shadowSpreadOuter1" result="shadowOffsetOuter1"></feOffset>
            <feGaussianBlur stdDeviation="3" in="shadowOffsetOuter1" result="shadowBlurOuter1"></feGaussianBlur>
            <feComposite in="shadowBlurOuter1" in2="SourceAlpha" operator="out" result="shadowBlurOuter1"></feComposite>
            <feColorMatrix values="0 0 0 0 0   0 0 0 0 0   0 0 0 0 0  0 0 0 0.5 0" type="matrix" in="shadowBlurOuter1"></feColorMatrix>
        </filter>
        <polygon id="path-3" points="213.927227 0 314.927227 0 314.927227 123 213.927227 123"></polygon>
        <filter x="-10.4%" y="-6.9%" width="120.8%" height="117.1%" filterUnits="objectBoundingBox" id="filter-4">
            <feMorphology radius="0.5" operator="dilate" in="SourceAlpha" result="shadowSpreadOuter1"></feMorphology>
            <feOffset dx="0" dy="2" in="shadowSpreadOuter1" result="shadowOffsetOuter1"></feOffset>
            <feGaussianBlur stdDeviation="3" in="shadowOffsetOuter1" result="shadowBlurOuter1"></feGaussianBlur>
            <feComposite in="shadowBlurOuter1" in2="SourceAlpha" operator="out" result="shadowBlurOuter1"></feComposite>
            <feColorMatrix values="0 0 0 0 0   0 0 0 0 0   0 0 0 0 0  0 0 0 0.5 0" type="matrix" in="shadowBlurOuter1"></feColorMatrix>
        </filter>
    </defs>
    <g id="Page-1" stroke="none" stroke-width="1" fill="none" fill-rule="evenodd">
        <g id="UC-2-Slide-11" transform="translate(-295.000000, -237.000000)">
            <g id="Group-13" transform="translate(297.072773, 241.592157)">
                <g id="Group-5" transform="translate(280.927227, 256.407843)">
                    <ellipse id="Oval" stroke="#A7F6FF" stroke-width="0.3" cx="6.67266174" cy="6.90612756" rx="2.22422058" ry="2.30204252"></ellipse>
                    <path d="M6.67266174,8.05714882 C7.28686329,8.05714882 7.78477203,7.54181905 7.78477203,6.90612756 C7.78477203,6.27043607 7.28686329,5.7551063 6.67266174,5.7551063 C6.05846019,5.7551063 5.56055145,6.27043607 5.56055145,6.90612756 C5.56055145,7.54181905 6.05846019,8.05714882 6.67266174,8.05714882 Z" id="Oval" fill="#A7F6FF"></path>
                    <ellipse id="Oval" stroke-opacity="0.505354021" stroke="#A7F6FF" stroke-width="0.3" cx="6.67266174" cy="6.90612756" rx="6.67266174" ry="6.90612756"></ellipse>
                    <ellipse id="Oval" stroke-opacity="0.693045236" stroke="#A7F6FF" stroke-width="0.3" cx="6.67266174" cy="6.90612756" rx="4.44844116" ry="4.60408504"></ellipse>
                </g>
                <g id="Group-16" transform="translate(213.927227, 193.000000)">
                    <g id="Group-5" transform="translate(62.000000, 111.407843)">
                        <ellipse id="Oval" stroke="#A7F6FF" stroke-width="0.3" cx="6.67266174" cy="6.90612756" rx="2.22422058" ry="2.30204252"></ellipse>
                        <path d="M6.67266174,8.05714882 C7.28686329,8.05714882 7.78477203,7.54181905 7.78477203,6.90612756 C7.78477203,6.27043607 7.28686329,5.7551063 6.67266174,5.7551063 C6.05846019,5.7551063 5.56055145,6.27043607 5.56055145,6.90612756 C5.56055145,7.54181905 6.05846019,8.05714882 6.67266174,8.05714882 Z" id="Oval" fill="#A7F6FF"></path>
                        <ellipse id="Oval" stroke-opacity="0.505354021" stroke="#A7F6FF" stroke-width="0.3" cx="6.67266174" cy="6.90612756" rx="6.67266174" ry="6.90612756"></ellipse>
                        <ellipse id="Oval" stroke-opacity="0.693045236" stroke="#A7F6FF" stroke-width="0.3" cx="6.67266174" cy="6.90612756" rx="4.44844116" ry="4.60408504"></ellipse>
                    </g>
                    <g id="Rectangle">
                        <use fill="black" fill-opacity="1" filter="url(#filter-2)" xlink:href="#path-1"></use>
                        <use stroke="#A7F6FF" stroke-width="1" fill="#A7F6FF" fill-rule="evenodd" xlink:href="#path-1"></use>
                    </g>
                    <path d="M34.9988896,18.4078433 L35.6588896,16.8578433 L38.4688896,16.8578433 L39.1288896,18.4078433 L40.5388896,18.4078433 L37.5388896,11.4078433 L36.5888896,11.4078433 L33.5888896,18.4078433 L34.9988896,18.4078433 Z M37.9488896,15.6578433 L36.1688896,15.6578433 L37.0588896,13.5878433 L37.9488896,15.6578433 Z M45.8333338,18.4078433 L45.8333338,17.2078433 L42.8833338,17.2078433 L42.8833338,11.4078433 L41.5333337,11.4078433 L41.5333337,18.4078433 L45.8333338,18.4078433 Z M48.4277779,18.4078433 L48.4277779,15.5578433 L49.7077779,15.5578433 C50.5277779,15.5578433 51.1344446,15.3511766 51.5277779,14.9378433 C51.8944446,14.5578433 52.0777779,14.07451 52.0777779,13.4878433 C52.0777779,12.9011766 51.8944446,12.4178433 51.5277779,12.0378433 C51.1277779,11.6178433 50.5211113,11.4078433 49.7077779,11.4078433 L49.7077779,11.4078433 L47.0777779,11.4078433 L47.0777779,18.4078433 L48.4277779,18.4078433 Z M49.6477779,14.3578433 L48.4277779,14.3578433 L48.4277779,12.6078433 L49.6477779,12.6078433 C50.0411113,12.6078433 50.3244446,12.7011766 50.4977779,12.8878433 C50.6511112,13.05451 50.7277779,13.25451 50.7277779,13.4878433 C50.7277779,13.71451 50.6511112,13.9111766 50.4977779,14.0778433 C50.3244446,14.26451 50.0411113,14.3578433 49.6477779,14.3578433 L49.6477779,14.3578433 Z M54.6222221,18.4078433 L54.6222221,15.2578433 L58.1222221,15.2578433 L58.1222221,18.4078433 L59.4722221,18.4078433 L59.4722221,11.4078433 L58.1222221,11.4078433 L58.1222221,14.0578433 L54.6222221,14.0578433 L54.6222221,11.4078433 L53.2722221,11.4078433 L53.2722221,18.4078433 L54.6222221,18.4078433 Z M61.8766662,18.4078433 L62.5366663,16.8578433 L65.3466662,16.8578433 L66.0066662,18.4078433 L67.4166663,18.4078433 L64.4166663,11.4078433 L63.4666663,11.4078433 L60.4666663,18.4078433 L61.8766662,18.4078433 Z M64.8266663,15.6578433 L63.0466663,15.6578433 L63.9366663,13.5878433 L64.8266663,15.6578433 Z M10.7666687,29.4078433 L10.7666687,26.5578433 L12.0466687,26.5578433 C12.8666687,26.5578433 13.4733354,26.3511766 13.8666687,25.9378433 C14.2333354,25.5578433 14.4166687,25.07451 14.4166687,24.4878433 C14.4166687,23.9011766 14.2333354,23.4178433 13.8666687,23.0378433 C13.4666687,22.6178433 12.8600021,22.4078433 12.0466687,22.4078433 L12.0466687,22.4078433 L9.41666875,22.4078433 L9.41666875,29.4078433 L10.7666687,29.4078433 Z M11.9866687,25.3578433 L10.7666687,25.3578433 L10.7666687,23.6078433 L11.9866687,23.6078433 C12.3800021,23.6078433 12.6633354,23.7011766 12.8366687,23.8878433 C12.9900021,24.05451 13.0666687,24.25451 13.0666687,24.4878433 C13.0666687,24.71451 12.9900021,24.9111766 12.8366687,25.0778433 C12.6633354,25.26451 12.3800021,25.3578433 11.9866687,25.3578433 L11.9866687,25.3578433 Z M16.9611129,29.4078433 L16.9611129,26.3078433 L17.4511129,26.3078433 L19.9411129,29.4078433 L21.6111129,29.4078433 L18.9911129,26.1978433 C19.2577796,26.1111766 19.4911129,25.97451 19.6911129,25.7878433 C20.1044462,25.39451 20.3111129,24.9178433 20.3111129,24.3578433 C20.3111129,23.7978433 20.1044462,23.3211766 19.6911129,22.9278433 C19.3111129,22.5811766 18.8011129,22.4078433 18.1611129,22.4078433 L18.1611129,22.4078433 L15.6111129,22.4078433 L15.6111129,29.4078433 L16.9611129,29.4078433 Z M18.0811129,25.1078433 L16.9611129,25.1078433 L16.9611129,23.6078433 L18.0811129,23.6078433 C18.4011129,23.6078433 18.6277796,23.6811766 18.7611129,23.8278433 C18.8944462,23.97451 18.9611129,24.15451 18.9611129,24.3678433 C18.9611129,24.57451 18.8944462,24.7511766 18.7611129,24.8978433 C18.6344462,25.0378433 18.4077796,25.1078433 18.0811129,25.1078433 L18.0811129,25.1078433 Z M25.2555571,29.5078433 C26.3222237,29.5078433 27.1972237,29.1611766 27.8805571,28.4678433 C28.5638904,27.77451 28.9055571,26.9211766 28.9055571,25.9078433 C28.9055571,24.89451 28.5638904,24.0411766 27.8805571,23.3478433 C27.1972237,22.65451 26.3222237,22.3078433 25.2555571,22.3078433 C24.1888904,22.3078433 23.3138904,22.65451 22.6305571,23.3478433 C21.9472237,24.0411766 21.6055571,24.89451 21.6055571,25.9078433 C21.6055571,26.9211766 21.9455571,27.77451 22.6255571,28.4678433 C23.3122237,29.1611766 24.1888904,29.5078433 25.2555571,29.5078433 Z M25.2555571,28.3078433 C24.6022237,28.3078433 24.0555571,28.07451 23.6155571,27.6078433 C23.1755571,27.1411766 22.9555571,26.57451 22.9555571,25.9078433 C22.9555571,25.2411766 23.1755571,24.67451 23.6155571,24.2078433 C24.0555571,23.7411766 24.6022237,23.5078433 25.2555571,23.5078433 C25.9088904,23.5078433 26.4555571,23.7411766 26.8955571,24.2078433 C27.3355571,24.67451 27.5555571,25.2411766 27.5555571,25.9078433 C27.5555571,26.57451 27.3355571,27.1411766 26.8955571,27.6078433 C26.4555571,28.07451 25.9088904,28.3078433 25.2555571,28.3078433 Z M31.5500012,29.4078433 L31.5500012,26.5578433 L32.8300012,26.5578433 C33.6500013,26.5578433 34.2566679,26.3511766 34.6500012,25.9378433 C35.0166679,25.5578433 35.2000012,25.07451 35.2000012,24.4878433 C35.2000012,23.9011766 35.0166679,23.4178433 34.6500012,23.0378433 C34.2500012,22.6178433 33.6433346,22.4078433 32.8300012,22.4078433 L32.8300012,22.4078433 L30.2000012,22.4078433 L30.2000012,29.4078433 L31.5500012,29.4078433 Z M32.7700012,25.3578433 L31.5500012,25.3578433 L31.5500012,23.6078433 L32.7700012,23.6078433 C33.1633346,23.6078433 33.4466679,23.7011766 33.6200012,23.8878433 C33.7733346,24.05451 33.8500012,24.25451 33.8500012,24.4878433 C33.8500012,24.71451 33.7733346,24.9111766 33.6200012,25.0778433 C33.4466679,25.26451 33.1633346,25.3578433 32.7700012,25.3578433 L32.7700012,25.3578433 Z M40.6944454,29.4078433 L40.6944454,28.2078433 L37.7444454,28.2078433 L37.7444454,26.2578433 L39.8944454,26.2578433 L39.8944454,25.0578433 L37.7444454,25.0578433 L37.7444454,23.6078433 L40.5944454,23.6078433 L40.5944454,22.4078433 L36.3944454,22.4078433 L36.3944454,29.4078433 L40.6944454,29.4078433 Z M43.4388896,29.4078433 L43.4388896,26.3078433 L43.9288896,26.3078433 L46.4188896,29.4078433 L48.0888896,29.4078433 L45.4688896,26.1978433 C45.7355562,26.1111766 45.9688896,25.97451 46.1688896,25.7878433 C46.5822229,25.39451 46.7888896,24.9178433 46.7888896,24.3578433 C46.7888896,23.7978433 46.5822229,23.3211766 46.1688896,22.9278433 C45.7888896,22.5811766 45.2788896,22.4078433 44.6388896,22.4078433 L44.6388896,22.4078433 L42.0888896,22.4078433 L42.0888896,29.4078433 L43.4388896,29.4078433 Z M44.5588896,25.1078433 L43.4388896,25.1078433 L43.4388896,23.6078433 L44.5588896,23.6078433 C44.8788896,23.6078433 45.1055562,23.6811766 45.2388896,23.8278433 C45.3722229,23.97451 45.4388896,24.15451 45.4388896,24.3678433 C45.4388896,24.57451 45.3722229,24.7511766 45.2388896,24.8978433 C45.1122229,25.0378433 44.8855562,25.1078433 44.5588896,25.1078433 L44.5588896,25.1078433 Z M51.1333338,29.4078433 L51.1333338,23.6078433 L52.9833337,23.6078433 L52.9833337,22.4078433 L47.9333338,22.4078433 L47.9333338,23.6078433 L49.7833337,23.6078433 L49.7833337,29.4078433 L51.1333338,29.4078433 Z M55.5777779,29.4078433 L55.5777779,22.4078433 L54.2277779,22.4078433 L54.2277779,29.4078433 L55.5777779,29.4078433 Z M61.6722221,29.4078433 L61.6722221,28.2078433 L58.7222221,28.2078433 L58.7222221,26.2578433 L60.8722221,26.2578433 L60.8722221,25.0578433 L58.7222221,25.0578433 L58.7222221,23.6078433 L61.5722221,23.6078433 L61.5722221,22.4078433 L57.3722221,22.4078433 L57.3722221,29.4078433 L61.6722221,29.4078433 Z M65.0466663,29.5078433 C65.6933329,29.5078433 66.2499996,29.30951 66.7166663,28.9128433 C67.1833329,28.5161766 67.4166662,28.01451 67.4166662,27.4078433 C67.4166662,26.9678433 67.3049996,26.59451 67.0816662,26.2878433 C66.8583329,25.9811766 66.5883329,25.7511766 66.2716662,25.5978433 C65.9549996,25.44451 65.6399996,25.30951 65.3266663,25.1928433 C65.0133329,25.0761766 64.7449996,24.9428433 64.5216662,24.7928433 C64.2983329,24.6428433 64.1866663,24.4678433 64.1866663,24.2678433 C64.1866663,24.01451 64.2949996,23.82451 64.5116662,23.6978433 C64.7283329,23.5711766 64.9799996,23.5078433 65.2666663,23.5078433 C65.7399996,23.5078433 66.1433329,23.6611766 66.4766662,23.9678433 L66.4766662,23.9678433 L67.1766662,22.9678433 C66.5833329,22.5278433 65.9066662,22.3078433 65.1466662,22.3078433 C64.5266662,22.3078433 63.9866662,22.4878433 63.5266663,22.8478433 C63.0666662,23.2078433 62.8366663,23.68451 62.8366663,24.2778433 C62.8366663,24.9511766 63.1666663,25.4811766 63.8266663,25.8678433 C64.0199996,25.9811766 64.3349996,26.1211766 64.7716662,26.2878433 C65.2083329,26.45451 65.5333329,26.61951 65.7466663,26.7828433 C65.9599996,26.9461766 66.0666662,27.1611766 66.0666662,27.4278433 C66.0666662,27.6811766 65.9716662,27.8911766 65.7816663,28.0578433 C65.5916663,28.22451 65.3466662,28.3078433 65.0466663,28.3078433 C64.4133329,28.3078433 63.8633329,28.0511766 63.3966662,27.5378433 L63.3966662,27.5378433 L62.5166663,28.4578433 C63.2833329,29.1578433 64.1266662,29.5078433 65.0466663,29.5078433 Z M69.2111104,30.8078433 L70.4111104,27.8578433 L69.0111104,27.8578433 L68.2611104,30.8078433 L69.2111104,30.8078433 Z M79.1999987,29.4078433 L79.1999987,28.2078433 L76.2499988,28.2078433 L76.2499988,22.4078433 L74.8999987,22.4078433 L74.8999987,29.4078433 L79.1999987,29.4078433 Z M84.7444429,29.4078433 L84.7444429,28.2078433 L81.7944429,28.2078433 L81.7944429,22.4078433 L80.4444429,22.4078433 L80.4444429,29.4078433 L84.7444429,29.4078433 Z M89.0488871,29.5078433 C89.6688871,29.5078433 90.2338871,29.3861766 90.7438871,29.1428433 C91.2538871,28.89951 91.6688871,28.57451 91.9888871,28.1678433 L91.9888871,28.1678433 L91.0588871,27.3378433 C90.5588871,27.98451 89.8988871,28.3078433 89.0788871,28.3078433 C88.4055538,28.3078433 87.8388871,28.0778433 87.3788871,27.6178433 C86.9188871,27.1578433 86.6888871,26.5878433 86.6888871,25.9078433 C86.6888871,25.2411766 86.9122204,24.67451 87.3588871,24.2078433 C87.8055538,23.7411766 88.3588871,23.5078433 89.0188871,23.5078433 C89.6722204,23.5078433 90.2388871,23.7478433 90.7188871,24.2278433 L90.7188871,24.2278433 L91.5888871,23.3078433 C90.9022204,22.6411766 90.0488871,22.3078433 89.0288871,22.3078433 C87.9555537,22.3078433 87.0722204,22.6528433 86.3788871,23.3428433 C85.6855537,24.0328433 85.3388871,24.8878433 85.3388871,25.9078433 C85.3388871,26.9278433 85.6872204,27.7828433 86.3838871,28.4728433 C87.0805538,29.1628433 87.9688871,29.5078433 89.0488871,29.5078433 Z" id="ALPHAPROPERTIES,LLC" fill="#232F40" fill-rule="nonzero"></path>
                    <path d="M30.8322233,110.407843 L31.4922233,108.857843 L34.3022233,108.857843 L34.9622233,110.407843 L36.3722233,110.407843 L33.3722233,103.407843 L32.4222233,103.407843 L29.4222233,110.407843 L30.8322233,110.407843 Z M33.7822233,107.657843 L32.0022233,107.657843 L32.8922233,105.587843 L33.7822233,107.657843 Z M41.6666675,110.407843 L41.6666675,109.207843 L38.7166675,109.207843 L38.7166675,103.407843 L37.3666675,103.407843 L37.3666675,110.407843 L41.6666675,110.407843 Z M44.2611117,110.407843 L44.2611117,103.407843 L42.9111117,103.407843 L42.9111117,110.407843 L44.2611117,110.407843 Z M49.2655558,110.507843 C49.8855558,110.507843 50.4505558,110.386177 50.9605558,110.142843 C51.4705558,109.89951 51.8855558,109.57451 52.2055558,109.167843 L52.2055558,109.167843 L51.2755558,108.337843 C50.7755558,108.98451 50.1155558,109.307843 49.2955558,109.307843 C48.6222225,109.307843 48.0555558,109.077843 47.5955558,108.617843 C47.1355558,108.157843 46.9055558,107.587843 46.9055558,106.907843 C46.9055558,106.241177 47.1288892,105.67451 47.5755558,105.207843 C48.0222225,104.741177 48.5755558,104.507843 49.2355558,104.507843 C49.8888892,104.507843 50.4555558,104.747843 50.9355558,105.227843 L50.9355558,105.227843 L51.8055558,104.307843 C51.1188892,103.641177 50.2655558,103.307843 49.2455558,103.307843 C48.1722225,103.307843 47.2888892,103.652843 46.5955558,104.342843 C45.9022225,105.032843 45.5555558,105.887843 45.5555558,106.907843 C45.5555558,107.927843 45.9038892,108.782843 46.6005558,109.472843 C47.2972225,110.162843 48.1855558,110.507843 49.2655558,110.507843 Z M57.7,110.407843 L57.7,109.207843 L54.75,109.207843 L54.75,107.257843 L56.9,107.257843 L56.9,106.057843 L54.75,106.057843 L54.75,104.607843 L57.6,104.607843 L57.6,103.407843 L53.4,103.407843 L53.4,110.407843 L57.7,110.407843 Z M64.7188883,110.407843 C65.5188883,110.407843 66.1288883,110.197843 66.5488883,109.777843 C66.975555,109.36451 67.1888883,108.861177 67.1888883,108.267843 C67.1888883,107.881177 67.0922217,107.52451 66.8988883,107.197843 C66.705555,106.871177 66.4522217,106.631177 66.1388883,106.477843 C66.2588883,106.351177 66.3638883,106.17951 66.4538883,105.962843 C66.5438883,105.746177 66.5888883,105.527843 66.5888883,105.307843 C66.5888883,104.747843 66.3722217,104.277843 65.9388883,103.897843 C65.565555,103.571177 65.0422217,103.407843 64.3688883,103.407843 L64.3688883,103.407843 L61.9888883,103.407843 L61.9888883,110.407843 L64.7188883,110.407843 Z M64.2888883,106.107843 L63.3388883,106.107843 L63.3388883,104.607843 L64.2888883,104.607843 C64.635555,104.607843 64.885555,104.691177 65.0388883,104.857843 C65.1722217,105.00451 65.2388883,105.171177 65.2388883,105.357843 C65.2388883,105.54451 65.1722217,105.711177 65.0388883,105.857843 C64.885555,106.02451 64.635555,106.107843 64.2888883,106.107843 L64.2888883,106.107843 Z M64.6888883,109.207843 L63.3388883,109.207843 L63.3388883,107.307843 L64.6888883,107.307843 C65.1022217,107.307843 65.4022217,107.411177 65.5888883,107.617843 C65.755555,107.797843 65.8388883,108.011177 65.8388883,108.257843 C65.8388883,108.50451 65.755555,108.717843 65.5888883,108.897843 C65.4022217,109.10451 65.1022217,109.207843 64.6888883,109.207843 L64.6888883,109.207843 Z M69.6033325,110.507843 C69.8499992,110.507843 70.0583325,110.42451 70.2283325,110.257843 C70.3983325,110.091177 70.4833325,109.88451 70.4833325,109.637843 C70.4833325,109.391177 70.3983325,109.182843 70.2283325,109.012843 C70.0583325,108.842843 69.8499992,108.757843 69.6033325,108.757843 C69.3566658,108.757843 69.1499992,108.842843 68.9833325,109.012843 C68.8166658,109.182843 68.7333325,109.391177 68.7333325,109.637843 C68.7333325,109.88451 68.8166658,110.091177 68.9833325,110.257843 C69.1499992,110.42451 69.3566658,110.507843 69.6033325,110.507843 Z" id="ALICEB." fill="#232F40" fill-rule="nonzero"></path>
                    <g id="Group-11" transform="translate(50.500000, 66.907843) rotate(180.000000) translate(-50.500000, -66.907843) translate(46.000000, 37.407843)" stroke="#232F40" stroke-linecap="round" stroke-width="2">
                        <line x1="4.49039853" y1="0.344540286" x2="4.49039853" y2="56.5548628" id="Line-4"></line>
                        <polyline id="Rectangle" transform="translate(4.500000, 54.612135) rotate(45.000000) translate(-4.500000, -54.612135) " points="7 52.1121345 7 57.1121345 2 57.1121345"></polyline>
                    </g>
                    <g id="Group-2" transform="translate(13.000000, 52.407843)">
                        <polygon id="Rectangle" fill="#A7F6FF" points="2.5973568 0 73.5973568 0 73.5973568 32 2.5973568 32"></polygon>
                        <path d="M25.1138896,13 L25.1138896,9.9 L25.6038896,9.9 L28.0938896,13 L29.7638896,13 L27.1438896,9.79 C27.4105562,9.70333333 27.6438896,9.56666667 27.8438896,9.38 C28.2572229,8.98666667 28.4638896,8.51 28.4638896,7.95 C28.4638896,7.39 28.2572229,6.91333333 27.8438896,6.52 C27.4638896,6.17333333 26.9538896,6 26.3138896,6 L26.3138896,6 L23.7638896,6 L23.7638896,13 L25.1138896,13 Z M26.2338896,8.7 L25.1138896,8.7 L25.1138896,7.2 L26.2338896,7.2 C26.5538896,7.2 26.7805563,7.27333333 26.9138896,7.42 C27.0472229,7.56666667 27.1138896,7.74666667 27.1138896,7.96 C27.1138896,8.16666667 27.0472229,8.34333333 26.9138896,8.49 C26.7872229,8.63 26.5605563,8.7 26.2338896,8.7 L26.2338896,8.7 Z M34.9583338,13 L34.9583338,11.8 L32.0083337,11.8 L32.0083337,9.85 L34.1583337,9.85 L34.1583337,8.65 L32.0083337,8.65 L32.0083337,7.2 L34.8583337,7.2 L34.8583337,6 L30.6583338,6 L30.6583338,13 L34.9583338,13 Z M37.7027779,13 L37.7027779,8.44 L41.6027779,13 L42.5527779,13 L42.5527779,6 L41.2027779,6 L41.2027779,10.56 L37.3027779,6 L36.3527779,6 L36.3527779,13 L37.7027779,13 Z M46.9972221,13 L46.9972221,7.2 L48.8472221,7.2 L48.8472221,6 L43.7972221,6 L43.7972221,7.2 L45.6472221,7.2 L45.6472221,13 L46.9972221,13 Z M51.0616663,9.76 C51.3083329,9.76 51.5166663,9.67833333 51.6866663,9.515 C51.8566663,9.35166667 51.9416663,9.15 51.9416663,8.91 C51.9416663,8.66333333 51.8566663,8.45833333 51.6866663,8.295 C51.5166663,8.13166667 51.3083329,8.05 51.0616663,8.05 C50.8149996,8.05 50.6083329,8.13166667 50.4416663,8.295 C50.2749996,8.45833333 50.1916663,8.66333333 50.1916663,8.91 C50.1916663,9.15666667 50.2749996,9.36 50.4416663,9.52 C50.6083329,9.68 50.8149996,9.76 51.0616663,9.76 Z M51.0616663,13.1 C51.3083329,13.1 51.5166663,13.0183333 51.6866663,12.855 C51.8566663,12.6916667 51.9416663,12.49 51.9416663,12.25 C51.9416663,12.0033333 51.8566663,11.7983333 51.6866663,11.635 C51.5166663,11.4716667 51.3083329,11.39 51.0616663,11.39 C50.8149996,11.39 50.6083329,11.4716667 50.4416663,11.635 C50.2749996,11.7983333 50.1916663,12.0033333 50.1916663,12.25 C50.1916663,12.4966667 50.2749996,12.7 50.4416663,12.86 C50.6083329,13.02 50.8149996,13.1 51.0616663,13.1 Z M6.7166685,26 L6.7166685,24.56 L3.7886685,24.56 L5.5766685,22.484 C6.2966685,21.66 6.6566685,20.856 6.6566685,20.072 C6.6566685,19.328 6.3926685,18.71 5.8646685,18.218 C5.3366685,17.726 4.7046685,17.48 3.9686685,17.48 C3.3526685,17.48 2.8026685,17.66 2.3186685,18.02 C1.8346685,18.38 1.5006685,18.848 1.3166685,19.424 L1.3166685,19.424 L2.8046685,19.868 C2.8926685,19.58 3.0366685,19.35 3.2366685,19.178 C3.4366685,19.006 3.6726685,18.92 3.9446685,18.92 C4.2566685,18.92 4.5166685,19.032 4.7246685,19.256 C4.9326685,19.48 5.0366685,19.744 5.0366685,20.048 C5.0366685,20.52 4.7606685,21.068 4.2086685,21.692 L4.2086685,21.692 L1.2566685,25.04 L1.2566685,26 L6.7166685,26 Z M9.2900015,27.68 L10.7300015,24.14 L9.0500015,24.14 L8.1500015,27.68 L9.2900015,27.68 Z M15.8833345,26.12 C16.4033345,26.12 16.8573345,26.008 17.2453345,25.784 C17.6333345,25.56 17.9393345,25.248 18.1633345,24.848 C18.3873345,24.448 18.5533345,23.994 18.6613345,23.486 C18.7693345,22.978 18.8233345,22.416 18.8233345,21.8 C18.8233345,21.184 18.7693345,20.622 18.6613345,20.114 C18.5533345,19.606 18.3873345,19.152 18.1633345,18.752 C17.9393345,18.352 17.6333345,18.04 17.2453345,17.816 C16.8573345,17.592 16.4033345,17.48 15.8833345,17.48 C15.3633345,17.48 14.9093345,17.592 14.5213345,17.816 C14.1333345,18.04 13.8273345,18.352 13.6033345,18.752 C13.3793345,19.152 13.2133345,19.606 13.1053345,20.114 C12.9973345,20.622 12.9433345,21.184 12.9433345,21.8 C12.9433345,22.416 12.9953345,22.98 13.0993345,23.492 C13.2113345,23.996 13.3793345,24.448 13.6033345,24.848 C13.8273345,25.248 14.1333345,25.56 14.5213345,25.784 C14.9093345,26.008 15.3633345,26.12 15.8833345,26.12 Z M15.8833345,24.68 C15.4273345,24.68 15.0933345,24.416 14.8813345,23.888 C14.6693345,23.36 14.5633345,22.664 14.5633345,21.8 C14.5633345,20.936 14.6693345,20.24 14.8813345,19.712 C15.0933345,19.184 15.4273345,18.92 15.8833345,18.92 C16.3393345,18.92 16.6733345,19.184 16.8853345,19.712 C17.0973345,20.24 17.2033345,20.936 17.2033345,21.8 C17.2033345,22.664 17.0953345,23.36 16.8793345,23.888 C16.6713345,24.416 16.3393345,24.68 15.8833345,24.68 Z M23.3166675,26.12 C23.8366675,26.12 24.2906675,26.008 24.6786675,25.784 C25.0666675,25.56 25.3726675,25.248 25.5966675,24.848 C25.8206675,24.448 25.9866675,23.994 26.0946675,23.486 C26.2026675,22.978 26.2566675,22.416 26.2566675,21.8 C26.2566675,21.184 26.2026675,20.622 26.0946675,20.114 C25.9866675,19.606 25.8206675,19.152 25.5966675,18.752 C25.3726675,18.352 25.0666675,18.04 24.6786675,17.816 C24.2906675,17.592 23.8366675,17.48 23.3166675,17.48 C22.7966675,17.48 22.3426675,17.592 21.9546675,17.816 C21.5666675,18.04 21.2606675,18.352 21.0366675,18.752 C20.8126675,19.152 20.6466675,19.606 20.5386675,20.114 C20.4306675,20.622 20.3766675,21.184 20.3766675,21.8 C20.3766675,22.416 20.4286675,22.98 20.5326675,23.492 C20.6446675,23.996 20.8126675,24.448 21.0366675,24.848 C21.2606675,25.248 21.5666675,25.56 21.9546675,25.784 C22.3426675,26.008 22.7966675,26.12 23.3166675,26.12 Z M23.3166675,24.68 C22.8606675,24.68 22.5266675,24.416 22.3146675,23.888 C22.1026675,23.36 21.9966675,22.664 21.9966675,21.8 C21.9966675,20.936 22.1026675,20.24 22.3146675,19.712 C22.5266675,19.184 22.8606675,18.92 23.3166675,18.92 C23.7726675,18.92 24.1066675,19.184 24.3186675,19.712 C24.5306675,20.24 24.6366675,20.936 24.6366675,21.8 C24.6366675,22.664 24.5286675,23.36 24.3126675,23.888 C24.1046675,24.416 23.7726675,24.68 23.3166675,24.68 Z M30.7500005,26.12 C31.2700005,26.12 31.7240005,26.008 32.1120005,25.784 C32.5000005,25.56 32.8060005,25.248 33.0300005,24.848 C33.2540005,24.448 33.4200005,23.994 33.5280005,23.486 C33.6360005,22.978 33.6900005,22.416 33.6900005,21.8 C33.6900005,21.184 33.6360005,20.622 33.5280005,20.114 C33.4200005,19.606 33.2540005,19.152 33.0300005,18.752 C32.8060005,18.352 32.5000005,18.04 32.1120005,17.816 C31.7240005,17.592 31.2700005,17.48 30.7500005,17.48 C30.2300005,17.48 29.7760005,17.592 29.3880005,17.816 C29.0000005,18.04 28.6940005,18.352 28.4700005,18.752 C28.2460005,19.152 28.0800005,19.606 27.9720005,20.114 C27.8640005,20.622 27.8100005,21.184 27.8100005,21.8 C27.8100005,22.416 27.8620005,22.98 27.9660005,23.492 C28.0780005,23.996 28.2460005,24.448 28.4700005,24.848 C28.6940005,25.248 29.0000005,25.56 29.3880005,25.784 C29.7760005,26.008 30.2300005,26.12 30.7500005,26.12 Z M30.7500005,24.68 C30.2940005,24.68 29.9600005,24.416 29.7480005,23.888 C29.5360005,23.36 29.4300005,22.664 29.4300005,21.8 C29.4300005,20.936 29.5360005,20.24 29.7480005,19.712 C29.9600005,19.184 30.2940005,18.92 30.7500005,18.92 C31.2060005,18.92 31.5400005,19.184 31.7520005,19.712 C31.9640005,20.24 32.0700005,20.936 32.0700005,21.8 C32.0700005,22.664 31.9620005,23.36 31.7460005,23.888 C31.5380005,24.416 31.2060005,24.68 30.7500005,24.68 Z M42.5566665,26.12 C43.5886665,26.12 44.4286665,25.832 45.0766665,25.256 C45.7966665,24.608 46.1566665,23.676 46.1566665,22.46 L46.1566665,22.46 L46.1566665,17.6 L44.5366665,17.6 L44.5366665,22.58 C44.5366665,23.276 44.3526665,23.796 43.9846665,24.14 C43.6086665,24.5 43.1326665,24.68 42.5566665,24.68 C41.9806665,24.68 41.5046665,24.5 41.1286665,24.14 C40.7606665,23.796 40.5766665,23.276 40.5766665,22.58 L40.5766665,22.58 L40.5766665,17.6 L38.9566665,17.6 L38.9566665,22.46 C38.9566665,23.676 39.3166665,24.608 40.0366665,25.256 C40.6846665,25.832 41.5246665,26.12 42.5566665,26.12 Z M50.4459995,26.12 C51.2219995,26.12 51.8899995,25.882 52.4499995,25.406 C53.0099995,24.93 53.2899995,24.328 53.2899995,23.6 C53.2899995,23.072 53.1559995,22.624 52.8879995,22.256 C52.6199995,21.888 52.2959995,21.612 51.9159995,21.428 C51.5359995,21.244 51.1579995,21.082 50.7819995,20.942 C50.4059995,20.802 50.0839995,20.642 49.8159995,20.462 C49.5479995,20.282 49.4139995,20.072 49.4139995,19.832 C49.4139995,19.528 49.5439995,19.3 49.8039995,19.148 C50.0639995,18.996 50.3659995,18.92 50.7099995,18.92 C51.2779995,18.92 51.7619995,19.104 52.1619995,19.472 L52.1619995,19.472 L53.0019995,18.272 C52.2899995,17.744 51.4779995,17.48 50.5659995,17.48 C49.8219995,17.48 49.1739995,17.696 48.6219995,18.128 C48.0699995,18.56 47.7939995,19.132 47.7939995,19.844 C47.7939995,20.652 48.1899995,21.288 48.9819995,21.752 C49.2139995,21.888 49.5919995,22.056 50.1159995,22.256 C50.6399995,22.456 51.0299995,22.654 51.2859995,22.85 C51.5419995,23.046 51.6699995,23.304 51.6699995,23.624 C51.6699995,23.928 51.5559995,24.18 51.3279995,24.38 C51.0999995,24.58 50.8059995,24.68 50.4459995,24.68 C49.6859995,24.68 49.0259995,24.372 48.4659995,23.756 L48.4659995,23.756 L47.4099995,24.86 C48.3299995,25.7 49.3419995,26.12 50.4459995,26.12 Z M57.5433325,26 C58.7513325,26 59.7153325,25.736 60.4353325,25.208 C60.9553325,24.824 61.3633325,24.332 61.6593325,23.732 C61.9553325,23.132 62.1033325,22.488 62.1033325,21.8 C62.1033325,21.112 61.9553325,20.468 61.6593325,19.868 C61.3633325,19.268 60.9553325,18.776 60.4353325,18.392 C59.7153325,17.864 58.7513325,17.6 57.5433325,17.6 L57.5433325,17.6 L54.9033325,17.6 L54.9033325,26 L57.5433325,26 Z M57.7233325,24.56 L56.5233325,24.56 L56.5233325,19.04 L57.7233325,19.04 C58.6593325,19.04 59.3753325,19.352 59.8713325,19.976 C60.2793325,20.488 60.4833325,21.096 60.4833325,21.8 C60.4833325,22.504 60.2793325,23.112 59.8713325,23.624 C59.3753325,24.248 58.6593325,24.56 57.7233325,24.56 L57.7233325,24.56 Z M67.4966655,23.54 L67.4966655,22.22 L63.5366655,22.22 L63.5366655,23.54 L67.4966655,23.54 Z M71.7259985,26.12 C72.5019985,26.12 73.1699985,25.882 73.7299985,25.406 C74.2899985,24.93 74.5699985,24.328 74.5699985,23.6 C74.5699985,23.072 74.4359985,22.624 74.1679985,22.256 C73.8999985,21.888 73.5759985,21.612 73.1959985,21.428 C72.8159985,21.244 72.4379985,21.082 72.0619985,20.942 C71.6859985,20.802 71.3639985,20.642 71.0959985,20.462 C70.8279985,20.282 70.6939985,20.072 70.6939985,19.832 C70.6939985,19.528 70.8239985,19.3 71.0839985,19.148 C71.3439985,18.996 71.6459985,18.92 71.9899985,18.92 C72.5579985,18.92 73.0419985,19.104 73.4419985,19.472 L73.4419985,19.472 L74.2819985,18.272 C73.5699985,17.744 72.7579985,17.48 71.8459985,17.48 C71.1019985,17.48 70.4539985,17.696 69.9019985,18.128 C69.3499985,18.56 69.0739985,19.132 69.0739985,19.844 C69.0739985,20.652 69.4699985,21.288 70.2619985,21.752 C70.4939985,21.888 70.8719985,22.056 71.3959985,22.256 C71.9199985,22.456 72.3099985,22.654 72.5659985,22.85 C72.8219985,23.046 72.9499985,23.304 72.9499985,23.624 C72.9499985,23.928 72.8359985,24.18 72.6079985,24.38 C72.3799985,24.58 72.0859985,24.68 71.7259985,24.68 C70.9659985,24.68 70.3059985,24.372 69.7459985,23.756 L69.7459985,23.756 L68.6899985,24.86 C69.6099985,25.7 70.6219985,26.12 71.7259985,26.12 Z" id="RENT:2,000USD-S" fill="#28364A" fill-rule="nonzero"></path>
                    </g>
                </g>
                <g id="Group-12" transform="translate(506.500000, 300.701098) scale(-1, 1) translate(-506.500000, -300.701098) translate(316.000000, 113.201098)" stroke="#A7F6FF" stroke-linecap="round" stroke-width="3">
                    <line x1="45.9653291" y1="309.605368" x2="336.553373" y2="65.7730474" id="Line-11" transform="translate(191.259351, 187.689208) scale(1, -1) rotate(220.000000) translate(-191.259351, -187.689208) "></line>
                    <polyline id="Rectangle" transform="translate(8.714046, 187.369365) scale(1, -1) rotate(135.000000) translate(-8.714046, -187.369365) " points="14.7140461 181.369365 14.7140461 193.369365 2.71404614 193.369365"></polyline>
                </g>
                <g id="Group-12" transform="translate(0.000000, 91.201098)" stroke="#A7F6FF" stroke-linecap="round" stroke-width="3">
                    <polyline id="Line-11" transform="translate(147.653992, 140.120773) scale(1, -1) rotate(220.000000) translate(-147.653992, -140.120773) " points="17.3342553 90.3370899 45.6655583 66.7590506 168.781146 213.482495 277.973728 121.85904"></polyline>
                    <polyline id="Rectangle" transform="translate(42.089308, 209.887271) scale(1, -1) rotate(135.000000) translate(-42.089308, -209.887271) " points="48.0893077 203.887271 48.0893077 215.887271 36.0893077 215.887271"></polyline>
                </g>
                <line x1="227.449025" y1="158.134375" x2="302.902089" y2="158.134375" id="Line-5" stroke="#A7F6FF" stroke-width="3" stroke-linecap="square" stroke-dasharray="7" transform="translate(265.175557, 158.134375) rotate(90.000000) translate(-265.175557, -158.134375) "></line>
                <g id="Group-18" transform="translate(243.927227, 138.105801)">
                    <circle id="Oval" stroke="#A7F6FF" stroke-width="3" fill="#232F40" cx="21" cy="21" r="21"></circle>
                    <g id="Carbon" transform="translate(9.000000, 9.000000)">
                        <ellipse id="Oval" stroke="#FFFFFF" stroke-width="2" transform="translate(11.909910, 12.036784) rotate(-45.000000) translate(-11.909910, -12.036784) " cx="11.9099102" cy="12.0367838" rx="3.89011778" ry="12.6548401"></ellipse>
                        <ellipse id="Oval" stroke="#FFFFFF" stroke-width="2" transform="translate(11.909910, 12.036784) scale(-1, 1) rotate(-45.000000) translate(-11.909910, -12.036784) " cx="11.9099102" cy="12.0367838" rx="3.89011778" ry="12.6548401"></ellipse>
                        <path d="M12,14.1193987 C13.1525943,14.1193987 14.0869565,13.1850365 14.0869565,12.0324422 C14.0869565,10.879848 13.1525943,9.94548569 12,9.94548569 C10.8474057,9.94548569 9.91304348,10.879848 9.91304348,12.0324422 C9.91304348,13.1850365 10.8474057,14.1193987 12,14.1193987 Z" id="Oval" fill="#FFFFFF"></path>
                        <path d="M17.101776,5.35624901 C18.2543703,5.35624901 19.1887325,4.42188675 19.1887325,3.26929249 C19.1887325,2.11669823 18.2543703,1.18233597 17.101776,1.18233597 C15.9491817,1.18233597 15.0148195,2.11669823 15.0148195,3.26929249 C15.0148195,4.42188675 15.9491817,5.35624901 17.101776,5.35624901 Z" id="Oval" fill="#FFFFFF"></path>
                        <path d="M20.9362393,19.7176545 C22.0888335,19.7176545 23.0231958,18.7832922 23.0231958,17.630698 C23.0231958,16.4781037 22.0888335,15.5437414 20.9362393,15.5437414 C19.783645,15.5437414 18.8492827,16.4781037 18.8492827,17.630698 C18.8492827,18.7832922 19.783645,19.7176545 20.9362393,19.7176545 Z" id="Oval" fill="#FFFFFF"></path>
                        <path d="M2.93220079,8.67349532 C4.08479505,8.67349532 5.01915731,7.73913305 5.01915731,6.58653879 C5.01915731,5.43394453 4.08479505,4.49958227 2.93220079,4.49958227 C1.77960653,4.49958227 0.845244266,5.43394453 0.845244266,6.58653879 C0.845244266,7.73913305 1.77960653,8.67349532 2.93220079,8.67349532 Z" id="Oval" fill="#FFFFFF"></path>
                        <path d="M6.53465807,22.9713036 C7.68725233,22.9713036 8.62161459,22.0369414 8.62161459,20.8843471 C8.62161459,19.7317528 7.68725233,18.7973906 6.53465807,18.7973906 C5.38206381,18.7973906 4.44770155,19.7317528 4.44770155,20.8843471 C4.44770155,22.0369414 5.38206381,22.9713036 6.53465807,22.9713036 Z" id="Oval" fill="#FFFFFF"></path>
                    </g>
                </g>
                <g id="Group-5" transform="translate(275.927227, 109.407843)">
                    <ellipse id="Oval" stroke="#A7F6FF" stroke-width="0.3" cx="6.67266174" cy="6.90612756" rx="2.22422058" ry="2.30204252"></ellipse>
                    <path d="M6.67266174,8.05714882 C7.28686329,8.05714882 7.78477203,7.54181905 7.78477203,6.90612756 C7.78477203,6.27043607 7.28686329,5.7551063 6.67266174,5.7551063 C6.05846019,5.7551063 5.56055145,6.27043607 5.56055145,6.90612756 C5.56055145,7.54181905 6.05846019,8.05714882 6.67266174,8.05714882 Z" id="Oval" fill="#A7F6FF"></path>
                    <ellipse id="Oval" stroke-opacity="0.505354021" stroke="#A7F6FF" stroke-width="0.3" cx="6.67266174" cy="6.90612756" rx="6.67266174" ry="6.90612756"></ellipse>
                    <ellipse id="Oval" stroke-opacity="0.693045236" stroke="#A7F6FF" stroke-width="0.3" cx="6.67266174" cy="6.90612756" rx="4.44844116" ry="4.60408504"></ellipse>
                </g>
                <g id="Rectangle">
                    <use fill="black" fill-opacity="1" filter="url(#filter-4)" xlink:href="#path-3"></use>
                    <use stroke="#A7F6FF" stroke-width="1" fill="#A7F6FF" fill-rule="evenodd" xlink:href="#path-3"></use>
                </g>
                <path d="M244.75945,111.407843 L245.41945,109.857843 L248.22945,109.857843 L248.88945,111.407843 L250.29945,111.407843 L247.29945,104.407843 L246.34945,104.407843 L243.34945,111.407843 L244.75945,111.407843 Z M247.70945,108.657843 L245.92945,108.657843 L246.81945,106.587843 L247.70945,108.657843 Z M255.593894,111.407843 L255.593894,110.207843 L252.643894,110.207843 L252.643894,104.407843 L251.293894,104.407843 L251.293894,111.407843 L255.593894,111.407843 Z M258.188338,111.407843 L258.188338,104.407843 L256.838338,104.407843 L256.838338,111.407843 L258.188338,111.407843 Z M263.192783,111.507843 C263.812783,111.507843 264.377783,111.386177 264.887783,111.142843 C265.397783,110.89951 265.812783,110.57451 266.132783,110.167843 L266.132783,110.167843 L265.202783,109.337843 C264.702783,109.98451 264.042783,110.307843 263.222783,110.307843 C262.549449,110.307843 261.982783,110.077843 261.522783,109.617843 C261.062783,109.157843 260.832783,108.587843 260.832783,107.907843 C260.832783,107.241177 261.056116,106.67451 261.502783,106.207843 C261.949449,105.741177 262.502783,105.507843 263.162783,105.507843 C263.816116,105.507843 264.382783,105.747843 264.862783,106.227843 L264.862783,106.227843 L265.732783,105.307843 C265.046116,104.641177 264.192783,104.307843 263.172783,104.307843 C262.099449,104.307843 261.216116,104.652843 260.522783,105.342843 C259.829449,106.032843 259.482783,106.887843 259.482783,107.907843 C259.482783,108.927843 259.831116,109.782843 260.527783,110.472843 C261.224449,111.162843 262.112783,111.507843 263.192783,111.507843 Z M271.627227,111.407843 L271.627227,110.207843 L268.677227,110.207843 L268.677227,108.257843 L270.827227,108.257843 L270.827227,107.057843 L268.677227,107.057843 L268.677227,105.607843 L271.527227,105.607843 L271.527227,104.407843 L267.327227,104.407843 L267.327227,111.407843 L271.627227,111.407843 Z M278.646115,111.407843 C279.446115,111.407843 280.056115,111.197843 280.476115,110.777843 C280.902782,110.36451 281.116115,109.861177 281.116115,109.267843 C281.116115,108.881177 281.019448,108.52451 280.826115,108.197843 C280.632782,107.871177 280.379448,107.631177 280.066115,107.477843 C280.186115,107.351177 280.291115,107.17951 280.381115,106.962843 C280.471115,106.746177 280.516115,106.527843 280.516115,106.307843 C280.516115,105.747843 280.299448,105.277843 279.866115,104.897843 C279.492782,104.571177 278.969448,104.407843 278.296115,104.407843 L278.296115,104.407843 L275.916115,104.407843 L275.916115,111.407843 L278.646115,111.407843 Z M278.216115,107.107843 L277.266115,107.107843 L277.266115,105.607843 L278.216115,105.607843 C278.562782,105.607843 278.812782,105.691177 278.966115,105.857843 C279.099448,106.00451 279.166115,106.171177 279.166115,106.357843 C279.166115,106.54451 279.099448,106.711177 278.966115,106.857843 C278.812782,107.02451 278.562782,107.107843 278.216115,107.107843 L278.216115,107.107843 Z M278.616115,110.207843 L277.266115,110.207843 L277.266115,108.307843 L278.616115,108.307843 C279.029448,108.307843 279.329448,108.411177 279.516115,108.617843 C279.682782,108.797843 279.766115,109.011177 279.766115,109.257843 C279.766115,109.50451 279.682782,109.717843 279.516115,109.897843 C279.329448,110.10451 279.029448,110.207843 278.616115,110.207843 L278.616115,110.207843 Z M283.530559,111.507843 C283.777226,111.507843 283.985559,111.42451 284.155559,111.257843 C284.325559,111.091177 284.410559,110.88451 284.410559,110.637843 C284.410559,110.391177 284.325559,110.182843 284.155559,110.012843 C283.985559,109.842843 283.777226,109.757843 283.530559,109.757843 C283.283893,109.757843 283.077226,109.842843 282.910559,110.012843 C282.743893,110.182843 282.660559,110.391177 282.660559,110.637843 C282.660559,110.88451 282.743893,111.091177 282.910559,111.257843 C283.077226,111.42451 283.283893,111.507843 283.530559,111.507843 Z" id="ALICEB." fill="#232F40" fill-rule="nonzero"></path>
                <path d="M248.926116,19.4078433 L249.586116,17.8578433 L252.396116,17.8578433 L253.056116,19.4078433 L254.466116,19.4078433 L251.466116,12.4078433 L250.516116,12.4078433 L247.516116,19.4078433 L248.926116,19.4078433 Z M251.876116,16.6578433 L250.096116,16.6578433 L250.986116,14.5878433 L251.876116,16.6578433 Z M259.76056,19.4078433 L259.76056,18.2078433 L256.81056,18.2078433 L256.81056,12.4078433 L255.46056,12.4078433 L255.46056,19.4078433 L259.76056,19.4078433 Z M262.355005,19.4078433 L262.355005,16.5578433 L263.635005,16.5578433 C264.455005,16.5578433 265.061671,16.3511766 265.455005,15.9378433 C265.821671,15.5578433 266.005005,15.07451 266.005005,14.4878433 C266.005005,13.9011766 265.821671,13.4178433 265.455005,13.0378433 C265.055005,12.6178433 264.448338,12.4078433 263.635005,12.4078433 L263.635005,12.4078433 L261.005005,12.4078433 L261.005005,19.4078433 L262.355005,19.4078433 Z M263.575005,15.3578433 L262.355005,15.3578433 L262.355005,13.6078433 L263.575005,13.6078433 C263.968338,13.6078433 264.251671,13.7011766 264.425005,13.8878433 C264.578338,14.05451 264.655005,14.25451 264.655005,14.4878433 C264.655005,14.71451 264.578338,14.9111766 264.425005,15.0778433 C264.251671,15.26451 263.968338,15.3578433 263.575005,15.3578433 L263.575005,15.3578433 Z M268.549449,19.4078433 L268.549449,16.2578433 L272.049449,16.2578433 L272.049449,19.4078433 L273.399449,19.4078433 L273.399449,12.4078433 L272.049449,12.4078433 L272.049449,15.0578433 L268.549449,15.0578433 L268.549449,12.4078433 L267.199449,12.4078433 L267.199449,19.4078433 L268.549449,19.4078433 Z M275.803893,19.4078433 L276.463893,17.8578433 L279.273893,17.8578433 L279.933893,19.4078433 L281.343893,19.4078433 L278.343893,12.4078433 L277.393893,12.4078433 L274.393893,19.4078433 L275.803893,19.4078433 Z M278.753893,16.6578433 L276.973893,16.6578433 L277.863893,14.5878433 L278.753893,16.6578433 Z M224.693895,30.4078433 L224.693895,27.5578433 L225.973895,27.5578433 C226.793895,27.5578433 227.400562,27.3511766 227.793895,26.9378433 C228.160562,26.5578433 228.343895,26.07451 228.343895,25.4878433 C228.343895,24.9011766 228.160562,24.4178433 227.793895,24.0378433 C227.393895,23.6178433 226.787229,23.4078433 225.973895,23.4078433 L225.973895,23.4078433 L223.343895,23.4078433 L223.343895,30.4078433 L224.693895,30.4078433 Z M225.913895,26.3578433 L224.693895,26.3578433 L224.693895,24.6078433 L225.913895,24.6078433 C226.307229,24.6078433 226.590562,24.7011766 226.763895,24.8878433 C226.917229,25.05451 226.993895,25.25451 226.993895,25.4878433 C226.993895,25.71451 226.917229,25.9111766 226.763895,26.0778433 C226.590562,26.26451 226.307229,26.3578433 225.913895,26.3578433 L225.913895,26.3578433 Z M230.88834,30.4078433 L230.88834,27.3078433 L231.37834,27.3078433 L233.86834,30.4078433 L235.53834,30.4078433 L232.91834,27.1978433 C233.185006,27.1111766 233.41834,26.97451 233.61834,26.7878433 C234.031673,26.39451 234.23834,25.9178433 234.23834,25.3578433 C234.23834,24.7978433 234.031673,24.3211766 233.61834,23.9278433 C233.23834,23.5811766 232.72834,23.4078433 232.08834,23.4078433 L232.08834,23.4078433 L229.53834,23.4078433 L229.53834,30.4078433 L230.88834,30.4078433 Z M232.00834,26.1078433 L230.88834,26.1078433 L230.88834,24.6078433 L232.00834,24.6078433 C232.32834,24.6078433 232.555006,24.6811766 232.68834,24.8278433 C232.821673,24.97451 232.88834,25.15451 232.88834,25.3678433 C232.88834,25.57451 232.821673,25.7511766 232.68834,25.8978433 C232.561673,26.0378433 232.335006,26.1078433 232.00834,26.1078433 L232.00834,26.1078433 Z M239.182784,30.5078433 C240.24945,30.5078433 241.12445,30.1611766 241.807784,29.4678433 C242.491117,28.77451 242.832784,27.9211766 242.832784,26.9078433 C242.832784,25.89451 242.491117,25.0411766 241.807784,24.3478433 C241.12445,23.65451 240.24945,23.3078433 239.182784,23.3078433 C238.116117,23.3078433 237.241117,23.65451 236.557784,24.3478433 C235.87445,25.0411766 235.532784,25.89451 235.532784,26.9078433 C235.532784,27.9211766 235.872784,28.77451 236.552784,29.4678433 C237.23945,30.1611766 238.116117,30.5078433 239.182784,30.5078433 Z M239.182784,29.3078433 C238.52945,29.3078433 237.982784,29.07451 237.542784,28.6078433 C237.102784,28.1411766 236.882784,27.57451 236.882784,26.9078433 C236.882784,26.2411766 237.102784,25.67451 237.542784,25.2078433 C237.982784,24.7411766 238.52945,24.5078433 239.182784,24.5078433 C239.836117,24.5078433 240.382784,24.7411766 240.822784,25.2078433 C241.262784,25.67451 241.482784,26.2411766 241.482784,26.9078433 C241.482784,27.57451 241.262784,28.1411766 240.822784,28.6078433 C240.382784,29.07451 239.836117,29.3078433 239.182784,29.3078433 Z M245.477228,30.4078433 L245.477228,27.5578433 L246.757228,27.5578433 C247.577228,27.5578433 248.183895,27.3511766 248.577228,26.9378433 C248.943895,26.5578433 249.127228,26.07451 249.127228,25.4878433 C249.127228,24.9011766 248.943895,24.4178433 248.577228,24.0378433 C248.177228,23.6178433 247.570561,23.4078433 246.757228,23.4078433 L246.757228,23.4078433 L244.127228,23.4078433 L244.127228,30.4078433 L245.477228,30.4078433 Z M246.697228,26.3578433 L245.477228,26.3578433 L245.477228,24.6078433 L246.697228,24.6078433 C247.090561,24.6078433 247.373895,24.7011766 247.547228,24.8878433 C247.700561,25.05451 247.777228,25.25451 247.777228,25.4878433 C247.777228,25.71451 247.700561,25.9111766 247.547228,26.0778433 C247.373895,26.26451 247.090561,26.3578433 246.697228,26.3578433 L246.697228,26.3578433 Z M254.621672,30.4078433 L254.621672,29.2078433 L251.671672,29.2078433 L251.671672,27.2578433 L253.821672,27.2578433 L253.821672,26.0578433 L251.671672,26.0578433 L251.671672,24.6078433 L254.521672,24.6078433 L254.521672,23.4078433 L250.321672,23.4078433 L250.321672,30.4078433 L254.621672,30.4078433 Z M257.366116,30.4078433 L257.366116,27.3078433 L257.856116,27.3078433 L260.346116,30.4078433 L262.016116,30.4078433 L259.396116,27.1978433 C259.662783,27.1111766 259.896116,26.97451 260.096116,26.7878433 C260.50945,26.39451 260.716116,25.9178433 260.716116,25.3578433 C260.716116,24.7978433 260.50945,24.3211766 260.096116,23.9278433 C259.716116,23.5811766 259.206116,23.4078433 258.566116,23.4078433 L258.566116,23.4078433 L256.016116,23.4078433 L256.016116,30.4078433 L257.366116,30.4078433 Z M258.486116,26.1078433 L257.366116,26.1078433 L257.366116,24.6078433 L258.486116,24.6078433 C258.806116,24.6078433 259.032783,24.6811766 259.166116,24.8278433 C259.29945,24.97451 259.366116,25.15451 259.366116,25.3678433 C259.366116,25.57451 259.29945,25.7511766 259.166116,25.8978433 C259.03945,26.0378433 258.812783,26.1078433 258.486116,26.1078433 L258.486116,26.1078433 Z M265.06056,30.4078433 L265.06056,24.6078433 L266.91056,24.6078433 L266.91056,23.4078433 L261.86056,23.4078433 L261.86056,24.6078433 L263.71056,24.6078433 L263.71056,30.4078433 L265.06056,30.4078433 Z M269.505005,30.4078433 L269.505005,23.4078433 L268.155005,23.4078433 L268.155005,30.4078433 L269.505005,30.4078433 Z M275.599449,30.4078433 L275.599449,29.2078433 L272.649449,29.2078433 L272.649449,27.2578433 L274.799449,27.2578433 L274.799449,26.0578433 L272.649449,26.0578433 L272.649449,24.6078433 L275.499449,24.6078433 L275.499449,23.4078433 L271.299449,23.4078433 L271.299449,30.4078433 L275.599449,30.4078433 Z M278.973893,30.5078433 C279.62056,30.5078433 280.177226,30.30951 280.643893,29.9128433 C281.11056,29.5161766 281.343893,29.01451 281.343893,28.4078433 C281.343893,27.9678433 281.232226,27.59451 281.008893,27.2878433 C280.78556,26.9811766 280.51556,26.7511766 280.198893,26.5978433 C279.882226,26.44451 279.567226,26.30951 279.253893,26.1928433 C278.94056,26.0761766 278.672226,25.9428433 278.448893,25.7928433 C278.22556,25.6428433 278.113893,25.4678433 278.113893,25.2678433 C278.113893,25.01451 278.222226,24.82451 278.438893,24.6978433 C278.65556,24.5711766 278.907226,24.5078433 279.193893,24.5078433 C279.667226,24.5078433 280.07056,24.6611766 280.403893,24.9678433 L280.403893,24.9678433 L281.103893,23.9678433 C280.51056,23.5278433 279.833893,23.3078433 279.073893,23.3078433 C278.453893,23.3078433 277.913893,23.4878433 277.453893,23.8478433 C276.993893,24.2078433 276.763893,24.68451 276.763893,25.2778433 C276.763893,25.9511766 277.093893,26.4811766 277.753893,26.8678433 C277.947226,26.9811766 278.262226,27.1211766 278.698893,27.2878433 C279.13556,27.45451 279.46056,27.61951 279.673893,27.7828433 C279.887226,27.9461766 279.993893,28.1611766 279.993893,28.4278433 C279.993893,28.6811766 279.898893,28.8911766 279.708893,29.0578433 C279.518893,29.22451 279.273893,29.3078433 278.973893,29.3078433 C278.34056,29.3078433 277.79056,29.0511766 277.323893,28.5378433 L277.323893,28.5378433 L276.443893,29.4578433 C277.21056,30.1578433 278.053893,30.5078433 278.973893,30.5078433 Z M283.138337,31.8078433 L284.338337,28.8578433 L282.938337,28.8578433 L282.188337,31.8078433 L283.138337,31.8078433 Z M293.127225,30.4078433 L293.127225,29.2078433 L290.177225,29.2078433 L290.177225,23.4078433 L288.827225,23.4078433 L288.827225,30.4078433 L293.127225,30.4078433 Z M298.67167,30.4078433 L298.67167,29.2078433 L295.72167,29.2078433 L295.72167,23.4078433 L294.37167,23.4078433 L294.37167,30.4078433 L298.67167,30.4078433 Z M302.976114,30.5078433 C303.596114,30.5078433 304.161114,30.3861766 304.671114,30.1428433 C305.181114,29.89951 305.596114,29.57451 305.916114,29.1678433 L305.916114,29.1678433 L304.986114,28.3378433 C304.486114,28.98451 303.826114,29.3078433 303.006114,29.3078433 C302.33278,29.3078433 301.766114,29.0778433 301.306114,28.6178433 C300.846114,28.1578433 300.616114,27.5878433 300.616114,26.9078433 C300.616114,26.2411766 300.839447,25.67451 301.286114,25.2078433 C301.73278,24.7411766 302.286114,24.5078433 302.946114,24.5078433 C303.599447,24.5078433 304.166114,24.7478433 304.646114,25.2278433 L304.646114,25.2278433 L305.516114,24.3078433 C304.829447,23.6411766 303.976114,23.3078433 302.956114,23.3078433 C301.88278,23.3078433 300.999447,23.6528433 300.306114,24.3428433 C299.61278,25.0328433 299.266114,25.8878433 299.266114,26.9078433 C299.266114,27.9278433 299.614447,28.7828433 300.311114,29.4728433 C301.00778,30.1628433 301.896114,30.5078433 302.976114,30.5078433 Z" id="ALPHAPROPERTIES,LLC" fill="#232F40" fill-rule="nonzero"></path>
                <g id="Group-11" transform="translate(264.427227, 66.907843) scale(1, -1) rotate(180.000000) translate(-264.427227, -66.907843) translate(259.927227, 37.407843)" stroke="#232F40" stroke-linecap="round" stroke-width="2">
                    <line x1="4.49039853" y1="0.344540286" x2="4.49039853" y2="56.5548628" id="Line-4"></line>
                    <polyline id="Rectangle" transform="translate(4.500000, 54.612135) rotate(45.000000) translate(-4.500000, -54.612135) " points="7 52.1121345 7 57.1121345 2 57.1121345"></polyline>
                </g>
                <g id="Group-2" transform="translate(228.927227, 48.407843)">
                    <polygon id="Rectangle" fill="#A7F6FF" points="0.597356801 0 71.5973568 0 71.5973568 32 0.597356801 32"></polygon>
                    <path d="M15.0922233,13 L15.0922233,6 L13.7422233,6 L13.7422233,13 L15.0922233,13 Z M18.2366675,13 L18.2366675,8.44 L22.1366675,13 L23.0866675,13 L23.0866675,6 L21.7366675,6 L21.7366675,10.56 L17.8366675,6 L16.8866675,6 L16.8866675,13 L18.2366675,13 Z M27.9611117,13 L30.7911117,6 L29.4011117,6 L27.4811117,10.78 L25.5711117,6 L24.1811117,6 L27.0111117,13 L27.9611117,13 Z M34.7855558,13.1 C35.8522225,13.1 36.7272225,12.7533333 37.4105558,12.06 C38.0938892,11.3666667 38.4355558,10.5133333 38.4355558,9.5 C38.4355558,8.48666667 38.0938892,7.63333333 37.4105558,6.94 C36.7272225,6.24666667 35.8522225,5.9 34.7855558,5.9 C33.7188892,5.9 32.8438892,6.24666667 32.1605558,6.94 C31.4772225,7.63333333 31.1355558,8.48666667 31.1355558,9.5 C31.1355558,10.5133333 31.4755558,11.3666667 32.1555558,12.06 C32.8422225,12.7533333 33.7188892,13.1 34.7855558,13.1 Z M34.7855558,11.9 C34.1322225,11.9 33.5855558,11.6666667 33.1455558,11.2 C32.7055558,10.7333333 32.4855558,10.1666667 32.4855558,9.5 C32.4855558,8.83333333 32.7055558,8.26666667 33.1455558,7.8 C33.5855558,7.33333333 34.1322225,7.1 34.7855558,7.1 C35.4388892,7.1 35.9855558,7.33333333 36.4255558,7.8 C36.8655558,8.26666667 37.0855558,8.83333333 37.0855558,9.5 C37.0855558,10.1666667 36.8655558,10.7333333 36.4255558,11.2 C35.9855558,11.6666667 35.4388892,11.9 34.7855558,11.9 Z M41.08,13 L41.08,6 L39.73,6 L39.73,13 L41.08,13 Z M46.0844442,13.1 C46.7044442,13.1 47.2694442,12.9783333 47.7794442,12.735 C48.2894442,12.4916667 48.7044442,12.1666667 49.0244442,11.76 L49.0244442,11.76 L48.0944442,10.93 C47.5944442,11.5766667 46.9344442,11.9 46.1144442,11.9 C45.4411108,11.9 44.8744442,11.67 44.4144442,11.21 C43.9544442,10.75 43.7244442,10.18 43.7244442,9.5 C43.7244442,8.83333333 43.9477775,8.26666667 44.3944442,7.8 C44.8411108,7.33333333 45.3944442,7.1 46.0544442,7.1 C46.7077775,7.1 47.2744442,7.34 47.7544442,7.82 L47.7544442,7.82 L48.6244442,6.9 C47.9377775,6.23333333 47.0844442,5.9 46.0644442,5.9 C44.9911108,5.9 44.1077775,6.245 43.4144442,6.935 C42.7211108,7.625 42.3744442,8.48 42.3744442,9.5 C42.3744442,10.52 42.7227775,11.375 43.4194442,12.065 C44.1161108,12.755 45.0044442,13.1 46.0844442,13.1 Z M54.5188883,13 L54.5188883,11.8 L51.5688883,11.8 L51.5688883,9.85 L53.7188883,9.85 L53.7188883,8.65 L51.5688883,8.65 L51.5688883,7.2 L54.4188883,7.2 L54.4188883,6 L50.2188883,6 L50.2188883,13 L54.5188883,13 Z M57.0833325,9.76 C57.3299992,9.76 57.5383325,9.67833333 57.7083325,9.515 C57.8783325,9.35166667 57.9633325,9.15 57.9633325,8.91 C57.9633325,8.66333333 57.8783325,8.45833333 57.7083325,8.295 C57.5383325,8.13166667 57.3299992,8.05 57.0833325,8.05 C56.8366658,8.05 56.6299992,8.13166667 56.4633325,8.295 C56.2966658,8.45833333 56.2133325,8.66333333 56.2133325,8.91 C56.2133325,9.15666667 56.2966658,9.36 56.4633325,9.52 C56.6299992,9.68 56.8366658,9.76 57.0833325,9.76 Z M57.0833325,13.1 C57.3299992,13.1 57.5383325,13.0183333 57.7083325,12.855 C57.8783325,12.6916667 57.9633325,12.49 57.9633325,12.25 C57.9633325,12.0033333 57.8783325,11.7983333 57.7083325,11.635 C57.5383325,11.4716667 57.3299992,11.39 57.0833325,11.39 C56.8366658,11.39 56.6299992,11.4716667 56.4633325,11.635 C56.2966658,11.7983333 56.2133325,12.0033333 56.2133325,12.25 C56.2133325,12.4966667 56.2966658,12.7 56.4633325,12.86 C56.6299992,13.02 56.8366658,13.1 57.0833325,13.1 Z M10.9800015,26 L10.9800015,24.56 L8.0520015,24.56 L9.8400015,22.484 C10.5600015,21.66 10.9200015,20.856 10.9200015,20.072 C10.9200015,19.328 10.6560015,18.71 10.1280015,18.218 C9.6000015,17.726 8.9680015,17.48 8.2320015,17.48 C7.6160015,17.48 7.0660015,17.66 6.5820015,18.02 C6.0980015,18.38 5.7640015,18.848 5.5800015,19.424 L5.5800015,19.424 L7.0680015,19.868 C7.1560015,19.58 7.3000015,19.35 7.5000015,19.178 C7.7000015,19.006 7.9360015,18.92 8.2080015,18.92 C8.5200015,18.92 8.7800015,19.032 8.9880015,19.256 C9.1960015,19.48 9.3000015,19.744 9.3000015,20.048 C9.3000015,20.52 9.0240015,21.068 8.4720015,21.692 L8.4720015,21.692 L5.5200015,25.04 L5.5200015,26 L10.9800015,26 Z M13.5533345,27.68 L14.9933345,24.14 L13.3133345,24.14 L12.4133345,27.68 L13.5533345,27.68 Z M20.1466675,26.12 C20.6666675,26.12 21.1206675,26.008 21.5086675,25.784 C21.8966675,25.56 22.2026675,25.248 22.4266675,24.848 C22.6506675,24.448 22.8166675,23.994 22.9246675,23.486 C23.0326675,22.978 23.0866675,22.416 23.0866675,21.8 C23.0866675,21.184 23.0326675,20.622 22.9246675,20.114 C22.8166675,19.606 22.6506675,19.152 22.4266675,18.752 C22.2026675,18.352 21.8966675,18.04 21.5086675,17.816 C21.1206675,17.592 20.6666675,17.48 20.1466675,17.48 C19.6266675,17.48 19.1726675,17.592 18.7846675,17.816 C18.3966675,18.04 18.0906675,18.352 17.8666675,18.752 C17.6426675,19.152 17.4766675,19.606 17.3686675,20.114 C17.2606675,20.622 17.2066675,21.184 17.2066675,21.8 C17.2066675,22.416 17.2586675,22.98 17.3626675,23.492 C17.4746675,23.996 17.6426675,24.448 17.8666675,24.848 C18.0906675,25.248 18.3966675,25.56 18.7846675,25.784 C19.1726675,26.008 19.6266675,26.12 20.1466675,26.12 Z M20.1466675,24.68 C19.6906675,24.68 19.3566675,24.416 19.1446675,23.888 C18.9326675,23.36 18.8266675,22.664 18.8266675,21.8 C18.8266675,20.936 18.9326675,20.24 19.1446675,19.712 C19.3566675,19.184 19.6906675,18.92 20.1466675,18.92 C20.6026675,18.92 20.9366675,19.184 21.1486675,19.712 C21.3606675,20.24 21.4666675,20.936 21.4666675,21.8 C21.4666675,22.664 21.3586675,23.36 21.1426675,23.888 C20.9346675,24.416 20.6026675,24.68 20.1466675,24.68 Z M27.5800005,26.12 C28.1000005,26.12 28.5540005,26.008 28.9420005,25.784 C29.3300005,25.56 29.6360005,25.248 29.8600005,24.848 C30.0840005,24.448 30.2500005,23.994 30.3580005,23.486 C30.4660005,22.978 30.5200005,22.416 30.5200005,21.8 C30.5200005,21.184 30.4660005,20.622 30.3580005,20.114 C30.2500005,19.606 30.0840005,19.152 29.8600005,18.752 C29.6360005,18.352 29.3300005,18.04 28.9420005,17.816 C28.5540005,17.592 28.1000005,17.48 27.5800005,17.48 C27.0600005,17.48 26.6060005,17.592 26.2180005,17.816 C25.8300005,18.04 25.5240005,18.352 25.3000005,18.752 C25.0760005,19.152 24.9100005,19.606 24.8020005,20.114 C24.6940005,20.622 24.6400005,21.184 24.6400005,21.8 C24.6400005,22.416 24.6920005,22.98 24.7960005,23.492 C24.9080005,23.996 25.0760005,24.448 25.3000005,24.848 C25.5240005,25.248 25.8300005,25.56 26.2180005,25.784 C26.6060005,26.008 27.0600005,26.12 27.5800005,26.12 Z M27.5800005,24.68 C27.1240005,24.68 26.7900005,24.416 26.5780005,23.888 C26.3660005,23.36 26.2600005,22.664 26.2600005,21.8 C26.2600005,20.936 26.3660005,20.24 26.5780005,19.712 C26.7900005,19.184 27.1240005,18.92 27.5800005,18.92 C28.0360005,18.92 28.3700005,19.184 28.5820005,19.712 C28.7940005,20.24 28.9000005,20.936 28.9000005,21.8 C28.9000005,22.664 28.7920005,23.36 28.5760005,23.888 C28.3680005,24.416 28.0360005,24.68 27.5800005,24.68 Z M35.0133335,26.12 C35.5333335,26.12 35.9873335,26.008 36.3753335,25.784 C36.7633335,25.56 37.0693335,25.248 37.2933335,24.848 C37.5173335,24.448 37.6833335,23.994 37.7913335,23.486 C37.8993335,22.978 37.9533335,22.416 37.9533335,21.8 C37.9533335,21.184 37.8993335,20.622 37.7913335,20.114 C37.6833335,19.606 37.5173335,19.152 37.2933335,18.752 C37.0693335,18.352 36.7633335,18.04 36.3753335,17.816 C35.9873335,17.592 35.5333335,17.48 35.0133335,17.48 C34.4933335,17.48 34.0393335,17.592 33.6513335,17.816 C33.2633335,18.04 32.9573335,18.352 32.7333335,18.752 C32.5093335,19.152 32.3433335,19.606 32.2353335,20.114 C32.1273335,20.622 32.0733335,21.184 32.0733335,21.8 C32.0733335,22.416 32.1253335,22.98 32.2293335,23.492 C32.3413335,23.996 32.5093335,24.448 32.7333335,24.848 C32.9573335,25.248 33.2633335,25.56 33.6513335,25.784 C34.0393335,26.008 34.4933335,26.12 35.0133335,26.12 Z M35.0133335,24.68 C34.5573335,24.68 34.2233335,24.416 34.0113335,23.888 C33.7993335,23.36 33.6933335,22.664 33.6933335,21.8 C33.6933335,20.936 33.7993335,20.24 34.0113335,19.712 C34.2233335,19.184 34.5573335,18.92 35.0133335,18.92 C35.4693335,18.92 35.8033335,19.184 36.0153335,19.712 C36.2273335,20.24 36.3333335,20.936 36.3333335,21.8 C36.3333335,22.664 36.2253335,23.36 36.0093335,23.888 C35.8013335,24.416 35.4693335,24.68 35.0133335,24.68 Z M46.8199995,26.12 C47.8519995,26.12 48.6919995,25.832 49.3399995,25.256 C50.0599995,24.608 50.4199995,23.676 50.4199995,22.46 L50.4199995,22.46 L50.4199995,17.6 L48.7999995,17.6 L48.7999995,22.58 C48.7999995,23.276 48.6159995,23.796 48.2479995,24.14 C47.8719995,24.5 47.3959995,24.68 46.8199995,24.68 C46.2439995,24.68 45.7679995,24.5 45.3919995,24.14 C45.0239995,23.796 44.8399995,23.276 44.8399995,22.58 L44.8399995,22.58 L44.8399995,17.6 L43.2199995,17.6 L43.2199995,22.46 C43.2199995,23.676 43.5799995,24.608 44.2999995,25.256 C44.9479995,25.832 45.7879995,26.12 46.8199995,26.12 Z M54.7093325,26.12 C55.4853325,26.12 56.1533325,25.882 56.7133325,25.406 C57.2733325,24.93 57.5533325,24.328 57.5533325,23.6 C57.5533325,23.072 57.4193325,22.624 57.1513325,22.256 C56.8833325,21.888 56.5593325,21.612 56.1793325,21.428 C55.7993325,21.244 55.4213325,21.082 55.0453325,20.942 C54.6693325,20.802 54.3473325,20.642 54.0793325,20.462 C53.8113325,20.282 53.6773325,20.072 53.6773325,19.832 C53.6773325,19.528 53.8073325,19.3 54.0673325,19.148 C54.3273325,18.996 54.6293325,18.92 54.9733325,18.92 C55.5413325,18.92 56.0253325,19.104 56.4253325,19.472 L56.4253325,19.472 L57.2653325,18.272 C56.5533325,17.744 55.7413325,17.48 54.8293325,17.48 C54.0853325,17.48 53.4373325,17.696 52.8853325,18.128 C52.3333325,18.56 52.0573325,19.132 52.0573325,19.844 C52.0573325,20.652 52.4533325,21.288 53.2453325,21.752 C53.4773325,21.888 53.8553325,22.056 54.3793325,22.256 C54.9033325,22.456 55.2933325,22.654 55.5493325,22.85 C55.8053325,23.046 55.9333325,23.304 55.9333325,23.624 C55.9333325,23.928 55.8193325,24.18 55.5913325,24.38 C55.3633325,24.58 55.0693325,24.68 54.7093325,24.68 C53.9493325,24.68 53.2893325,24.372 52.7293325,23.756 L52.7293325,23.756 L51.6733325,24.86 C52.5933325,25.7 53.6053325,26.12 54.7093325,26.12 Z M61.8066655,26 C63.0146655,26 63.9786655,25.736 64.6986655,25.208 C65.2186655,24.824 65.6266655,24.332 65.9226655,23.732 C66.2186655,23.132 66.3666655,22.488 66.3666655,21.8 C66.3666655,21.112 66.2186655,20.468 65.9226655,19.868 C65.6266655,19.268 65.2186655,18.776 64.6986655,18.392 C63.9786655,17.864 63.0146655,17.6 61.8066655,17.6 L61.8066655,17.6 L59.1666655,17.6 L59.1666655,26 L61.8066655,26 Z M61.9866655,24.56 L60.7866655,24.56 L60.7866655,19.04 L61.9866655,19.04 C62.9226655,19.04 63.6386655,19.352 64.1346655,19.976 C64.5426655,20.488 64.7466655,21.096 64.7466655,21.8 C64.7466655,22.504 64.5426655,23.112 64.1346655,23.624 C63.6386655,24.248 62.9226655,24.56 61.9866655,24.56 L61.9866655,24.56 Z" id="INVOICE:2,000USD" fill="#28364A" fill-rule="nonzero"></path>
                </g>
                <g id="Group-15" transform="translate(232.427227, 52.907843)">
                    <polygon id="Rectangle" stroke="#232F40" fill="#232F40" points="0 0.5 6 0.5 6 9.5 3 7.49280967 0 9.5"></polygon>
                    <polyline id="Rectangle" stroke="#A7F6FF" stroke-linecap="round" transform="translate(3.105683, 3.534883) scale(-1, 1) rotate(45.000000) translate(-3.105683, -3.534883) " points="4.60568261 2.78488307 4.60568261 4.28488307 1.60568261 4.28488307"></polyline>
                </g>
            </g>
        </g>
    </g>
</svg>