<?xml version="1.0" encoding="UTF-8"?>
<svg width="232px" height="161px" viewBox="0 0 232 161" version="1.1" xmlns="http://www.w3.org/2000/svg" xmlns:xlink="http://www.w3.org/1999/xlink">
    <title>Group 10</title>
    <defs>
        <rect id="path-1" x="0" y="0" width="220" height="149"></rect>
        <filter x="-4.5%" y="-5.4%" width="109.1%" height="113.4%" filterUnits="objectBoundingBox" id="filter-2">
            <feOffset dx="0" dy="2" in="SourceAlpha" result="shadowOffsetOuter1"></feOffset>
            <feGaussianBlur stdDeviation="3" in="shadowOffsetOuter1" result="shadowBlurOuter1"></feGaussianBlur>
            <feColorMatrix values="0 0 0 0 0   0 0 0 0 0   0 0 0 0 0  0 0 0 0.5 0" type="matrix" in="shadowBlurOuter1"></feColorMatrix>
        </filter>
    </defs>
    <g id="Page-1" stroke="none" stroke-width="1" fill="none" fill-rule="evenodd">
        <g id="UC-1-Slide-26" transform="translate(-558.000000, -324.000000)">
            <g id="Group-10" transform="translate(564.000000, 328.000000)">
                <g id="Rectangle">
                    <use fill="black" fill-opacity="1" filter="url(#filter-2)" xlink:href="#path-1"></use>
                    <use fill="#A7F6FF" fill-rule="evenodd" xlink:href="#path-1"></use>
                </g>
                <g id="Group-11" transform="translate(54.000000, 49.000000)" stroke="#A2A9B4" stroke-linecap="round" stroke-width="2">
                    <line x1="4.49039853" y1="0.521696283" x2="4.49039853" y2="57.5548628" id="Line-4"></line>
                    <polyline id="Rectangle" transform="translate(4.500000, 55.612135) rotate(45.000000) translate(-4.500000, -55.612135) " points="7 53.1121345 7 58.1121345 2 58.1121345"></polyline>
                </g>
                <path d="M42.3716675,43 C43.1716675,43 43.7816675,42.79 44.2016675,42.37 C44.6283342,41.9566667 44.8416675,41.4533333 44.8416675,40.86 C44.8416675,40.4733333 44.7450008,40.1166667 44.5516675,39.79 C44.3583342,39.4633333 44.1050008,39.2233333 43.7916675,39.07 C43.9116675,38.9433333 44.0166675,38.7716667 44.1066675,38.555 C44.1966675,38.3383333 44.2416675,38.12 44.2416675,37.9 C44.2416675,37.34 44.0250008,36.87 43.5916675,36.49 C43.2183342,36.1633333 42.6950008,36 42.0216675,36 L42.0216675,36 L39.6416675,36 L39.6416675,43 L42.3716675,43 Z M41.9416675,38.7 L40.9916675,38.7 L40.9916675,37.2 L41.9416675,37.2 C42.2883342,37.2 42.5383342,37.2833333 42.6916675,37.45 C42.8250008,37.5966667 42.8916675,37.7633333 42.8916675,37.95 C42.8916675,38.1366667 42.8250008,38.3033333 42.6916675,38.45 C42.5383342,38.6166667 42.2883342,38.7 41.9416675,38.7 L41.9416675,38.7 Z M42.3416675,41.8 L40.9916675,41.8 L40.9916675,39.9 L42.3416675,39.9 C42.7550008,39.9 43.0550008,40.0033333 43.2416675,40.21 C43.4083342,40.39 43.4916675,40.6033333 43.4916675,40.85 C43.4916675,41.0966667 43.4083342,41.31 43.2416675,41.49 C43.0550008,41.6966667 42.7550008,41.8 42.3416675,41.8 L42.3416675,41.8 Z M46.6461117,43 L47.3061117,41.45 L50.1161117,41.45 L50.7761117,43 L52.1861117,43 L49.1861117,36 L48.2361117,36 L45.2361117,43 L46.6461117,43 Z M49.5961117,40.25 L47.8161117,40.25 L48.7061117,38.18 L49.5961117,40.25 Z M54.5305558,43 L54.5305558,38.44 L58.4305558,43 L59.3805558,43 L59.3805558,36 L58.0305558,36 L58.0305558,40.56 L54.1305558,36 L53.1805558,36 L53.1805558,43 L54.5305558,43 Z M62.525,43 L62.525,39.56 L65.595,43 L67.325,43 L63.875,39.2 L66.955,36 L65.175,36 L62.525,38.8 L62.525,36 L61.175,36 L61.175,43 L62.525,43 Z M71.4238883,43 L72.0838883,41.45 L74.8938883,41.45 L75.5538883,43 L76.9638883,43 L73.9638883,36 L73.0138883,36 L70.0138883,43 L71.4238883,43 Z M74.3738883,40.25 L72.5938883,40.25 L73.4838883,38.18 L74.3738883,40.25 Z" id="BANKA" fill="#232F40" fill-rule="nonzero"></path>
                <path d="M42.6216675,121 C43.4216675,121 44.0316675,120.79 44.4516675,120.37 C44.8783342,119.956667 45.0916675,119.453333 45.0916675,118.86 C45.0916675,118.473333 44.9950008,118.116667 44.8016675,117.79 C44.6083342,117.463333 44.3550008,117.223333 44.0416675,117.07 C44.1616675,116.943333 44.2666675,116.771667 44.3566675,116.555 C44.4466675,116.338333 44.4916675,116.12 44.4916675,115.9 C44.4916675,115.34 44.2750008,114.87 43.8416675,114.49 C43.4683342,114.163333 42.9450008,114 42.2716675,114 L42.2716675,114 L39.8916675,114 L39.8916675,121 L42.6216675,121 Z M42.1916675,116.7 L41.2416675,116.7 L41.2416675,115.2 L42.1916675,115.2 C42.5383342,115.2 42.7883342,115.283333 42.9416675,115.45 C43.0750008,115.596667 43.1416675,115.763333 43.1416675,115.95 C43.1416675,116.136667 43.0750008,116.303333 42.9416675,116.45 C42.7883342,116.616667 42.5383342,116.7 42.1916675,116.7 L42.1916675,116.7 Z M42.5916675,119.8 L41.2416675,119.8 L41.2416675,117.9 L42.5916675,117.9 C43.0050008,117.9 43.3050008,118.003333 43.4916675,118.21 C43.6583342,118.39 43.7416675,118.603333 43.7416675,118.85 C43.7416675,119.096667 43.6583342,119.31 43.4916675,119.49 C43.3050008,119.696667 43.0050008,119.8 42.5916675,119.8 L42.5916675,119.8 Z M46.8961117,121 L47.5561117,119.45 L50.3661117,119.45 L51.0261117,121 L52.4361117,121 L49.4361117,114 L48.4861117,114 L45.4861117,121 L46.8961117,121 Z M49.8461117,118.25 L48.0661117,118.25 L48.9561117,116.18 L49.8461117,118.25 Z M54.7805558,121 L54.7805558,116.44 L58.6805558,121 L59.6305558,121 L59.6305558,114 L58.2805558,114 L58.2805558,118.56 L54.3805558,114 L53.4305558,114 L53.4305558,121 L54.7805558,121 Z M62.775,121 L62.775,117.56 L65.845,121 L67.575,121 L64.125,117.2 L67.205,114 L65.425,114 L62.775,116.8 L62.775,114 L61.425,114 L61.425,121 L62.775,121 Z M73.9938883,121 C74.7938883,121 75.4038883,120.79 75.8238883,120.37 C76.250555,119.956667 76.4638883,119.453333 76.4638883,118.86 C76.4638883,118.473333 76.3672217,118.116667 76.1738883,117.79 C75.980555,117.463333 75.7272217,117.223333 75.4138883,117.07 C75.5338883,116.943333 75.6388883,116.771667 75.7288883,116.555 C75.8188883,116.338333 75.8638883,116.12 75.8638883,115.9 C75.8638883,115.34 75.6472217,114.87 75.2138883,114.49 C74.840555,114.163333 74.3172217,114 73.6438883,114 L73.6438883,114 L71.2638883,114 L71.2638883,121 L73.9938883,121 Z M73.5638883,116.7 L72.6138883,116.7 L72.6138883,115.2 L73.5638883,115.2 C73.910555,115.2 74.160555,115.283333 74.3138883,115.45 C74.4472217,115.596667 74.5138883,115.763333 74.5138883,115.95 C74.5138883,116.136667 74.4472217,116.303333 74.3138883,116.45 C74.160555,116.616667 73.910555,116.7 73.5638883,116.7 L73.5638883,116.7 Z M73.9638883,119.8 L72.6138883,119.8 L72.6138883,117.9 L73.9638883,117.9 C74.3772217,117.9 74.6772217,118.003333 74.8638883,118.21 C75.030555,118.39 75.1138883,118.603333 75.1138883,118.85 C75.1138883,119.096667 75.030555,119.31 74.8638883,119.49 C74.6772217,119.696667 74.3772217,119.8 73.9638883,119.8 L73.9638883,119.8 Z" id="BANKB" fill="#232F40" fill-rule="nonzero"></path>
                <path d="M147.717251,43 C148.517251,43 149.127251,42.79 149.547251,42.37 C149.973918,41.9566667 150.187251,41.4533333 150.187251,40.86 C150.187251,40.4733333 150.090584,40.1166667 149.897251,39.79 C149.703918,39.4633333 149.450584,39.2233333 149.137251,39.07 C149.257251,38.9433333 149.362251,38.7716667 149.452251,38.555 C149.542251,38.3383333 149.587251,38.12 149.587251,37.9 C149.587251,37.34 149.370584,36.87 148.937251,36.49 C148.563918,36.1633333 148.040584,36 147.367251,36 L147.367251,36 L144.987251,36 L144.987251,43 L147.717251,43 Z M147.287251,38.7 L146.337251,38.7 L146.337251,37.2 L147.287251,37.2 C147.633918,37.2 147.883918,37.2833333 148.037251,37.45 C148.170584,37.5966667 148.237251,37.7633333 148.237251,37.95 C148.237251,38.1366667 148.170584,38.3033333 148.037251,38.45 C147.883918,38.6166667 147.633918,38.7 147.287251,38.7 L147.287251,38.7 Z M147.687251,41.8 L146.337251,41.8 L146.337251,39.9 L147.687251,39.9 C148.100584,39.9 148.400584,40.0033333 148.587251,40.21 C148.753918,40.39 148.837251,40.6033333 148.837251,40.85 C148.837251,41.0966667 148.753918,41.31 148.587251,41.49 C148.400584,41.6966667 148.100584,41.8 147.687251,41.8 L147.687251,41.8 Z M151.991695,43 L152.651695,41.45 L155.461695,41.45 L156.121695,43 L157.531695,43 L154.531695,36 L153.581695,36 L150.581695,43 L151.991695,43 Z M154.941695,40.25 L153.161695,40.25 L154.051695,38.18 L154.941695,40.25 Z M159.876139,43 L159.876139,38.44 L163.776139,43 L164.726139,43 L164.726139,36 L163.376139,36 L163.376139,40.56 L159.476139,36 L158.526139,36 L158.526139,43 L159.876139,43 Z M167.870584,43 L167.870584,39.56 L170.940584,43 L172.670584,43 L169.220584,39.2 L172.300584,36 L170.520584,36 L167.870584,38.8 L167.870584,36 L166.520584,36 L166.520584,43 L167.870584,43 Z M176.769472,43 L177.429472,41.45 L180.239472,41.45 L180.899472,43 L182.309472,43 L179.309472,36 L178.359472,36 L175.359472,43 L176.769472,43 Z M179.719472,40.25 L177.939472,40.25 L178.829472,38.18 L179.719472,40.25 Z" id="BANKA" fill="#232F40" fill-rule="nonzero"></path>
                <path d="M147.467251,121.316404 C148.267251,121.316404 148.877251,121.106404 149.297251,120.686404 C149.723918,120.27307 149.937251,119.769737 149.937251,119.176404 C149.937251,118.789737 149.840584,118.43307 149.647251,118.106404 C149.453918,117.779737 149.200584,117.539737 148.887251,117.386404 C149.007251,117.259737 149.112251,117.08807 149.202251,116.871404 C149.292251,116.654737 149.337251,116.436404 149.337251,116.216404 C149.337251,115.656404 149.120584,115.186404 148.687251,114.806404 C148.313918,114.479737 147.790584,114.316404 147.117251,114.316404 L147.117251,114.316404 L144.737251,114.316404 L144.737251,121.316404 L147.467251,121.316404 Z M147.037251,117.016404 L146.087251,117.016404 L146.087251,115.516404 L147.037251,115.516404 C147.383918,115.516404 147.633918,115.599737 147.787251,115.766404 C147.920584,115.91307 147.987251,116.079737 147.987251,116.266404 C147.987251,116.45307 147.920584,116.619737 147.787251,116.766404 C147.633918,116.93307 147.383918,117.016404 147.037251,117.016404 L147.037251,117.016404 Z M147.437251,120.116404 L146.087251,120.116404 L146.087251,118.216404 L147.437251,118.216404 C147.850584,118.216404 148.150584,118.319737 148.337251,118.526404 C148.503918,118.706404 148.587251,118.919737 148.587251,119.166404 C148.587251,119.41307 148.503918,119.626404 148.337251,119.806404 C148.150584,120.01307 147.850584,120.116404 147.437251,120.116404 L147.437251,120.116404 Z M151.741695,121.316404 L152.401695,119.766404 L155.211695,119.766404 L155.871695,121.316404 L157.281695,121.316404 L154.281695,114.316404 L153.331695,114.316404 L150.331695,121.316404 L151.741695,121.316404 Z M154.691695,118.566404 L152.911695,118.566404 L153.801695,116.496404 L154.691695,118.566404 Z M159.626139,121.316404 L159.626139,116.756404 L163.526139,121.316404 L164.476139,121.316404 L164.476139,114.316404 L163.126139,114.316404 L163.126139,118.876404 L159.226139,114.316404 L158.276139,114.316404 L158.276139,121.316404 L159.626139,121.316404 Z M167.620584,121.316404 L167.620584,117.876404 L170.690584,121.316404 L172.420584,121.316404 L168.970584,117.516404 L172.050584,114.316404 L170.270584,114.316404 L167.620584,117.116404 L167.620584,114.316404 L166.270584,114.316404 L166.270584,121.316404 L167.620584,121.316404 Z M178.839472,121.316404 C179.639472,121.316404 180.249472,121.106404 180.669472,120.686404 C181.096139,120.27307 181.309472,119.769737 181.309472,119.176404 C181.309472,118.789737 181.212805,118.43307 181.019472,118.106404 C180.826139,117.779737 180.572805,117.539737 180.259472,117.386404 C180.379472,117.259737 180.484472,117.08807 180.574472,116.871404 C180.664472,116.654737 180.709472,116.436404 180.709472,116.216404 C180.709472,115.656404 180.492805,115.186404 180.059472,114.806404 C179.686139,114.479737 179.162805,114.316404 178.489472,114.316404 L178.489472,114.316404 L176.109472,114.316404 L176.109472,121.316404 L178.839472,121.316404 Z M178.409472,117.016404 L177.459472,117.016404 L177.459472,115.516404 L178.409472,115.516404 C178.756139,115.516404 179.006139,115.599737 179.159472,115.766404 C179.292805,115.91307 179.359472,116.079737 179.359472,116.266404 C179.359472,116.45307 179.292805,116.619737 179.159472,116.766404 C179.006139,116.93307 178.756139,117.016404 178.409472,117.016404 L178.409472,117.016404 Z M178.809472,120.116404 L177.459472,120.116404 L177.459472,118.216404 L178.809472,118.216404 C179.222805,118.216404 179.522805,118.319737 179.709472,118.526404 C179.876139,118.706404 179.959472,118.919737 179.959472,119.166404 C179.959472,119.41307 179.876139,119.626404 179.709472,119.806404 C179.522805,120.01307 179.222805,120.116404 178.809472,120.116404 L178.809472,120.116404 Z" id="BANKB" fill="#232F40" fill-rule="nonzero"></path>
                <rect id="Rectangle" fill="#A7F6FF" x="32" y="70" width="52" height="16"></rect>
                <line x1="110.154416" y1="0" x2="110.154416" y2="149" id="Line" stroke="#232F40" stroke-width="0.5" stroke-linecap="square"></line>
                <g id="Group-11" transform="translate(163.500000, 79.000000) scale(1, -1) translate(-163.500000, -79.000000) translate(159.000000, 49.000000)" stroke="#A2A9B4" stroke-linecap="round" stroke-width="2">
                    <line x1="4.49039853" y1="0.521696283" x2="4.49039853" y2="57.5548628" id="Line-4"></line>
                    <polyline id="Rectangle" transform="translate(4.500000, 55.612135) rotate(45.000000) translate(-4.500000, -55.612135) " points="7 53.1121345 7 58.1121345 2 58.1121345"></polyline>
                </g>
                <rect id="Rectangle" fill="#A7F6FF" x="138" y="70" width="52" height="16"></rect>
                <path d="M49.0666675,79.54 L49.0666675,78.22 L39.5866675,78.22 L39.5866675,79.54 L49.0666675,79.54 Z M57.4533335,82.12 C58.4853335,82.12 59.3253335,81.832 59.9733335,81.256 C60.6933335,80.608 61.0533335,79.676 61.0533335,78.46 L61.0533335,78.46 L61.0533335,73.6 L59.4333335,73.6 L59.4333335,78.58 C59.4333335,79.276 59.2493335,79.796 58.8813335,80.14 C58.5053335,80.5 58.0293335,80.68 57.4533335,80.68 C56.8773335,80.68 56.4013335,80.5 56.0253335,80.14 C55.6573335,79.796 55.4733335,79.276 55.4733335,78.58 L55.4733335,78.58 L55.4733335,73.6 L53.8533335,73.6 L53.8533335,78.46 C53.8533335,79.676 54.2133335,80.608 54.9333335,81.256 C55.5813335,81.832 56.4213335,82.12 57.4533335,82.12 Z M65.3426665,82.12 C66.1186665,82.12 66.7866665,81.882 67.3466665,81.406 C67.9066665,80.93 68.1866665,80.328 68.1866665,79.6 C68.1866665,79.072 68.0526665,78.624 67.7846665,78.256 C67.5166665,77.888 67.1926665,77.612 66.8126665,77.428 C66.4326665,77.244 66.0546665,77.082 65.6786665,76.942 C65.3026665,76.802 64.9806665,76.642 64.7126665,76.462 C64.4446665,76.282 64.3106665,76.072 64.3106665,75.832 C64.3106665,75.528 64.4406665,75.3 64.7006665,75.148 C64.9606665,74.996 65.2626665,74.92 65.6066665,74.92 C66.1746665,74.92 66.6586665,75.104 67.0586665,75.472 L67.0586665,75.472 L67.8986665,74.272 C67.1866665,73.744 66.3746665,73.48 65.4626665,73.48 C64.7186665,73.48 64.0706665,73.696 63.5186665,74.128 C62.9666665,74.56 62.6906665,75.132 62.6906665,75.844 C62.6906665,76.652 63.0866665,77.288 63.8786665,77.752 C64.1106665,77.888 64.4886665,78.056 65.0126665,78.256 C65.5366665,78.456 65.9266665,78.654 66.1826665,78.85 C66.4386665,79.046 66.5666665,79.304 66.5666665,79.624 C66.5666665,79.928 66.4526665,80.18 66.2246665,80.38 C65.9966665,80.58 65.7026665,80.68 65.3426665,80.68 C64.5826665,80.68 63.9226665,80.372 63.3626665,79.756 L63.3626665,79.756 L62.3066665,80.86 C63.2266665,81.7 64.2386665,82.12 65.3426665,82.12 Z M72.4399995,82 C73.6479995,82 74.6119995,81.736 75.3319995,81.208 C75.8519995,80.824 76.2599995,80.332 76.5559995,79.732 C76.8519995,79.132 76.9999995,78.488 76.9999995,77.8 C76.9999995,77.112 76.8519995,76.468 76.5559995,75.868 C76.2599995,75.268 75.8519995,74.776 75.3319995,74.392 C74.6119995,73.864 73.6479995,73.6 72.4399995,73.6 L72.4399995,73.6 L69.7999995,73.6 L69.7999995,82 L72.4399995,82 Z M72.6199995,80.56 L71.4199995,80.56 L71.4199995,75.04 L72.6199995,75.04 C73.5559995,75.04 74.2719995,75.352 74.7679995,75.976 C75.1759995,76.488 75.3799995,77.096 75.3799995,77.8 C75.3799995,78.504 75.1759995,79.112 74.7679995,79.624 C74.2719995,80.248 73.5559995,80.56 72.6199995,80.56 L72.6199995,80.56 Z" id="—USD" fill="#232F40" fill-rule="nonzero"></path>
                <path d="M152.216667,79.54 L152.216667,78.22 L142.736668,78.22 L142.736668,79.54 L152.216667,79.54 Z M162.223333,82 L162.223333,80.56 L158.683334,80.56 L158.683334,78.22 L161.263333,78.22 L161.263333,76.78 L158.683334,76.78 L158.683334,75.04 L162.103333,75.04 L162.103333,73.6 L157.063333,73.6 L157.063333,82 L162.223333,82 Z M167.436667,82.12 C168.468667,82.12 169.308666,81.832 169.956666,81.256 C170.676666,80.608 171.036666,79.676 171.036666,78.46 L171.036666,78.46 L171.036666,73.6 L169.416666,73.6 L169.416666,78.58 C169.416666,79.276 169.232666,79.796 168.864666,80.14 C168.488666,80.5 168.012666,80.68 167.436667,80.68 C166.860667,80.68 166.384667,80.5 166.008667,80.14 C165.640666,79.796 165.456666,79.276 165.456666,78.58 L165.456666,78.58 L165.456666,73.6 L163.836667,73.6 L163.836667,78.46 C163.836667,79.676 164.196666,80.608 164.916666,81.256 C165.564666,81.832 166.404666,82.12 167.436667,82.12 Z M174.75,82 L174.75,78.28 L175.337999,78.28 L178.325999,82 L180.329999,82 L177.185999,78.148 C177.506,78.044 177.786,77.88 178.026,77.656 C178.521999,77.184 178.769999,76.612 178.769999,75.94 C178.769999,75.268 178.521999,74.696 178.026,74.224 C177.569999,73.808 176.957999,73.6 176.189999,73.6 L176.189999,73.6 L173.129999,73.6 L173.129999,82 L174.75,82 Z M176.093999,76.84 L174.75,76.84 L174.75,75.04 L176.093999,75.04 C176.477999,75.04 176.75,75.128 176.909999,75.304 C177.069999,75.48 177.149999,75.696 177.149999,75.952 C177.149999,76.2 177.069999,76.412 176.909999,76.588 C176.757999,76.756 176.485999,76.84 176.093999,76.84 L176.093999,76.84 Z" id="—EUR" fill="#232F40" fill-rule="nonzero"></path>
            </g>
        </g>
    </g>
</svg>