<?xml version="1.0" encoding="UTF-8"?>
<svg width="232px" height="161px" viewBox="0 0 232 161" version="1.1" xmlns="http://www.w3.org/2000/svg" xmlns:xlink="http://www.w3.org/1999/xlink">
    <title>Group 16</title>
    <defs>
        <rect id="path-1" x="0" y="0" width="110" height="149"></rect>
        <filter x="-9.1%" y="-5.4%" width="118.2%" height="113.4%" filterUnits="objectBoundingBox" id="filter-2">
            <feOffset dx="0" dy="2" in="SourceAlpha" result="shadowOffsetOuter1"></feOffset>
            <feGaussianBlur stdDeviation="3" in="shadowOffsetOuter1" result="shadowBlurOuter1"></feGaussianBlur>
            <feColorMatrix values="0 0 0 0 0   0 0 0 0 0   0 0 0 0 0  0 0 0 0.5 0" type="matrix" in="shadowBlurOuter1"></feColorMatrix>
        </filter>
        <rect id="path-3" x="110" y="0" width="110" height="149"></rect>
        <filter x="-9.1%" y="-5.4%" width="118.2%" height="113.4%" filterUnits="objectBoundingBox" id="filter-4">
            <feOffset dx="0" dy="2" in="SourceAlpha" result="shadowOffsetOuter1"></feOffset>
            <feGaussianBlur stdDeviation="3" in="shadowOffsetOuter1" result="shadowBlurOuter1"></feGaussianBlur>
            <feComposite in="shadowBlurOuter1" in2="SourceAlpha" operator="out" result="shadowBlurOuter1"></feComposite>
            <feColorMatrix values="0 0 0 0 0   0 0 0 0 0   0 0 0 0 0  0 0 0 0.5 0" type="matrix" in="shadowBlurOuter1"></feColorMatrix>
        </filter>
    </defs>
    <g id="Page-1" stroke="none" stroke-width="1" fill="none" fill-rule="evenodd">
        <g id="UC-1-Slide-30" transform="translate(-558.000000, -324.000000)">
            <g id="Group-16" transform="translate(564.000000, 328.000000)">
                <g id="Group-10">
                    <g id="Rectangle">
                        <use fill="black" fill-opacity="1" filter="url(#filter-2)" xlink:href="#path-1"></use>
                        <use fill="#A7F6FF" fill-rule="evenodd" xlink:href="#path-1"></use>
                    </g>
                    <path d="M42.3716675,43 C43.1716675,43 43.7816675,42.79 44.2016675,42.37 C44.6283342,41.9566667 44.8416675,41.4533333 44.8416675,40.86 C44.8416675,40.4733333 44.7450008,40.1166667 44.5516675,39.79 C44.3583342,39.4633333 44.1050008,39.2233333 43.7916675,39.07 C43.9116675,38.9433333 44.0166675,38.7716667 44.1066675,38.555 C44.1966675,38.3383333 44.2416675,38.12 44.2416675,37.9 C44.2416675,37.34 44.0250008,36.87 43.5916675,36.49 C43.2183342,36.1633333 42.6950008,36 42.0216675,36 L42.0216675,36 L39.6416675,36 L39.6416675,43 L42.3716675,43 Z M41.9416675,38.7 L40.9916675,38.7 L40.9916675,37.2 L41.9416675,37.2 C42.2883342,37.2 42.5383342,37.2833333 42.6916675,37.45 C42.8250008,37.5966667 42.8916675,37.7633333 42.8916675,37.95 C42.8916675,38.1366667 42.8250008,38.3033333 42.6916675,38.45 C42.5383342,38.6166667 42.2883342,38.7 41.9416675,38.7 L41.9416675,38.7 Z M42.3416675,41.8 L40.9916675,41.8 L40.9916675,39.9 L42.3416675,39.9 C42.7550008,39.9 43.0550008,40.0033333 43.2416675,40.21 C43.4083342,40.39 43.4916675,40.6033333 43.4916675,40.85 C43.4916675,41.0966667 43.4083342,41.31 43.2416675,41.49 C43.0550008,41.6966667 42.7550008,41.8 42.3416675,41.8 L42.3416675,41.8 Z M46.6461117,43 L47.3061117,41.45 L50.1161117,41.45 L50.7761117,43 L52.1861117,43 L49.1861117,36 L48.2361117,36 L45.2361117,43 L46.6461117,43 Z M49.5961117,40.25 L47.8161117,40.25 L48.7061117,38.18 L49.5961117,40.25 Z M54.5305558,43 L54.5305558,38.44 L58.4305558,43 L59.3805558,43 L59.3805558,36 L58.0305558,36 L58.0305558,40.56 L54.1305558,36 L53.1805558,36 L53.1805558,43 L54.5305558,43 Z M62.525,43 L62.525,39.56 L65.595,43 L67.325,43 L63.875,39.2 L66.955,36 L65.175,36 L62.525,38.8 L62.525,36 L61.175,36 L61.175,43 L62.525,43 Z M71.4238883,43 L72.0838883,41.45 L74.8938883,41.45 L75.5538883,43 L76.9638883,43 L73.9638883,36 L73.0138883,36 L70.0138883,43 L71.4238883,43 Z M74.3738883,40.25 L72.5938883,40.25 L73.4838883,38.18 L74.3738883,40.25 Z" id="BANKA" fill="#232F40" fill-rule="nonzero"></path>
                    <path d="M42.6216675,121 C43.4216675,121 44.0316675,120.79 44.4516675,120.37 C44.8783342,119.956667 45.0916675,119.453333 45.0916675,118.86 C45.0916675,118.473333 44.9950008,118.116667 44.8016675,117.79 C44.6083342,117.463333 44.3550008,117.223333 44.0416675,117.07 C44.1616675,116.943333 44.2666675,116.771667 44.3566675,116.555 C44.4466675,116.338333 44.4916675,116.12 44.4916675,115.9 C44.4916675,115.34 44.2750008,114.87 43.8416675,114.49 C43.4683342,114.163333 42.9450008,114 42.2716675,114 L42.2716675,114 L39.8916675,114 L39.8916675,121 L42.6216675,121 Z M42.1916675,116.7 L41.2416675,116.7 L41.2416675,115.2 L42.1916675,115.2 C42.5383342,115.2 42.7883342,115.283333 42.9416675,115.45 C43.0750008,115.596667 43.1416675,115.763333 43.1416675,115.95 C43.1416675,116.136667 43.0750008,116.303333 42.9416675,116.45 C42.7883342,116.616667 42.5383342,116.7 42.1916675,116.7 L42.1916675,116.7 Z M42.5916675,119.8 L41.2416675,119.8 L41.2416675,117.9 L42.5916675,117.9 C43.0050008,117.9 43.3050008,118.003333 43.4916675,118.21 C43.6583342,118.39 43.7416675,118.603333 43.7416675,118.85 C43.7416675,119.096667 43.6583342,119.31 43.4916675,119.49 C43.3050008,119.696667 43.0050008,119.8 42.5916675,119.8 L42.5916675,119.8 Z M46.8961117,121 L47.5561117,119.45 L50.3661117,119.45 L51.0261117,121 L52.4361117,121 L49.4361117,114 L48.4861117,114 L45.4861117,121 L46.8961117,121 Z M49.8461117,118.25 L48.0661117,118.25 L48.9561117,116.18 L49.8461117,118.25 Z M54.7805558,121 L54.7805558,116.44 L58.6805558,121 L59.6305558,121 L59.6305558,114 L58.2805558,114 L58.2805558,118.56 L54.3805558,114 L53.4305558,114 L53.4305558,121 L54.7805558,121 Z M62.775,121 L62.775,117.56 L65.845,121 L67.575,121 L64.125,117.2 L67.205,114 L65.425,114 L62.775,116.8 L62.775,114 L61.425,114 L61.425,121 L62.775,121 Z M73.9938883,121 C74.7938883,121 75.4038883,120.79 75.8238883,120.37 C76.250555,119.956667 76.4638883,119.453333 76.4638883,118.86 C76.4638883,118.473333 76.3672217,118.116667 76.1738883,117.79 C75.980555,117.463333 75.7272217,117.223333 75.4138883,117.07 C75.5338883,116.943333 75.6388883,116.771667 75.7288883,116.555 C75.8188883,116.338333 75.8638883,116.12 75.8638883,115.9 C75.8638883,115.34 75.6472217,114.87 75.2138883,114.49 C74.840555,114.163333 74.3172217,114 73.6438883,114 L73.6438883,114 L71.2638883,114 L71.2638883,121 L73.9938883,121 Z M73.5638883,116.7 L72.6138883,116.7 L72.6138883,115.2 L73.5638883,115.2 C73.910555,115.2 74.160555,115.283333 74.3138883,115.45 C74.4472217,115.596667 74.5138883,115.763333 74.5138883,115.95 C74.5138883,116.136667 74.4472217,116.303333 74.3138883,116.45 C74.160555,116.616667 73.910555,116.7 73.5638883,116.7 L73.5638883,116.7 Z M73.9638883,119.8 L72.6138883,119.8 L72.6138883,117.9 L73.9638883,117.9 C74.3772217,117.9 74.6772217,118.003333 74.8638883,118.21 C75.030555,118.39 75.1138883,118.603333 75.1138883,118.85 C75.1138883,119.096667 75.030555,119.31 74.8638883,119.49 C74.6772217,119.696667 74.3772217,119.8 73.9638883,119.8 L73.9638883,119.8 Z" id="BANKB" fill="#232F40" fill-rule="nonzero"></path>
                    <rect id="Rectangle" fill="#A7F6FF" x="32" y="70" width="52" height="16"></rect>
                    <path d="M31.906668,82 L31.906668,73.6 L30.766668,73.6 L28.726668,74.8 L28.726668,76.336 L30.286668,75.472 L30.286668,82 L31.906668,82 Z M37.000001,82.12 C37.520001,82.12 37.974001,82.008 38.362001,81.784 C38.750001,81.56 39.056001,81.248 39.280001,80.848 C39.504001,80.448 39.670001,79.994 39.778001,79.486 C39.886001,78.978 39.940001,78.416 39.940001,77.8 C39.940001,77.184 39.886001,76.622 39.778001,76.114 C39.670001,75.606 39.504001,75.152 39.280001,74.752 C39.056001,74.352 38.750001,74.04 38.362001,73.816 C37.974001,73.592 37.520001,73.48 37.000001,73.48 C36.480001,73.48 36.026001,73.592 35.638001,73.816 C35.250001,74.04 34.944001,74.352 34.720001,74.752 C34.496001,75.152 34.330001,75.606 34.222001,76.114 C34.114001,76.622 34.060001,77.184 34.060001,77.8 C34.060001,78.416 34.112001,78.98 34.216001,79.492 C34.328001,79.996 34.496001,80.448 34.720001,80.848 C34.944001,81.248 35.250001,81.56 35.638001,81.784 C36.026001,82.008 36.480001,82.12 37.000001,82.12 Z M37.000001,80.68 C36.544001,80.68 36.210001,80.416 35.998001,79.888 C35.786001,79.36 35.680001,78.664 35.680001,77.8 C35.680001,76.936 35.786001,76.24 35.998001,75.712 C36.210001,75.184 36.544001,74.92 37.000001,74.92 C37.456001,74.92 37.790001,75.184 38.002001,75.712 C38.214001,76.24 38.320001,76.936 38.320001,77.8 C38.320001,78.664 38.212001,79.36 37.996001,79.888 C37.788001,80.416 37.456001,80.68 37.000001,80.68 Z M44.433334,82.12 C44.953334,82.12 45.407334,82.008 45.795334,81.784 C46.183334,81.56 46.489334,81.248 46.713334,80.848 C46.937334,80.448 47.103334,79.994 47.211334,79.486 C47.319334,78.978 47.373334,78.416 47.373334,77.8 C47.373334,77.184 47.319334,76.622 47.211334,76.114 C47.103334,75.606 46.937334,75.152 46.713334,74.752 C46.489334,74.352 46.183334,74.04 45.795334,73.816 C45.407334,73.592 44.953334,73.48 44.433334,73.48 C43.913334,73.48 43.459334,73.592 43.071334,73.816 C42.683334,74.04 42.377334,74.352 42.153334,74.752 C41.929334,75.152 41.763334,75.606 41.655334,76.114 C41.547334,76.622 41.493334,77.184 41.493334,77.8 C41.493334,78.416 41.545334,78.98 41.649334,79.492 C41.761334,79.996 41.929334,80.448 42.153334,80.848 C42.377334,81.248 42.683334,81.56 43.071334,81.784 C43.459334,82.008 43.913334,82.12 44.433334,82.12 Z M44.433334,80.68 C43.977334,80.68 43.643334,80.416 43.431334,79.888 C43.219334,79.36 43.113334,78.664 43.113334,77.8 C43.113334,76.936 43.219334,76.24 43.431334,75.712 C43.643334,75.184 43.977334,74.92 44.433334,74.92 C44.889334,74.92 45.223334,75.184 45.435334,75.712 C45.647334,76.24 45.753334,76.936 45.753334,77.8 C45.753334,78.664 45.645334,79.36 45.429334,79.888 C45.221334,80.416 44.889334,80.68 44.433334,80.68 Z M50.846667,82 L50.846667,77.32 L52.862667,80.62 L53.990667,80.62 L56.006667,77.32 L56.006667,82 L57.626667,82 L57.626667,73.6 L56.486667,73.6 L53.426667,78.628 L50.366667,73.6 L49.226667,73.6 L49.226667,82 L50.846667,82 Z M66.793333,82.12 C67.825333,82.12 68.665333,81.832 69.313333,81.256 C70.033333,80.608 70.393333,79.676 70.393333,78.46 L70.393333,78.46 L70.393333,73.6 L68.773333,73.6 L68.773333,78.58 C68.773333,79.276 68.589333,79.796 68.221333,80.14 C67.845333,80.5 67.369333,80.68 66.793333,80.68 C66.217333,80.68 65.741333,80.5 65.365333,80.14 C64.997333,79.796 64.813333,79.276 64.813333,78.58 L64.813333,78.58 L64.813333,73.6 L63.193333,73.6 L63.193333,78.46 C63.193333,79.676 63.553333,80.608 64.273333,81.256 C64.921333,81.832 65.761333,82.12 66.793333,82.12 Z M74.682666,82.12 C75.458666,82.12 76.126666,81.882 76.686666,81.406 C77.246666,80.93 77.526666,80.328 77.526666,79.6 C77.526666,79.072 77.392666,78.624 77.124666,78.256 C76.856666,77.888 76.532666,77.612 76.152666,77.428 C75.772666,77.244 75.394666,77.082 75.018666,76.942 C74.642666,76.802 74.320666,76.642 74.052666,76.462 C73.784666,76.282 73.650666,76.072 73.650666,75.832 C73.650666,75.528 73.780666,75.3 74.040666,75.148 C74.300666,74.996 74.602666,74.92 74.946666,74.92 C75.514666,74.92 75.998666,75.104 76.398666,75.472 L76.398666,75.472 L77.238666,74.272 C76.526666,73.744 75.714666,73.48 74.802666,73.48 C74.058666,73.48 73.410666,73.696 72.858666,74.128 C72.306666,74.56 72.030666,75.132 72.030666,75.844 C72.030666,76.652 72.426666,77.288 73.218666,77.752 C73.450666,77.888 73.828666,78.056 74.352666,78.256 C74.876666,78.456 75.266666,78.654 75.522666,78.85 C75.778666,79.046 75.906666,79.304 75.906666,79.624 C75.906666,79.928 75.792666,80.18 75.564666,80.38 C75.336666,80.58 75.042666,80.68 74.682666,80.68 C73.922666,80.68 73.262666,80.372 72.702666,79.756 L72.702666,79.756 L71.646666,80.86 C72.566666,81.7 73.578666,82.12 74.682666,82.12 Z M81.779999,82 C82.987999,82 83.951999,81.736 84.671999,81.208 C85.191999,80.824 85.599999,80.332 85.895999,79.732 C86.191999,79.132 86.339999,78.488 86.339999,77.8 C86.339999,77.112 86.191999,76.468 85.895999,75.868 C85.599999,75.268 85.191999,74.776 84.671999,74.392 C83.951999,73.864 82.987999,73.6 81.779999,73.6 L81.779999,73.6 L79.139999,73.6 L79.139999,82 L81.779999,82 Z M81.959999,80.56 L80.759999,80.56 L80.759999,75.04 L81.959999,75.04 C82.895999,75.04 83.611999,75.352 84.107999,75.976 C84.515999,76.488 84.719999,77.096 84.719999,77.8 C84.719999,78.504 84.515999,79.112 84.107999,79.624 C83.611999,80.248 82.895999,80.56 81.959999,80.56 L81.959999,80.56 Z" id="100MUSD" fill="#232F40" fill-rule="nonzero"></path>
                    <line x1="110.154416" y1="0" x2="110.154416" y2="149" id="Line" stroke="#232F40" stroke-width="0.5" stroke-linecap="square"></line>
                </g>
                <g id="Rectangle">
                    <use fill="black" fill-opacity="1" filter="url(#filter-4)" xlink:href="#path-3"></use>
                    <use fill-opacity="0.501939467" fill="#A7F6FF" fill-rule="evenodd" xlink:href="#path-3"></use>
                </g>
                <path d="M147.717251,43 C148.517251,43 149.127251,42.79 149.547251,42.37 C149.973918,41.9566667 150.187251,41.4533333 150.187251,40.86 C150.187251,40.4733333 150.090584,40.1166667 149.897251,39.79 C149.703918,39.4633333 149.450584,39.2233333 149.137251,39.07 C149.257251,38.9433333 149.362251,38.7716667 149.452251,38.555 C149.542251,38.3383333 149.587251,38.12 149.587251,37.9 C149.587251,37.34 149.370584,36.87 148.937251,36.49 C148.563918,36.1633333 148.040584,36 147.367251,36 L147.367251,36 L144.987251,36 L144.987251,43 L147.717251,43 Z M147.287251,38.7 L146.337251,38.7 L146.337251,37.2 L147.287251,37.2 C147.633918,37.2 147.883918,37.2833333 148.037251,37.45 C148.170584,37.5966667 148.237251,37.7633333 148.237251,37.95 C148.237251,38.1366667 148.170584,38.3033333 148.037251,38.45 C147.883918,38.6166667 147.633918,38.7 147.287251,38.7 L147.287251,38.7 Z M147.687251,41.8 L146.337251,41.8 L146.337251,39.9 L147.687251,39.9 C148.100584,39.9 148.400584,40.0033333 148.587251,40.21 C148.753918,40.39 148.837251,40.6033333 148.837251,40.85 C148.837251,41.0966667 148.753918,41.31 148.587251,41.49 C148.400584,41.6966667 148.100584,41.8 147.687251,41.8 L147.687251,41.8 Z M151.991695,43 L152.651695,41.45 L155.461695,41.45 L156.121695,43 L157.531695,43 L154.531695,36 L153.581695,36 L150.581695,43 L151.991695,43 Z M154.941695,40.25 L153.161695,40.25 L154.051695,38.18 L154.941695,40.25 Z M159.876139,43 L159.876139,38.44 L163.776139,43 L164.726139,43 L164.726139,36 L163.376139,36 L163.376139,40.56 L159.476139,36 L158.526139,36 L158.526139,43 L159.876139,43 Z M167.870584,43 L167.870584,39.56 L170.940584,43 L172.670584,43 L169.220584,39.2 L172.300584,36 L170.520584,36 L167.870584,38.8 L167.870584,36 L166.520584,36 L166.520584,43 L167.870584,43 Z M176.769472,43 L177.429472,41.45 L180.239472,41.45 L180.899472,43 L182.309472,43 L179.309472,36 L178.359472,36 L175.359472,43 L176.769472,43 Z M179.719472,40.25 L177.939472,40.25 L178.829472,38.18 L179.719472,40.25 Z" id="BANKA" fill="#232F40" fill-rule="nonzero"></path>
                <path d="M147.467251,121.316404 C148.267251,121.316404 148.877251,121.106404 149.297251,120.686404 C149.723918,120.27307 149.937251,119.769737 149.937251,119.176404 C149.937251,118.789737 149.840584,118.43307 149.647251,118.106404 C149.453918,117.779737 149.200584,117.539737 148.887251,117.386404 C149.007251,117.259737 149.112251,117.08807 149.202251,116.871404 C149.292251,116.654737 149.337251,116.436404 149.337251,116.216404 C149.337251,115.656404 149.120584,115.186404 148.687251,114.806404 C148.313918,114.479737 147.790584,114.316404 147.117251,114.316404 L147.117251,114.316404 L144.737251,114.316404 L144.737251,121.316404 L147.467251,121.316404 Z M147.037251,117.016404 L146.087251,117.016404 L146.087251,115.516404 L147.037251,115.516404 C147.383918,115.516404 147.633918,115.599737 147.787251,115.766404 C147.920584,115.91307 147.987251,116.079737 147.987251,116.266404 C147.987251,116.45307 147.920584,116.619737 147.787251,116.766404 C147.633918,116.93307 147.383918,117.016404 147.037251,117.016404 L147.037251,117.016404 Z M147.437251,120.116404 L146.087251,120.116404 L146.087251,118.216404 L147.437251,118.216404 C147.850584,118.216404 148.150584,118.319737 148.337251,118.526404 C148.503918,118.706404 148.587251,118.919737 148.587251,119.166404 C148.587251,119.41307 148.503918,119.626404 148.337251,119.806404 C148.150584,120.01307 147.850584,120.116404 147.437251,120.116404 L147.437251,120.116404 Z M151.741695,121.316404 L152.401695,119.766404 L155.211695,119.766404 L155.871695,121.316404 L157.281695,121.316404 L154.281695,114.316404 L153.331695,114.316404 L150.331695,121.316404 L151.741695,121.316404 Z M154.691695,118.566404 L152.911695,118.566404 L153.801695,116.496404 L154.691695,118.566404 Z M159.626139,121.316404 L159.626139,116.756404 L163.526139,121.316404 L164.476139,121.316404 L164.476139,114.316404 L163.126139,114.316404 L163.126139,118.876404 L159.226139,114.316404 L158.276139,114.316404 L158.276139,121.316404 L159.626139,121.316404 Z M167.620584,121.316404 L167.620584,117.876404 L170.690584,121.316404 L172.420584,121.316404 L168.970584,117.516404 L172.050584,114.316404 L170.270584,114.316404 L167.620584,117.116404 L167.620584,114.316404 L166.270584,114.316404 L166.270584,121.316404 L167.620584,121.316404 Z M178.839472,121.316404 C179.639472,121.316404 180.249472,121.106404 180.669472,120.686404 C181.096139,120.27307 181.309472,119.769737 181.309472,119.176404 C181.309472,118.789737 181.212805,118.43307 181.019472,118.106404 C180.826139,117.779737 180.572805,117.539737 180.259472,117.386404 C180.379472,117.259737 180.484472,117.08807 180.574472,116.871404 C180.664472,116.654737 180.709472,116.436404 180.709472,116.216404 C180.709472,115.656404 180.492805,115.186404 180.059472,114.806404 C179.686139,114.479737 179.162805,114.316404 178.489472,114.316404 L178.489472,114.316404 L176.109472,114.316404 L176.109472,121.316404 L178.839472,121.316404 Z M178.409472,117.016404 L177.459472,117.016404 L177.459472,115.516404 L178.409472,115.516404 C178.756139,115.516404 179.006139,115.599737 179.159472,115.766404 C179.292805,115.91307 179.359472,116.079737 179.359472,116.266404 C179.359472,116.45307 179.292805,116.619737 179.159472,116.766404 C179.006139,116.93307 178.756139,117.016404 178.409472,117.016404 L178.409472,117.016404 Z M178.809472,120.116404 L177.459472,120.116404 L177.459472,118.216404 L178.809472,118.216404 C179.222805,118.216404 179.522805,118.319737 179.709472,118.526404 C179.876139,118.706404 179.959472,118.919737 179.959472,119.166404 C179.959472,119.41307 179.876139,119.626404 179.709472,119.806404 C179.522805,120.01307 179.222805,120.116404 178.809472,120.116404 L178.809472,120.116404 Z" id="BANKB" fill="#232F40" fill-rule="nonzero"></path>
                <line x1="110.154416" y1="0" x2="110.154416" y2="149" id="Line" stroke="#232F40" stroke-width="0.5" stroke-linecap="square"></line>
                <path d="M140.693334,82.12 C141.533334,82.12 142.241334,81.856 142.817334,81.328 C143.401334,80.8 143.693334,80.156 143.693334,79.396 C143.693334,78.508 143.289334,77.8 142.481335,77.272 C142.929335,76.872 143.153334,76.38 143.153334,75.796 C143.153334,75.148 142.919334,74.6 142.451335,74.152 C141.983335,73.704 141.397334,73.48 140.693334,73.48 C139.989334,73.48 139.403334,73.704 138.935334,74.152 C138.467334,74.6 138.233334,75.148 138.233334,75.796 C138.233334,76.38 138.457334,76.872 138.905334,77.272 C138.097334,77.8 137.693334,78.508 137.693334,79.396 C137.693334,80.156 137.983334,80.8 138.563334,81.328 C139.143335,81.856 139.853334,82.12 140.693334,82.12 Z M140.693334,76.66 C140.445335,76.66 140.241334,76.58 140.081334,76.42 C139.929334,76.252 139.853334,76.044 139.853334,75.796 C139.853334,75.548 139.931334,75.34 140.087334,75.172 C140.243335,75.004 140.445335,74.92 140.693334,74.92 C140.941335,74.92 141.143335,75.004 141.299334,75.172 C141.455334,75.34 141.533334,75.548 141.533334,75.796 C141.533334,76.044 141.455334,76.25 141.299334,76.414 C141.143335,76.578 140.941335,76.66 140.693334,76.66 Z M140.693334,80.68 C140.301334,80.68 139.973334,80.556 139.709334,80.308 C139.445335,80.06 139.313334,79.756 139.313334,79.396 C139.313334,79.036 139.445335,78.73 139.709334,78.478 C139.973334,78.226 140.301334,78.1 140.693334,78.1 C141.085334,78.1 141.413334,78.226 141.677335,78.478 C141.941334,78.73 142.073334,79.036 142.073334,79.396 C142.073334,79.756 141.941334,80.06 141.677335,80.308 C141.413334,80.556 141.085334,80.68 140.693334,80.68 Z M147.550668,82.12 C148.406667,82.12 149.136667,81.842 149.740668,81.286 C150.344668,80.73 150.646668,80.04 150.646668,79.216 C150.646668,78.768 150.550668,78.342 150.358667,77.938 C150.166667,77.534 149.906667,77.2 149.578667,76.936 C149.058667,76.512 148.406667,76.3 147.622668,76.3 C147.374667,76.3 147.158667,76.32 146.974667,76.36 L146.974667,76.36 L147.106667,75.04 L150.226667,75.04 L150.226667,73.6 L145.786667,73.6 L145.246668,78.052 L146.254667,78.196 C146.622668,77.892 147.034668,77.74 147.490668,77.74 C147.914668,77.74 148.254667,77.852 148.510667,78.076 C148.854668,78.372 149.026668,78.752 149.026668,79.216 C149.026668,79.648 148.870667,80.008 148.558667,80.296 C148.278667,80.552 147.942667,80.68 147.550668,80.68 C147.006667,80.68 146.526668,80.456 146.110668,80.008 L146.110668,80.008 L145.006667,81.04 C145.726667,81.76 146.574668,82.12 147.550668,82.12 Z M154.120001,82 L154.120001,77.32 L156.136,80.62 L157.264001,80.62 L159.28,77.32 L159.28,82 L160.900001,82 L160.900001,73.6 L159.76,73.6 L156.7,78.628 L153.64,73.6 L152.5,73.6 L152.5,82 L154.120001,82 Z M171.686667,82 L171.686667,80.56 L168.146666,80.56 L168.146666,78.22 L170.726666,78.22 L170.726666,76.78 L168.146666,76.78 L168.146666,75.04 L171.566666,75.04 L171.566666,73.6 L166.526667,73.6 L166.526667,82 L171.686667,82 Z M176.899999,82.12 C177.931999,82.12 178.771999,81.832 179.419999,81.256 C180.139999,80.608 180.5,79.676 180.5,78.46 L180.5,78.46 L180.5,73.6 L178.879999,73.6 L178.879999,78.58 C178.879999,79.276 178.695999,79.796 178.327999,80.14 C177.951999,80.5 177.475999,80.68 176.899999,80.68 C176.323999,80.68 175.847999,80.5 175.471999,80.14 C175.103999,79.796 174.919999,79.276 174.919999,78.58 L174.919999,78.58 L174.919999,73.6 L173.299999,73.6 L173.299999,78.46 C173.299999,79.676 173.659999,80.608 174.379999,81.256 C175.027999,81.832 175.867999,82.12 176.899999,82.12 Z M184.213332,82 L184.213332,78.28 L184.801333,78.28 L187.789333,82 L189.793332,82 L186.649332,78.148 C186.969333,78.044 187.249333,77.88 187.489332,77.656 C187.985332,77.184 188.233332,76.612 188.233332,75.94 C188.233332,75.268 187.985332,74.696 187.489332,74.224 C187.033333,73.808 186.421333,73.6 185.653333,73.6 L185.653333,73.6 L182.593333,73.6 L182.593333,82 L184.213332,82 Z M185.557333,76.84 L184.213332,76.84 L184.213332,75.04 L185.557333,75.04 C185.941332,75.04 186.213332,75.128 186.373333,75.304 C186.533333,75.48 186.613333,75.696 186.613333,75.952 C186.613333,76.2 186.533333,76.412 186.373333,76.588 C186.221332,76.756 185.949332,76.84 185.557333,76.84 L185.557333,76.84 Z" id="85MEUR" fill="#232F40" fill-rule="nonzero"></path>
            </g>
        </g>
    </g>
</svg>