<?xml version="1.0" encoding="UTF-8"?>
<svg width="985px" height="635px" viewBox="0 0 985 635" version="1.1" xmlns="http://www.w3.org/2000/svg" xmlns:xlink="http://www.w3.org/1999/xlink">
    <title>Group 22</title>
    <g id="Page-1" stroke="none" stroke-width="1" fill="none" fill-rule="evenodd">
        <g id="UC-1-Slide-35" transform="translate(-180.000000, -59.000000)">
            <g id="Group-22" transform="translate(180.804495, 59.072603)">
                <polygon id="Rectangle" fill-opacity="0.310861014" fill="#FFFFFF" points="723.178857 -5.18750046e-12 983.626632 -5.18750046e-12 983.626632 491.33665 724.213862 491.33665 723.695505 433.908849 519 433.908849 519 253.606612 723.178857 253.606612"></polygon>
                <polygon id="Rectangle" fill-opacity="0.310861014" fill="#FFFFFF" transform="translate(233.813316, 309.070199) scale(-1, 1) translate(-233.813316, -309.070199) " points="207.608025 68.9635326 467.626632 68.9635326 467.626632 549.176865 192.975722 548.931971 192.975722 433.908849 1.42108547e-13 433.908849 1.42108547e-13 253.606612 207.608025 253.606612"></polygon>
                <polygon id="Rectangle" fill-opacity="0.310861014" fill="#FFFFFF" transform="translate(493.888476, 341.531016) scale(-1, 1) translate(-493.888476, -341.531016) " points="624.290993 50.0310163 624.290993 633.031016 363.485959 633.031016 363.485959 50.1634609"></polygon>
                <g id="Group-21" transform="translate(375.195505, 268.927397)">
                    <g id="Group-10">
                        <g id="Group-20">
                            <polygon id="Rectangle" fill="#A7F6FF" points="0 -7.75292157e-13 110 -7.75292157e-13 110 149 0 149"></polygon>
                            <g id="Group-13" transform="translate(25.955455, 36.000000)">
                                <g id="Group-11" transform="translate(25.958636, 13.000000)" stroke="#232F40" stroke-linecap="round" stroke-width="2">
                                    <line x1="4.48325472" y1="0.521696283" x2="4.48325472" y2="57.5548628" id="Line-4"></line>
                                    <polyline id="Rectangle" transform="translate(4.492841, 55.614947) rotate(45.000000) translate(-4.492841, -55.614947) " points="6.986875 53.1169355 6.99085227 58.1129582 1.99482955 58.108981"></polyline>
                                </g>
                                <path d="M14.3239402,7 C15.1239402,7 15.7339402,6.79 16.1539402,6.37 C16.5806069,5.95666667 16.7939402,5.45333333 16.7939402,4.86 C16.7939402,4.47333333 16.6972736,4.11666667 16.5039402,3.79 C16.3106069,3.46333333 16.0572736,3.22333333 15.7439402,3.07 C15.8639402,2.94333333 15.9689402,2.77166667 16.0589402,2.555 C16.1489402,2.33833333 16.1939402,2.12 16.1939402,1.9 C16.1939402,1.34 15.9772736,0.87 15.5439402,0.49 C15.1706069,0.163333333 14.6472736,0 13.9739402,0 L13.9739402,0 L11.5939402,0 L11.5939402,7 L14.3239402,7 Z M13.8939402,2.7 L12.9439402,2.7 L12.9439402,1.2 L13.8939402,1.2 C14.2406069,1.2 14.4906069,1.28333333 14.6439402,1.45 C14.7772736,1.59666667 14.8439402,1.76333333 14.8439402,1.95 C14.8439402,2.13666667 14.7772736,2.30333333 14.6439402,2.45 C14.4906069,2.61666667 14.2406069,2.7 13.8939402,2.7 L13.8939402,2.7 Z M14.2939402,5.8 L12.9439402,5.8 L12.9439402,3.9 L14.2939402,3.9 C14.7072736,3.9 15.0072736,4.00333333 15.1939402,4.21 C15.3606069,4.39 15.4439402,4.60333333 15.4439402,4.85 C15.4439402,5.09666667 15.3606069,5.31 15.1939402,5.49 C15.0072736,5.69666667 14.7072736,5.8 14.2939402,5.8 L14.2939402,5.8 Z M18.5983844,7 L19.2583844,5.45 L22.0683844,5.45 L22.7283844,7 L24.1383844,7 L21.1383844,0 L20.1883844,0 L17.1883844,7 L18.5983844,7 Z M21.5483844,4.25 L19.7683844,4.25 L20.6583844,2.18 L21.5483844,4.25 Z M26.4828286,7 L26.4828286,2.44 L30.3828286,7 L31.3328286,7 L31.3328286,0 L29.9828286,0 L29.9828286,4.56 L26.0828286,0 L25.1328286,0 L25.1328286,7 L26.4828286,7 Z M34.4772727,7 L34.4772727,3.56 L37.5472727,7 L39.2772727,7 L35.8272727,3.2 L38.9072727,0 L37.1272727,0 L34.4772727,2.8 L34.4772727,0 L33.1272727,0 L33.1272727,7 L34.4772727,7 Z M43.3761611,7 L44.0361611,5.45 L46.8461611,5.45 L47.5061611,7 L48.9161611,7 L45.9161611,0 L44.9661611,0 L41.9661611,7 L43.3761611,7 Z M46.3261611,4.25 L44.5461611,4.25 L45.4361611,2.18 L46.3261611,4.25 Z" id="BANKA" fill="#232F40" fill-rule="nonzero"></path>
                                <path d="M14.5739402,85 C15.3739402,85 15.9839402,84.79 16.4039402,84.37 C16.8306069,83.9566667 17.0439402,83.4533333 17.0439402,82.86 C17.0439402,82.4733333 16.9472736,82.1166667 16.7539402,81.79 C16.5606069,81.4633333 16.3072736,81.2233333 15.9939402,81.07 C16.1139402,80.9433333 16.2189402,80.7716667 16.3089402,80.555 C16.3989402,80.3383333 16.4439402,80.12 16.4439402,79.9 C16.4439402,79.34 16.2272736,78.87 15.7939402,78.49 C15.4206069,78.1633333 14.8972736,78 14.2239402,78 L14.2239402,78 L11.8439402,78 L11.8439402,85 L14.5739402,85 Z M14.1439402,80.7 L13.1939402,80.7 L13.1939402,79.2 L14.1439402,79.2 C14.4906069,79.2 14.7406069,79.2833333 14.8939402,79.45 C15.0272736,79.5966667 15.0939402,79.7633333 15.0939402,79.95 C15.0939402,80.1366667 15.0272736,80.3033333 14.8939402,80.45 C14.7406069,80.6166667 14.4906069,80.7 14.1439402,80.7 L14.1439402,80.7 Z M14.5439402,83.8 L13.1939402,83.8 L13.1939402,81.9 L14.5439402,81.9 C14.9572736,81.9 15.2572736,82.0033333 15.4439402,82.21 C15.6106069,82.39 15.6939402,82.6033333 15.6939402,82.85 C15.6939402,83.0966667 15.6106069,83.31 15.4439402,83.49 C15.2572736,83.6966667 14.9572736,83.8 14.5439402,83.8 L14.5439402,83.8 Z M18.8483844,85 L19.5083844,83.45 L22.3183844,83.45 L22.9783844,85 L24.3883844,85 L21.3883844,78 L20.4383844,78 L17.4383844,85 L18.8483844,85 Z M21.7983844,82.25 L20.0183844,82.25 L20.9083844,80.18 L21.7983844,82.25 Z M26.7328286,85 L26.7328286,80.44 L30.6328286,85 L31.5828286,85 L31.5828286,78 L30.2328286,78 L30.2328286,82.56 L26.3328286,78 L25.3828286,78 L25.3828286,85 L26.7328286,85 Z M34.7272727,85 L34.7272727,81.56 L37.7972727,85 L39.5272727,85 L36.0772727,81.2 L39.1572727,78 L37.3772727,78 L34.7272727,80.8 L34.7272727,78 L33.3772727,78 L33.3772727,85 L34.7272727,85 Z M45.9461611,85 C46.7461611,85 47.3561611,84.79 47.7761611,84.37 C48.2028277,83.9566667 48.4161611,83.4533333 48.4161611,82.86 C48.4161611,82.4733333 48.3194944,82.1166667 48.1261611,81.79 C47.9328277,81.4633333 47.6794944,81.2233333 47.3661611,81.07 C47.4861611,80.9433333 47.5911611,80.7716667 47.6811611,80.555 C47.7711611,80.3383333 47.8161611,80.12 47.8161611,79.9 C47.8161611,79.34 47.5994944,78.87 47.1661611,78.49 C46.7928277,78.1633333 46.2694944,78 45.5961611,78 L45.5961611,78 L43.2161611,78 L43.2161611,85 L45.9461611,85 Z M45.5161611,80.7 L44.5661611,80.7 L44.5661611,79.2 L45.5161611,79.2 C45.8628277,79.2 46.1128277,79.2833333 46.2661611,79.45 C46.3994944,79.5966667 46.4661611,79.7633333 46.4661611,79.95 C46.4661611,80.1366667 46.3994944,80.3033333 46.2661611,80.45 C46.1128277,80.6166667 45.8628277,80.7 45.5161611,80.7 L45.5161611,80.7 Z M45.9161611,83.8 L44.5661611,83.8 L44.5661611,81.9 L45.9161611,81.9 C46.3294944,81.9 46.6294944,82.0033333 46.8161611,82.21 C46.9828277,82.39 47.0661611,82.6033333 47.0661611,82.85 C47.0661611,83.0966667 46.9828277,83.31 46.8161611,83.49 C46.6294944,83.6966667 46.3294944,83.8 45.9161611,83.8 L45.9161611,83.8 Z" id="BANKB" fill="#232F40" fill-rule="nonzero"></path>
                                <rect id="Rectangle" fill="#A7F6FF" x="3.99363636" y="34" width="51.9172727" height="16"></rect>
                                <path d="M3.85973618,46 L3.85973618,37.6 L2.71973618,37.6 L0.679736182,38.8 L0.679736182,40.336 L2.23973618,39.472 L2.23973618,46 L3.85973618,46 Z M8.95306918,46.12 C9.47306918,46.12 9.92706918,46.008 10.3150692,45.784 C10.7030692,45.56 11.0090692,45.248 11.2330692,44.848 C11.4570692,44.448 11.6230692,43.994 11.7310692,43.486 C11.8390692,42.978 11.8930692,42.416 11.8930692,41.8 C11.8930692,41.184 11.8390692,40.622 11.7310692,40.114 C11.6230692,39.606 11.4570692,39.152 11.2330692,38.752 C11.0090692,38.352 10.7030692,38.04 10.3150692,37.816 C9.92706918,37.592 9.47306918,37.48 8.95306918,37.48 C8.43306918,37.48 7.97906918,37.592 7.59106918,37.816 C7.20306918,38.04 6.89706918,38.352 6.67306918,38.752 C6.44906918,39.152 6.28306918,39.606 6.17506918,40.114 C6.06706918,40.622 6.01306918,41.184 6.01306918,41.8 C6.01306918,42.416 6.06506918,42.98 6.16906918,43.492 C6.28106918,43.996 6.44906918,44.448 6.67306918,44.848 C6.89706918,45.248 7.20306918,45.56 7.59106918,45.784 C7.97906918,46.008 8.43306918,46.12 8.95306918,46.12 Z M8.95306918,44.68 C8.49706918,44.68 8.16306918,44.416 7.95106918,43.888 C7.73906918,43.36 7.63306918,42.664 7.63306918,41.8 C7.63306918,40.936 7.73906918,40.24 7.95106918,39.712 C8.16306918,39.184 8.49706918,38.92 8.95306918,38.92 C9.40906918,38.92 9.74306918,39.184 9.95506918,39.712 C10.1670692,40.24 10.2730692,40.936 10.2730692,41.8 C10.2730692,42.664 10.1650692,43.36 9.94906918,43.888 C9.74106918,44.416 9.40906918,44.68 8.95306918,44.68 Z M16.3864022,46.12 C16.9064022,46.12 17.3604022,46.008 17.7484022,45.784 C18.1364022,45.56 18.4424022,45.248 18.6664022,44.848 C18.8904022,44.448 19.0564022,43.994 19.1644022,43.486 C19.2724022,42.978 19.3264022,42.416 19.3264022,41.8 C19.3264022,41.184 19.2724022,40.622 19.1644022,40.114 C19.0564022,39.606 18.8904022,39.152 18.6664022,38.752 C18.4424022,38.352 18.1364022,38.04 17.7484022,37.816 C17.3604022,37.592 16.9064022,37.48 16.3864022,37.48 C15.8664022,37.48 15.4124022,37.592 15.0244022,37.816 C14.6364022,38.04 14.3304022,38.352 14.1064022,38.752 C13.8824022,39.152 13.7164022,39.606 13.6084022,40.114 C13.5004022,40.622 13.4464022,41.184 13.4464022,41.8 C13.4464022,42.416 13.4984022,42.98 13.6024022,43.492 C13.7144022,43.996 13.8824022,44.448 14.1064022,44.848 C14.3304022,45.248 14.6364022,45.56 15.0244022,45.784 C15.4124022,46.008 15.8664022,46.12 16.3864022,46.12 Z M16.3864022,44.68 C15.9304022,44.68 15.5964022,44.416 15.3844022,43.888 C15.1724022,43.36 15.0664022,42.664 15.0664022,41.8 C15.0664022,40.936 15.1724022,40.24 15.3844022,39.712 C15.5964022,39.184 15.9304022,38.92 16.3864022,38.92 C16.8424022,38.92 17.1764022,39.184 17.3884022,39.712 C17.6004022,40.24 17.7064022,40.936 17.7064022,41.8 C17.7064022,42.664 17.5984022,43.36 17.3824022,43.888 C17.1744022,44.416 16.8424022,44.68 16.3864022,44.68 Z M22.7997352,46 L22.7997352,41.32 L24.8157352,44.62 L25.9437352,44.62 L27.9597352,41.32 L27.9597352,46 L29.5797352,46 L29.5797352,37.6 L28.4397352,37.6 L25.3797352,42.628 L22.3197352,37.6 L21.1797352,37.6 L21.1797352,46 L22.7997352,46 Z M38.7464012,46.12 C39.7784012,46.12 40.6184012,45.832 41.2664012,45.256 C41.9864012,44.608 42.3464012,43.676 42.3464012,42.46 L42.3464012,42.46 L42.3464012,37.6 L40.7264012,37.6 L40.7264012,42.58 C40.7264012,43.276 40.5424012,43.796 40.1744012,44.14 C39.7984012,44.5 39.3224012,44.68 38.7464012,44.68 C38.1704012,44.68 37.6944012,44.5 37.3184012,44.14 C36.9504012,43.796 36.7664012,43.276 36.7664012,42.58 L36.7664012,42.58 L36.7664012,37.6 L35.1464012,37.6 L35.1464012,42.46 C35.1464012,43.676 35.5064012,44.608 36.2264012,45.256 C36.8744012,45.832 37.7144012,46.12 38.7464012,46.12 Z M46.6357342,46.12 C47.4117342,46.12 48.0797342,45.882 48.6397342,45.406 C49.1997342,44.93 49.4797342,44.328 49.4797342,43.6 C49.4797342,43.072 49.3457342,42.624 49.0777342,42.256 C48.8097342,41.888 48.4857342,41.612 48.1057342,41.428 C47.7257342,41.244 47.3477342,41.082 46.9717342,40.942 C46.5957342,40.802 46.2737342,40.642 46.0057342,40.462 C45.7377342,40.282 45.6037342,40.072 45.6037342,39.832 C45.6037342,39.528 45.7337342,39.3 45.9937342,39.148 C46.2537342,38.996 46.5557342,38.92 46.8997342,38.92 C47.4677342,38.92 47.9517342,39.104 48.3517342,39.472 L48.3517342,39.472 L49.1917342,38.272 C48.4797342,37.744 47.6677342,37.48 46.7557342,37.48 C46.0117342,37.48 45.3637342,37.696 44.8117342,38.128 C44.2597342,38.56 43.9837342,39.132 43.9837342,39.844 C43.9837342,40.652 44.3797342,41.288 45.1717342,41.752 C45.4037342,41.888 45.7817342,42.056 46.3057342,42.256 C46.8297342,42.456 47.2197342,42.654 47.4757342,42.85 C47.7317342,43.046 47.8597342,43.304 47.8597342,43.624 C47.8597342,43.928 47.7457342,44.18 47.5177342,44.38 C47.2897342,44.58 46.9957342,44.68 46.6357342,44.68 C45.8757342,44.68 45.2157342,44.372 44.6557342,43.756 L44.6557342,43.756 L43.5997342,44.86 C44.5197342,45.7 45.5317342,46.12 46.6357342,46.12 Z M53.7330672,46 C54.9410672,46 55.9050672,45.736 56.6250672,45.208 C57.1450672,44.824 57.5530672,44.332 57.8490672,43.732 C58.1450672,43.132 58.2930672,42.488 58.2930672,41.8 C58.2930672,41.112 58.1450672,40.468 57.8490672,39.868 C57.5530672,39.268 57.1450672,38.776 56.6250672,38.392 C55.9050672,37.864 54.9410672,37.6 53.7330672,37.6 L53.7330672,37.6 L51.0930672,37.6 L51.0930672,46 L53.7330672,46 Z M53.9130672,44.56 L52.7130672,44.56 L52.7130672,39.04 L53.9130672,39.04 C54.8490672,39.04 55.5650672,39.352 56.0610672,39.976 C56.4690672,40.488 56.6730672,41.096 56.6730672,41.8 C56.6730672,42.504 56.4690672,43.112 56.0610672,43.624 C55.5650672,44.248 54.8490672,44.56 53.9130672,44.56 L53.9130672,44.56 Z" id="100MUSD" fill="#232F40" fill-rule="nonzero"></path>
                            </g>
                        </g>
                        <g id="Group-19" transform="translate(127.000000, 0.000000)">
                            <polygon id="Rectangle" fill="#A7F6FF" points="0 -7.75292157e-13 110 -7.75292157e-13 110 149 0 149"></polygon>
                            <g id="Group-12" transform="translate(28.782045, 36.000000)">
                                <path d="M10.6753377,7 C11.4753377,7 12.0853377,6.79 12.5053377,6.37 C12.9320043,5.95666667 13.1453377,5.45333333 13.1453377,4.86 C13.1453377,4.47333333 13.048671,4.11666667 12.8553377,3.79 C12.6620043,3.46333333 12.408671,3.22333333 12.0953377,3.07 C12.2153377,2.94333333 12.3203377,2.77166667 12.4103377,2.555 C12.5003377,2.33833333 12.5453377,2.12 12.5453377,1.9 C12.5453377,1.34 12.328671,0.87 11.8953377,0.49 C11.5220043,0.163333333 10.998671,0 10.3253377,0 L10.3253377,0 L7.94533765,0 L7.94533765,7 L10.6753377,7 Z M10.2453377,2.7 L9.29533765,2.7 L9.29533765,1.2 L10.2453377,1.2 C10.5920043,1.2 10.8420043,1.28333333 10.9953377,1.45 C11.128671,1.59666667 11.1953377,1.76333333 11.1953377,1.95 C11.1953377,2.13666667 11.128671,2.30333333 10.9953377,2.45 C10.8420043,2.61666667 10.5920043,2.7 10.2453377,2.7 L10.2453377,2.7 Z M10.6453377,5.8 L9.29533765,5.8 L9.29533765,3.9 L10.6453377,3.9 C11.058671,3.9 11.358671,4.00333333 11.5453377,4.21 C11.7120043,4.39 11.7953377,4.60333333 11.7953377,4.85 C11.7953377,5.09666667 11.7120043,5.31 11.5453377,5.49 C11.358671,5.69666667 11.058671,5.8 10.6453377,5.8 L10.6453377,5.8 Z M14.9497818,7 L15.6097818,5.45 L18.4197818,5.45 L19.0797818,7 L20.4897818,7 L17.4897818,0 L16.5397818,0 L13.5397818,7 L14.9497818,7 Z M17.8997818,4.25 L16.1197818,4.25 L17.0097818,2.18 L17.8997818,4.25 Z M22.834226,7 L22.834226,2.44 L26.734226,7 L27.684226,7 L27.684226,0 L26.334226,0 L26.334226,4.56 L22.434226,0 L21.484226,0 L21.484226,7 L22.834226,7 Z M30.8286702,7 L30.8286702,3.56 L33.8986702,7 L35.6286702,7 L32.1786702,3.2 L35.2586702,0 L33.4786702,0 L30.8286702,2.8 L30.8286702,0 L29.4786702,0 L29.4786702,7 L30.8286702,7 Z M39.7275585,7 L40.3875585,5.45 L43.1975585,5.45 L43.8575585,7 L45.2675585,7 L42.2675585,0 L41.3175585,0 L38.3175585,7 L39.7275585,7 Z M42.6775585,4.25 L40.8975585,4.25 L41.7875585,2.18 L42.6775585,4.25 Z" id="BANKA" fill="#232F40" fill-rule="nonzero"></path>
                                <path d="M10.4261331,85.3164037 C11.2261331,85.3164037 11.8361331,85.1064037 12.2561331,84.6864037 C12.6827998,84.2730704 12.8961331,83.7697371 12.8961331,83.1764037 C12.8961331,82.7897371 12.7994664,82.4330704 12.6061331,82.1064037 C12.4127998,81.7797371 12.1594664,81.5397371 11.8461331,81.3864037 C11.9661331,81.2597371 12.0711331,81.0880704 12.1611331,80.8714037 C12.2511331,80.6547371 12.2961331,80.4364037 12.2961331,80.2164037 C12.2961331,79.6564037 12.0794664,79.1864037 11.6461331,78.8064037 C11.2727998,78.4797371 10.7494664,78.3164037 10.0761331,78.3164037 L10.0761331,78.3164037 L7.69613311,78.3164037 L7.69613311,85.3164037 L10.4261331,85.3164037 Z M9.99613311,81.0164037 L9.04613311,81.0164037 L9.04613311,79.5164037 L9.99613311,79.5164037 C10.3427998,79.5164037 10.5927998,79.5997371 10.7461331,79.7664037 C10.8794664,79.9130704 10.9461331,80.0797371 10.9461331,80.2664037 C10.9461331,80.4530704 10.8794664,80.6197371 10.7461331,80.7664037 C10.5927998,80.9330704 10.3427998,81.0164037 9.99613311,81.0164037 L9.99613311,81.0164037 Z M10.3961331,84.1164037 L9.04613311,84.1164037 L9.04613311,82.2164037 L10.3961331,82.2164037 C10.8094664,82.2164037 11.1094664,82.3197371 11.2961331,82.5264037 C11.4627998,82.7064037 11.5461331,82.9197371 11.5461331,83.1664037 C11.5461331,83.4130704 11.4627998,83.6264037 11.2961331,83.8064037 C11.1094664,84.0130704 10.8094664,84.1164037 10.3961331,84.1164037 L10.3961331,84.1164037 Z M14.7005773,85.3164037 L15.3605773,83.7664037 L18.1705773,83.7664037 L18.8305773,85.3164037 L20.2405773,85.3164037 L17.2405773,78.3164037 L16.2905773,78.3164037 L13.2905773,85.3164037 L14.7005773,85.3164037 Z M17.6505773,82.5664037 L15.8705773,82.5664037 L16.7605773,80.4964037 L17.6505773,82.5664037 Z M22.5850214,85.3164037 L22.5850214,80.7564037 L26.4850214,85.3164037 L27.4350214,85.3164037 L27.4350214,78.3164037 L26.0850214,78.3164037 L26.0850214,82.8764037 L22.1850214,78.3164037 L21.2350214,78.3164037 L21.2350214,85.3164037 L22.5850214,85.3164037 Z M30.5794656,85.3164037 L30.5794656,81.8764037 L33.6494656,85.3164037 L35.3794656,85.3164037 L31.9294656,81.5164037 L35.0094656,78.3164037 L33.2294656,78.3164037 L30.5794656,81.1164037 L30.5794656,78.3164037 L29.2294656,78.3164037 L29.2294656,85.3164037 L30.5794656,85.3164037 Z M41.7983539,85.3164037 C42.5983539,85.3164037 43.2083539,85.1064037 43.6283539,84.6864037 C44.0550206,84.2730704 44.2683539,83.7697371 44.2683539,83.1764037 C44.2683539,82.7897371 44.1716873,82.4330704 43.9783539,82.1064037 C43.7850206,81.7797371 43.5316873,81.5397371 43.2183539,81.3864037 C43.3383539,81.2597371 43.4433539,81.0880704 43.5333539,80.8714037 C43.6233539,80.6547371 43.6683539,80.4364037 43.6683539,80.2164037 C43.6683539,79.6564037 43.4516873,79.1864037 43.0183539,78.8064037 C42.6450206,78.4797371 42.1216873,78.3164037 41.4483539,78.3164037 L41.4483539,78.3164037 L39.0683539,78.3164037 L39.0683539,85.3164037 L41.7983539,85.3164037 Z M41.3683539,81.0164037 L40.4183539,81.0164037 L40.4183539,79.5164037 L41.3683539,79.5164037 C41.7150206,79.5164037 41.9650206,79.5997371 42.1183539,79.7664037 C42.2516873,79.9130704 42.3183539,80.0797371 42.3183539,80.2664037 C42.3183539,80.4530704 42.2516873,80.6197371 42.1183539,80.7664037 C41.9650206,80.9330704 41.7150206,81.0164037 41.3683539,81.0164037 L41.3683539,81.0164037 Z M41.7683539,84.1164037 L40.4183539,84.1164037 L40.4183539,82.2164037 L41.7683539,82.2164037 C42.1816873,82.2164037 42.4816873,82.3197371 42.6683539,82.5264037 C42.8350206,82.7064037 42.9183539,82.9197371 42.9183539,83.1664037 C42.9183539,83.4130704 42.8350206,83.6264037 42.6683539,83.8064037 C42.4816873,84.0130704 42.1816873,84.1164037 41.7683539,84.1164037 L41.7683539,84.1164037 Z" id="BANKB" fill="#232F40" fill-rule="nonzero"></path>
                                <g id="Group-11" transform="translate(26.457841, 43.000000) scale(1, -1) translate(-26.457841, -43.000000) translate(21.965000, 13.000000)" stroke="#232F40" stroke-linecap="round" stroke-width="2">
                                    <line x1="4.48325472" y1="0.521696283" x2="4.48325472" y2="57.5548628" id="Line-4"></line>
                                    <polyline id="Rectangle" transform="translate(4.492841, 55.614947) rotate(45.000000) translate(-4.492841, -55.614947) " points="6.986875 53.1169355 6.99085227 58.1129582 1.99482955 58.108981"></polyline>
                                </g>
                                <rect id="Rectangle" fill="#A7F6FF" x="0.998409091" y="34" width="51.9172727" height="16"></rect>
                                <path d="M3.65117541,46.12 C4.49117541,46.12 5.19917541,45.856 5.77517541,45.328 C6.35917541,44.8 6.65117541,44.156 6.65117541,43.396 C6.65117541,42.508 6.24717541,41.8 5.43917541,41.272 C5.88717541,40.872 6.11117541,40.38 6.11117541,39.796 C6.11117541,39.148 5.87717541,38.6 5.40917541,38.152 C4.94117541,37.704 4.35517541,37.48 3.65117541,37.48 C2.94717541,37.48 2.36117541,37.704 1.89317541,38.152 C1.42517541,38.6 1.19117541,39.148 1.19117541,39.796 C1.19117541,40.38 1.41517541,40.872 1.86317541,41.272 C1.05517541,41.8 0.651175409,42.508 0.651175409,43.396 C0.651175409,44.156 0.941175409,44.8 1.52117541,45.328 C2.10117541,45.856 2.81117541,46.12 3.65117541,46.12 Z M3.65117541,40.66 C3.40317541,40.66 3.19917541,40.58 3.03917541,40.42 C2.88717541,40.252 2.81117541,40.044 2.81117541,39.796 C2.81117541,39.548 2.88917541,39.34 3.04517541,39.172 C3.20117541,39.004 3.40317541,38.92 3.65117541,38.92 C3.89917541,38.92 4.10117541,39.004 4.25717541,39.172 C4.41317541,39.34 4.49117541,39.548 4.49117541,39.796 C4.49117541,40.044 4.41317541,40.25 4.25717541,40.414 C4.10117541,40.578 3.89917541,40.66 3.65117541,40.66 Z M3.65117541,44.68 C3.25917541,44.68 2.93117541,44.556 2.66717541,44.308 C2.40317541,44.06 2.27117541,43.756 2.27117541,43.396 C2.27117541,43.036 2.40317541,42.73 2.66717541,42.478 C2.93117541,42.226 3.25917541,42.1 3.65117541,42.1 C4.04317541,42.1 4.37117541,42.226 4.63517541,42.478 C4.89917541,42.73 5.03117541,43.036 5.03117541,43.396 C5.03117541,43.756 4.89917541,44.06 4.63517541,44.308 C4.37117541,44.556 4.04317541,44.68 3.65117541,44.68 Z M10.5085084,46.12 C11.3645084,46.12 12.0945084,45.842 12.6985084,45.286 C13.3025084,44.73 13.6045084,44.04 13.6045084,43.216 C13.6045084,42.768 13.5085084,42.342 13.3165084,41.938 C13.1245084,41.534 12.8645084,41.2 12.5365084,40.936 C12.0165084,40.512 11.3645084,40.3 10.5805084,40.3 C10.3325084,40.3 10.1165084,40.32 9.93250841,40.36 L9.93250841,40.36 L10.0645084,39.04 L13.1845084,39.04 L13.1845084,37.6 L8.74450841,37.6 L8.20450841,42.052 L9.21250841,42.196 C9.58050841,41.892 9.99250841,41.74 10.4485084,41.74 C10.8725084,41.74 11.2125084,41.852 11.4685084,42.076 C11.8125084,42.372 11.9845084,42.752 11.9845084,43.216 C11.9845084,43.648 11.8285084,44.008 11.5165084,44.296 C11.2365084,44.552 10.9005084,44.68 10.5085084,44.68 C9.96450841,44.68 9.48450841,44.456 9.06850841,44.008 L9.06850841,44.008 L7.96450841,45.04 C8.68450841,45.76 9.53250841,46.12 10.5085084,46.12 Z M17.0778414,46 L17.0778414,41.32 L19.0938414,44.62 L20.2218414,44.62 L22.2378414,41.32 L22.2378414,46 L23.8578414,46 L23.8578414,37.6 L22.7178414,37.6 L19.6578414,42.628 L16.5978414,37.6 L15.4578414,37.6 L15.4578414,46 L17.0778414,46 Z M34.6445074,46 L34.6445074,44.56 L31.1045074,44.56 L31.1045074,42.22 L33.6845074,42.22 L33.6845074,40.78 L31.1045074,40.78 L31.1045074,39.04 L34.5245074,39.04 L34.5245074,37.6 L29.4845074,37.6 L29.4845074,46 L34.6445074,46 Z M39.8578404,46.12 C40.8898404,46.12 41.7298404,45.832 42.3778404,45.256 C43.0978404,44.608 43.4578404,43.676 43.4578404,42.46 L43.4578404,42.46 L43.4578404,37.6 L41.8378404,37.6 L41.8378404,42.58 C41.8378404,43.276 41.6538404,43.796 41.2858404,44.14 C40.9098404,44.5 40.4338404,44.68 39.8578404,44.68 C39.2818404,44.68 38.8058404,44.5 38.4298404,44.14 C38.0618404,43.796 37.8778404,43.276 37.8778404,42.58 L37.8778404,42.58 L37.8778404,37.6 L36.2578404,37.6 L36.2578404,42.46 C36.2578404,43.676 36.6178404,44.608 37.3378404,45.256 C37.9858404,45.832 38.8258404,46.12 39.8578404,46.12 Z M47.1711734,46 L47.1711734,42.28 L47.7591734,42.28 L50.7471734,46 L52.7511734,46 L49.6071734,42.148 C49.9271734,42.044 50.2071734,41.88 50.4471734,41.656 C50.9431734,41.184 51.1911734,40.612 51.1911734,39.94 C51.1911734,39.268 50.9431734,38.696 50.4471734,38.224 C49.9911734,37.808 49.3791734,37.6 48.6111734,37.6 L48.6111734,37.6 L45.5511734,37.6 L45.5511734,46 L47.1711734,46 Z M48.5151734,40.84 L47.1711734,40.84 L47.1711734,39.04 L48.5151734,39.04 C48.8991734,39.04 49.1711734,39.128 49.3311734,39.304 C49.4911734,39.48 49.5711734,39.696 49.5711734,39.952 C49.5711734,40.2 49.4911734,40.412 49.3311734,40.588 C49.1791734,40.756 48.9071734,40.84 48.5151734,40.84 L48.5151734,40.84 Z" id="85MEUR" fill="#232F40" fill-rule="nonzero"></path>
                            </g>
                        </g>
                    </g>
                    <g id="Group-18" transform="translate(97.000000, 55.000000)">
                        <circle id="Oval" stroke="#A7F6FF" stroke-width="3" fill="#232F40" cx="21" cy="21" r="21"></circle>
                        <g id="Carbon" transform="translate(9.000000, 9.000000)">
                            <ellipse id="Oval" stroke="#FFFFFF" stroke-width="2" transform="translate(11.909910, 12.036784) rotate(-45.000000) translate(-11.909910, -12.036784) " cx="11.9099102" cy="12.0367838" rx="3.89011778" ry="12.6548401"></ellipse>
                            <ellipse id="Oval" stroke="#FFFFFF" stroke-width="2" transform="translate(11.909910, 12.036784) scale(-1, 1) rotate(-45.000000) translate(-11.909910, -12.036784) " cx="11.9099102" cy="12.0367838" rx="3.89011778" ry="12.6548401"></ellipse>
                            <path d="M12,14.1193987 C13.1525943,14.1193987 14.0869565,13.1850365 14.0869565,12.0324422 C14.0869565,10.879848 13.1525943,9.94548569 12,9.94548569 C10.8474057,9.94548569 9.91304348,10.879848 9.91304348,12.0324422 C9.91304348,13.1850365 10.8474057,14.1193987 12,14.1193987 Z" id="Oval" fill="#FFFFFF"></path>
                            <path d="M17.101776,5.35624901 C18.2543703,5.35624901 19.1887325,4.42188675 19.1887325,3.26929249 C19.1887325,2.11669823 18.2543703,1.18233597 17.101776,1.18233597 C15.9491817,1.18233597 15.0148195,2.11669823 15.0148195,3.26929249 C15.0148195,4.42188675 15.9491817,5.35624901 17.101776,5.35624901 Z" id="Oval" fill="#FFFFFF"></path>
                            <path d="M20.9362393,19.7176545 C22.0888335,19.7176545 23.0231958,18.7832922 23.0231958,17.630698 C23.0231958,16.4781037 22.0888335,15.5437414 20.9362393,15.5437414 C19.783645,15.5437414 18.8492827,16.4781037 18.8492827,17.630698 C18.8492827,18.7832922 19.783645,19.7176545 20.9362393,19.7176545 Z" id="Oval" fill="#FFFFFF"></path>
                            <path d="M2.93220079,8.67349532 C4.08479505,8.67349532 5.01915731,7.73913305 5.01915731,6.58653879 C5.01915731,5.43394453 4.08479505,4.49958227 2.93220079,4.49958227 C1.77960653,4.49958227 0.845244266,5.43394453 0.845244266,6.58653879 C0.845244266,7.73913305 1.77960653,8.67349532 2.93220079,8.67349532 Z" id="Oval" fill="#FFFFFF"></path>
                            <path d="M6.53465807,22.9713036 C7.68725233,22.9713036 8.62161459,22.0369414 8.62161459,20.8843471 C8.62161459,19.7317528 7.68725233,18.7973906 6.53465807,18.7973906 C5.38206381,18.7973906 4.44770155,19.7317528 4.44770155,20.8843471 C4.44770155,22.0369414 5.38206381,22.9713036 6.53465807,22.9713036 Z" id="Oval" fill="#FFFFFF"></path>
                        </g>
                    </g>
                </g>
            </g>
        </g>
    </g>
</svg>