<?xml version="1.0" encoding="UTF-8"?>
<svg width="44px" height="44px" viewBox="0 0 44 44" version="1.1" xmlns="http://www.w3.org/2000/svg" xmlns:xlink="http://www.w3.org/1999/xlink">
    <title>Group 29</title>
    <g id="Page-1" stroke="none" stroke-width="1" fill="none" fill-rule="evenodd">
        <g id="Slide-16" transform="translate(-738.000000, -317.000000)" stroke="#000000">
            <g id="Group-9" transform="translate(678.350000, 304.000000)">
                <g id="Group-29" transform="translate(61.000000, 14.000000)">
                    <circle id="Oval" fill="#FFFFFF" cx="21" cy="21" r="21"></circle>
                    <path d="M8.83325137,29.1174675 C9.3189133,28.8522259 10.1055093,28.6268466 10.9993564,28.4680974 C11.9485402,28.3432732 13.2899039,28.2642195 15.0234476,28.2309364 L15.4572937,26.2686519 C17.2320845,27.6411307 18.9337245,28.3273701 20.5622139,28.3273701 C22.1907032,28.3273701 23.7810978,27.6411307 25.3333976,26.2686519 L26.4449981,28.2309364 C28.1809116,28.2520914 29.529209,28.346809 30.4898901,28.5150891 C31.175674,28.7243249 31.7160847,28.9005384 32.2338274,29.1174675 C33.0507313,29.5194741 34.9997537,30.6100291 34.9997537,31.9130036 L34.9997537,36.554148 C32.9612844,38.3944098 28.1715552,41.9916875 20.8226574,41.9916875 C13.4737595,41.9916875 8.02635749,37.7771516 6.16342871,35.7560518 L6,31.9130036 C6,30.6264953 7.89868522,29.6627997 8.83325137,29.1174675 Z" id="Rectangle"></path>
                    <path d="M15.616429,25 C16.2284519,25.6954209 16.8800995,26.3893781 17.5713717,27.0818716 C18.3788662,27.8553776 19.295165,28.1464926 20.3202681,27.9552165 L18.4423863,34 L14,27.733073 L15.616429,25 Z" id="Rectangle" fill="#FFFFFF"></path>
                    <path d="M22.4543179,25 C22.9849492,25.6973128 23.5926635,26.3920859 24.2774609,27.0843192 C25.077392,27.8575346 25.984905,28.1484867 27,27.9571756 L25.1403171,34 L20.6833414,27.7260729 L22.4543179,25 Z" id="Rectangle" fill="#FFFFFF" transform="translate(23.841671, 29.500000) scale(-1, 1) translate(-23.841671, -29.500000) "></path>
                    <path d="M19.9838816,9.62518647 C20.0189017,9.3117426 19.9968563,9.05362958 19.9177455,8.85084741 C19.7834877,8.27678867 19.6357684,7.90651907 19.4745875,7.74003861 C19.1706243,7.40286345 18.7415384,7.18279229 18.1873296,7.07982513 C17.4554151,6.96251048 16.5981242,6.97450405 15.615457,7.11580584 C13.4886851,7.62179905 12.5208077,8.2567715 11.7887707,9.8699303 C11.1707985,11.486418 11.2645688,12.2944741 11.2835686,13.8729667 C11.2767362,15.3182625 11.2917113,15.9156684 11.1611701,16.8102107 C11.0647295,17.7519157 10.8527603,18.5982999 10.5252624,19.3493632 C9.81974384,21.2436175 8.64437868,22.1500966 8,22.8205681 C9.05374539,23.7743442 10.1604044,24.5052031 11.319977,25.0131447 C12.1987398,25.4151807 13.5718711,25.7128651 14.7102663,25.8814758 C16.3657734,26.067679 17.2294413,25.9997654 17.9580104,25.9119387 C18.036606,25.2265868 18.1751376,24.6757615 18.3736051,24.2594628 C18.6713064,23.6350147 19.9838816,9.62518647 19.9838816,9.62518647 Z" id="Path" fill="#FFFFFF"></path>
                    <path d="M32.5439486,9.86057254 C32.8659518,8.23117175 32.9890122,7.30635038 32.9131299,7.08610843 C33.0944302,6.75312436 32.9919465,6.36852514 32.6056787,5.93231077 C31.657513,4.86154194 31.0023433,6.24908112 30.2049558,6.081332 C29.2421489,5.97491099 28.5090736,5.94893315 28.0057298,6.00339849 C26.7091537,6.06517257 25.9206204,6.37887464 25.3013629,6.61110052 C23.5293935,7.24876571 21.9328094,7.86974546 21.4760239,9.75990083 C21.2981443,11.6502629 21.2684361,11.1451331 21.1495673,12.8288815 C21.1430137,14.3986189 21.1573778,15.0474621 21.0321638,16.0190254 C20.939659,17.0418124 20.7363402,17.9610711 20.4222074,18.7768018 C19.7454807,20.8341535 18.6180818,21.8186815 18,22.5468813 C19.0107424,23.5827786 20.0722391,24.3765653 21.1844899,24.9282412 C22.0273907,25.364893 23.344485,25.6882084 24.4364226,25.8713366 C26.0243691,26.0735721 26.852791,25.9998111 27.5516275,25.9044224 C27.6270157,25.1600609 27.7598938,24.5618089 27.9502619,24.1096664 C28.2358141,23.4314526 32.5439486,9.86057254 32.5439486,9.86057254 Z" id="Path" fill="#FFFFFF" transform="translate(25.500000, 15.761487) scale(-1, 1) translate(-25.500000, -15.761487) "></path>
                    <path d="M20.634103,28.2778023 C24.20732,28.2778023 27.1963728,24.6743002 27.9460938,19.9841427 C28.8575329,20.0879376 29.5092132,19.2824367 29.7818592,18.3412038 C29.9270246,17.7740115 30.131539,15.8421724 29.884624,14.9821621 C28.9874689,13.1479269 27.6920786,14.0555288 27.4567934,13.3316356 C26.2771129,9.70215605 23.6658795,6.28970595 20.634103,6.28970595 C17.593192,6.28970595 14.975362,9.71738266 13.8007887,13.3644715 C13.5691271,14.0837884 12.1630767,13.1059037 11.0728797,14.9821621 C10.9803186,15.6415102 10.9529276,17.6865101 11.1298385,18.3412038 C11.4627504,19.2513412 12.2894922,20.1820278 13.3109794,19.9133458 C14.0418064,24.6389872 17.0429297,28.2778023 20.634103,28.2778023 Z" id="Oval" fill="#FFFFFF"></path>
                    <path d="M14.6034334,10.3163796 C15.0739317,10.8837332 16.018796,11.4415577 17.3565368,12.0864843 C19.3383717,12.9673666 23.6392366,13.2183639 27.0389812,14.5613665 C29.2067063,15.4969643 30.165626,16.5645607 30.591588,17.0674876 C30.5689962,15.5552573 30.4654479,12.5928721 30.1649317,11.6857204 C29.6831791,9.45819375 28.9359292,8.06379418 27.8987226,7.15696574 C27.4004842,6.63954771 25.8916536,5.74284782 24.250613,5.31141471 C20.4403893,4.3595675 17.0995422,5.23313724 15.2166481,7.19875643 C14.0216228,8.6757842 14.0299368,9.57122405 14.6034334,10.3163796 Z" id="Path-2" fill="#FFFFFF"></path>
                </g>
            </g>
        </g>
    </g>
</svg>