<?xml version="1.0" encoding="UTF-8"?>
<svg width="46px" height="44px" viewBox="0 0 46 44" version="1.1" xmlns="http://www.w3.org/2000/svg" xmlns:xlink="http://www.w3.org/1999/xlink">
    <title>Group 16</title>
    <g id="Page-1" stroke="none" stroke-width="1" fill="none" fill-rule="evenodd">
        <g id="Slide-22" transform="translate(-335.000000, -344.000000)">
            <g id="Group-13" transform="translate(57.000000, 210.572329)">
                <g id="Group-11" transform="translate(218.350000, 121.427671)">
                    <g id="Group-16" transform="translate(61.000000, 13.000000)">
                        <g id="Group-31" stroke="#000000">
                            <circle id="Oval" fill="#FFFFFF" cx="21" cy="21" r="21"></circle>
                            <g id="Administrator,-Person,-Technologist,-User-2" transform="translate(6.000000, 6.000000)">
                                <path d="M2.92115749,23.6752981 C3.42188786,23.4028525 4.23288929,23.1713517 5.15446936,23.0082908 C6.13310309,22.8800764 7.51608476,22.7988756 9.30341435,22.7646885 L10.006604,21.1122212 C11.8364605,22.5219771 13.5908966,23.2268551 15.2699124,23.2268551 C16.9489282,23.2268551 18.5886673,22.5219771 20.1891297,21.1122212 L21.0793366,22.7646885 C22.8691096,22.7864181 24.25924,22.8837082 25.2497279,23.0565588 C25.9567893,23.2714776 26.5139671,23.4524771 27.0477736,23.6752981 C27.8900232,24.0882235 29.8995172,25.2083985 29.8995172,26.5467624 L29.8995172,29.746298 C28.7625115,31.0874719 23.3107418,36.0009544 14.7633669,36.0600847 C7.23661219,35.9188523 2.00944578,31.7560939 -2.27373675e-13,29.746298 L-2.27373675e-13,26.5467624 C-2.27373675e-13,25.2253119 1.95759495,24.2354419 2.92115749,23.6752981 Z" id="Rectangle"></path>
                                <path d="M10.006604,18.9901056 C10.7047675,19.9421875 11.4481326,20.611377 12.2366995,20.9976739 C13.1578466,21.4291625 14.0813303,21.6709304 15.0071505,21.7229775 L13.230307,25.7559965 L9.30341435,21.9998526 L10.006604,18.9901056 Z" id="Rectangle" fill="#FCFEFE"></path>
                                <path d="M16.2095444,18.9882184 C16.8205839,19.9415584 17.520387,20.611377 18.3089539,20.9976739 C19.230101,21.4291625 20.1535847,21.6709304 21.0794049,21.7229775 L19.3025614,25.7559965 L15.3217394,21.9945344 L16.2095444,18.9882184 Z" id="Rectangle" fill="#FCFEFE" transform="translate(18.200572, 22.372107) scale(-1, 1) translate(-18.200572, -22.372107) "></path>
                                <path d="M15.1439616,22.5003192 C18.7893391,22.5003192 21.8387553,18.9399285 22.6036168,14.1753241 C23.5334622,14.2807666 24.198303,13.4624799 24.476455,12.5063068 C24.6245521,11.9301114 24.8331966,9.9676082 24.5812952,9.09394696 C23.6660222,7.23059688 22.3444718,8.15260522 22.1044351,7.41722161 C20.9009311,3.73013128 18.2369643,1.16698586 15.1439616,1.16698586 C12.04164,1.16698586 9.37094341,3.74559958 8.17264981,7.45057875 C7.93630985,8.18131337 6.50186452,7.18790667 5.38965121,9.09394696 C5.29522083,9.76376084 5.26727673,11.8412211 5.4477603,12.5063068 C5.7873953,13.4308908 6.63083303,14.3763502 7.67294891,14.1034034 C8.41853489,18.904055 11.4802653,22.5003192 15.1439616,22.5003192 Z" id="Oval" fill="#FCFEFE"></path>
                                <path d="M22.9405487,3.55346979 C22.2063038,1.90401107 21.0041354,0.762239697 18.2751908,0.166842876 C16.7048197,-0.0449781471 13.4451547,-0.0660022065 11.8432059,0.166842876 C9.53182341,0.722712332 8.15710168,1.90401107 7.41824995,3.55346979 C6.36021531,6.34481887 8.49667253,11.0054296 8.75559604,9.93365111 C9.11452868,8.68391422 8.84253245,5.38719146 10.4993277,5.01367231 C11.9463034,4.75889387 12.5140428,7.91416296 15.0071505,7.91416296 C17.4882091,7.91416296 18.261733,4.57787342 19.5880674,5.01367231 C21.0139045,5.57865336 21.2328652,8.83679664 21.4301724,9.93365111 C21.6490257,11.1502835 23.827688,5.45329902 22.9405487,3.55346979 Z" id="Path" fill="#FCFEFE"></path>
                            </g>
                        </g>
                        <g id="Group-15" transform="translate(34.650000, 4.000000)">
                            <polygon id="Rectangle" stroke="#000000" fill="#000000" points="0 0 8 0 8 12 4 9.32374622 0 12"></polygon>
                            <polyline id="Rectangle" stroke="#FFFFFF" stroke-linecap="round" transform="translate(4.140910, 4.355917) scale(-1, 1) rotate(45.000000) translate(-4.140910, -4.355917) " points="6.14091014 3.35591703 6.14091014 5.35591703 2.14091014 5.35591703"></polyline>
                        </g>
                    </g>
                </g>
            </g>
        </g>
    </g>
</svg>