<?xml version="1.0" encoding="UTF-8"?>
<svg width="133px" height="38px" viewBox="0 0 133 38" version="1.1" xmlns="http://www.w3.org/2000/svg" xmlns:xlink="http://www.w3.org/1999/xlink">
    <title>Microsoft_Azure_Logo</title>
    <g id="Page-1" stroke="none" stroke-width="1" fill="none" fill-rule="evenodd">
        <g id="Slide-3" transform="translate(-897.000000, -547.000000)" fill="#FFFFFF" fill-rule="nonzero">
            <g id="Group-9" transform="translate(861.762506, 396.692420)">
                <g id="Group-16" transform="translate(35.237494, 17.307580)">
                    <g id="Microsoft_Azure_Logo" transform="translate(0.000000, 133.000000)">
                        <path d="M22.8854657,35.970662 C29.2410499,34.8572083 34.4903995,33.9358255 34.5506892,33.9231457 L34.660308,33.9000905 L28.6600099,26.8218793 C25.3598486,22.9288624 22.6597149,19.7285726 22.6597149,19.7101245 C22.6597149,19.6751967 28.8555294,2.75419876 28.8903602,2.6939575 C28.9020058,2.67387256 33.1184458,9.89330934 39.1112873,20.1943912 C44.7218954,29.8384486 49.3475696,37.7900085 49.3905638,37.8645209 L49.4687384,38 L30.3992964,37.9975606 L11.3298579,37.9951311 L22.8854657,35.970669 L22.8854657,35.970662 Z M96.0145438,34.2588369 C93.1118006,34.0742686 91.423553,32.435035 90.9761769,29.3667557 C90.8571702,28.5505431 90.8567153,28.5293661 90.8445367,23.2305322 L90.8327492,18.1021471 L92.1174284,18.1021471 L93.4021036,18.1021471 L93.4122204,23.0626171 C93.4213393,27.533351 93.4270606,28.0575383 93.4701594,28.3720416 C93.6450733,29.6484234 93.9932974,30.506762 94.5861489,31.1228626 C95.0606198,31.6159378 95.6160629,31.9046461 96.3849432,32.0578435 C96.7476825,32.1301168 97.7795882,32.1302615 98.1103043,32.058141 C98.8897984,31.8880186 99.5145551,31.5516104 100.065686,31.0052396 C100.693859,30.3824902 101.158569,29.4989387 101.383426,28.4998168 L101.45921,28.1630764 L101.467649,23.1606269 L101.476088,18.1581786 L102.787662,18.1581786 L104.099239,18.1581786 L104.099239,26.0221683 L104.099239,33.8861572 L102.801173,33.8861572 L101.503108,33.8861572 L101.503108,32.638461 C101.503108,31.7906921 101.493739,31.3938605 101.473889,31.4004231 C101.457822,31.4057382 101.391155,31.5068804 101.325741,31.6251907 C100.878422,32.4342497 100.13314,33.1741303 99.316482,33.6198844 C98.337576,34.1541962 97.3558602,34.3441856 96.0145468,34.2588964 L96.0145438,34.2588369 Z M125.47763,34.2461283 C124.452958,34.1697438 123.374037,33.8203672 122.492194,33.2793898 C120.633545,32.1391722 119.533789,30.2597236 119.211784,27.6732656 C119.100356,26.7782539 119.086964,25.5760244 119.179948,24.8155082 C119.387709,23.1161864 120.061027,21.4479896 121.019832,20.2570477 C121.265627,19.9517447 121.82323,19.3987478 122.131063,19.1549996 C122.962342,18.4967743 123.934689,18.03649 124.967056,17.8125117 C125.568562,17.6820115 126.627823,17.6207383 127.266889,17.6794769 C128.872272,17.827035 130.343624,18.5766602 131.343665,19.7565135 C132.359693,20.9552307 132.918157,22.630235 132.989474,24.6927863 C133.000652,25.0160208 133.003361,25.5827318 132.995503,25.952144 L132.981205,26.6238012 L127.358604,26.6308615 L121.736004,26.6379218 L121.736004,26.886759 C121.736004,27.6442726 121.921703,28.5070576 122.242738,29.2411283 C122.519581,29.8741519 122.996132,30.5653995 123.386314,30.8999127 C124.186349,31.5858035 125.165486,31.9963482 126.236907,32.0951463 C126.634177,32.1317767 127.646626,32.0932126 128.099348,32.0242256 C129.390995,31.8273652 130.618991,31.324935 131.61067,30.587583 C131.727344,30.5008301 131.839,30.4197781 131.858792,30.4074701 C131.887757,30.3894583 131.894602,30.6161149 131.893869,31.5688775 L131.892969,32.7526659 L131.627258,32.9156436 C130.505422,33.6037398 129.220243,34.0455761 127.859501,34.2109744 C127.453415,34.2603323 125.963287,34.2823204 125.477646,34.2461184 L125.47763,34.2461283 Z M130.370959,24.2619719 C130.370959,22.9930857 129.831779,21.5835104 129.068779,20.85769 C128.524258,20.3397003 127.866003,20.0231394 127.083467,19.9029362 C126.713247,19.8460667 125.932974,19.8679697 125.542648,19.9461877 C124.717514,20.1115384 124.035019,20.4712863 123.439748,21.0546416 C122.813262,21.6685865 122.343557,22.414274 122.048159,23.2638813 C121.941938,23.5693906 121.817699,24.0709621 121.779136,24.3499604 L121.760762,24.482893 L126.065859,24.482893 L130.370959,24.482893 L130.370959,24.2619719 Z M54.1014169,33.8511154 C54.1080031,33.831875 56.0173054,28.8574546 58.3443143,22.796848 L62.5752387,11.7773958 L63.9346579,11.7773958 L65.2940741,11.7773958 L65.4068656,12.0642497 C65.751544,12.9408499 73.8768771,33.8622037 73.8768771,33.8730728 C73.8768771,33.8802323 73.2260805,33.8858892 72.4306623,33.8858892 L70.9844476,33.88559 L69.8133666,30.7934384 L68.6422857,27.7012878 L63.9269689,27.7012313 L59.211651,27.7011757 L59.1706739,27.8061219 C59.1481386,27.8638421 58.6477993,29.2552113 58.0588048,30.8980553 L56.9879117,33.8850387 L55.5386776,33.8855345 C54.3915458,33.8858892 54.091941,33.878732 54.1014169,33.851042 L54.1014169,33.8511154 Z M67.7816114,25.341539 C67.7816114,25.3366404 66.9935194,23.217767 66.0302954,20.6329402 C64.2282696,15.7971754 64.1274637,15.5062192 63.9850879,14.7298668 C63.9183249,14.3658211 63.884544,14.3557046 63.8449167,14.6878885 C63.8165902,14.92533 63.693768,15.4566372 63.5990804,15.7513467 C63.552098,15.897572 62.7406068,18.106417 61.7957646,20.6598905 C60.8509245,23.2133642 60.0778726,25.3133432 60.0778726,25.32651 C60.0778726,25.3396777 61.8112148,25.3504507 63.9297425,25.3504507 C66.0482703,25.3504507 67.7816114,25.3464445 67.7816114,25.341536 L67.7816114,25.341539 Z M74.7516607,33.483375 L74.7516607,33.0806512 L79.4495556,26.6758463 L84.1474506,20.2710405 L79.8940021,20.2570477 L75.6405536,20.243055 L75.6331645,19.1726009 L75.6257753,18.1021471 L81.7778151,18.1021471 L87.9298539,18.1021471 L87.9298539,18.4636978 L87.9298539,18.8252482 L83.23142,25.2649819 C80.6472813,28.8068363 78.5329861,31.7106743 78.5329861,31.7179567 C78.5329861,31.7252352 80.6218844,31.7311968 83.1749818,31.7311968 L87.8169785,31.7311968 L87.8169785,32.8086468 L87.8169785,33.8860977 L81.2843186,33.8860977 L74.7516607,33.8860977 L74.7516607,33.483375 Z M109.225656,33.8674394 C109.215308,33.8571801 109.206842,30.3057913 109.206842,25.975465 L109.206842,18.1021471 L110.4908,18.1021471 L111.774756,18.1021471 L111.774756,19.7253191 C111.774756,20.6180639 111.785702,21.3484914 111.799083,21.3484914 C111.812464,21.3484914 111.874955,21.2023583 111.93795,21.0237517 C112.226627,20.205308 112.727248,19.4405585 113.372221,18.8327578 C113.953246,18.2852191 114.617306,17.957788 115.400874,17.832482 C115.620982,17.7972824 115.807225,17.7905622 116.247439,17.8019341 C116.800297,17.8162154 117.089339,17.8562937 117.425575,17.9652916 L117.531395,17.9995957 L117.531395,19.3213201 L117.531395,20.6430439 L117.228043,20.4924485 C116.692188,20.2264295 116.163457,20.1211571 115.527859,20.1539341 C115.114202,20.1752668 114.842689,20.2279447 114.511981,20.3510345 C113.831544,20.6042933 113.279612,21.0513147 112.893948,21.6615103 C112.335641,22.5448624 111.937451,23.6803232 111.820008,24.7239182 C111.798931,24.9111996 111.786504,26.4364652 111.781553,29.4433633 L111.774244,33.8860977 L110.509355,33.8860977 C109.813668,33.8860977 109.236003,33.8776987 109.225658,33.8674394 L109.225656,33.8674394 Z M0,33.8121487 C0,33.8021829 2.82731136,28.9347335 6.28291401,22.9955905 L12.565827,12.1971496 L19.8878358,6.10326134 C23.9149406,2.75162352 27.2206894,0.00527667038 27.2339428,0.000130322518 C27.2471962,-0.00473968588 27.1942205,0.127491884 27.1162189,0.294117803 C27.0382173,0.460743723 23.4604154,8.07136278 19.1655479,17.206604 L11.3566997,33.816133 L5.67834985,33.8231933 C2.55525813,33.8270805 0,33.8221025 0,33.8121447 L0,33.8121487 Z" id="path21"></path>
                    </g>
                </g>
            </g>
        </g>
    </g>
</svg>