<?xml version="1.0" encoding="UTF-8"?>
<svg width="90px" height="25px" viewBox="0 0 90 25" version="1.1" xmlns="http://www.w3.org/2000/svg" xmlns:xlink="http://www.w3.org/1999/xlink">
    <title>DAML_Logo_Monochrome-Light</title>
    <g id="Page-1" stroke="none" stroke-width="1" fill="none" fill-rule="evenodd">
        <g id="Slide-22" transform="translate(-367.000000, -512.000000)" fill-rule="nonzero">
            <g id="DAML_Logo_Monochrome-Light" transform="translate(367.000000, 512.000000)">
                <polygon id="Path" fill="#FFFFFF" points="74 0 67.5625261 0 61.09243 16.6938053 54.5462149 0 48 0 48 24 53.5240486 24 53.5240486 9.12212389 58.9828524 24 63.1802592 24 68.4650774 9.12212389 68.4650774 24 74 24"></polygon>
                <polygon id="Path" fill="#FFFFFF" points="83.3803787 19.2 83.3803787 0 78 0 78 24 90 24 90 19.2"></polygon>
                <path d="M0,0 L0,24 L8.68784392,24 C10.6523262,24 12.3961981,23.660177 13.929965,22.9911505 C15.4637319,22.3221239 16.755878,21.419469 17.8064032,20.3044248 C18.8569285,19.1893805 19.6448224,17.9044248 20.1910955,16.460177 C20.7268634,15.0159292 21,13.539823 21,12 C21,10.4707965 20.7268634,8.98407079 20.170085,7.53982302 C19.6133066,6.09557522 18.8149075,4.82123894 17.7643822,3.69557522 C16.7138569,2.58053097 15.4322161,1.67787611 13.9089545,1.00884956 C12.3961981,0.33982301 10.6523262,0 8.68784392,0 L0,0 Z M8.41470735,4.8 C9.51775889,4.8 10.5052526,5.0017699 11.3771886,5.39469027 C12.2491246,5.7982301 12.973987,6.32920354 13.5727864,7.00884955 C14.1715858,7.68849557 14.6233117,8.45309735 14.9384692,9.32389381 C15.2536268,10.1946903 15.4112056,11.0867257 15.4112056,12 C15.4112056,12.9345133 15.2536268,13.8371681 14.9384692,14.6867257 C14.6233117,15.5469026 14.1610805,16.3115044 13.5727864,16.980531 C12.973987,17.660177 12.2386193,18.1911504 11.3771886,18.5946903 C10.5052526,18.9982301 9.51775889,19.1893805 8.41470735,19.1893805 L5.47323661,19.1893805 L5.47323661,4.8 L8.41470735,4.8 Z" id="Shape" fill="#FFFFFF"></path>
                <g id="Group" transform="translate(31.000000, 0.000000)">
                    <polygon id="Path" fill="#517CD9" points="0.0426229508 0.0107473545 5.40245901 0.0107473545 12.9040984 24.0740741 7.54426229 24.0740741"></polygon>
                    <polygon id="Path" fill="#FFFFFF" points="0.0426229508 0.0107473545 5.40245901 0.0107473545 12.9040984 24.0740741 7.54426229 24.0740741"></polygon>
                </g>
                <polygon id="Path" fill="#FFFFFF" points="31 16 28.33687 24 23 24 25.66313 16"></polygon>
                <polygon id="Path" fill="#FFFFFF" points="36 0 33.2877793 8 28 8 30.7122207 0"></polygon>
            </g>
        </g>
    </g>
</svg>