<?xml version="1.0" encoding="UTF-8"?>
<svg width="122px" height="79px" viewBox="0 0 122 79" version="1.1" xmlns="http://www.w3.org/2000/svg" xmlns:xlink="http://www.w3.org/1999/xlink">
    <title>ethereum</title>
    <g id="Page-1" stroke="none" stroke-width="1" fill="none" fill-rule="evenodd">
        <g id="Slide-2" transform="translate(-975.000000, -414.000000)" fill="#FFFFFF" fill-rule="nonzero">
            <g id="ethereum" transform="translate(975.000000, 414.000000)">
                <path d="M11.0112821,73.3354991 C11.0112821,73.5894861 10.7860513,73.7962197 10.5170256,73.7962197 L0.994769231,73.7962197 C1.23251282,76.0171294 3.00307692,78.0431187 5.49312821,78.0431187 C7.19487179,78.0431187 8.45866667,77.4288246 9.40964103,76.1470762 C9.54728205,75.969876 9.75374359,75.8576491 10.0165128,75.9639693 C10.1604103,76.023036 10.2605128,76.1470762 10.2855385,76.2888364 C10.3105641,76.4365032 10.2667692,76.5191967 10.2229744,76.6018901 C9.26574359,78.1789722 7.35753846,78.9527466 5.48687179,78.9527466 C2.28358974,78.9527466 7.10542736e-15,76.2474897 7.10542736e-15,73.3532191 C7.10542736e-15,70.4589486 2.28358974,67.753682 5.48687179,67.753682 C8.69015385,67.747785 11.0050256,70.4471353 11.0112821,73.3354991 M9.99148718,72.8984052 C9.78502564,70.6774956 7.98317949,68.6515062 5.49312821,68.6515062 C3.00307692,68.6515062 1.23251282,70.6774956 0.994769231,72.8984052 L9.99148718,72.8984052 Z M22.5668718,67.9722386 C22.8421538,67.9722386 23.042359,68.1966923 23.042359,68.4211459 C23.042359,68.6810396 22.8358974,68.8700532 22.5668718,68.8700532 L20.0142564,68.8700532 L20.0142564,78.3266391 C20.0142564,78.5510927 19.8077949,78.7755464 19.5387692,78.7755464 C19.2634872,78.7755464 19.0632821,78.5510927 19.0632821,78.3266391 L19.0632821,68.8700532 L16.6107692,68.8700532 C16.3354872,68.8700532 16.1352821,68.6751329 16.1352821,68.4211459 C16.1352821,68.1966923 16.3417436,67.9722386 16.6107692,67.9722386 L19.0632821,67.9722386 L19.0632821,64.5109273 C19.0632821,64.2923804 19.2196923,64.0915535 19.4449231,64.0561134 C19.764,64.00886 20.0142564,64.2155936 20.0142564,64.499114 L20.0142564,67.9722386 L22.5668718,67.9722386 Z M38.1390769,72.5440047 L38.1390769,78.273479 C38.1390769,78.5333727 37.9013333,78.7223863 37.6635897,78.7223863 C37.3883077,78.7223863 37.1881026,78.527466 37.1881026,78.273479 L37.1881026,72.5440047 C37.1881026,70.6125222 36.0306667,68.6810396 33.7470769,68.6810396 C30.8190769,68.6810396 29.5552821,71.0968695 29.7242051,73.5717661 C29.7242051,73.6367395 29.7554872,73.9261666 29.7554872,73.9556999 L29.7554872,78.255759 C29.7554872,78.474306 29.5990769,78.6751329 29.3738462,78.7105729 C29.0547692,78.7578263 28.8045128,78.5510927 28.8045128,78.2675724 L28.8045128,59.4489073 C28.8045128,59.2244536 29.0109744,59 29.28,59 C29.5552821,59 29.7554872,59.2244536 29.7554872,59.4489073 L29.7554872,70.0986415 C30.5750769,68.7164796 32.0390769,67.783225 33.7408205,67.783225 C36.5374359,67.783225 38.1390769,70.0986415 38.1390769,72.5440047 M55.2128205,73.3354991 C55.2128205,73.5894861 54.9875897,73.7962197 54.7185641,73.7962197 L45.1900513,73.7962197 C45.4277949,76.0171294 47.198359,78.0431187 49.6884103,78.0431187 C51.3901538,78.0431187 52.6539487,77.4288246 53.6049231,76.1470762 C53.7425641,75.969876 53.9490256,75.8576491 54.2117949,75.9639693 C54.3556923,76.023036 54.4557949,76.1470762 54.4808205,76.2888364 C54.5058462,76.4365032 54.4620513,76.5191967 54.4182564,76.6018901 C53.4610256,78.1789722 51.5528205,78.9527466 49.6821538,78.9527466 C46.4788718,78.9527466 44.1952821,76.2474897 44.1952821,73.3532191 C44.1952821,70.4589486 46.4788718,67.753682 49.6821538,67.753682 C52.8916923,67.747785 55.2065641,70.4471353 55.2128205,73.3354991 M54.1867692,72.8984052 C53.9803077,70.6774956 52.1784615,68.6515062 49.6884103,68.6515062 C47.198359,68.6515062 45.4277949,70.6774956 45.1900513,72.8984052 L54.1867692,72.8984052 Z M66.8997949,68.3916125 C66.8997949,68.6810396 66.7308718,68.8405198 66.4555897,68.8759598 C63.6589744,69.2598937 62.4014359,71.4158299 62.4014359,73.9261666 L62.4014359,78.2262256 C62.4014359,78.4447726 62.2450256,78.6455995 62.0197949,78.6810396 C61.7007179,78.728293 61.4504615,78.5215594 61.4504615,78.238039 L61.4504615,68.4388659 C61.4504615,68.220319 61.6068718,68.019492 61.8321026,67.984052 C62.1511795,67.9367986 62.4014359,68.1435322 62.4014359,68.4270526 L62.4014359,70.4235086 C63.1834872,69.1712936 64.7538462,67.9781453 66.3867692,67.9781453 C66.6245128,67.9722386 66.8997949,68.1376255 66.8997949,68.3916125 M82.5408205,73.3354991 C82.5408205,73.5894861 82.3155897,73.7962197 82.0465641,73.7962197 L72.5243077,73.7962197 C72.7620513,76.0171294 74.5326154,78.0431187 77.0226667,78.0431187 C78.7244103,78.0431187 79.9882051,77.4288246 80.9391795,76.1470762 C81.0768205,75.969876 81.2832821,75.8576491 81.5460513,75.9639693 C81.6899487,76.023036 81.7900513,76.1470762 81.8150769,76.2888364 C81.8401026,76.4365032 81.7963077,76.5191967 81.7525128,76.6018901 C80.7952821,78.1789722 78.8870769,78.9527466 77.0164103,78.9527466 C73.8131282,78.9527466 71.5295385,76.2474897 71.5295385,73.3532191 C71.5295385,70.4589486 73.8131282,67.753682 77.0164103,67.753682 C80.2196923,67.747785 82.5345641,70.4471353 82.5408205,73.3354991 M81.5210256,72.8984052 C81.3145641,70.6774956 79.5127179,68.6515062 77.0226667,68.6515062 C74.5326154,68.6515062 72.7620513,70.6774956 72.5243077,72.8984052 L81.5210256,72.8984052 L81.5210256,72.8984052 Z M97.9128205,68.5038393 L97.9128205,78.3266391 C97.9128205,78.5865328 97.6750769,78.7755464 97.4373333,78.7755464 C97.1620513,78.7755464 96.9618462,78.5806261 96.9618462,78.3266391 L96.9618462,76.4601299 C96.1797949,77.9427053 94.778359,79 93.0077949,79 C90.1798974,79 88.6095385,76.6845836 88.6095385,74.2392203 L88.6095385,68.4802126 C88.6095385,68.255759 88.816,68.0313054 89.0850256,68.0313054 C89.3603077,68.0313054 89.5605128,68.255759 89.5605128,68.4802126 L89.5605128,74.2392203 C89.5605128,76.1707029 90.7179487,78.1021855 93.0015385,78.1021855 C96.2048205,78.1021855 96.9555897,75.2728884 96.9555897,72.1482575 L96.9555897,68.4802126 C96.9555897,68.220319 97.2308718,67.9545186 97.5687179,68.0490254 C97.7751795,68.1139988 97.9128205,68.3030124 97.9128205,68.5038393 M122,72.5085647 L122,78.2675724 C122,78.527466 121.762256,78.7164796 121.524513,78.7164796 C121.249231,78.7164796 121.049026,78.5215594 121.049026,78.2675724 L121.049026,72.5085647 C121.049026,70.5770821 119.89159,68.6810396 117.608,68.6810396 C114.742564,68.6810396 113.653949,71.5753101 113.653949,73.8257531 L113.653949,78.2675724 C113.653949,78.527466 113.416205,78.7164796 113.178462,78.7164796 C112.903179,78.7164796 112.702974,78.5215594 112.702974,78.2675724 L112.702974,72.5085647 C112.702974,70.5770821 111.545538,68.6810396 109.261949,68.6810396 C106.365231,68.6810396 105.170256,70.8369758 105.276615,73.7017129 C105.276615,73.7666864 105.307897,73.8966332 105.276615,73.9261666 L105.276615,78.255759 C105.276615,78.474306 105.120205,78.6751329 104.888718,78.7105729 C104.569641,78.7578263 104.319385,78.5510927 104.319385,78.2675724 L104.319385,68.4388659 C104.319385,68.220319 104.475795,68.019492 104.701026,67.984052 C105.020103,67.9367986 105.270359,68.1435322 105.270359,68.4270526 L105.270359,70.0691081 C106.089949,68.6869462 107.553949,67.783225 109.255692,67.783225 C111.195179,67.783225 112.696718,68.9409333 113.309846,70.6479622 C114.091897,68.9763733 115.624718,67.783225 117.601744,67.783225 C120.398359,67.783225 122,70.0632014 122,72.5085647" id="Shape"></path>
                <g id="Group" opacity="0.6" transform="translate(43.000000, 16.000000)">
                    <polygon id="Path" points="18.0298247 0.0287501369 0.0423451497 8.8807179 18.0298247 17.9783886 35.9472859 8.8807179"></polygon>
                </g>
                <g id="Group" opacity="0.45" transform="translate(43.000000, 0.000000)" fill-opacity="0.45">
                    <polygon id="Path" points="0.0423451497 25.0683574 17.9966886 33.9946169 17.9966886 0"></polygon>
                </g>
                <g id="Group" opacity="0.8" transform="translate(61.000000, 0.000000)" fill-opacity="0.95">
                    <polygon id="Path" points="0 0 0 33.9946169 17.9472859 25.0683574"></polygon>
                </g>
                <g id="Group" opacity="0.45" transform="translate(43.000000, 30.000000)" fill-opacity="0.45">
                    <polygon id="Path" points="0.0423451497 0.0192317555 17.9966886 22.994769 17.9966886 9.65434125"></polygon>
                </g>
                <g id="Group" opacity="0.8" transform="translate(61.000000, 30.000000)">
                    <polygon id="Path" points="0 9.65434125 0 22.994769 17.961401 0.0192317555"></polygon>
                </g>
            </g>
        </g>
    </g>
</svg>