<?xml version="1.0" encoding="UTF-8"?>
<svg width="178px" height="44px" viewBox="0 0 178 44" version="1.1" xmlns="http://www.w3.org/2000/svg" xmlns:xlink="http://www.w3.org/1999/xlink">
    <title>IBM Cloud</title>
    <g id="Page-1" stroke="none" stroke-width="1" fill="none" fill-rule="evenodd">
        <g id="Slide-3" transform="translate(-254.000000, -579.000000)">
            <g id="Group-18" transform="translate(145.000000, 495.000000)">
                <g id="Group-17" transform="translate(11.000000, 0.000000)">
                    <g id="IBM-Cloud" transform="translate(99.234929, 85.946592)">
                        <g id="Group-4" transform="translate(0.765071, 0.053408)" stroke="#FFFFFF" stroke-linecap="round" stroke-width="2">
                            <g id="Group-3">
                                <path d="M31.6245274,12.8914819 C25.3131751,8.95861672 19.2522967,8.85056688 13.4418922,12.5673324 C8.10172868,17.3322961 6.39067732,23.019398 8.3087381,29.6286381" id="Path-31"></path>
                                <path d="M4.8009514,22.3876602 C0.974978586,25.2914279 -0.564249359,28.7365269 0.183267565,32.7229571 C0.842330464,36.8299604 5.52428242,39.9217311 6.93890352,39.8919963 L35.6994141,39.8919963 C36.839591,39.9837944 45.145484,37.8181739 44.9938388,27.6043154 C44.7187379,23.0498863 41.5010927,19.2998428 38.0110334,17.9310139 C33.5015951,16.3764846 29.2974021,17.3679729 25.3984544,20.9054789" id="Path-32"></path>
                                <line x1="1.24153267" y1="12.4327672" x2="5.46368556" y2="14.9400123" id="Line-3"></line>
                                <line x1="10.2379729" y1="3.36828316" x2="12.6359577" y2="7.61584864" id="Line-3"></line>
                                <line x1="22.5049499" y1="1.49587944e-14" x2="22.5172147" y2="4.95686508" id="Line-3"></line>
                                <line x1="34.8076263" y1="3.35893856" x2="32.2869516" y2="7.663632" id="Line-3"></line>
                                <line x1="43.7144898" y1="12.4932846" x2="39.4934319" y2="14.993855" id="Line-3"></line>
                                <line x1="34.8076263" y1="3.35893856" x2="32.2869516" y2="7.663632" id="Line-3"></line>
                            </g>
                        </g>
                        <g id="ibm-cloud-logo-vector" transform="translate(57.765071, 14.053408)" fill="#FFFFFF" fill-rule="nonzero">
                            <path d="M114.222829,0.417910448 C115.130521,0.179104478 116.067494,0.388059701 117.004467,0.298507463 C117.29727,0.268656716 117.619355,0.268656716 117.912159,0.268656716 L117.912159,19.4626866 C116.916625,19.4626866 115.921092,19.4328358 114.954839,19.4328358 C114.720596,19.4328358 114.457072,19.5522388 114.222829,19.3134328 C114.720596,18.8955224 115.306203,19.0746269 115.833251,19.0447761 C117.648635,19.0149254 117.502233,19.1940299 117.502233,17.2835821 C117.502233,12.238806 117.502233,7.19402985 117.502233,2.14925373 C117.502233,1.88059701 117.502233,1.64179104 117.502233,1.37313433 C117.531514,0.835820896 117.23871,0.626865672 116.770223,0.626865672 C116.272457,0.626865672 115.686849,0.626865672 115.159801,0.626865672 C114.808437,0.656716418 114.457072,0.71641791 114.222829,0.417910448 Z" id="Path"></path>
                            <path d="M117.765757,1.04477612 C117.765757,0.597014925 117.648635,0.447761194 117.209429,0.447761194 C116.213896,0.47761194 115.218362,0.447761194 114.222829,0.417910448 C114.017866,0.626865672 114.134988,0.925373134 114.134988,1.1641791 C114.134988,3.25373134 114.134988,5.34328358 114.105707,7.43283582 C114.105707,7.64179104 114.222829,7.88059701 113.959305,8.05970149 C113.637221,7.10447761 112.934491,6.29850746 111.997519,5.94029851 C109.830769,5.04477612 107.341935,5.94029851 106.22928,8.02985075 C105.790074,8.89552239 105.526551,9.82089552 105.409429,10.7761194 C105.175186,13.0149254 105.175186,15.2537313 106.258561,17.3134328 C107.546898,19.8208955 111.001985,20.5373134 112.993052,18.7164179 C113.432258,18.2686567 113.783623,17.7313433 114.017866,17.1343284 C114.193548,17.9402985 113.959305,18.6567164 114.193548,19.3134328 C115.189082,19.3134328 116.184615,19.2835821 117.180149,19.2835821 C117.619355,19.2835821 117.765757,19.1343284 117.736476,18.7164179 C117.736476,12.8358209 117.736476,6.92537313 117.765757,1.04477612 Z M114.105707,14.2089552 C114.105707,15.8507463 113.168734,16.7164179 111.529032,16.5970149 C110.387097,16.5671642 109.420844,15.7014925 109.274442,14.5373134 C109.069479,13.3134328 109.069479,12.0597015 109.245161,10.8059701 C109.537965,8.80597015 111.733995,7.94029851 113.344417,9.1641791 C113.812903,9.46268657 114.076427,10 114.076427,10.5373134 C114.076427,11.2238806 114.076427,11.9402985 114.076427,12.6268657 L114.076427,12.6268657 C114.105707,13.1641791 114.105707,13.7014925 114.105707,14.2089552 Z" id="Shape"></path>
                            <path d="M56.0426799,10.4776119 C56.0719603,11.2835821 55.9841191,12.1492537 56.1598015,13.0447761 C56.4818859,14.8059701 57.4774194,15.880597 59.1171216,16.1791045 C60.7568238,16.4776119 62.2208437,15.7910448 63.0114144,14.238806 C63.3042184,13.6716418 63.4799007,13.6119403 63.9776675,13.9402985 C64.6511166,14.3880597 65.3245658,14.7761194 66.0272953,15.1343284 C66.37866,15.3134328 66.37866,15.4925373 66.2029777,15.8507463 C64.7389578,18.7462687 61.7230769,20.1791045 58.2387097,19.6119403 C55.4277916,19.1343284 53.5245658,17.5820896 52.6168734,14.8358209 C51.5920596,11.641791 51.5920596,8.41791045 52.9682382,5.34328358 C54.2565757,2.50746269 56.9210918,1.01492537 59.9662531,1.13432836 C62.6600496,1.2238806 64.7389578,2.26865672 66.0565757,4.74626866 C66.2908189,5.1641791 66.3493797,5.43283582 65.7930521,5.67164179 C65.0024814,6.02985075 64.2704715,6.47761194 63.4799007,6.89552239 C63.2456576,7.01492537 63.0406948,7.1641791 62.8942928,6.7761194 C62.2208437,4.74626866 60.2590571,4.3880597 58.6193548,4.80597015 C56.9796526,5.2238806 56.0133995,6.68656716 55.9841191,8.65671642 C56.0133995,9.19402985 56.0426799,9.79104478 56.0426799,10.4776119 Z" id="Path"></path>
                            <path d="M41.1389578,4.32835821 C39.382134,7.94029851 37.4203474,11.4328358 35.4585608,15.0746269 C33.5260546,11.4328358 31.564268,7.94029851 29.6317618,4.35820896 L29.6317618,5.25373134 C29.6317618,9.70149254 29.6317618,14.1492537 29.6317618,18.5970149 C29.6317618,19.1641791 29.573201,19.4328358 28.8997519,19.4029851 C27.5235732,19.3432836 27.5235732,19.4029851 27.5235732,17.9701493 C27.5235732,12.6865672 27.5235732,7.40298507 27.5235732,2.11940299 C27.5235732,1.55223881 27.6406948,1.37313433 28.2263027,1.37313433 C30.3052109,1.40298507 30.3052109,1.37313433 31.3007444,3.25373134 L35.3414392,10.9552239 C35.3707196,10.9850746 35.3707196,10.9850746 35.4,11.0149254 C35.6635236,11.0149254 35.6635236,10.7462687 35.7513648,10.5970149 C37.244665,7.76119403 38.7379653,4.92537313 40.2312655,2.08955224 C40.4947891,1.6119403 40.7583127,1.31343284 41.3439206,1.40298507 C41.9880893,1.49253731 42.8372208,1.13432836 43.2471464,1.55223881 C43.657072,1.97014925 43.364268,2.8358209 43.364268,3.49253731 C43.364268,8.50746269 43.364268,13.5223881 43.3935484,18.5671642 C43.3935484,19.2238806 43.2764268,19.4626866 42.5736973,19.4328358 C41.2853598,19.3731343 41.2853598,19.4328358 41.2853598,18.119403 L41.2853598,4.41791045 L41.1389578,4.32835821 Z" id="Path"></path>
                            <path d="M20.7890819,10.119403 C20.7305211,9.97014925 20.3791563,10.1492537 20.4962779,9.82089552 C21.169727,9.6119403 21.755335,9.2238806 22.1945409,8.68656716 C23.6,6.89552239 23.1022333,3.55223881 21.2282878,2.26865672 C20.2913151,1.67164179 19.2079404,1.37313433 18.0952854,1.40298507 C15.9578164,1.40298507 13.8203474,1.43283582 11.653598,1.37313433 C11.0972705,1.37313433 10.9801489,1.55223881 10.9801489,2.08955224 C11.0094293,5.49253731 10.9801489,8.89552239 10.9801489,12.2985075 C10.9801489,14.4477612 10.9801489,16.6268657 10.9801489,18.7761194 C10.9801489,19.1044776 10.9215881,19.4029851 11.4193548,19.4029851 C14.083871,19.3731343 16.7776675,19.4328358 19.4421836,19.3134328 C21.5503722,19.2238806 23.160794,17.4328358 23.4828784,15.1044776 C23.8635236,12.6865672 22.9558313,10.9850746 20.7890819,10.119403 Z M13.1468983,3.79104478 C13.1468983,3.46268657 13.2640199,3.34328358 13.5861042,3.34328358 C15.2258065,3.37313433 16.8362283,3.31343284 18.4759305,3.37313433 C19.764268,3.43283582 20.5255583,4.17910448 20.7012407,5.49253731 C20.7598015,6 20.7598015,6.53731343 20.7305211,7.04477612 C20.5841191,8.26865672 19.764268,9.04477612 18.5344913,9.13432836 C17.6853598,9.19402985 16.8655087,9.13432836 16.0163772,9.13432836 L16.0163772,9.1641791 C15.2258065,9.1641791 14.4352357,9.1641791 13.644665,9.1641791 C13.2933002,9.1641791 13.1468983,9.07462687 13.1468983,8.68656716 C13.1468983,7.07462687 13.1468983,5.43283582 13.1468983,3.79104478 Z M21.316129,15.0149254 C21.1990074,16.4477612 20.4084367,17.3731343 19.0029777,17.4328358 C17.1875931,17.5223881 15.4014888,17.4626866 13.5861042,17.4925373 C13.2347395,17.4925373 13.1468983,17.3432836 13.1761787,17.0149254 C13.2054591,16.0895522 13.1761787,15.1343284 13.1761787,14.2089552 C13.1761787,13.3134328 13.2054591,12.4477612 13.1761787,11.5522388 C13.1761787,11.1641791 13.2640199,11.0149254 13.6739454,11.0149254 C15.3136476,11.0447761 16.9826303,10.9850746 18.6516129,11.0447761 C20.2913151,11.0746269 21.1990074,11.9701493 21.3454094,13.6716418 C21.3454094,14.119403 21.3454094,14.5671642 21.316129,15.0149254 L21.316129,15.0149254 Z" id="Shape"></path>
                            <path d="M87.7533499,9.64179104 C86.9334988,7.13432836 84.9424318,5.67164179 82.2779156,5.58208955 C79.3498759,5.49253731 77.2709677,6.80597015 76.3047146,9.37313433 C75.6898263,11.1044776 75.5727047,12.9552239 75.9533499,14.7462687 C76.626799,18.1492537 79.8769231,20.358209 83.2148883,19.6716418 C84.0347395,19.4925373 84.8253102,19.1641791 85.4987593,18.6865672 C87.6069479,17.2238806 88.1047146,15.0447761 88.1925558,12.6268657 C88.2218362,11.6119403 88.0461538,10.6268657 87.7533499,9.64179104 Z M84.2397022,14.8059701 C84.0347395,16.0298507 83.1856079,16.7164179 81.9265509,16.7164179 C80.7260546,16.7164179 79.9062035,16.0298507 79.7305211,14.7761194 C79.5548387,13.3432836 79.5548387,11.9104478 79.7305211,10.5074627 C79.9062035,9.25373134 80.8138958,8.56716418 82.0436725,8.59701493 C83.2441687,8.62686567 84.0347395,9.31343284 84.2397022,10.5671642 C84.3861042,11.3134328 84.298263,12.0597015 84.3275434,13.0746269 C84.3568238,13.6119403 84.3275434,14.2089552 84.2397022,14.8059701 Z" id="Shape"></path>
                            <path d="M98.7334988,17.2238806 C98.1186104,18.2985075 97.4158809,19.1940299 96.1861042,19.5223881 C93.6679901,20.2089552 91.6183623,19.0447761 90.9741935,16.4776119 C90.7985112,15.7313433 90.7399504,14.9850746 90.7399504,14.238806 C90.7399504,11.6716418 90.7399504,9.07462687 90.7399504,6.50746269 C90.7399504,6.02985075 90.7985112,5.82089552 91.3548387,5.85074627 C92.2039702,5.91044776 93.0238213,5.91044776 93.8729529,5.85074627 C94.3707196,5.82089552 94.5171216,6 94.4878412,6.50746269 C94.4585608,8.86567164 94.4878412,11.1940299 94.4878412,13.5223881 C94.4878412,13.8208955 94.4878412,14.1492537 94.5171216,14.4477612 C94.5756824,15.8507463 95.2784119,16.6567164 96.5081886,16.5970149 C97.7672457,16.5074627 98.82134,15.8208955 98.7920596,14.3283582 C98.7334988,11.7313433 98.7920596,9.10447761 98.7627792,6.53731343 C98.7627792,5.97014925 98.9091811,5.82089552 99.4362283,5.85074627 C100.31464,5.91044776 101.163772,5.88059701 102.042184,5.85074627 C102.422829,5.85074627 102.51067,5.97014925 102.51067,6.32835821 C102.51067,10.5074627 102.51067,14.6865672 102.51067,18.8955224 C102.51067,19.3134328 102.364268,19.4029851 101.983623,19.4029851 C101.105211,19.3731343 100.197519,19.3731343 99.3191067,19.4029851 C98.9384615,19.4029851 98.7627792,19.2835821 98.7920596,18.8955224 C98.7627792,18.3283582 98.7334988,17.7910448 98.7334988,17.2238806 Z" id="Path"></path>
                            <path d="M72.6739454,8.41791045 C72.6739454,10.8656716 72.7032258,13.3134328 72.644665,15.761194 C72.644665,16.358209 72.8203474,16.5671642 73.3766749,16.4776119 C74.1965261,16.3283582 74.48933,16.6865672 74.342928,17.4626866 C74.342928,17.5820896 74.342928,17.7313433 74.342928,17.8507463 C74.342928,19.4626866 74.342928,19.4626866 72.791067,19.4029851 C72.3225806,19.4029851 71.8833747,19.3731343 71.4148883,19.2835821 C70.1851117,19.0746269 69.2188586,18.0895522 69.0431762,16.8358209 C68.955335,16.3283582 68.8967742,15.8208955 68.8967742,15.2835821 C68.8967742,10.5671642 68.8967742,5.82089552 68.8674938,1.10447761 C68.8674938,0.507462687 68.9846154,0.268656716 69.5995037,0.328358209 C70.3900744,0.388059701 71.1806452,0.388059701 71.9712159,0.328358209 C72.4689826,0.298507463 72.6739454,0.447761194 72.644665,1.01492537 C72.6739454,3.49253731 72.6739454,5.94029851 72.6739454,8.41791045 Z" id="Path"></path>
                            <path d="M4.68486352,10.4477612 C4.68486352,12.6268657 4.68486352,14.8059701 4.68486352,16.9850746 C4.68486352,17.4626866 4.80198511,17.641791 5.29975186,17.5820896 C5.59255583,17.5522388 5.9146402,17.6119403 6.20744417,17.5820896 C6.99801489,17.4626866 7.23225806,17.761194 7.20297767,18.5671642 C7.17369727,19.2537313 7.05657568,19.4626866 6.35384615,19.4328358 C4.50918114,19.3731343 2.63523573,19.4029851 0.761290323,19.4328358 C0.263523573,19.4328358 -3.3292813e-14,19.3134328 0.0878411911,18.7462687 C0.117121588,18.5671642 0.117121588,18.3880597 0.0878411911,18.2089552 C0.029280397,17.761194 0.146401985,17.5522388 0.644168734,17.5820896 C1.11265509,17.641791 1.55186104,17.5522388 2.02034739,17.6119403 C2.48883375,17.641791 2.57667494,17.4626866 2.57667494,17.0149254 C2.57667494,12.5970149 2.57667494,8.17910448 2.57667494,3.76119403 C2.57667494,3.37313433 2.48883375,3.19402985 2.07890819,3.2238806 C1.72754342,3.25373134 1.34689826,3.19402985 1.0248139,3.2238806 C0.29280397,3.34328358 0.0878411911,3.10447761 0.0878411911,2.32835821 C0.0878411911,1.55223881 0.263523573,1.37313433 1.0248139,1.40298507 C2.86947891,1.46268657 4.68486352,1.43283582 6.52952854,1.40298507 C7.05657568,1.40298507 7.29081886,1.52238806 7.20297767,2.08955224 C7.17369727,2.32835821 7.17369727,2.56716418 7.20297767,2.80597015 C7.23225806,3.1641791 7.08585608,3.25373134 6.76377171,3.25373134 C6.29528536,3.2238806 5.79751861,3.28358209 5.29975186,3.2238806 C4.80198511,3.1641791 4.68486352,3.34328358 4.71414392,3.82089552 C4.68486352,6.02985075 4.68486352,8.23880597 4.68486352,10.4477612 Z" id="Path"></path>
                        </g>
                    </g>
                </g>
            </g>
        </g>
    </g>
</svg>