<?xml version="1.0" encoding="UTF-8"?>
<svg width="56px" height="56px" viewBox="0 0 56 56" version="1.1" xmlns="http://www.w3.org/2000/svg" xmlns:xlink="http://www.w3.org/1999/xlink">
    <title>Group 10</title>
    <defs>
        <polygon id="path-1" points="0.130035115 0.160758621 32.9501725 0.160758621 32.9501725 6.88276207 0.130035115 6.88276207"></polygon>
    </defs>
    <g id="Page-1" stroke="none" stroke-width="1" fill="none" fill-rule="evenodd">
        <g id="Slide-23a" transform="translate(-138.000000, -231.000000)">
            <g id="Group-13" transform="translate(57.000000, 210.572329)">
                <g id="Group-10" transform="translate(82.000000, 21.427671)">
                    <circle id="Oval" stroke="#000000" fill="#FFFFFF" cx="27" cy="27" r="27"></circle>
                    <g id="Group-6" transform="translate(6.000000, 12.000000)">
                        <polygon id="Fill-1" fill="#000000" points="2 34 39.8468214 34 42 32 0.411564308 32"></polygon>
                        <polygon id="Fill-1" fill="#000000" points="10.542682 40 31.4926308 40 34.9383567 38 6.95424627 38"></polygon>
                        <path d="M29.5759155,31.9961994 L32.4258455,31.9961994 L32.4258455,26.9603282 L29.5759155,26.9603282 L29.5759155,31.9961994 Z M27.8033402,22.4675789 L31.8368151,22.4675789 L31.8368151,20.2337648 L27.8033402,20.2337648 L27.8033402,22.4675789 Z M24.4596018,31.9961994 L27.3122738,31.9961994 L27.3122738,26.9603282 L24.4596018,26.9603282 L24.4596018,31.9961994 Z M19.9350605,19.6382453 L23.9682861,19.6382453 L23.9682861,17.580772 L19.9350605,17.580772 L19.9350605,19.6382453 Z M19.9350605,22.4678252 L23.9682861,22.4678252 L23.9682861,20.2340111 L19.9350605,20.2340111 L19.9350605,22.4678252 Z M19.3457809,31.9961994 L22.1957109,31.9961994 L22.1957109,26.9603282 L19.3457809,26.9603282 L19.3457809,31.9961994 Z M14.8045384,31.9961994 L17.6572104,31.9961994 L17.6572104,26.9603282 L14.8045384,26.9603282 L14.8045384,31.9961994 Z M13.0319631,22.4675789 L17.06818,22.4675789 L17.06818,20.2337648 L13.0319631,20.2337648 L13.0319631,22.4675789 Z M9.69071742,31.9961994 L12.5406475,31.9961994 L12.5406475,26.9603282 L9.69071742,26.9603282 L9.69071742,31.9961994 Z M5.16617616,19.6382453 L9.19665975,19.6382453 L9.19665975,17.580772 L5.16617616,17.580772 L5.16617616,19.6382453 Z M5.16617616,22.4678252 L9.19665975,22.4678252 L9.19665975,20.2340111 L5.16617616,20.2340111 L5.16617616,22.4678252 Z M4.57440376,31.9961994 L7.42707579,31.9961994 L7.42707579,26.9603282 L4.57440376,26.9603282 L4.57440376,31.9961994 Z M5.31399463,13.9652934 L7.4774288,13.9652934 L7.4774288,11.4226366 L5.31399463,11.4226366 L5.31399463,13.9652934 Z M10.1458886,11.4529298 L12.113644,11.4529298 L12.0857255,14.0618375 L10.1207121,14.0618375 L10.1458886,11.4529298 Z M13.0319631,19.6382453 L17.06818,19.6382453 L17.06818,17.580772 L13.0319631,17.580772 L13.0319631,19.6382453 Z M14.7541854,13.9652934 L16.9201123,13.9652934 L16.9201123,11.4226366 L14.7541854,11.4226366 L14.7541854,13.9652934 Z M20.082879,13.9652934 L22.2460639,13.9652934 L22.2460639,11.4226366 L20.082879,11.4226366 L20.082879,13.9652934 Z M24.8893472,14.0618375 L26.8571027,14.0618375 L26.8571027,11.5878946 L24.8893472,11.5878946 L24.8893472,14.0618375 Z M27.8033402,19.6382453 L31.8368151,19.6382453 L31.8368151,17.580772 L27.8033402,17.580772 L27.8033402,19.6382453 Z M29.5228205,13.9652934 L31.6860054,13.9652934 L31.6860054,11.4226366 L29.5228205,11.4226366 L29.5228205,13.9652934 Z M3,33 L34,33 L34,8 L3,8 L3,33 Z" id="Fill-2" fill="#000000"></path>
                        <g id="Group-5" transform="translate(2.000000, 0.000000)">
                            <mask id="mask-2" fill="white">
                                <use xlink:href="#path-1"></use>
                            </mask>
                            <g id="Clip-4"></g>
                            <path d="M26.7950427,5.56917586 C26.8232565,4.3016931 27.5905695,3.2879 28.5354779,3.2879 C29.4776153,3.2879 30.2421573,4.3016931 30.273142,5.56917586 L26.7950427,5.56917586 Z M14.7812794,5.56917586 C14.8122641,4.3016931 15.5768061,3.2879 16.5217145,3.2879 C17.4638519,3.2879 18.228142,4.3016931 18.2593786,5.56917586 L14.7812794,5.56917586 Z M2.76751603,5.56917586 C2.79850076,4.3016931 3.56279084,3.2879 4.50518015,3.2879 C5.45008855,3.2879 6.21714962,4.3016931 6.24561527,5.56917586 L2.76751603,5.56917586 Z M24.1180122,1.62021034 L24.1180122,0.479693103 L24.2845237,0.479693103 L24.2845237,0.255210345 L23.0547069,0.255210345 L23.0547069,0.479693103 L23.257745,0.479693103 L23.257745,1.62021034 L18.6430351,1.62021034 L18.6430351,0.479693103 L18.7387603,0.479693103 L18.7387603,0.160589655 L16.9869893,0.160589655 L16.9869893,0.479693103 L17.0859893,0.479693103 L17.0859893,1.62021034 L9.19319542,1.62021034 L9.19319542,0.479693103 L9.35970687,0.479693103 L9.35970687,0.255210345 L8.12711908,0.255210345 L8.12711908,0.479693103 L8.33015725,0.479693103 L8.33015725,1.62021034 L3.71519542,1.62021034 L3.71519542,0.479693103 L3.81117252,0.479693103 L3.81117252,0.160589655 L2.06494351,0.160589655 L2.06494351,0.479693103 L2.16092061,0.479693103 L2.16092061,1.62021034 L0.130035115,1.62021034 L0.130035115,6.85596897 L2.3075313,6.85596897 L2.3075313,6.88276207 L31.5538443,6.88276207 L31.5538443,6.85596897 L32.9501725,6.85596897 L32.9501725,1.62021034 L24.1180122,1.62021034 Z" id="Fill-3" fill="#000000" mask="url(#mask-2)"></path>
                        </g>
                    </g>
                    <path d="M44.5,32 L46.9933287,38.6488766 C47.1872488,39.1659969 46.9252433,39.7424091 46.408123,39.9363292 C46.2958459,39.9784331 46.1769115,40 46.0569995,40 L44.5036063,40 L44.5036063,40 L44.5036063,44.2892183 L44.5102425,44.2892183 L44.5102425,40 L42.9430005,40 C42.3907157,40 41.9430005,39.5522847 41.9430005,39 C41.9430005,38.880088 41.9645674,38.7611536 42.0066713,38.6488766 L44.5,32 L44.5,32 Z" id="Triangle" stroke="#000000" fill="#000000"></path>
                </g>
            </g>
        </g>
    </g>
</svg>